<?xml version="1.0" encoding="UTF-8"?>
<svg id="Ebene_1" data-name="Ebene 1" xmlns="http://www.w3.org/2000/svg" viewBox="0 0 147.05 54">
  <defs>
    <style>
      .cls-1 {
        fill: #fff;
      }
    </style>
  </defs>
  <path class="cls-1" d="M0,54L18.47,0h11.99l-8.2,23.98h12.02L42.48,0h11.99l-18.47,54h-11.99l8.21-24.01h-12.02l-8.21,24.01H0Z"/>
  <path class="cls-1" d="M78.45,0h12.02c3.28,0,5.7,1.18,7.25,3.53,1.55,2.36,1.76,5.17,.64,8.45l-10.27,30.02c-1.12,3.28-3.26,6.1-6.42,8.46-3.16,2.35-6.38,3.53-9.66,3.53h-12.02c-3.3,0-5.73-1.17-7.27-3.52-1.54-2.34-1.75-5.17-.62-8.47l10.27-30.02c1.13-3.3,3.27-6.13,6.41-8.47,3.15-2.34,6.37-3.52,9.67-3.52Zm-4.1,11.99l-10.27,30.02c-.56,1.64-.46,3.05,.32,4.22,.77,1.17,1.99,1.76,3.65,1.76s3.28-.59,4.86-1.76c1.57-1.17,2.64-2.58,3.2-4.22l10.27-30.02c.56-1.64,.46-3.05-.31-4.22-.77-1.17-1.99-1.76-3.65-1.76s-3.28,.59-4.86,1.76c-1.57,1.17-2.64,2.58-3.2,4.22Z"/>
  <path class="cls-1" d="M95.98,54L114.45,0h24.01c3.28,0,5.7,1.18,7.25,3.53,1.55,2.36,1.76,5.17,.64,8.45l-2.06,6.01c-1.13,3.3-3.27,6.13-6.41,8.47-3.15,2.34-6.37,3.52-9.68,3.52h-12.02l-8.21,24.01h-11.99Zm22.26-30.02h6.01c1.64,0,3.26-.59,4.84-1.77,1.59-1.18,2.66-2.59,3.22-4.23l2.05-6c.56-1.64,.45-3.04-.32-4.21-.77-1.17-1.99-1.75-3.65-1.75h-6.01l-6.15,17.97Z"/>
</svg>