<?xml version="1.0" encoding="utf-8"?>
<!-- Generator: Adobe Illustrator 26.5.3, SVG Export Plug-In . SVG Version: 6.00 Build 0)  -->
<svg version="1.1" id="Ebene_1" xmlns="http://www.w3.org/2000/svg" xmlns:xlink="http://www.w3.org/1999/xlink" x="0px" y="0px"
	 viewBox="0 0 1190.6 1190.6" width="1190.6" height="1190.6" style="enable-background:new 0 0 1190.6 1190.6;" xml:space="preserve">
<style type="text/css">
	.st0{fill:#FFFFFF;}
</style>
<path class="st0" d="M1153.8,429.8c-21.4-50.6-52.1-96.1-91.1-135.2c-39-39-84.5-69.7-135.2-91.1C875,181.3,819.4,170.1,762,170.1
	c-57.4,0-113.1,11.2-165.5,33.4c-50.7,21.4-96.2,52.1-135.2,91.1s-69.7,84.5-91.1,135.2c-22.2,52.4-33.4,108.1-33.4,165.5
	c0,57.4,11.2,113.1,33.4,165.5c21.4,50.6,52.1,96.1,91.1,135.2s84.5,69.7,135.2,91.1c52.4,22.2,108.1,33.4,165.5,33.4
	s113.1-11.2,165.5-33.4c50.6-21.4,96.1-52.1,135.2-91.1c39-39,69.7-84.5,91.1-135.2c22.2-52.4,33.4-108.1,33.4-165.5
	C1187.2,537.9,1175.9,482.2,1153.8,429.8L1153.8,429.8z M762,1018.3c-233.6,0-423-189.4-423-423s189.4-423,423-423
	s423,189.4,423,423S995.6,1018.3,762,1018.3L762,1018.3z"/>
<path class="st0" d="M725.7,672.9c0.5,0.4,1,0.6,1.2,1c3.4,5.6,5.5,11.8,7.4,18c0.7,2.2,1.3,4.6,2.7,6.5c2.6,3.5,5.8,6.6,8.7,9.9
	c3.9,4.2,8.2,8.2,11.6,12.8c4.2,5.6,10.4,8.9,14.7,15c0.2-1.1,0.4-1.4,0.3-1.7c-1.5-5-2.9-10.1-4.4-15.1c-1.2-3.9-2.5-7.8-3.8-11.8
	c-2.3-7.5-4.5-15.1-6.9-22.6c-0.3-0.9-0.9-1.9-1.6-2.5c-1.9-1.7-3.9-3.3-6-5c1.9-1,1.9-1.1,2.7-0.7c1.8,1.1,3.6,2.3,5.4,3.4
	c2.4,1.4,4,4.7,7.9,3.6c0.5-2.7,1.5-5.4,1.6-8.2c0.2-6.1-0.1-12.2,0-18.4c0-3-0.6-5.9-0.6-8.8c0-3-1.1-4.9-3-6.8
	c-2.5-2.5-5-4.9-7.5-7.4c-3.5-3.6-6.9-7.2-10.4-10.8c-2.1-2.1-4.2-4.3-6.3-6.4c-2.7-2.6-5.4-5.2-8-7.9c-0.5-0.5-3.8-3.4-4.5-4
	c-2.2-2.1-4.2-4.3-6.3-6.4c-2.1-2.1-4-4.8-6.6-6c-4.5-2-7.8-5.1-11.4-8.2c-0.6-0.5-1.2-1-2.2-1.8c-0.6,6.2-1.7,11.8-0.6,17.5
	c0.6,3.2,0.6,6.3,0.2,9.6c-0.4,3.8-2.2,7.9,0.3,11.7c0.1,0.2,0,0.5-0.1,0.7c-0.8,5.6-0.2,11.2,0.1,16.8c0.4,6.3,1,12.5,1.2,18.7
	c0.1,3.1,1,5.8,3.1,7.9c3.9,3.9,8,7.6,12,11.4c3.4,3.1,6.8,6.2,8.5,10.8c1.3-1.1,1.2-2.1,0.9-3.5c-0.6-3.5-1-7.1-1.4-10.6
	C724.9,673.6,725.2,673.4,725.7,672.9L725.7,672.9z M728.1,647.8c-0.1-4.1-0.1-8.3-0.1-12.4c0-1,0.2-2,0.2-3c0-1.9,0-3.9,0-6.2
	c0.7-0.8,1.7-1,2.9,0c2.5,2.3,5.1,4.4,7.5,6.8c0.6,0.6,0.6,2.1,0.6,3.1c-0.2,5.1-0.6,10.3-0.6,15.4c0,3,0.6,6,1,9
	c0.2,1.4-0.5,3-2,4.8c-4-3.7-7.7-7.2-11.7-10.9C728.8,652.8,728.2,650.2,728.1,647.8L728.1,647.8z"/>
<polygon class="st0" points="829.9,463.2 829.9,463.2 829.9,463.2 830,463.2 "/>
<path class="st0" d="M866.7,342.6L866.7,342.6L866.7,342.6z"/>
<path class="st0" d="M866.7,342.6L866.7,342.6L866.7,342.6L866.7,342.6L866.7,342.6L866.7,342.6L866.7,342.6L866.7,342.6z"/>
<path class="st0" d="M830,463.2L830,463.2L830,463.2z"/>
<path class="st0" d="M1073.8,488.1c-0.7-2.4-1.1-5.1-2.4-7c-2.1-3-1.6-7.2-4.8-9.6c-0.2-0.1-0.1-0.7-0.1-1.1c0.1-3.8-1.3-7.1-3.6-10
	c-0.6-0.7-0.7-1.8-1.2-2.7c-2.2-4.2-4.5-8.2-6.5-12.5c-1.2-2.7-3.6-4.4-5.1-6.7c-3.9-5.8-7.6-11.7-11.5-17.5
	c-4.3-6.5-8.7-12.9-13.1-19.3c-1.9-2.8-3.8-5.6-6-8.2c-0.8-1-2.2-1.5-3.4-1.9c-0.2-0.1-0.9,1.5-1.4,2.3c-1,1.9-2.4,3.1-4.7,3.1
	c-2.4,0-3.8-1.4-4.4-3.4c-0.9-2.9-1.5-5.8-2.1-8.8c-1.1-5.2-2.6-6.7-8.2-7.9c-2.8,4.2-1.9,8.7-0.3,12.8c2.5,6.4,3.7,12.7,2.6,19.4
	c-0.7,4.1-2.9,7.7-6.6,9.2c-6.3,2.5-12.7,1.6-16.6-5.2c-2.4-4.2-3.1-9-2.8-13.8c0.2-3.5,1-7,1.1-10.5c0.2-7.4,0.1-14.9-2.5-22
	c-1.1-3-2.6-6.1-4.7-8.5c-2.5-2.9-6.2-3.4-10-2.4c-3,0.8-6,3.5-6.2,6.6c-0.3,4.8-0.7,9.7-0.6,14.5c0.2,8.7,2.1,17.1,4.1,25.7
	c1,0,1.8,0,2.7,0c3.4,0,4.9,2.6,3.1,5.5c-0.8,1.2-2.1,2-3.4,3.2c0.4,2.6,0.8,5.4,1.3,8.2c1.5,7.1,3.4,14.2,3.2,21.5
	c-0.2,5.1-0.5,10.3-0.8,15.4c-0.4,7.4-2.2,14.3-6.7,20.4c-2.1,2.8-4.7,4.6-8,5.1c-8.4,1.2-15.4-2-20.7-8.2c-6-7-8.5-15.8-9-24.7
	c-1-17,0.2-33.9,3.4-50.6c1.5-7.9,2.5-15.9,3-23.8c0.4-6.5-0.1-13.1-0.7-19.6c-0.4-5.5-2-10.9-5.2-15.6c-2.1-3.1-5.3-3.7-8.5-1.9
	c-2.2,1.2-3.8,2.9-4.6,5.2c-1.5,4.5-2.6,8.9-2.2,13.9c0.5,6.4,1.1,12.7,2,19.1c0.9,6.4,0.5,12.8,0.2,19.2
	c-0.4,7.5-6.3,10.7-12.6,11.8c-5,0.8-10.6,0-14.3-4.7c-0.8-1.1-1.5-2.3-2.2-3.4c-4.6-6.8-6.5-14.2-5.9-22.4c0.5-6,0.5-12,0.8-18.1
	c0.1-2.4,0.4-4.7,0.7-7c0.7-4.7,2-9.3,1.1-14.1c-0.1-0.6,0.1-1.2,0.1-1.8c0.8-6.3-1.3-11.9-3.8-17.4c-1.5-3.3-2.9-3.6-6.4-2.5
	c-1.9,0.6-2.8,2-3.6,3.6c-2,4.3-2.5,8.9-2.5,13.5c0,7,1,14-1,20.9c-1.3,4.6-2.3,6-6.8,6.8c-2.3,0.4-3.7-0.1-4.5-2.3
	c-1.2-3.5-2.6-7.1-3.1-10.8c-1-6.9-1.4-14-2.2-21c-0.3-2.8-0.2-5.8-2.1-8.2c-2.5,0.2-2.8,2-3.1,3.8c-1.1,7.7-1.5,15.5-1,23.2
	c0.3,4.6,0.8,9.2,1.1,13.9c0.2,2.6,0.2,5.3,0.6,7.9c1.1,6,1.6,12.1,1.7,18.2c0,6.5,0.9,13,1.7,19.5c1,8.1,2.1,16.2,1.7,24.4
	c-0.3,5.3-1.4,10.3-5,14.3c-5,5.5-11.7,6.1-18.4,4.7c-3.5-0.7-7.1-2-10.2-3.8c-3.1-1.9-6.3-4-8.1-7.6c-3-6-5.3-12.2-6.4-18.8
	c-0.8-4.6-1.2-9.2-2.3-13.7c-2.3-9-1.8-18.2-1.7-27.3c0-8.2,0.9-16.5,1.1-24.7c0.3-7.9,0.3-15.8,0.3-23.7c0-3.9-0.1-7.7-0.3-11.6
	c-0.1-4.2-2-7.8-4.5-11c-2.5-3.3-7.4-3.1-9.4,0.6c-3.2,5.8-4.6,12.2-5,18.7c-0.2,3.5,0.5,7,0.7,10.5c0.3,4.1,0.1,8.4,1,12.4
	c1.9,8.8,1.3,17.3-2.4,25.4c-3.7,8.2-8.9,10.4-17.4,7.8c-5.6-1.7-8.6-6.3-9.9-11.5c-1.4-5.3-1.8-10.9-2.5-16.3
	c-0.2-1.4-0.3-2.8-0.3-4.1c0.2-10.7,0.6-21.4,0.5-32c-0.1-7.1-0.5-14.4-1.8-21.3c-1.3-6.8-4.5-12.8-12.3-14.7
	c-2.2-0.5-3.7-0.3-4.8,1.5c-0.7,1.2-1.2,2.5-1.6,3.8c-1.5,5.2-0.8,10.4-0.3,15.7c0.7,7.2,0.2,14.4-2.5,21.1
	c-0.9,2.2-2.8,4.2-4.7,5.7c-2.8,2.3-6.9,1.9-9.7-0.4c-4.2-3.5-6.2-8.2-6.7-13.4c-0.4-4-0.3-8-0.3-12.1c0.2-8.4-2.3-15.7-8.6-21.5
	c-4.5-4.1-13.1-4.5-17.7-0.4c-0.6,0.6-1.1,1.3-1.5,2.1c-3,5.5-5.7,11.1-8.9,16.5c-3.1,5.3-9.7,5.8-13.9,1.3c-0.6-0.6-1.1-1.3-1.7-2
	c-3.2-3.4-7.1-4.4-11.3-2.4c-3.3,1.6-6.6,3.3-9.4,5.6c-4.9,4-9.8,8.1-14.1,12.8c-2.8,3.1-6,5.3-9.5,7.2c-5.6,3.2-11.7,3.8-17.7,1.4
	c-3.4-1.3-6.8-1.7-10.2-2.2c-1.9-0.2-3.7,0.2-5.3,1.4c-2.5,1.9-5.2,3.5-7.7,5.4c-5,3.8-10.2,7.2-14.3,12.1c-2.1,2.5-4.6,4.6-7.2,6.6
	c-3,2.3-3.2,2.5-1.9,6.7c1.1-0.3,2.3-0.6,3.8-0.9c-1.2,1.6-2.7,2.8-2.9,4.2c-0.2,1.5,0.8,3.1,1.3,4.8c-3.5,0.5-3.3-2.3-4-4.1
	c-0.2,0-4.4,0.1-4.8,0.1c1.3-0.8,2.4-1.4,3.7-2.2c-2.4-1.4-3.9-0.8-5.3,0.7c-3,3.1-6,6.1-9,9.1c-5.9,6.1-12,12.1-17.8,18.3
	c-4.2,4.6-7.9,9.7-12.1,14.3c-5.1,5.6-9.3,11.8-13.4,18.1c-7.3,10.9-13.7,22.5-19.6,34.2c-3.8,7.5-7.2,15.1-10.4,22.8
	c-4.4,10.7-7.7,21.7-11,32.8c-2.7,9.2-5.1,18.6-6.8,28c-1.5,8.4-2.8,16.8-3.9,25.2c-0.8,6.5-1.5,13-1.8,19.5
	c-0.2,3.7,0.5,7.5,0.6,11.2c0,4.5-0.2,9-0.3,13.5c0,2.5,0.3,5,0.4,7.4c0,1.1-0.7,2.2-0.6,3.3c0.6,6.2,1.3,12.3,2.1,18.5
	c0.7,5.2,1.4,10.4,2.3,15.6c1.5,8.4,3.2,16.7,4.8,25.1c1,5.3,2.7,10.4,3,15.8c0.2,3,1.1,6.2,2.6,8.7c2.1,3.5,3.4,7.3,3.9,11.2
	c0.9,6.7,3.8,12.7,6.6,18.6c2,4.2,4.2,8.5,5.8,12.8c2.6,6.8,6.9,12.7,10.3,19.1c0.1,0.2,0.6,0.3,1.2,0.5c-0.2-1-0.3-1.8-0.5-3
	c3,0,5.8-0.1,8.5,0c4.1,0.2,8.3,0.7,12.4,0.9c2.8,0.1,5.5-0.1,8.3-0.1c2.5,0,3.9,1.1,3.5,3.3c-0.7,3.4,0.6,6.4,1.1,9.5
	c0.9,5.3,2,10.5,3,16.1c3.1,1.3,6.8,0.5,10.3,1c0.9-13.3-1.2-26.5,0.7-40c6.4,0,12.5,3.7,18.9,0.8v-2.9c-1,0.6-1.9,1.1-3.1,1.8v-2.4
	c-0.9-0.5-1.6-0.9-2.4-1.3c0-0.3,0.1-0.5,0.1-0.8c1.4-0.2,2.9-0.3,4.6-0.5c-0.8-1.3-1.5-2.3-2.4-3.7h2.9c0.4-1,0.8-2,1.3-3.1
	c3,1.3-0.4,3.8,1.4,5.4c1.2-1.1,2.3-2.2,3.5-3.4c0.2,0.1,0.3,0.3,0.5,0.4c-0.9,1.4-1.8,2.9-2.7,4.4c0.3,1,0.7,2.2,1.3,3.7
	c-2-0.3-3.4,0-2.7,2.3c7.4,1.4,14.7,0.3,22.1,0.3c3.6,0,5.2,0.9,6,4.5c0.2,0.9,0.5,1.8,0.6,2c-0.6,1.5-1.3,2.5-1.2,3.4
	c0.3,3.5,0.8,7,1.3,10.4c0.2,1.5,1.1,2.1,2.6,2.2c3.1,0.1,6.2,0.3,9.1-0.8c0.1-0.4,0.2-0.6,0.2-0.9c-0.2-11.4-0.5-22.8-0.4-34.3
	c0-7.3,0.6-14.5,0.9-21.8c0.1-2.9,0.1-5.8,0.2-8.7c0-1.4,0.7-2.4,2-2c4.1,1.4,8.2,0.7,12.3,0.1c3.7-0.6,3.7-0.4,3.8-3.9
	c0.1-3,0-6,0-9.2c2.6-0.3,4.8-0.5,7-0.8c2.3-0.3,2.6-0.2,2.7,2.2c0.2,2.6,0.2,5.3,0.3,7.9c0.1,1.8,0.9,2.9,3,3.2
	c5.5,0.8,10.9,1.8,16.3,2.6c3.8,0.5,3.9,0.4,3.8,4.3c0,2.1-0.2,4.2,1,6c0.4,0.1,0.6,0.2,0.9,0.2c0.4,0,0.8,0.1,1.1,0
	c3-0.4,5.2,2.8,4.7,5.5c-0.3,1.6-1.1,3.4-2.1,4.7c-1.2,1.5-3,2.6-4.8,4.1c0.5,13,1.2,26.2,3,39.7c3.3,0.2,6.4,0.3,9.7,0.5
	c0.1-1.7,0.3-2.9,0.3-4.1c-0.3-5.9-0.8-11.8-0.8-17.7c-0.1-11.8,0.1-23.6,0.3-35.4c0.1-9,0.5-18.1,0.6-27.1c0-3.3,1.6-4.9,5-4.9
	c4.3,0,8.5-0.1,12.8-0.2c1.8,0,3.5-0.2,5.2-0.1c10.2,0.4,20.3,0.8,30.5,1.3c4,0.2,8,0.3,12.1,0.6c1.5,0.1,2.9,0.3,3.2,2.4
	c0.2,1,1.5,1.8,2.7,3.1c0,4.4-0.3,9.4,0.1,14.4c0.5,7.4,1.4,14.7,2.1,22.1c1.1,12.9,2.2,25.9,3.3,38.9c0.8,9.1,0,18.2,0.1,27.4
	c0,3.4-0.1,6.7,0,10.1c0,1.5,1.2,1.7,2.4,1.6c2.3-0.2,4.5-0.4,6.7-0.4c2.4,0,4.8,0.4,7.1,0.4c2.4,0,2.7-0.4,2.9-2.9
	c0.1-2.8,0.1-5.5,0.3-8.3c0.2-3.5,0.4-7,0.9-10.4c0.4-2.9,1.8-5.6,0.6-8.6c9.1-2.7,18.5-1.7,27.6-3.4c0-3.3-1.4-5.9-0.1-8.7h9.1
	c0.3,3.2,0.6,6.2,0.9,9.5c4.9,0.9,9.7,1.8,14.9,2.7c0.3,3.3,0.7,6.7,1,10.2c0.2,3,0.1,6,0.4,9c1,10.2,2.1,20.4,3.3,30.7
	c1.2,10.7,2.6,21.4,3.9,32.3c5.1,0.4,9.9,0.8,15.1,1.2c0.4-4.3,0.8-8.1,1.1-11.9c-4.1,0.2-6.8-1.9-6.5-4.8c0.3-3.9,2.2-5.4,6.3-4.9
	c2-1.7,0.1-3.7,0.2-5.9c1.1-0.2,2.2-0.5,3.2-0.6c3.6-0.2,7.3-0.4,10.9-0.6c5.3-0.3,10.5-0.7,15.8-1.1c2.5-0.2,5-0.2,7.5-0.7
	c5.7-1.3,10.8-0.3,15.4,2.9c1.8,21.5,3.5,42.8,5.3,64c3.7,0.6,3.9,0.5,8-1.2c0.4-11.8-1.6-23.7-1.1-35.5c2.4,0,4.5,0.1,6.5,0
	c4.9-0.3,5.3-0.7,5.2-5.6c-0.1-2.2-0.4-4.4-0.7-6.6c0.5-0.3,0.8-0.6,1.1-0.6c6.3-1.4,12.6-1.8,19-1.8c5,0,10,0.4,15,0.3
	c6.4-0.1,12.8-0.4,19.2-0.6c2.3-0.1,3.6,0.8,3.8,2.7c0.3,2.2,0.4,4.4,0.6,6.5c0.1,2.1,0.2,4.2,0.2,6.3h9.1
	c3.9-11.2,2.2-22.9,3.9-34.4c7.2-1,14.3-2.1,21.5-3.1c5.8-0.8,11.7-0.5,17.4,0.7c0.8,0.2,1.8,1,2,1.8c0.4,1.1,0.3,2.5,0.2,3.7
	c-0.1,2.1-0.4,4.1-0.6,6.4c0.7-0.3,1.1-0.4,1.3-0.6c3.8-4.4,7.7-8.8,11.5-13.2c1.8-2.1,3.4-4.3,5.1-6.5c2-2.6,4-5.2,5.9-7.7
	c1.2-1.6,2.1-3.6,3.6-4.7c2.4-1.8,3.8-4.2,5.3-6.8c0.4-0.7,1-1.4,1.5-2.1c3.6-4.5,7.5-8.8,10.8-13.4c4-5.6,7.5-11.4,11.3-17.2
	c0.5-0.7,0.9-1.5,1.2-2.3c1.9-4.6,3.7-9.3,5.8-13.9c3.2-7.3,6.3-14.7,8.8-22.3c2.4-7.5,5.6-14.6,7.5-22.3c1-3.9,2.6-7.6,3.4-11.5
	c1.8-8.3,3.3-16.7,5-25c1.8-8.9,1.9-17.9,2.4-26.9c0.3-5.3,0-10.7-0.1-16.1c0-1.7-0.3-3.5-0.3-5.2c-0.1-4.7,0-9.5-0.2-14.2
	c0-1-1.2-1.9-1.7-2.6c0-2,0-3.8,0-5.7c0-1.5-0.3-3-0.3-4.5c0.4-13.2,1-26.3,0.6-39.5c0-1.3,0.6-2.6,0.8-3.9c0.4-2.1,1.4-4.3-0.7-6.5
	c-2.2,3.2-4.3,6.1-6.3,9.1c-2.1,3.1-3.9,6.5-6.4,9.2c-1.4,1.6-1.9,2.9-2,4.9c0,5.5-0.1,11.1-0.4,16.6c-0.6,11.9-2.1,23.7-1.6,35.7
	c0.1,2.1-0.5,3.9-2.1,5.4c-2,1.9-3.9,3.9-5.7,5.9c-5.2,5.8-10.4,11.8-15.6,17.6c-0.7,0.8-1.6,1.3-2.4,1.9c-3.4-3.5-5.5-7.5-8.9-10.3
	c-0.2,0.9-0.2,1.7-0.1,2.4c0.9,4.5,1.9,9,2.8,13.5c0.3,1.7,0.3,3-1.6,4.1c-4,2.4-7.9,5.1-11.7,8c-3.6,2.8-7,5.9-10.8,9.1
	c-0.8,7.6-1.6,15.6-2.4,23.6c-0.8,7.5-1.6,15-2.4,22.5c-1.1,10.8-2.3,21.7-3.4,32.6c-0.5,5.4-0.7,10.8-1.2,16.2
	c-0.3,3.3-1.3,6.6,1.3,9.5c-2.1,1.9-3.9,3.7-5.9,5.3c-4.8,3.9-8.9,8.7-15.1,10.7c-0.7,0.2-1.4,0.7-1.8,1.3c-2.9,4-7.9,5.1-11.7,7.9
	c-3.2,2.4-7.1,3.7-10.6,5.7c-4.2,2.3-8.2,4.8-12.4,6.9c-4.4,2.3-9,4.3-13.5,6.4c-3.7,1.8-7.3,3.8-11.1,5.3
	c-4.1,1.6-8.4,2.1-12.7,2.7c-6.1,0.7-12,0.4-18,0.3c-2.1,0-4.2-0.5-6.3-1.1c-4.5-1.2-8.9-2.4-13.3-3.8c-4.2-1.3-8.2-2.9-12.4-4.2
	c-7-2.2-13.1-6.2-19.5-9.6c-3-1.6-5.7-3.7-8.4-5.5c-1.4-1-2.9-2-4.2-3.1c-2.8-2.3-5.5-4.7-8.3-7c-3.9-3.3-7.9-6.6-11.7-10
	c-2.9-2.7-5.6-5.6-8.5-8.4c-5.6-5.5-11.3-10.9-17-16.3c-1.6-1.5-3.5-2.7-5.1-4.4c-2.5-2.6-4.7-5.5-7-8.2c-3.5-4.1-7.1-8.1-10.7-12
	c-8.1-8.8-16.3-17.5-24.4-26.3c-4.1-4.4-7.9-9-12.2-13.1c-7.4-7.2-14.3-15-22.6-21.4c-5.4-4.1-9.7-9.4-15.6-12.9
	c-5.7-3.4-10.9-7.5-16.6-10.7c-4.4-2.5-9.1-4.5-13.3-7.5c-3-2.2-6.9-3.4-10.6-4.4c-6.8-1.8-13.6-3.3-20.5-4.4c-4-0.6-8.3-0.4-12.4,0
	c-3.2,0.3-6.3,1.5-9.5,2.3c-2.4,0.6-4.9,1.9-7.2,1.8c-3-0.1-5.5,1.3-8.2,1.6c0,1.3,0.2,2.5,0,3.5c-1.5,6.2-3.9,12.3-4.4,18.6
	c-0.4,5.1-2.7,8.5-5.3,12.2c-4.1,6-8,12-13.3,17c-3.9,3.7-8.1,7.2-11.6,11.2c-4.2,4.7-9.2,8.4-13.9,12.4
	c-5.2,4.4-10.9,8.4-16.4,12.4c-7.6,5.6-15.4,11-23.9,15.4c-9.1,4.8-18.3,9.4-28.6,11.2c-4.4,0.8-8.1,0.2-11.2-3.3
	c-0.6-0.7-1.7-1-2.5-1.5s-1.7-0.9-2.3-1.7c-2.7-3.3-3.5-7.1-2.9-11.3c0.6-4.3,1-8.7,1.4-13c0.7-7.2,1.4-14.5,2.1-21.7
	c0.8-8,1.6-16,2.5-24c0.7-6.4,1.5-12.7,2.1-19.1c0.5-4.8,0.8-9.7,1.2-14.4c-4.9-2.8-5.5-4.4-4.2-9.8c1.3,0,2.6-0.1,3.5,1.6
	c-1,0.4-1.7,0.7-2.4,1c0.3,3.6,0.4,3.7,3.4,4.4c1.3-11.7,2.6-23.5,3.8-35.2c0.6-5.4,1.1-10.7,1.6-16.1c0.8-7.7,1.5-15.5,2.3-23.2
	c0.9-8.7,1.8-17.4,3-26.1c0.4-3.2-0.9-7.1,2.7-9.5c0.6-0.4-0.4-1.7-1.6-1.7c3.1-30,6.2-60.1,9.3-89.8c-0.9-0.6-1.4-1-1.7-1.2
	c4.2-4.3,8.1-8.5,12.2-12.5c5.4-5.1,10.8-10.1,16.5-14.9c5.6-4.8,11.5-9.3,17.2-14c0.5-0.4,0.9-0.9,1.3-1.3
	c3.9-3.7,7.7-7.6,11.8-11.1c4.6-3.9,9.5-7.4,14.2-11.1c8.1-6.3,16.9-11.8,25.6-17.1c3.7-2.2,7.7-3.6,11.4-5.7
	c2.7-1.6,5.5-2.9,8.5-3.8c11.4-3.5,22.8-6.9,35-5.5c1.9,0.2,3.8,0.2,5.6,0.4c7.9,0.8,15.8,1.3,23.3,4c6.7,2.4,13.2,5.5,19.8,8.1
	c9.8,3.9,18.1,10.2,26.5,16.1c5.8,4.1,11.3,8.6,16.8,13.1c3.3,2.7,6.5,5.5,9.7,8.3c5,4.4,10.1,8.6,14.5,13.6c0.8,0.9,1.5,2,2.4,2.9
	c4,4.1,8.1,8.1,12.2,12.2c6.5,6.6,13,13.2,19.6,19.8c6,5.9,12,11.9,18.3,17.6c9.2,8.3,18.7,16.4,28.1,24.5c4.1,3.5,8,7.3,12.3,10.4
	c8.9,6.5,17.6,13.2,27.2,18.6c3.3,1.9,6.9,3.4,10.4,5c2.4,1.1,4.8,2.2,7.3,3c3.5,1.2,7.1,2.3,10.8,3.1c2.9,0.7,5.9,0.9,8.9,1.3
	c1,0.1,2,0.3,3,0.4c6.5,0.5,12.7-1.4,18.7-3.3c7.9-2.5,15.4-6,22.9-9.4c5.6-2.5,10.9-5.5,16.3-8.1c0.2-1.7,0.5-3.1,0.7-4.6
	c0.6-6.3,2.6-12.5,1.7-18.9c-0.1-0.8,0.3-1.7,0.7-2.5c2.1-4.1,4.2-8.3,6.4-12.3c3-5.3,7.6-8.9,12.6-12.1c1.9-1.2,3.8-2.4,5.6-3.7
	c3.4-2.6,6.8-4.9,10.7-6.7c3.9-1.8,7.6-4,11.9-6.3c-2.5-1.5-4.5-2.7-6.4-3.8c-2.9,1.2-3.3,5.6-7.6,4.7c1.4-2.3,2.7-4.4,3.9-6.2
	c-1.5-1.7-2.7-3.2-3.8-4.4c0.8-3.4,3.5-2.4,5.1-2.9c1.2-2.1,2.2-4,3.5-6.3c0.7,1.2,1,1.7,1.3,2.2c1.3,3.1,1.5,3.2,4.8,2.6
	c0.9-0.2,1.8-0.3,2.7-0.4c0.7,2.9-1.6,3.9-2.8,5.3c-1.5,1.8-1.7,3.4-0.7,5.5c0.5,1.1,0.7,2.3,1.1,3.5c4.3-1.3,8.8-2.7,12.9-3.9
	c1,1.1,1.5,2,2.3,2.4c3.7,1.8,4.8,3.5,4,7.3c-2.1,10.2-3.2,20.6-4.1,30.9s-2,20.5-3,30.8c-1,10.1-1.9,20.2-2.9,30.3
	c-0.5,5.1-1.4,10.1-1.9,15.2c-0.3,3.6-1.5,7.3,1.2,10.7c2.3,3,4.2,6.2,6.3,9.3c0.3-0.1,0.6-0.2,0.8-0.3c-1-9.6-1.4-19.4-3.8-29.2
	c2-1.8,4.2-3.7,6.3-5.8c3.4-3.5,6.7-7.1,10.1-10.6c2.6-2.5,5.7-4.4,7.9-7.4c0.7-1,1.8-1.8,2.6-2.7c1.4-1.4,2.8-2.8,4.1-4.4
	c1.1-1.4,3-2.6,2-5c0-0.1,0.3-0.4,0.5-0.6c2.2-2.7,4.5-5.3,6.8-8C1073.3,491,1074.3,489.8,1073.8,488.1L1073.8,488.1z M1039.8,747.9
	c-1.7,1.5-4.4,1.8-6,0.7c-0.4-0.2-0.7-0.6-1-0.9c-0.4-0.6-0.8-1.3-1.1-2c-0.2-0.5-0.4-1-0.6-1.4c-0.1-0.3-0.2-0.7-0.3-1
	c-0.2-0.8-0.2-1.5-0.1-2.1s0.3-1.1,0.6-1.5c0,0,0-0.1,0.1-0.1c0.1-0.1,0.1-0.2,0.2-0.3s0.2-0.2,0.3-0.3l0,0c0.4-0.4,0.8-0.7,1.3-1
	c1.9-1.1,3.8-2.9,6.7-0.6c0.1,0.1,0.2,0.2,0.4,0.3c-0.6,0.1-1.1,0.2-1.6,0.2c-1.1,0.2-1.9,0.3-2.8,0.5c-0.8,0.2-1.4,0.5-1.9,0.9
	c-0.9,0.8-1.3,1.9-1.4,3.5c0,1,0,1.8,0.3,2.5c0,0.1,0.1,0.1,0.1,0.2c0.1,0.1,0.1,0.3,0.2,0.4c0.1,0.1,0.2,0.2,0.2,0.4
	c0,0.1,0.1,0.1,0.1,0.2c0.1,0.1,0.2,0.2,0.2,0.2c0.1,0.1,0.1,0.2,0.2,0.2l0.1,0.1c0.3,0.2,0.7,0.5,1.1,0.6c0.3,0.1,0.6,0.2,0.9,0.3
	c0,0,0,0,0.1,0s0.3,0.1,0.4,0.1c0,0,0,0,0.1,0c0.7,0.1,1.4-0.1,2-0.8c0.2-0.2,0.4-0.5,0.4-0.7c0.4-1-0.3-1.8-1.1-2.7
	c-0.4,0.1-0.8,0.2-1.2,0.4c-0.6,0.2-1.2,0.4-1.8,0.5l0,0l0,0c0-0.3,0-0.5,0-0.7c-0.1-1.5,0.2-1.7,2.8-2.7c0.4,0.3,1,0.7,1.5,1.1
	c0.1,0.1,0.1,0.1,0.2,0.2c1.5,1.6,1.9,3,1.3,4.3C1040.6,747.1,1040.2,747.5,1039.8,747.9L1039.8,747.9z M1065.4,697
	c-0.6,0.1-1.3,0.1-2,0c-1-0.1-1.7-0.6-2.2-1.1c-0.5-0.6-0.8-1.3-1-2.1c-0.5-2.4,1.2-5.9,3.4-7.1c0.3-0.2,0.6-0.3,0.8-0.4
	c1.2-0.6,2.6-0.8,3.7,0.2c0.1,0.1,0.3,0.3,0.4,0.4c0.8,0.9,1.3,2,1.7,2.6l0.1,0.1c0,0.3,0,0.7,0,1
	C1069.9,694.2,1067.9,696.5,1065.4,697L1065.4,697z M1073.5,624.8c0.2-0.2,0.4-0.4,0.5-0.6c0.7-1,0.1-1.9-0.4-2.9
	c-0.1-0.3-0.3-0.6-0.4-0.8c0.8-0.8,1.6-1.5,2.6-2.4c0.1-0.1,0.3-0.2,0.4-0.4c0,0.2-0.1,0.4-0.1,0.6c-0.1,0.4-0.2,0.8-0.2,1.1
	c-0.1,0.7-0.2,1.3-0.1,1.9l0,0c0.3,1,1.2,1.9,2.3,3.3c0.1,0.1,0.1,0.2,0.2,0.3c0.1-0.3,0.1-0.5,0.2-0.8c0.2-0.9,0.5-1.7,0.7-2.4
	c0.1-0.5,0.2-0.9,0.4-1.3c0.1-0.3,0.1-0.5,0.2-0.8l0,0l0,0h0.4c0.1,0,0.2,0,0.3,0l0,0l0,0c0,0.2,0,0.4,0.1,0.5
	c0.1,0.4,0.1,0.9,0.1,1.3c0,0.1,0,0.3-0.1,0.4c-0.2,0.7-0.4,1.4-0.6,2.1v0.1l0,0c-0.2,1.3,0,2.4,1.1,3.5c0.1,0.1,0.1,0.1,0.2,0.2
	c0.1,0.1,0.1,0.1,0.2,0.2c0.1,0.1,0.3,0.2,0.5,0.3l0,0l0,0c0.2,0.1,0.1,0.6,0.1,1.4c0,0.2,0,0.3,0,0.5c-0.1-0.1-0.2-0.2-0.3-0.2
	c-0.8-0.7-1.5-1.2-2.1-1.6c-0.2-0.1-0.3-0.3-0.5-0.4c-0.5,1.8,0.3,3.8,2.7,6.2c-1-0.2-1.5-0.3-2-0.5l0,0c-0.2-0.1-0.4-0.2-0.6-0.3
	c-0.3-0.2-0.5-0.4-0.8-0.5c-0.3,0.3-0.5,0.6-0.6,0.8c-0.1,0.1-0.2,0.2-0.2,0.3c-0.7-1.5-1.4-3.1-2.3-5c-0.7,1.2-1.1,1.7-1.4,2.2l0,0
	l0,0c-0.5-1.5-1-2.9-1.5-4.4c-0.2-0.7-0.5-1.4-0.7-2.2C1072.2,624.5,1072.9,624.6,1073.5,624.8L1073.5,624.8z M1047.6,660.2
	c1.3-1.6,2.5-3.3,3.8-4.9c0.3-0.4,0.5-0.8,0.7-1.2c0.2-0.4,0.4-0.7,0.6-1.1c-1.8-1.7-3.6-3.4-5.6-5.2c-0.6-0.6-1.2-1.1-1.9-1.8l0,0
	l0,0c0.1,0,0.2,0,0.3-0.1c0.8-0.2,1.3-0.3,1.8-0.4c0.4-0.1,0.8-0.1,1.1-0.1l0,0l0,0c0.1,0,0.1,0,0.2,0c0.9,0.2,1.7,0.6,2.6,0.9
	c0.1,0,0.3,0.1,0.4,0.1c0.5,0.1,1,0.2,1.4,0.3c0.9,0.1,1.7,0,2.4-0.3c1.1-0.5,2-1.4,2.6-2.8c0,0,0,0,0-0.1c1.1-2.3,2.2-4.6,3.5-7.2
	l0,0l0,0c1.7,1.6,1.7,3.6,2.2,5.3c0.6,1.8,0.8,3.6,1.3,5.7c2.8-0.6,5.3-1.1,7.8-1.7l0,0l0,0c1,1.8,0.5,3.3-0.4,4.7
	c-0.9,1.4-1.7,2.8-2.6,4.2c-0.8,1.3-1.7,2.7-2.4,4c0,0.1,0,0.1-0.1,0.2c-0.3,0.6-0.3,1.3-0.2,1.9c0.2,1.2,0.5,2.4,0.7,3.6
	c0.1,0.5,0.2,1,0.3,1.5c0.1,0.4,0.2,0.7,0.2,1.1c0.4,2,1.6,4,0.7,6.4l0,0l0,0c-2.1-0.5-2.6-2.4-3.4-3.8c-0.2-0.3-0.4-0.6-0.6-0.8
	c-1.4-1.5-2.6-3.4-3.9-5.1c-0.3-0.4-0.6-0.8-0.9-1.2c-1-1.3-2-2.6-3.2-4.1c-4.8,3.2-9.4,6.6-14.7,8.3l0,0l0,0
	c-0.2-0.3-0.4-0.6-0.6-0.9C1043.7,664.1,1045.6,662.1,1047.6,660.2L1047.6,660.2z M1024,676.3c1.2-0.5,2.7,0,4.6,1.6v-5.3
	c0.3,0,0.5-0.1,0.8-0.1l0,0l0,0c0.6,1.1,1.1,2.3,1.8,3.6c1.1-1.3,2.1-2.5,3.3-3.8c0.4-0.4,0.7-0.8,1.1-1.3l0,0l0,0
	c0.3,2-0.9,3.2-1.9,4.4c-0.7,0.8-1.3,1.7-1.4,2.9h4.3l0,0l0,0c-0.4,0.3-0.7,0.5-1.1,0.7c-0.7,0.5-1.4,0.9-2,1.3
	c-0.6,0.4-1.3,0.8-1.9,1.3c0.2,0.5,0.4,0.9,0.6,1.4c0.3,0.6,0.5,1.3,0.8,2l0,0l0,0c-0.8,0.2-1.4,0.2-1.9,0c-0.8-0.2-1.3-0.8-1.6-1.6
	c-0.1-0.3-0.2-0.6-0.3-0.9c-0.3,0.1-0.6,0.3-0.8,0.5c-0.9,0.9-1.4,2.5-3.4,1.9c0.1-0.1,0.2-0.2,0.3-0.4c0.9-1.2,1.7-2.2,2.5-3.3
	c-1.1-1-2.8,0.6-3.7-0.7c-0.1-0.2-0.3-0.4-0.3-0.8c0.1,0,0.2-0.1,0.2-0.1c0.7-0.3,1.5-0.6,2.5-1c-0.2-0.2-0.3-0.3-0.5-0.4
	C1025.3,677.5,1024.7,676.9,1024,676.3L1024,676.3z M1020.7,730.6c0.3-0.5,0.4-1,0.6-1.3c0.2-0.4,0.3-0.7,0.5-0.8
	c1.3-1,2.4-2.1,3.3-3.4c1-1.4,1.8-3,2.5-4.6c0.1-0.2,0.1-0.4,0.1-0.6c0-0.2,0.1-0.4,0.1-0.5c0.6-1.3,1.9-2.8,1.6-3.9
	c-0.2-0.8-0.9-1.4-1.7-2.1c-0.4-0.4-0.9-0.7-1.3-1.1c-0.8-0.7-1.7-1.4-2.5-2.1l0,0c0-0.2,0.1-0.4,0.1-0.6c0-0.1,0-0.3,0.1-0.4l0,0
	c0.3,0,0.6,0,1,0c0.9,0,1.7-0.1,2.6-0.1c0.5,0,1,0,1.5,0.1c1.3,0.2,2.4,0.2,3.4-0.1c1.5-0.5,2.5-1.6,3.2-3.7v-0.1
	c0.7-1.9,2-3.7,3.4-5.9c0.2-0.3,0.3-0.5,0.5-0.8l0,0l0,0c1,2.7,1.7,4.6,2.5,6.8c1-0.3,1.9-0.5,2.8-0.7c0.1,0,0.3-0.1,0.5-0.1
	c1.1-0.3,2.1-0.9,3.2-1c0.8,0,1.8,0,2.5,0.2c0.4,0.1,0.7,0.2,1,0.4c0.7,0.6,0.7,1.3,0.4,2c-0.2,0.5-0.4,1-0.7,1.4
	c-1.6,3.1-3.3,6-4.8,9.2c-0.5,1.1-0.5,2.6-0.2,3.9c0.5,2.7,1.3,5.3,1.8,8c0.2,1.1,0.2,2.2-0.2,3.7c0,0.1-0.1,0.2-0.1,0.3l0,0l0,0
	c-4.3-3.8-8.6-7.5-12.9-11.3c-4,2.3-6.7,6.2-10.8,8.1C1023.6,730.1,1022.2,730.5,1020.7,730.6L1020.7,730.6L1020.7,730.6
	L1020.7,730.6z M1019.2,761.6c0.4-1.4,0.8-2.7,1.3-4.3l0,0l0,0c0.5,0.3,0.9,0.5,1.3,0.7c0.4,0.2,0.8,0.4,1.3,0.7
	c0-0.1,0-0.3,0.1-0.4c0.2-0.9,0.3-1.8,0.5-2.8c0-0.2,0.1-0.5,0.1-0.7c2.8,0.7,0.5,3,1.7,4c0.5,0,0.8-0.3,1.1-0.7
	c0.4-0.6,0.6-1.6,1.1-2.1c0.3-0.3,0.8-0.4,1.5-0.3l0,0l0,0c0.1,0.6,0,1.1-0.2,1.5c-0.6,1.6-2.7,2.4-3.1,4.2c1.3,0.3,2.6,0.6,4.2,0.9
	c0.4,0.1,0.8,0.2,1.2,0.3l0,0l0,0c-0.1,0-0.1,0-0.2,0.1c-1.5,0.7-2.5,1.1-3.9,1.8c0.7,1.1,1.3,2.2,2.1,3.6c0.2,0.3,0.4,0.6,0.6,1
	l0,0l0,0c-2.1-0.4-3.4-0.6-4.9-0.8l0,0l0,0c-0.2-0.7-0.3-1.5-0.5-2.2c-0.2-0.7-0.3-1.4-0.5-2c-2.5,0.3-2.6,4-6.1,3.9l0,0l0,0
	c0.8-0.9,1.5-1.8,2.2-2.5c0.6-0.7,1.2-1.4,1.8-2.1l0,0C1020.9,762.6,1020.1,762.1,1019.2,761.6L1019.2,761.6z M992.6,797.9
	c1.4-0.1,2.6-0.4,3.7-0.2l0,0l0,0l0,0c0.3,0,0.6,0.1,0.9,0.1c0.1,0,0.2,0,0.3,0c0.2,0,0.4,0,0.6,0c1.6-0.2,2.8-1.2,3.5-3
	c0.4-0.9,0.8-1.7,1.2-2.6c0.4-0.8,0.9-1.7,1.3-2.6c2.4,0.1,2,3,3.9,4.6h8.1l0,0l0,0c-0.5,1-0.7,1.7-1,2.2l0,0l0,0
	c-0.1,0.1-0.1,0.2-0.2,0.3l-0.1,0.1c-0.9,1-2,1.9-2.9,2.9c-1.2,1.2-1.8,2.4-1.4,4c0.1,0.3,0.2,0.7,0.4,1.1c0.6,1.2,0.7,2.7,1,4.1
	c-0.1,0.1-0.3,0.2-0.4,0.3c-0.1,0.1-0.3,0.2-0.4,0.3c-1-0.8-2.1-1.5-3-2.3c-0.5-0.5-1.1-1-1.6-1.5c-0.4-0.4-0.8-0.8-1.2-1.2
	c-3.4,1.8-5,5.7-8.8,6.6c-0.2,0-0.5-0.4-0.8-0.7l0,0l0,0c0.9-1.6,1.8-3.1,2.6-4.7c0.3-0.6,0.6-1.1,0.9-1.7
	C996.9,801.9,993,802.4,992.6,797.9L992.6,797.9L992.6,797.9L992.6,797.9z M872.4,832.4L872.4,832.4L872.4,832.4
	c0.5,0.4,0.9,0.8,1.3,1.1c0.1,0.1,0.1,0.1,0.2,0.2c0.5,0.4,0.9,0.7,1.2,1c0.3-1,0.7-1.9,1-2.9c0.1,0,0.3,0,0.5,0c0.1,0,0.2,0,0.3,0
	c0.3,1.1,0.6,2.2,1,3.5c0.1,0,0.2,0,0.3,0c0.9-0.1,1.9-0.3,3.5-0.5c-0.6,0.6-1,1.2-1.5,1.7c-0.8,0.9-1.4,1.6-2,2.4
	c0.5,1,1.1,2,1.7,3c0.2,0.3,0.4,0.7,0.6,1c-0.3,0-0.6,0-0.9-0.1c-0.1,0-0.2,0-0.4,0c-0.9,0-1.7-0.1-2.5-0.1
	c-0.1-0.3-0.1-0.6-0.2-0.9c-0.2-0.8-0.4-1.6-0.7-2.6c-1.2,0.5-2.3,0.9-3.3,1.4l0,0l0,0c-0.2-0.2-0.3-0.4-0.5-0.6
	c0.4-0.4,0.7-0.8,1.2-1.3c0.2-0.2,0.3-0.4,0.5-0.6c-0.1,0-0.3,0-0.4-0.1c-0.8-0.1-1.6-0.3-2.9-0.5c-0.1,0-0.1,0-0.2,0
	c0.2-0.1,0.4-0.2,0.6-0.3c0.5-0.3,0.9-0.6,1.3-0.8c0.4-0.2,0.7-0.4,1.1-0.7C872.9,835,872.8,834.2,872.4,832.4L872.4,832.4z
	 M817.3,808.8c1.1-0.4,2.3-0.4,3.5,0.1c0.5,0.2,0.9,0.6,1.1,1.1c0.3,0.6,0.5,1.2,0.4,1.9c0,0.3-0.1,0.6-0.2,0.8
	c-0.1,0.2-0.2,0.3-0.3,0.5c-0.4,0.7-0.9,1.3-1.5,1.9c-0.2,0.2-0.3,0.4-0.5,0.5l0,0l0,0c-0.2-0.9,0.4-1.8,0.6-2.6
	c0.3-0.8,0.3-1.6-0.7-2.4c-0.2,0-0.5,0-0.7,0c-0.9,0.1-1.5,0.2-2.1,0.4c-1.4,0.7-1.6,2.1-1,5.1l0,0l0,0c-0.2,0.1-0.5,0.1-0.7,0.2
	h-0.1c-0.1-0.3-0.2-0.6-0.3-0.9c-0.3-0.9-0.6-1.9-0.6-2.8C814.4,810.9,815.7,809.4,817.3,808.8L817.3,808.8z M798.5,779.9
	c0,0,0.1-0.1,0.2-0.1l0.1-0.1l0.1-0.1c0.1,0,0.1-0.1,0.2-0.1l0,0c0.4-0.3,0.9-0.4,1.4-0.4c1.7,0,3.7,1.7,4.7,3.6
	c0.5,0.9,0.8,1.8,0.7,2.6c0,1.5-0.4,2.6-1,3.4c-0.5,0.6-1.1,1.1-1.9,1.3c-0.6,0.1-1.2,0.2-1.9,0.2c-0.5,0-0.9-0.1-1.3-0.3
	c-0.9-0.4-1.6-1.1-2.1-2c-0.6-0.9-0.9-2.1-0.9-3.4c0-1.2,0.3-2.3,0.8-3.2c0-0.1,0.1-0.1,0.1-0.2l0,0c0.1-0.1,0.1-0.2,0.2-0.3l0,0
	c0.1-0.1,0.2-0.2,0.2-0.3s0.1-0.1,0.1-0.1C798.4,780,798.5,779.9,798.5,779.9L798.5,779.9z M795.5,810.1c-0.5-0.1-1-0.3-1.4-0.4l0,0
	l0,0c0-0.1,0-0.3,0-0.4c0-0.1,0-0.3,0-0.5c0.3,0,0.7-0.1,1-0.1c0.9-0.1,1.8-0.2,2.8-0.3c-0.4-0.8-0.8-1.5-1.1-2.3
	c-0.5-0.9-0.9-1.9-1.4-2.8l0,0c0.3-0.2,0.5-0.3,0.8-0.5c0.8,1,1.6,1.9,2.9,3.4c0.1-0.9,0.2-1.7,0.2-2.5c0.1-1.3,0.2-2.4,0.3-3.6
	c0.3,0,0.6-0.1,0.8-0.1l0,0l0,0c0,0,0,0,0,0.1c0.3,1.8,0.7,3.7,1,5.7c0,0.2,0.1,0.5,0.1,0.7c0.7-0.3,1.4-0.5,2.5-0.9
	c-0.2,0.5-0.4,0.9-0.6,1.4c-0.2,0.4-0.4,0.8-0.6,1.2c0.3,0.1,0.6,0.3,0.9,0.5c0.3,0.2,0.7,0.4,1.1,0.6c-0.1,0.1-0.3,0.2-0.4,0.3
	c-0.6,0.5-1.2,1-1.9,1.7l-0.1,0.1c0.2,0.8,0.5,1.8,0.9,2.9c0,0.1,0.1,0.2,0.1,0.3c-1-0.1-1.7,0.2-2.1,0.7c-0.4,0.6-0.4,1.4-0.2,2.5
	l0,0l0,0c-0.7-0.6-1-1.3-1.2-2c-0.3-1.3,0-2.7-0.7-3.8c-1.7,0.3-2.9,2.3-5.6,1.6l0,0l0,0c0.3-0.2,0.5-0.3,0.7-0.4
	c0.5-0.3,0.9-0.6,1.3-0.8c0.1-0.1,0.3-0.2,0.4-0.3c0.4-0.3,0.8-0.6,1.2-0.9c0.2-0.2,0.4-0.3,0.6-0.5
	C797.1,810.6,796.2,810.3,795.5,810.1L795.5,810.1z M726.6,797.8c-0.4,0.4-1.1,0.7-1.9,0.6c-1.5,0-2.5-1-2.6-2.6c0-0.1,0-0.2,0-0.4
	c0-1.8,1.2-3,2.8-2.9c0.5,0,1,0.3,1.4,0.6l0,0l0,0c0.7,0.6,1.1,1.6,1.1,2.6c0,0.3,0,0.6-0.1,0.8
	C727.1,797.2,726.9,797.5,726.6,797.8L726.6,797.8z M753.9,737.8c0.2-1.6,1-2.7,2.7-2.7l0,0l0,0c-0.2,1.3-0.4,2.5-0.6,3.8
	c0,0.4-0.1,0.8-0.1,1.2c0,0.3,0.2,0.7,0.4,1.1c0.1,0.2,0.2,0.3,0.3,0.4c0.1,0.1,0.2,0.2,0.2,0.3c0.2,0.2,1,0,1.3-0.3
	c0.5-0.4,0.6-0.9,0.5-1.3c-0.1-0.3-0.3-0.6-0.6-0.9c-0.1-0.1-0.2-0.3-0.2-0.4c-0.2-0.4-0.3-1-0.7-1.9l0,0l0,0c2.3,0.9,3.3,2,3.2,3.5
	c0,0,0,0,0,0.1c0,0.2,0,0.4-0.1,0.6c0,0,0,0,0,0.1c-0.2,0.8-0.7,1.3-1.2,1.6c0,0,0,0-0.1,0c0,0,0,0-0.1,0c-0.6,0.3-1.4,0.4-2.1,0.5
	c-0.1,0-0.2,0-0.3,0c-0.3,0-0.5,0-0.8-0.1c0,0,0,0-0.1,0c0,0-0.1,0-0.1-0.1c-0.1,0-0.1-0.1-0.2-0.1l0,0l0,0
	C753.9,741.6,753.6,739.7,753.9,737.8L753.9,737.8z M720.3,717.6c0.4-0.4,0.7-0.8,1-1.1c1.1-1.4,0.8-2.2-1.4-3.6
	c-0.1-0.1-0.3-0.2-0.4-0.3c-0.8-0.6-1.1-1.5-0.6-2.2c0.3-0.4,0.7-0.7,1.3-1c0.5-0.2,1-0.5,1.5-0.8c-0.1-0.8-0.2-2-0.3-3.4v-0.1
	c0.1,0,0.1,0,0.2,0c1.1,0.1,1.9,0.4,2.5,1c0.8,0.8,1.1,2,1.5,3.5c0.4-0.7,0.7-1.2,1-1.7c0.4-0.7,0.8-1.4,1.2-2l0,0l0,0
	c1.8,2.2,1.5,3.9,0.8,5.6c-0.2,0.6-0.5,1.1-0.8,1.7c1.3,0.8,2.4,1.5,3.6,2.2c-0.1,0.6-0.2,1-0.5,1.2c0,0,0,0-0.1,0.1l0,0
	c-0.9,0.6-2.5-0.3-3.2,0.6c-0.1,0.2-0.1,0.4-0.2,0.5c-0.4,1.3-0.8,2.7-1.4,4.6l0,0l0,0c-2.4-3.5-5-2.4-7.5-1.9
	c-0.2,0-0.5,0.1-0.7,0.1C717.5,718.4,719.5,718.4,720.3,717.6L720.3,717.6z M715.1,745c0.2,0,0.4,0,0.6-0.1c2.9-0.3,5.9-0.6,9.3-0.9
	c0.1-0.1,0.1-0.3,0.2-0.4c2-4.2,4.2-8.6,6.6-13.6l0,0l0,0c0.3,1.6,0.5,2.5,0.7,3.4c0.4,1.6,0.6,3.2,1.1,4.8c1.1,4,1.6,4.1,5.5,2.6
	c0.7-0.3,1.4-0.4,2-0.6c0.9-0.2,1.8-0.4,2.7-0.6l0,0l0,0c1.2,2,0.3,3.1-0.4,4.2c-0.5,0.7-0.9,1.5-1.4,2.3c-0.9,1.5-1.8,3-2.9,4.3
	c-2.1,2.5-1.3,4.8-0.1,7.2c0.4,0.9,0.8,1.8,1.1,2.7c0.2,0.7,0.4,1.4,0.6,2.1c0.1,0.4,0.1,0.7-0.1,1c-0.3,0.6-1,0.8-1.7,0.4
	c-1.9-0.9-3.7-2-5.6-3c-1.1-0.5-2.2-0.9-3.3-1.4l0,0c-0.4-0.2-0.8-0.4-1.2-0.7c-1.5-1.1-2.9-2.2-4.3-3.2c-1.5,1.7-2.9,3.2-4.2,4.7
	c-0.8,0.9-1.7,1.9-2.5,2.8c-0.1,0.1-0.1,0.1-0.2,0.2c-0.3,0.2-0.8,0.3-1.4,0.5c-0.1,0-0.2,0.1-0.3,0.1c0.1-0.7,0-1.2,0.1-1.6
	c0-0.1,0.1-0.3,0.1-0.4c0.2-0.5,0.5-1.1,0.7-1.6c1-2.3,2.1-4.6,3.2-6.8c0.4-0.9,0.5-1.5,0.3-2.1s-0.7-1.1-1.4-1.6
	c-0.4-0.3-0.7-0.6-1.1-0.9c-1.1-0.9-2.1-1.9-3.1-2.9c-0.1-0.1-0.1-0.1-0.2-0.2l0,0l0,0L715.1,745L715.1,745z M671.9,666
	c-1.6-0.3-3.2-0.6-5.2-0.9c0-0.1,0.1-0.2,0.1-0.3c0.4-1.3,0.8-2.4,1.3-3.8l0,0l0,0c0.6,0.3,1.1,0.5,1.7,0.8c0.4,0.2,0.8,0.4,1.1,0.5
	c0.4-0.7,0.9-1.4,1.7-2.8c0,0,0-0.1,0.1-0.1l0,0l0,0c0.3,0.8,0.5,1.5,0.7,2.1c0.3,1,0.6,1.8,0.9,2.7c0,0.1,0.1,0.3,0.1,0.4
	c0.6-0.3,1.1-0.6,1.7-0.8c0.7-0.4,1.5-0.8,2.4-1.2l0,0l0,0c-0.2,0.7-0.4,1.4-0.6,2c-0.2,0.7-0.4,1.4-0.6,2.1c-0.4,1.3,1.1,3-1.4,4.3
	l0,0l0,0c0,0,0,0,0-0.1c-0.3-0.5-0.6-1.1-1-1.9c-0.1,0.5-0.3,1-0.4,1.5c-0.2,0.7-0.3,1.3-0.5,2l0,0l0,0l0,0c-0.1,0-0.1,0-0.2,0h-0.4
	c-0.1-0.4-0.2-0.8-0.3-1.3c-0.2-0.8-0.4-1.7-0.6-2.6c-2.1-0.2-3.7,1.7-5.8,1.2c-0.3-0.1-0.7-0.2-1-0.4c0.4-0.2,0.8-0.4,1.3-0.6
	l5.2-2.4v-0.1C671.9,666.3,671.9,666.2,671.9,666L671.9,666z M637.1,654.1L637.1,654.1c-1.3-1-2.5-1.9-3.8-2.9
	c-0.2-0.1-0.4-0.3-0.6-0.4l0,0l0,0c0.1-0.3,0.2-0.6,0.3-0.8c2.5,0.2,4.9,0.4,7,0.5c0.1-0.1,0.2-0.2,0.3-0.3c1.9-2.4,3.5-4.5,5.6-7.2
	c0.3,0.8,0.6,1.6,0.8,2.3c0.6,1.7,1.2,3.2,1.7,4.8c0.2,0.6,0.4,1.2,0.7,1.8c1-0.2,2.1-0.6,3.1-0.5c0.4,0,1,0.1,1.5,0.2
	c0.6,0.1,1.2,0.3,1.5,0.7l0,0l0,0c0.2,0.3,0.1,0.9-0.1,1.5c-0.2,0.5-0.4,1-0.6,1.3c-0.2,0.4-0.5,0.8-0.8,1.3
	c-0.7,1.2-1.6,2.3-2.2,3.5c-0.8,1.7-1.3,3.4-1,5.2c0.1,0.5,0.3,1.1,0.5,1.6c0.6,1.4,0.6,1.5-0.6,2.8l-0.1,0.1l0,0l0,0
	c-2.4-1.9-4.9-3.8-7.2-5.8c-0.5-0.5-1.1-0.8-1.6-1c0,0,0,0-0.1,0s-0.1-0.1-0.2-0.1c-0.1,0-0.1-0.1-0.2-0.1h-0.1
	c-1.5-0.4-3.1,0-4.7,0.8c-0.9,0.5-1.8,1-2.8,1.5c-0.4,0.2-0.8,0.4-1.2,0.6c-0.1-0.5-0.2-0.9-0.1-1.3c0.1-1,1-1.5,1.7-2.1
	c0.1-0.1,0.1-0.1,0.2-0.2c1.1-0.9,2.2-1.8,3.1-2.7c0.2-0.2,0.4-0.4,0.6-0.6l0,0c0.2-0.2,0.3-0.4,0.5-0.6l0,0
	c0.1-0.2,0.2-0.4,0.3-0.6l0,0c0.1-0.2,0.1-0.4,0.2-0.6l0,0c0-0.2,0-0.4,0-0.5l0,0c0-0.2-0.1-0.4-0.2-0.5l0,0
	c-0.1-0.2-0.2-0.3-0.3-0.5l0,0c-0.1-0.2-0.3-0.3-0.5-0.5l0,0C637.6,654.4,637.4,654.2,637.1,654.1L637.1,654.1z M623.2,688.1
	c2.8-0.2,5.2,2,5.2,4.7c0.1,2.6-1.7,4.4-4.4,4.5c-0.3,0-0.5,0-0.7,0c-0.8-0.1-1.6-0.4-2.3-0.8c-0.8-0.6-1.4-1.4-1.7-2.3
	c-0.1-0.3-0.1-0.6-0.2-1c0-0.6,0.1-1.2,0.3-1.8C620,689.7,621.6,688.3,623.2,688.1L623.2,688.1z M607.2,649
	c-0.9-0.4-1.5-0.7-2.9-1.3c-0.2-0.1-0.5-0.2-0.7-0.3c0,0,0.1,0,0.1-0.1c0.9-0.5,1.6-0.8,2.3-1.2c0.1-0.1,0.3-0.1,0.4-0.2
	c-0.4-0.5-0.9-1-1.3-1.5c-0.2-0.3-0.5-0.5-0.7-0.8l0,0l0,0c0.1-0.1,0.3-0.2,0.4-0.3c0,0,0,0,0.1,0s0.2-0.1,0.3-0.1h0.1
	c0.1,0,0.2,0,0.3,0c0,0,0,0,0.1,0s0.2,0,0.2,0s0,0,0.1,0s0.2,0,0.2,0.1l0,0c0.1,0,0.2,0.1,0.2,0.1l0,0c0.4,0.3,0.7,0.6,1.1,0.9l0,0
	c0.1,0.1,0.1,0.1,0.2,0.1l0,0c0.1,0,0.1,0.1,0.2,0.1l0,0c0.2,0.1,0.3,0.1,0.5,0.1l0,0c1-1-0.9-3.1,1.7-3.6l0,0l0,0
	c0.1,0.3,0.1,0.6,0.2,0.9c0.3,1.1,0.5,2.2,0.8,3.5c1-0.6,1.8-1,2.8-1.6c0.2-0.1,0.5-0.3,0.7-0.4c-0.7,1.3-1,2-1.4,2.8
	c0.3,0.2,0.5,0.3,0.7,0.5c0.1,0.1,0.2,0.1,0.3,0.2c0.3,0.2,0.6,0.4,1,0.7l0,0l0,0c-1,0.7-1.7,1.3-2.7,2c0.3,0.7,0.6,1.4,0.9,2.2
	c0.2,0.5,0.4,1,0.7,1.6c-2.9-0.1-3.5-2.6-5-3.9c-2,0.4-3.3,2.9-6.6,1.9c-2.2-0.6-2.2-0.6,0,0c3.3,1,0,0,0,0c0.2-0.1,0.4-0.2,0.6-0.3
	C604.7,650.4,605.8,649.8,607.2,649L607.2,649z M599,672c3.1-0.9,3-1,2.7-4.2c-0.1-1.2-0.1-2.4-0.1-3.6s0.1-2.5,0.1-3.8
	c2.5,0.3,3.9,1.5,4.8,3c0.8,1.2,1.4,2.6,2.3,3.8c2.3,0.1,4.1-1.1,6.1-2.3c0.6-0.4,1.3-0.8,2-1.2l0,0l0,0c0.5,2.2,0,4.1-0.8,5.9
	c-0.7,1.6-1.6,3.2-2.1,4.9c-0.2,0.5-0.3,1-0.4,1.6c0.4,0.6,0.8,1.2,1.2,1.8c1.5,2.2,3.2,4.5,4.8,6.8c0.1,0.1,0.2,0.3,0.3,0.4l0,0
	c-0.8,1.7-1.7,1.3-2.7,0.9c-1.5-0.7-2.9-2.1-4.9-1.2c-0.4,0.2-1.2-0.6-1.9-1c-0.4-0.2-0.7-0.4-1-0.6c-0.7-0.4-1.1-0.5-1.5-0.5
	c-0.5,0.1-1,0.6-1.9,1.7c-1,1.2-2.7,2.3-4.9,3.3c0-0.5,0-1-0.1-1.4c-0.1-1.4-0.2-2.7-0.1-4c0-0.1,0-0.3,0-0.4
	c0.4-3.4,0.5-3.9-1.8-4.2c-0.4-0.1-0.9-0.1-1.5-0.2c-0.5-0.1-1-0.1-1.6-0.2l0,0l0,0c-0.4-1.1-0.8-2.3-1.4-3.8l0,0l0,0
	C596.3,673,597.7,672.5,599,672L599,672z M554.4,711.8c0.1-0.3,0.2-0.6,0.3-0.9c0.2-0.4,0.3-0.9,0.5-1.4c0.1-0.2,0.1-0.4,0.2-0.6
	l0,0l0,0c0.7,0.3,1.5,0.7,2.2,1c0.3,0.2,0.7,0.3,1,0.5c1,0.5,1.7,1.2,2.1,2c0.2,0.4,0.3,0.8,0.4,1.2v0.1v0.1c0,0.5,0,1-0.1,1.5
	c-0.3,1.6-1.2,2.5-2.6,2.8c-0.7,0.1-1.3,0-1.9-0.3c-0.3-0.2-0.6-0.4-0.8-0.7s-0.4-0.6-0.5-1s-0.2-0.7-0.3-1.1
	C554.8,714.1,554.6,713,554.4,711.8L554.4,711.8L554.4,711.8L554.4,711.8z M544.3,727c0.2-0.1,0.4-0.2,0.6-0.4l0,0l0,0
	c0.5,0.6,1.1,1.1,1.6,1.8c0.1,0.1,0.1,0.1,0.2,0.2c0.2,0.3,0.4,0.6,0.6,1c0.2,0.5,0.5,1,0.8,1.6c1.1-2.7-0.9-5.5,2-8.3l0,0l0,0v7.8
	c0.9-0.7,1.6-1.2,2.3-1.8c0.8-0.6,1.5-1.2,2.2-1.7c0.1,0.1,0.1,0.1,0.2,0.2l0.2,0.2l0,0l0,0c-0.8,1.3-1.7,2.6-2.5,3.8
	c0.6,0.4,1.2,0.7,2.3,1.4c-0.2,0.1-0.4,0.1-0.6,0.1c-1.3,0.3-2.2,0.5-3.1,0.7c0,0.8,0.7,1.7,0.9,2.5s0.1,1.5-1.2,2.3l0,0l0,0
	c-0.6-1-1.1-2-1.6-2.9c-0.2-0.4-0.4-0.7-0.6-1.1c-0.8-0.3-1.3,0-1.8,0.3c-0.4,0.3-0.8,0.7-1.2,1c-0.8,0.6-1.7,0.9-3.2,0.1l0,0l0,0
	c0.3-0.2,0.6-0.3,0.9-0.5c1.1-0.6,2.1-1.2,3.5-2c-0.1,0-0.1,0-0.2,0c-2-0.3-3.2-0.5-4.4-0.7c0-0.2-0.1-0.4-0.1-0.6
	c1.2-0.5,2.3-1,3.5-1.5C544.9,729.6,544.6,728.3,544.3,727L544.3,727z M446,480.6c0.4-0.3,0.9-0.6,1.4-0.9l0,0l0,0
	c1,0.8,1.9,1.5,2.7,2.2c0.1,0.1,0.2,0.2,0.3,0.3c0.7,0.6,1,1.2,1,1.9c0.1,0.6-0.1,1.2-0.3,1.8c-0.1,0.2-0.2,0.3-0.3,0.5
	c-0.4,0.6-1.2,1.1-2,1.4c-0.7,0.3-1.5,0.4-2.2,0.3c-1.1-0.2-1.6-0.8-2-1.7l0,0c0,0,0,0,0-0.1c-0.1-0.3-0.2-0.6-0.2-0.9
	c-0.1-0.6-0.1-1.1-0.1-1.6C444.4,482.5,444.9,481.5,446,480.6L446,480.6z M427.6,542.5c-0.4-0.1-0.9-0.2-1.5-0.4l0,0l0,0
	c1.1-1,1.9-1.7,2.8-2.5c-0.2-0.5-0.4-1-0.7-1.6c-0.1-0.4-0.3-0.7-0.5-1.1l0,0l0,0c0.2-0.1,0.4-0.2,0.7-0.2c0.3-0.1,0.7-0.2,1-0.4
	c0.5-0.2,1-0.4,1.6-0.6l0,0l0,0c0.4,1.3,0.7,2.3,1.1,3.6c0.6-0.3,1.1-0.5,1.6-0.8c0.3-0.1,0.5-0.3,0.8-0.4l0,0l0,0
	c-1.1,1.4,1.2,3.3-0.5,4.3c-0.1,0.1-0.2,0.1-0.4,0.2c0.5,2.2,2.7,3.4,2.3,5.8l0,0l0,0c-0.4,0-0.7-0.1-1-0.2c-1.1-0.5-1.2-2-2.3-2.8
	c-0.1,0.5-0.3,1-0.4,1.4c-0.2,0.6-0.3,1.3-0.5,1.9c0,0,0,0-0.1,0c-0.2,0-0.3,0-0.5,0l0,0l0,0c0-0.2-0.1-0.4-0.1-0.6
	c-0.1-0.7-0.2-1.4-0.3-2.2c-0.1-0.6-0.2-1.3-0.3-2c-0.6,0.5-1.1,0.9-1.6,1.3c-1,0.8-1.8,1.5-2.6,2.2l0,0l0,0
	c-0.1-0.1-0.3-0.3-0.4-0.4c-0.1-0.1-0.2-0.2-0.3-0.3c1-1.3,2-2.6,3-3.9C428.3,542.7,428,542.6,427.6,542.5L427.6,542.5z
	 M421.3,599.5c-0.7,0.6-1.6,0.9-2.4,1.3c-0.1-0.1-0.2-0.2-0.3-0.3c-0.1-0.1-0.2-0.2-0.3-0.3c0.6-0.8,1.1-1.6,1.7-2.4
	c1.3-1.8,2.6-3.7,4.1-5.8c-1-1.3-2.1-2.6-3.2-4c-0.7-0.9-1.5-1.9-2.4-2.9c0.5,0,0.9,0,1.3,0c1.1,0,1.8-0.1,2.6,0c0.7,0,1.4,0,2,0
	c2.6-0.2,3.4-1.2,4.7-4.5c0.6-1.6,1.3-3.2,1.9-4.8c0.3,0,0.6,0,0.9,0l0,0l0,0c0.4,1,0.8,1.9,1.1,2.8c0.5,1.2,0.9,2.4,1.4,3.5
	c0.5,1.3,1,2.6,1.5,3.8c1.9,1,3.6-0.8,5.5-0.9c0.6,0,1.1,0.1,1.7,0.4c0,1.8-1,2.8-2.1,3.9c-1.1,1.1-2.2,2.3-3.2,3.5
	c-0.3,0.4-0.7,0.9-1,1.3c-0.3,0.4-0.6,0.7-0.8,1.1c0,0,0,0.1-0.1,0.1c-0.4,0.8-0.2,2.1,0,3.1c0.1,0.6,0.2,1.1,0.3,1.7
	c0.1,0.6,0.3,1.2,0.4,1.8c-0.3,0.2-0.5,0.3-0.8,0.5l0,0l0,0l0,0c-0.5-0.3-1.1-0.5-1.6-0.9l-0.1-0.1c-1.4-1.3-2.8-2.7-4.2-4.1
	c-0.3-0.3-0.6-0.6-0.9-0.9c-0.1-0.1-0.2-0.1-0.3-0.2c-0.1-0.1-0.2-0.2-0.3-0.3l0,0c-0.2-0.1-0.3-0.2-0.5-0.3h-0.1
	c-0.1-0.1-0.3-0.1-0.4-0.1c-0.8-0.2-1.6,0.1-2.4,0.8c-0.1,0.1-0.2,0.1-0.3,0.2c-0.1,0.1-0.2,0.2-0.3,0.3
	C423.3,597.6,422.3,598.6,421.3,599.5L421.3,599.5z M425.6,619.5c-0.8-1.1-1.1-3.5-0.6-5.1c0.1-0.4,0.2-0.7,0.4-0.9
	c0.1-0.1,0.2-0.2,0.3-0.3c0.3-0.3,0.8-0.5,1.4-0.9l0,0l0,0c1,1,2.2,1.9,3.1,2.8c0.3,0.3,0.6,0.7,0.8,1c0.5,0.8,0.5,1.8,0.1,2.7
	c-0.2,0.4-0.5,0.7-0.8,1.1c-0.6,0.5-1.2,0.8-1.9,0.9C427.4,620.9,426.4,620.5,425.6,619.5L425.6,619.5z M426.1,640.3
	c-0.1-1-0.1-2,0.2-3.1c0.5-2.3,1.4-4.5,3-5.9c0.8-0.7,1.7-1.2,2.9-1.6l0,0c0.1,0,0.2,0,0.3,0l0,0c0.1,0,0.2,0,0.4,0.1
	c0.2,0.1,0.4,0.1,0.7,0.2c-0.1,0.4-0.2,0.7-0.2,0.8c0,0,0,0,0,0.1l0,0l0,0c-0.3,0.1-0.5,0.2-0.8,0.3c-3.8,1.5-5.6,4.7-5,8.8
	c0.3,2.3,1.7,3.2,4.7,3c0.6,0,1.2-0.1,1.7-0.3c1.7-0.5,2.6-1.7,2.7-3.4c0-0.5-0.1-1-0.2-1.4c-0.3-0.7-0.8-1.1-1.8-1.1
	c-1.5,0-2.4,0.8-1.8,2.4c0,0.2-0.2,0.4-0.4,0.8c-1.7,0.1-2.2-0.8-1.8-1.9c0.2-0.5,0.4-1.1,0.7-1.6c0.8-1.4,1.9-2.6,4-2.6
	c0.6,0.8,1.1,1.6,1.7,2.4c1.2,1.9,1.1,3.9,0.2,5.5c-0.3,0.5-0.6,0.9-1,1.3l0,0c-0.2,0.1-0.3,0.3-0.5,0.4c-0.8,0.5-1.7,0.9-2.7,1.1
	C428.6,645.1,426.5,643.1,426.1,640.3L426.1,640.3z M447,701.6c-3.1,1-4.9-0.1-5.5-3.4c0-0.3-0.1-0.6-0.2-0.9
	c-0.1-0.6-0.3-1.2-0.5-2l0,0l0,0c0.6-0.1,1.2-0.2,1.7-0.2c0.1,0,0.1,0,0.2,0l0,0c2.5,0.1,4,1.9,5.6,3.3c0.4,0.4,0.6,0.9,0.5,1.3
	C448.7,700.6,448,701.3,447,701.6L447,701.6z M452.6,660.8c-0.7,1.1-1.4,2.2-2,3.3c-1.4,2.3-2.7,4.4-3.9,6.3
	c-0.1,0.2-0.2,0.4-0.3,0.5c0.1,0.2,0.1,0.4,0.2,0.6c0.6,1.7,1.2,3.2,1.6,4.7c0,0.1,0,0.1,0,0.2c0,0.5-0.3,1.1-0.7,1.3
	c-0.1,0.1-0.3,0.1-0.5,0.1c-0.4,0-0.9-0.1-1.2-0.4c-0.9-0.9-1.5-2-2.4-2.9c-0.6-0.6-1.1-1-1.7-1.2c-1.3-0.5-2.4,0-3.6,1.7
	c-1,1.5-2.1,2.9-3.1,4.4c0,0.1-0.1,0.1-0.1,0.2c-0.1,0.1-0.4,0.1-1.2,0.2c-0.1,0-0.2,0-0.3,0c0-0.1,0.1-0.3,0.1-0.4
	c1-3,1.9-5.7,2.9-8.6c-2.4-1.2-4.5-2.2-6.7-3.2c0.1-0.3,0.2-0.5,0.3-0.7c0.9-2,3.1-2.1,4.6-2.4c1.1-0.2,2-0.6,2.7-1
	c1.9-1.2,2.7-3.2,3.5-5.5c0.1-0.3,0.2-0.6,0.4-0.8c0.2-0.4,0.5-0.9,0.7-1.3c0.1-0.2,0.2-0.4,0.4-0.6c0.3,0,0.6,0,0.9,0.1
	c0.4,1.3,0.9,2.7,1.3,4c0.2,0.7,0.5,1.5,0.7,2.2c1.6-0.2,3.2-0.3,5.1-0.6C451.1,661,451.8,660.9,452.6,660.8L452.6,660.8
	L452.6,660.8L452.6,660.8z M453.7,633.4c-0.2,0.1-0.4,0.3-0.6,0.4c-1.1-0.8-2.2-1.6-3.8-2.8c-0.1,1.9-0.2,3.4-0.2,4.9
	c0,0.1,0,0.3,0,0.4l0,0l0,0c-0.2,0-0.4,0.1-0.6,0.1c0,0,0,0,0-0.1c-0.3-1.1-0.7-2.2-1.1-3.3c-0.2-0.5-0.3-1.1-0.5-1.7
	c-1.2,1.1-2.4,2.2-3.5,3.2c-0.6,0.5-1.1,1-1.7,1.6l0,0l0,0c-0.2-0.2-0.4-0.4-0.7-0.7c1.6-1.7,3.1-3.4,5.1-5.5H446
	c-1.1-0.3-2-0.6-2.9-0.9c-0.8-0.3-1.6-0.5-2.5-0.8l0,0l0,0c0.2-0.2,0.3-0.3,0.5-0.4c1.1-0.9,2.2-0.5,3.2-0.2l0,0l0,0
	c0.7,0.2,1.4,0.3,2.1,0c-0.1-1.2-0.9-2.1-1.7-3.1c-0.6-0.8-1.2-1.6-1.5-2.7c0.2,0.1,0.3,0.1,0.5,0.2c0.5,0.2,0.9,0.3,1.2,0.4
	c0.4,0.1,0.8,0.3,1.2,0.4c0.1-0.1,0.1-0.3,0.2-0.4c0.1-0.1,0.1-0.3,0.2-0.4c0.2-0.5,0.4-1,0.6-1.5l0,0l0,0c0.2,0,0.3,0,0.5,0h0.1
	l0,0l0,0c0.1,0.7,0.2,1.3,0.3,2c0.2,1.1,0.3,2.3,0.6,3.8c0.7-0.9,1.3-1.7,1.9-2.4c0.1-0.1,0.2-0.2,0.3-0.4c1-1.2,1.9-2.4,2.8-3.7
	l0,0l0,0c0.2,3-2.1,4.6-3.1,6.8c-0.2,0.5-0.4,1-0.4,1.6c0.8,0.4,1.7,0.8,2.9,1.5c0.1,0.5,0.2,1,0.4,1.7
	C453.4,632,453.6,632.7,453.7,633.4L453.7,633.4L453.7,633.4L453.7,633.4z M461.2,576.1c-1.2,1.9,0.4,5.2-2.5,6.2
	c-0.2,0.1-0.4,0.1-0.6,0.2c-0.2-0.3-0.4-0.4-0.5-0.6c-0.8-1.3,0.4-3.3-0.7-4.5c-0.2-0.3-0.6-0.5-1.1-0.6c-0.1,0-0.3-0.1-0.4-0.1
	c-1-0.3-1.9-0.7-2.9-1.1c-0.5-0.2-1.1-0.4-1.6-0.6c-0.1,0-0.2-0.1-0.3-0.3c-0.1-0.1-0.1-0.1-0.2-0.2c-0.1-0.1-0.1-0.1-0.2-0.2
	c0.4-0.5,0.7-1.1,1.2-1.6c0.1-0.1,0.3-0.3,0.4-0.4c0.4-0.3,0.8-0.5,1.1-0.7c-0.4-1.1-0.8-2.1-1.1-3l0,0l0,0h4
	c0.7-2.1,1.5-4.5,2.2-6.9c0.2,0,0.3-0.1,0.5-0.1s0.4-0.1,0.6-0.1c0.6,1.1,1.1,2.2,1.7,3.4c0.3,0.6,0.7,1.3,1,2
	c0.2,0,0.5,0.1,0.7,0.1c0.6,0.1,1.3,0.1,1.9,0.2v0.1c0.8,2.1-0.4,3.4-1.5,4.6c-0.2,0.3-0.5,0.5-0.7,0.8c0.6,1,1,1.7,1.2,2.2
	C463.9,575.5,463.2,575.7,461.2,576.1L461.2,576.1z M454.8,542.2c0-0.7,0.1-1.2,0.5-1.7c0.6-0.7,1.9-1.2,4.1-1.7l0,0l0,0
	c0,0.3,0.1,0.5,0.2,0.8c0.8,1.7,3.6,2.6,1.7,5c-0.8,1-1.9,1.5-3.1,1.4c-0.4,0-0.8-0.1-1.2-0.3c-0.6-0.2-1-0.5-1.3-0.9
	c-0.3-0.3-0.5-0.7-0.6-1.1C454.9,543.3,454.8,542.8,454.8,542.2L454.8,542.2z M465.3,513.6c0,0.1-0.1,0.1-0.1,0.2
	c0,0.1-0.1,0.1-0.1,0.2c-1.6,2.1-2.7,4.2-3.2,6.5c-0.5,2.7-0.2,5.4,1.2,8.4c0.3,0.5-0.2,1.4-0.4,2.6c-1.4-1-2.6-2-3.9-2.9
	c-0.4-0.3-0.9-0.7-1.3-1c-0.5-0.4-1-0.7-1.5-1.1l-0.1,0.1c-3,4-5.8,7.8-8.6,11.5l0,0l0,0c-0.3-0.1-0.5-0.2-0.8-0.3l0,0l0,0
	c0.8-4.2,1.6-8.5,2.4-12.6c-2.3-1.6-5.2-1.9-6.7-4.2c-0.2-0.3-0.4-0.7-0.6-1.1c1.6-1.5,3.7-1.8,5.7-2.3c1.6-0.4,2.8-1,3.3-2.6
	c0.1-0.3,0.2-0.7,0.2-1.1c0-0.5,0.1-1,0.2-1.5c0.2-1.7,0.6-3.3,0.9-5c0.1-0.7,0.3-1.3,0.4-2c0.1-0.4,0.3-0.8,0.5-1.2
	c0.1-0.2,0.2-0.4,0.3-0.6c0.1,0,0.1,0.1,0.2,0.1c1.6,1.1,2.2,2.8,3,4.4c0.5,1.2,1.1,2.4,2.1,3.4c1.8-0.6,3.7-1.3,5.7-2
	c0.5-0.2,1-0.3,1.4-0.5c0.1,0.2,0.2,0.4,0.2,0.7C466.3,511.2,466.1,512.4,465.3,513.6L465.3,513.6z M472.2,467.1
	c-0.1,0.2-0.2,0.4-0.3,0.5c-0.5,0.7-1.4,1.4-2.4,1.9s-2.1,0.7-2.9,0.3c-0.7-0.3-1.4-1.5-1.4-2.3c0-0.2,0-0.4,0-0.6
	c0-0.4,0.1-0.8,0.2-1.2c0.4-1.1,1.1-1.9,2.3-2.6c0.1-0.1,0.2-0.1,0.4-0.2c-0.1,0.3-0.3,0.5-0.4,0.8c-0.3,0.6-0.6,1.2-0.8,1.8
	c0,0.1-0.1,0.3-0.1,0.4c-0.2,0.7-0.2,1.4-0.3,2.3c0.2,0,0.4,0.1,0.6,0.1l0,0c0,0,0,0,0.1,0c1.3,0.2,2.3,0.1,3.1-0.8
	c0.1-0.1,0.2-0.2,0.3-0.4c0.2-0.3,0.3-0.6,0.3-0.8c0.1-1.1-1.3-1.6-2.1-2.4c2.1-0.4,3.3,0.3,3.5,1.6
	C472.4,466.1,472.4,466.6,472.2,467.1L472.2,467.1z M472.6,449.6c0.2,0,0.5,0.1,0.8,0.2s0.6,0.1,1,0.2l0,0l0,0
	c-0.9,0.6-1.5,1-2.4,1.6c0.3,0.7,0.7,1.5,1,2.2c0.1,0.2,0.2,0.4,0.3,0.6c-0.8,0.5-1.5,0.9-2.3,1.3c-0.4,0.2-0.8,0.5-1.2,0.7
	c-0.1-0.2-0.1-0.4-0.2-0.6c-0.2-0.5-0.4-1.1-0.6-1.7c-0.1-0.3-0.2-0.7-0.4-1.1c-2.5,1.6-3.6,4.9-7,5.6l0,0l0,0
	c0-0.8,0.2-1.3,0.6-1.7c0.7-0.7,1.7-1,2.3-1.6c0.1-0.1,0.1-0.1,0.2-0.2c0.8-1.2,2-2.2,3.4-3.7c-0.7-0.2-1.4-0.3-2-0.5
	c-1.5-0.4-3-0.7-4.8-1.2l0,0l0,0c0.5-0.4,0.9-0.7,1.3-1.1c0.3-0.2,0.5-0.4,0.7-0.6c0.5-0.4,0.9-0.8,1.4-1.2c0.5,0.2,1,0.4,1.5,0.6
	s1,0.4,1.6,0.7c-0.1-2.3-0.3-4.4-0.5-7.1l0,0l0,0c1.3,0.7,1.7,1.7,1.9,2.7c0.2,1,0.1,2,0.3,3c0.1,0.7,0.3,1.3,0.8,1.9
	c1.3-1.6,2.6-3.2,4.1-5.1l0,0l0,0c0.2,0.9,0,1.5-0.3,2.1C473.6,446.8,472,447.6,472.6,449.6L472.6,449.6z M481.3,421.1
	c-0.5,0.5-1.3,0.7-2,0.8c-0.7,0-1.3,0-1.8-0.2c-0.4-0.1-0.8-0.3-1.1-0.5c-0.6-0.5-0.9-1.4-0.9-2.5c0.1-1.3-0.2-2.9,1.7-3.2
	c0.1,0,0.2,0,0.3,0l0,0c1.5,0.2,4.4,2.8,4.3,4.2c0,0.4-0.1,0.7-0.2,1v0.1C481.5,420.8,481.4,420.9,481.3,421.1
	C481.3,421,481.3,421.1,481.3,421.1L481.3,421.1z M499.4,409.2c0,0-0.1,0-0.1,0.1c-0.2,0.1-0.5,0.3-0.7,0.4c-0.8-1-1.5-2.1-2.3-3.1
	c-0.3-0.4-0.6-0.8-0.9-1.2c-0.2,0-0.4,0.1-0.6,0.1l0,0l0,0c-1.1,0.4-1.8,1.7-3.1,1.9l0,0c-0.1,0-0.2,0-0.2,0h-0.1
	c-0.1,0-0.1,0-0.2,0s-0.1,0-0.2,0l0,0l0,0c-0.2-0.8-0.1-1.1,0.2-1.4c0.5-0.3,1.3-0.4,1.6-0.9c0.1-0.1,0.1-0.2,0.1-0.3
	c-0.2-0.1-0.4-0.3-0.6-0.4c-0.4-0.3-1-0.7-1.6-1.2l0,0l0,0c0.6-0.6,1.1-1.1,1.7-1.6c0-0.1-0.1-0.2-0.1-0.4c-0.4-1-0.8-2.1-1.4-3.5
	l0,0l0,0c2.5,0.3,2.4,2.9,4.4,3.5c-0.1-0.5-0.1-0.9-0.2-1.4c-0.1-0.4-0.1-0.9-0.2-1.3s-0.1-0.9-0.2-1.3l0,0l0,0
	c2.8-0.9,1.7,2.2,3.1,2.9c0.6-0.5,1.2-1.1,2.1-1.9c0.1-0.1,0.1-0.1,0.2-0.2l0,0l0,0c-0.5,1.5-0.8,2.5-1.3,3.9h3.1l0,0l0,0
	c-1.2,0.9-2.1,1.7-3,2.4c-0.2,0.2-0.4,0.3-0.7,0.5C498.7,406.2,499.1,407.7,499.4,409.2L499.4,409.2z M527.3,377.9
	c-1.8,0.6-2.9,1-3.5,1.5c-1,0.8-0.6,1.8,0.5,4.2l0,0l0,0c-0.7,0.4-1.2,0.5-1.7,0.4c-0.9-0.2-1.5-1.2-2.2-1.8c-0.1,0-0.2,0-0.4,0
	c-1.7,0.3-2.2,3.1-5,2l0,0l0,0c1.6-1.4,3-2.5,4.7-4.1c-1.4-0.3-2.3-0.5-3.8-0.8l0,0l0,0c0.9-0.6,1.5-1,2.2-1.4
	c0.2-0.1,0.3-0.2,0.5-0.3c-0.1-0.2-0.2-0.4-0.3-0.6c-0.3-0.8-0.7-1.6-1-2.6l0,0l0,0c0.8-0.4,1.5-0.7,2.5-1.2l0,0l0,0
	c0.1,0.2,0.2,0.4,0.3,0.6c0.5,1.2,0.9,2.2,1.4,3.4c1.6-0.4,2.6-1.4,3.4-2.5c0.6-0.8,1.2-1.7,2.1-2.4l0,0l0,0
	c-0.4,1.2-0.9,2.3-1.3,3.6c-0.1,0.2-0.1,0.4-0.2,0.6c0.1,0.1,0.1,0.1,0.2,0.2C526.3,377,526.8,377.4,527.3,377.9L527.3,377.9
	L527.3,377.9L527.3,377.9z M545.8,371.6L545.8,371.6L545.8,371.6c-1,0.4-1.9,1-2.8,1c-0.6,0-1.2-0.1-1.9-0.8c-0.7-0.7-1-1.4-1.1-2.2
	c-0.1-0.8,0.1-1.6,0.2-2.4c0-0.3,0.1-0.5,0.1-0.7c0.1-0.5,0.4-0.9,0.7-1.1c0.6-0.4,1.4-0.3,2.2,0.2c0.7,0.4,1.2,0.8,1.6,1.3
	C545.8,367.9,546,369.1,545.8,371.6L545.8,371.6z M566.2,348.2c-0.9,0.9-1.8,1.7-2.7,2.7c-1.8,2-3.7,4-3.5,7.1
	c0,0.6-0.6,1.2-1.3,2.4c-1.5-1.7-2.7-3-4-4.4c-2.8,1.8-5.3,4.2-8.3,5.5c-0.2-0.2-0.4-0.5-0.6-0.7c1.8-2.4,3.5-4.9,5.5-7.6
	c-2.1-1.2-4-2.1-6-3.2c2.3-2.6,5-1.7,7.8-2.5c0.8-2.4,1.7-5.1,2.6-7.8c0.3-0.1,0.6-0.2,0.8-0.3c0.8,2.3,1.6,4.5,2.5,6.9
	c2.7-0.6,5.1-1.2,7.6-1.8C567.4,346.1,567.2,347.2,566.2,348.2z M573.1,338.5c-1.5,1.8-3.6,2.1-5.8,1.7c-2-0.4-3.7-1.5-3.7-3.6
	c-0.1-1.8,0.4-3.7,1-5.3c0.5-1.3,1.5-2.4,2.4-3.7c3,1,4.9,3.2,6.3,6C574.1,335.3,574.3,337,573.1,338.5L573.1,338.5z M585.6,346.7
	c-1.7,0-3.1-1.3-3.2-3c-0.1-2,1.7-4.1,3.5-4.1c1.4,0,3,1.9,3,3.7C588.9,345,587.3,346.7,585.6,346.7z M638,315.4
	c-0.6,0.2-1.2,0.4-1.7,0.5c-1.1,0.3-2.2,0.7-3.3,1c0,0.3,0,0.5,0.1,0.8c0.5,1.3,2.4,2.3,0.8,4.2l0,0l0,0c-1.5-1.5-2.9-2.9-4.3-4.4
	c-0.1-0.1-0.1-0.1-0.2-0.2c-0.8,0.3-1.7,0.6-2.6,0.9c-0.7,0.2-1.4,0.5-2,0.7l0,0l0,0c-0.1-0.3-0.2-0.7-0.2-1c1.1-0.6,2.2-1.2,4-2.1
	c-1.9-0.3-3.2-0.5-5.3-0.8l0,0l0,0c1.7-0.8,2.5-1.2,3.2-1.5h0.1c0.8-1.6-2.7-2.2-0.5-4.2l0,0l0,0c0.9,1.2,1.7,2.2,2.6,3.3
	c0.3-0.2,0.5-0.4,0.6-0.7c0.3-0.9-0.2-2.1,0.2-2.9c0.2-0.4,0.6-0.7,1.3-0.8l0,0l0,0c0.1,1.7,0.3,3.3,0.5,4.9c0,0.2,0,0.5,0.1,0.7
	c2,0,2.6-1.4,3.6-2.4c0.4-0.4,0.8-0.7,1.4-0.9l0,0l0,0c-0.5,1.2-1,2.4-1.7,3.9c1.1,0.2,2.2,0.4,3.3,0.6c0.1,0,0.2,0,0.3,0l0,0l0,0
	c0,0.1,0.1,0.2,0.1,0.3C637.9,315.2,638,315.3,638,315.4L638,315.4L638,315.4L638,315.4z M679.8,332.5c1.3,3,2.7,5.9,4.1,8.9
	c0.1,0.2,0.2,0.4,0.3,0.6c0.3,0.6,0.5,1.2,0.3,1.7c-0.1,0.4-0.4,0.7-1.1,1.1l0,0l0,0c-3-2.4-5.8-4.7-8.7-7c-0.6-0.5-1.2-1-1.8-1.4
	c-0.3-0.3-0.6-0.6-0.9-0.9c-0.1-0.1-0.3-0.3-0.4-0.4c-0.5-0.5-0.9-0.9-1.4-1.2c-0.9-0.6-1.8-0.7-2.7-0.1c-0.1,0.1-0.3,0.2-0.4,0.3
	c-0.4,0.3-0.7,0.6-1.1,0.9c-2.9,1.9-6.4,1.4-9.4,2.6c-0.3-0.4-0.5-0.7-0.5-1.1c0-0.1,0-0.1,0-0.2v-0.1c0.1-0.4,0.3-0.8,0.8-1.2
	c0.5-0.5,1-1,1.5-1.5c0,0,0,0,0.1-0.1l0.1-0.1c1.1-1,2.1-2.1,3.2-3.2c0.5-0.5,1-1,1.4-1.5c-2.6-3.2-7.7-2.5-9-6.9l0,0l0,0
	c1.8-1.6,4-1.4,6-1.1c0.2,0,0.5,0.1,0.7,0.1c1.8,0.2,3-0.3,3.8-1.5c0.1-0.2,0.3-0.4,0.4-0.7c0.7-1.3,1.3-2.5,2-3.8
	c0.5-1,1-1.9,1.6-2.9c0.6-1.2,1.3-2.4,1.9-3.6c0-0.1,0.1-0.1,0.1-0.2c0.1-0.2,0.3-0.3,0.5-0.5c0.1-0.1,0.3-0.2,0.4-0.4
	c0.1,0.2,0.2,0.3,0.4,0.5c1.7,2.6,1.8,5.5,2.5,8.2c0.1,0.4,0.2,0.8,0.4,1.2c3.8,1.1,6.2-2.6,10.1-2.4l0,0l0,0
	c-0.4,1.4-0.5,2.8-1,3.9c-0.9,1.8-1.8,3.6-2.8,5.3c-0.4,0.7-0.8,1.3-1.2,2c-0.7,1.1-1,2.1-1.1,3.2
	C679.1,330.3,679.3,331.4,679.8,332.5L679.8,332.5z M713.8,353.2c-0.1,0-0.2,0-0.3,0c-2.5-0.4-4.3-3.1-4.3-7.4
	c0.1-0.3,0.3-0.7,0.4-1.2c0.3-0.7,0.6-1.6,1-2.5c0.2-0.4,0.4-0.8,0.6-1.2c0.1-0.1,0.2-0.2,0.3-0.4c0.5-0.7,1.1-1,1.9-1.1
	c0.7-0.1,1.4,0.1,2.1,0.4c0.3,0.1,0.5,0.3,0.8,0.4c1.3,0.7,2.3,1.7,3.1,2.8s1.4,2.4,1.8,3.8c0.1,0.5,0.2,1,0.2,1.5
	c-0.1,1.1-0.6,2-1.8,2.6c-0.5,0.3-1,0.6-1.5,1c-0.2,0.1-0.4,0.3-0.6,0.4c0,0,0,0-0.1,0l0,0l0,0c-0.2,0.1-0.3,0.1-0.5,0.2
	c-0.1,0-0.2,0.1-0.3,0.1s-0.2,0.1-0.3,0.1c-0.2,0.1-0.3,0.1-0.5,0.2c-0.1,0-0.1,0-0.2,0c-0.2,0-0.4,0.1-0.6,0.1c-0.1,0-0.1,0-0.2,0
	c-0.2,0-0.4,0-0.6,0C714.1,353.3,713.9,353.2,713.8,353.2L713.8,353.2z M722.9,365.2c-0.4,1.3-1.4,2.4-2.4,2.9
	c-0.4,0.2-0.8,0.3-1.3,0.4c-0.4,0-0.7-0.1-1.1-0.2c-1.2-0.4-2.1-1.4-2.3-2.7c-0.4-2-0.1-3.2,1.2-4.4c0.5-0.5,1.2-0.9,2-1.4
	c0.2-0.1,0.4-0.2,0.6-0.4c0.6,0.4,1.2,0.8,1.6,1.2c0.6,0.5,1,1,1.3,1.4C723.2,363,723.3,364,722.9,365.2L722.9,365.2z M776.6,406.8
	L776.6,406.8L776.6,406.8c0,0.1-0.1,0.1-0.1,0.2c-0.2,0.2-0.3,0.4-0.5,0.5l0,0l0,0c-0.5-0.2-1.1-0.4-1.6-0.7
	c-0.5-0.2-1.1-0.4-1.6-0.6c-0.1,0-0.2,0-0.4,0c-0.2,0.1-0.5,0.2-0.8,0.3c0-0.1-0.1-0.2-0.1-0.3c-0.2-0.7-0.4-1.5-0.6-2.5l0,0
	c-1.3,1.3-2.4,2.4-3.6,3.5c-0.2-0.2-0.4-0.4-0.7-0.6c0.4-0.7,0.9-1.4,1.3-2c0.3-0.4,0.5-0.8,0.8-1.2c-0.4-0.7-1.1-0.9-1.9-1.1
	c-0.8-0.2-1.7-0.5-2.2-1.5c-0.1-0.3-0.2-0.6-0.2-0.9c0.3,0.1,0.6,0.1,1,0.2c1,0.2,1.9,0.4,3,0.6c-0.1-0.4-0.2-0.8-0.4-1.2
	c-0.7-1.4-1.8-2.5-2-4.1c0-0.2,0-0.5,0-0.7c1.3,0.3,2,1.2,2.5,2.1c0.7,1.2,1.2,2.5,2.6,3.2c-0.1-0.9-0.2-1.6-0.2-2.3
	c0-0.3,0-0.7,0-1c0-0.6,0.2-1.2,0.3-1.7c0-0.1,0-0.2,0.1-0.3c0.1-0.2,0.1-0.4,0.2-0.6c0.3,0,0.6,0,1,0l0,0l0,0
	c0.2,1.5,0.5,2.9,0.8,5c1.1-0.8,2-1.5,3.1-2.4c0.4-0.3,0.8-0.6,1.3-1l0,0l0,0c-0.9,2.2-1.7,4.1-2.5,6c-0.3,0.7-0.6,1.4-0.8,2
	c0.2,0.3,0.4,0.5,0.6,0.8C775.4,405.3,776,406.1,776.6,406.8L776.6,406.8z M831.7,460.9c0,0.1,0,0.1,0,0.2v0.1c0,0.1,0,0.1,0,0.2
	c0,0,0,0.1-0.1,0.1c0,0.1,0,0.1-0.1,0.2c0,0-0.1,0.1-0.1,0.2l-0.1,0.1c0,0.1-0.1,0.1-0.1,0.2l-0.1,0.1c-0.1,0.1-0.1,0.2-0.2,0.2
	c0,0,0,0-0.1,0.1s-0.2,0.2-0.3,0.3l0,0c-0.1,0.1-0.2,0.2-0.4,0.3l0,0v0.1l0,0l0,0l0,0l0,0l0,0H830c-0.1,0.1-0.1,0.1-0.2,0.2
	c0,0,0,0.1-0.1,0.1c-0.1,0.1-0.2,0.1-0.2,0.2c0,0,0,0-0.1,0.1c-0.1,0-0.2,0.1-0.2,0.1h-0.1c-0.1,0-0.1,0-0.2,0.1h-0.1
	c-0.1,0-0.1,0-0.2,0h-0.1h-0.1c-0.1,0-0.1,0-0.2,0c0,0-0.1,0-0.1-0.1c-0.1,0-0.1-0.1-0.2-0.1l0,0c-0.1-0.1-0.2-0.1-0.2-0.2
	c-0.6-0.7-0.8-1.5-0.6-2.3c0.2-0.7,0.6-1.4,1.3-2.2l0,0l0,0c0,0.8,0,1.3,0,1.7c0,0.1,0,0.3,0,0.4c-0.1,0.5-0.2,0.9-0.4,1.6
	c0.1,0,0.1,0,0.2,0c0.7,0.2,1.4,0.3,2,0.4c0,0,0,0,0-0.1c0,0,0,0,0.1,0c0-0.3,0-0.7,0-1v-3.3l0,0l0,0c0.5,0.3,0.9,0.6,1.2,0.9l0,0
	c0.1,0.1,0.1,0.2,0.2,0.2c0,0,0,0,0,0.1s0.1,0.1,0.1,0.2c0,0,0,0,0,0.1s0,0.1,0.1,0.2v0.1C831.6,460.7,831.7,460.7,831.7,460.9
	C831.7,460.8,831.7,460.8,831.7,460.9L831.7,460.9z M863.8,337.5c0.1-0.1,0.2-0.2,0.4-0.3c0.7-0.6,1.6-1,2.4-1.5l0,0l0,0
	c0.2,0.5,0.5,1,0.7,1.5c0.3,0.7,0.6,1.3,0.8,1.9c0.3,0.7,0.4,1.5,0.3,2l0,0c0,0.1-0.1,0.3-0.2,0.4l0,0c-0.1,0.1-0.2,0.2-0.3,0.4l0,0
	c-0.1,0.1-0.3,0.2-0.4,0.3l0,0c-0.2,0.1-0.3,0.2-0.6,0.2l0,0c0,0,0,0-0.1,0s-0.1,0-0.2,0.1l0,0l0,0c-0.1,0.1-0.2,0.1-0.3,0.2l0,0
	c-0.1,0.1-0.3,0.1-0.4,0.2h-0.1c-0.1,0-0.2,0.1-0.3,0.1h-0.1c-0.1,0-0.2,0-0.3,0s-0.1,0-0.2,0c-0.1,0-0.1,0-0.2,0
	c-0.1,0-0.1,0-0.2,0c-0.1,0-0.1-0.1-0.2-0.1c-0.1,0-0.1,0-0.2-0.1c-0.1-0.1-0.2-0.1-0.3-0.2l-0.1-0.1c-0.1-0.1-0.3-0.3-0.4-0.4
	c-0.4-0.5-0.6-1.4-0.5-2.3c0.1-0.9,0.4-1.8,1-2.4C863.8,337.6,863.8,337.6,863.8,337.5L863.8,337.5z M846.4,399.4
	c0.4-0.9,1-1.6,1.7-2.1c1.7-1.2,3.6-1.4,5.2-0.7c1.6,0.7,2.8,2.2,3.2,4.3c0.1,0.3,0,0.6,0,0.9c0,0.2,0,0.4,0,0.6
	c0,1.2-0.6,2.4-1.4,3.4c-1.5,1.9-3.9,3.2-6,2.8c-0.2,0-0.4-0.1-0.6-0.1c-0.7-0.2-1.3-0.5-1.8-0.9c-0.2-0.2-0.4-0.4-0.6-0.7
	c-0.2-0.3-0.4-0.7-0.6-1.2c-0.2-0.8-0.3-1.8-0.2-2.7v-0.1c0-0.1,0-0.3,0.1-0.4c0-0.1,0-0.1,0-0.2
	C845.6,401.2,845.9,400.2,846.4,399.4L846.4,399.4z M854.1,486.1c-0.5,0.2-1.1,0.3-1.9,0.3l0,0l0,0c-0.1,0-0.2,0-0.3,0
	c-2.2-0.1-3.5-1.5-3.4-3.7c0-0.3,0.1-0.7,0.2-1.1c0.5-1.5,1.8-3,2.8-3c0,0,0,0,0.1,0c1.5,0.1,4,3.2,4.1,4.9c0,0.5,0,0.9-0.2,1.3
	C855.3,485.4,854.8,485.9,854.1,486.1L854.1,486.1z M868.8,461.6L868.8,461.6L868.8,461.6c-1.6-0.3-3-0.5-4.2-0.8
	c-0.5-0.1-1-0.2-1.5-0.3l0,0l0,0c-0.1-0.3-0.3-0.5-0.4-0.7c-0.7-1.3-1.2-2.2-1.8-2.9c-1.1-1.5-2.6-2.3-6.6-4.7
	c-2.9,2.1-6,3.9-9.5,4.4l0,0l0,0c-0.1-0.1-0.2-0.2-0.2-0.3c-0.1-0.1-0.1-0.2-0.2-0.3l0,0l0,0c0.1-0.2,0.3-0.3,0.5-0.5
	c1.3-1.5,2.7-2.9,4-4.4c1.2-1.3,2.3-2.7,3.5-4.2c0.3-0.4,0.7-0.8,1-1.2c-1.7-2.3-3.5-4.6-5.2-6.8l0,0c1-1.5,1.9-0.7,2.8-0.4
	c1.7,0.7,3,1.1,3.9,1.3c3,0.7,3.1-0.7,5.3-4.6c0.3-0.5,0.6-1,0.8-1.5c1.2-2.2,2.2-4.5,3.3-6.7l0,0l0,0c0.1,0,0.1,0,0.2,0
	c0.2,0,0.4,0,0.6,0.1l0,0l0,0c0.6,4.4,1.2,8.7,1.8,13.4c2.1-0.2,3.9-0.4,5.6-0.4c0.4,0,0.8,0.1,1.1,0.2c1.5,0.4,1.9,1.8,0.9,3.3
	c-0.5,0.7-0.9,1.4-1.4,2c-1.3,1.8-2.7,3.7-4.1,5.6c-0.6,0.7-1.1,1.5-1.7,2.3c0.2,1.2,0.4,2.5,0.6,3.9
	C868.3,458.5,868.5,460,868.8,461.6L868.8,461.6z M876.4,479.9c-0.3,0.2-0.7,0.3-1.1,0.4c-0.7,0.1-1.4,0.1-2-0.1
	c-0.3-0.1-0.5-0.5-0.7-0.9c-0.2-0.5-0.4-1.1-0.3-1.5c0-0.8,0.2-1.5,0.6-2c0.1-0.2,0.3-0.4,0.5-0.6c0.6-0.6,1.5-0.9,2.6-1.1l0,0l0,0
	c0.1,0.3,0.2,0.6,0.3,0.9c0.3,0.7,0.5,1.3,0.6,2c0,0.1,0.1,0.3,0.1,0.4c0,0.2,0,0.4,0,0.6C877,478.7,876.8,479.6,876.4,479.9
	L876.4,479.9z M896.3,423.1c0-0.3-0.1-0.6-0.1-1c-0.1-0.7-0.2-1.5-0.2-2.2c0-0.3-0.1-0.6-0.1-0.9c0.1,0,0.3,0,0.4,0
	c1.4,0.1,2.2,2.3,3.5,2.5c0.5,0.1,1-0.1,1.7-0.8c0.3-1.2,0-2.4-0.1-3.7c-0.2-1.4-0.2-2.8,0.9-4.3l0,0l0,0c0.1,0.6,0.2,1.1,0.4,1.6
	c0.4,1.6,0.7,3.1,1,4.6c0.1,0,0.1-0.1,0.2-0.1c0.8-0.5,1.5-0.9,2.6-1.5c-0.6,1.4-1.1,2.4-1.7,3.6c1.3,0.1,2.3,0.1,3.3,0.2
	c0,0.2,0.1,0.4,0.1,0.5l0,0l0,0c-0.1,0.1-0.3,0.1-0.4,0.2c-1.4,0.6-2.8,1.2-4.1,1.7c-0.1,0.2-0.1,0.4-0.2,0.6
	c-0.2,1.8,2.8,3,0.8,5.2l0,0l0,0c-0.2-0.3-0.5-0.5-0.7-0.8c-1.1-1.1-2.1-2.2-3-3.2c-1.6,0.1-2.5,1.2-3.8,1.9
	c-0.7,0.3-1.4,0.5-2.4,0.4l0,0l0,0c0.4-0.4,0.9-0.7,1.3-1c0.9-0.7,1.8-1.4,2.8-2.2l0,0c-0.4-0.2-0.7-0.4-1-0.6
	C896.9,423.5,896.5,423.3,896.3,423.1L896.3,423.1z M897.2,477.8c0.3,0.6,0.6,1.2,1,1.5c0.1,0.1,0.1,0.1,0.2,0.1l0.1,0.1h0.1
	c0.4,0.1,0.8,0.2,1.3,0.1c0.9-0.2,1.3-0.6,1.5-1.1s0.2-1,0.1-1.6c0-0.1,0-0.2,0-0.2c0-0.3-0.2-0.7-0.4-1.2l0,0
	c-0.9,0.2-1.8,0.3-2.7,0.5l0,0l0,0c0-0.1,0-0.2,0-0.3c0.1-2.3,0.8-3,2.5-2.6c0.1,0,0.1,0.1,0.2,0.1c1.3,0.4,2.1,1.3,2.5,2.5
	c0.1,0.3,0.2,0.6,0.2,1c0.2,1.6-1.3,4-2.7,4.6c-0.2,0.1-0.4,0.1-0.7,0.2c-1.6,0.3-3.4-0.2-4.1-1.5c-0.4-0.7-0.7-1.5-0.9-2.3
	c-0.9-3.4,0.1-6.6,3.3-8.6c2.3-1.4,4.2-0.6,5.5,2.1c-0.4,0-0.8,0.1-1.1,0c-1.6-1-3.3-1.4-4.8,0C897.2,472.2,896.5,476.2,897.2,477.8
	L897.2,477.8z M900.6,439c0.2-0.3,0.5-0.5,0.8-0.8c0,0.2-0.1,0.3-0.1,0.5c-0.3,1.4-0.5,2.5-0.7,3.6l0,0c-0.4-0.4-0.6-0.7-0.7-1.1
	C899.6,440.5,899.9,439.8,900.6,439L900.6,439z M903.7,442.9L903.7,442.9L903.7,442.9c-0.2-0.9-0.3-1.9-0.5-2.8
	c0-0.2-0.1-0.5-0.1-0.7l0,0l0,0c0.9,0.4,1.4,0.6,1.6,0.9c0.2,0.3,0.1,0.6-0.1,1.1c0,0.1-0.1,0.2-0.1,0.3l0,0c0,0,0,0.1-0.1,0.1
	C904.2,442.2,903.9,442.5,903.7,442.9L903.7,442.9z M885.7,462.4c-2.1,0-3.6-1.5-3.7-3.5c0-1.6,1-3.4,2.5-4.5c0.8-0.7,1.8-1.1,2.7-1
	c0.9,0,1.8,0.8,2.5,1.8c0,0,0,0,0,0.1s0.1,0.1,0.1,0.2s0.1,0.1,0.1,0.2l0,0c0.4,0.8,0.6,1.6,0.6,2.5
	C890.4,460.7,888.4,462.5,885.7,462.4L885.7,462.4z M911.9,509.4c0.1,0.4,0.1,0.7,0.2,1.1c0.2,0.7,0.3,1.5,0.4,2.3
	c0,0.2,0.1,0.3,0.1,0.5c0,0.1,0,0.2,0,0.3c0.1,1,0,2.2,0,3.8c-1-0.5-1.8-1.1-2.4-1.8c-1.3-1.4-1.9-3.2-2.9-4.7
	c-0.1-0.1-0.1-0.2-0.2-0.3c0-0.1-0.1-0.1-0.1-0.1c-0.1-0.1-0.2-0.3-0.3-0.4c0-0.1-0.1-0.1-0.2-0.2c-0.1-0.1-0.2-0.2-0.3-0.3
	c-0.1-0.1-0.3-0.3-0.4-0.4l-0.1-0.1c-0.2-0.2-0.4-0.3-0.6-0.4c-3.7,1.4-7.8,2.9-11.8,4.4l0,0l0,0c-0.1-0.2-0.2-0.3-0.3-0.5
	c-0.1-0.1-0.1-0.2-0.2-0.3l0,0l0,0c0.3-0.9,0.9-1.6,1.6-2.3c1.5-1.4,3.4-2.6,4-4.9c-1.4-1.9-3.8-3.2-5-5.7c-0.3-0.7-0.6-1.4-0.7-2.3
	l0,0l0,0c0.7,0.1,1.4,0.3,2.1,0.4c0.7,0.1,1.3,0.3,2,0.4c0.3,0.1,0.6,0.2,0.8,0.3c0.6,0.3,1.3,0.6,1.9,0.9c2.3,0.9,3.4,0.6,4.7-1.5
	c0.4-0.6,0.8-1.3,1.2-2c0.6-1,1.2-2.1,1.8-3.1c0,0,0-0.1,0.1-0.1l0,0l0,0l0,0c0.4-0.7,1-1.3,2-2.7c0.1,0.6,0.3,1.2,0.4,1.8
	c0.5,2.4,0.9,4.4,1.4,6.6c0,0.1,0,0.2,0.1,0.3h8.3l0,0c0,2.6,0,3-4.5,7.7C914.1,507.1,913.1,508.1,911.9,509.4L911.9,509.4z
	 M934.8,507.8c-1,0-1.8-0.2-2.3-0.8c-0.1-0.1-0.2-0.3-0.3-0.4l0,0c-0.1-0.1-0.1-0.3-0.2-0.4c0,0,0-0.1-0.1-0.1c0-0.1,0-0.1-0.1-0.2
	c-0.1-0.4-0.2-0.8-0.2-1.2c0-0.6,0-1.1,0.1-1.7c0.2-1.3,0.8-2.4,1.5-2.9c0.3-0.3,0.7-0.4,1.1-0.4c1.7,0.1,4,2.6,4,4.3
	C938.4,506.3,937,507.8,934.8,507.8L934.8,507.8z M958.6,497.3c-0.1,0.1-0.2,0.1-0.4,0.2c-0.1,0.1-0.2,0.1-0.3,0.2
	c-0.7-0.6-1.4-1.3-2.1-1.9c-0.3-0.3-0.7-0.6-1-0.9h-0.1c-0.8,0.4-1.4,1.3-2.3,1.9l0,0l0,0c-0.7,0.5-1.5,0.8-2.7,0.5l0,0l0,0
	c1.7-1.6,3.2-3,5.1-4.7c-0.7-0.2-1.3-0.3-2-0.4c-0.4-0.1-0.8-0.2-1.2-0.3c-0.6-0.1-1.2-0.3-1.9-0.4l0,0l0,0c3.2-2.2,5.8-3.9,9.4-2.7
	l0,0l0,0C958.2,491.3,956.8,494.2,958.6,497.3L958.6,497.3z M964.9,378.5c0,0.1-0.1,0.1-0.1,0.2l0,0c-0.2,0.2-0.4,0.3-0.8,0.4l0,0
	c-0.1,0-0.1,0-0.2,0.1c-0.4,0.1-0.8,0.2-1.1,0.1c-0.2,0-0.3,0-0.5-0.1l0,0c-1.1-0.3-1.5-1.5-1.5-2.6c0-0.3,0-0.6,0-0.8
	c0-0.2,0-0.4,0.1-0.7c0.1-0.9,0.3-1.8,0.4-2.7h0.1c0.3-0.1,0.6-0.2,1-0.2c1,1,2.4,1.8,3,3c0.1,0.3,0.2,0.6,0.2,1
	C965.4,377,965.2,377.8,964.9,378.5L964.9,378.5L964.9,378.5z M984.1,435c-0.4,0.5-1.1,0.8-1.9,0.9c-1.3,0.1-2.2-0.4-2.6-1.4v-0.1
	c0-0.1-0.1-0.3-0.1-0.4s0-0.2,0-0.3c0-0.1,0-0.2,0-0.3l0,0v-0.1c0-0.1,0-0.2,0-0.3l0,0c0-1.4,0.8-2.9,1.8-3.4
	c0.2-0.1,0.5-0.2,0.8-0.2c0.2,0,0.5,0.1,0.7,0.2c1,0.5,1.9,2,2,3.4c0,0.6,0,1.2-0.3,1.7C984.4,434.7,984.2,434.8,984.1,435
	L984.1,435z M1046,449.6c0.2-0.1,0.3-0.2,0.5-0.3c-0.6,1.4-1.2,2.5-1.6,3.8c-0.4,1.1-0.3,1.1,1.3,2.2c2.9-0.2,1.9-1.8,1.6-3.5
	c-0.1-0.5-0.1-1,0-1.5l0,0l0,0c0.9,0.8,1.6,1.5,2.3,2.2c0.2,0.2,0.5,0.4,0.7,0.6l0,0l0,0c-0.5,1.1-1,1.8-1.7,2.2
	c-0.4,0.3-0.9,0.4-1.5,0.4c-0.4,0-0.9-0.1-1.4-0.3c-0.5,0.9-1.1,1.2-1.6,0.8c0,0,0,0-0.1,0l0,0c-0.1-0.1-0.2-0.1-0.3-0.2
	c-0.1-0.1-0.2-0.2-0.3-0.4C1042.8,453.7,1043.7,451.1,1046,449.6L1046,449.6z M1054.3,498.3c-0.9,0.2-1.7,0.5-2.6,0.7
	c0.1,0.4,0.2,0.9,0.3,1.4c0,0.2,0.1,0.4,0.1,0.6l0,0l0,0c-0.7,0.7-1.4,1.3-2.1,2c-0.6,0.5-1.1,1.1-1.8,1.7c0-0.3,0-0.6-0.1-0.9
	c0-0.3,0-0.7-0.1-1c0-0.2,0-0.4,0-0.6c0-0.5,0-1,0-2c-0.4,0.2-0.8,0.5-1.1,0.7c-1,0.6-1.8,1.1-2.5,1.5c-0.3,0.2-0.5,0.3-0.8,0.5
	c-0.2-0.3-0.4-0.5-0.5-0.8c0.6-0.6,1.2-1.1,1.9-1.7c0.7-0.6,1.4-1.2,2-1.9c-0.1-0.2-0.3-0.3-0.5-0.4c-1.1-0.6-2.9,0.2-3.5-1.5
	c0-0.1-0.1-0.3-0.1-0.4c0.3-0.1,0.6-0.3,1-0.4c0.4-0.2,0.9-0.4,1.5-0.6c-0.1-0.1-0.2-0.3-0.3-0.4c-0.4-0.6-0.8-1.1-1.3-1.7
	c-0.2-0.3-0.4-0.6-0.7-0.9l0,0l0,0c3.4-0.9,3.1,3.2,5.6,3.4c0.1-0.9,0.2-1.8,0.1-2.6c-0.1-2.2-0.7-4.2-1.8-6.1
	c0.5-0.6,0.9-0.9,1.3-0.9c0.3,0,0.6,0.3,0.8,0.8c0.4,1.1,0.6,2.4,0.9,3.6c0,0.1,0.1,0.3,0.1,0.4c0.2,0.8,0.3,1.7,0.6,2.7
	c0.1,0.4,0.2,0.8,0.3,1.3c0.7-0.6,1.3-1.2,1.9-1.8c0.2-0.2,0.3-0.3,0.5-0.5c0.5-0.5,1-1,1.6-1.5l0,0l0,0c0.1,2.3-1.8,3.2-2.7,5
	c0.5,0.1,1,0.3,1.5,0.4c0.8,0.2,1.6,0.4,2.4,0.6c0,0.1,0,0.1,0,0.2s0,0.3,0.1,0.4C1055.5,497.9,1054.9,498.1,1054.3,498.3
	L1054.3,498.3z M1062.5,481.1c-0.5,0.6-1,0.9-1.7,0.7c-0.8-0.2-1.9-0.7-3.7-1.8c0.5-0.9,1-1.8,1.5-2.7c0.5-0.8,1-1.7,1.5-2.5
	c0.9,0.9,1.5,1.6,2,2.3c0.5,0.6,0.8,1.1,1,1.6C1063.4,479.6,1063.2,480.3,1062.5,481.1L1062.5,481.1z"/>
<path class="st0" d="M1090.5,599.2c0,5.9,0,12.4,0,18.9c0,4.9,0.3,9.8,0.1,14.7c-0.2,6.6-0.3,13.3-1,19.9
	c-0.6,6.1-1.6,12.2-2.7,18.2c-1.1,6.3-2.2,12.6-4,18.7c-3,10.5-6.4,20.8-10,31.1c-2.7,7.8-6,15.4-9.1,23.1
	c-4.3,10.9-10.5,20.8-17,30.4c-4.6,6.8-10.8,12.4-15.3,19.3c-0.7,1.1-1.8,2.1-2.6,3.2c-2.2,3-3.6,6.3-6.3,9c-3.3,3.3-5.9,7.3-8.8,11
	c-1.2,1.5-2.3,3.2-3.6,4.6c-2.1,2.4-4.2,4.6-6.3,7c-4.6,5-8.7,10.3-13.8,14.8c-2.6,2.3-6.1,3.4-8.1,6.4c-1.3,1.8-2.8,3.6-4.5,5
	c-6.9,5.4-13.9,10.7-21.1,15.8c-4.2,3-8.8,5.3-13,8.2c-8.5,5.8-16.6,12-26.1,16.2c-8,3.6-15.8,7.6-23.7,11.3
	c-3.6,1.7-7.4,3.1-11.1,4.6c-5.2,2.2-10.3,4.5-15.6,6.6c-2.7,1.1-5.4,2.1-8.2,2.8c-8.8,2.3-17.6,4.5-26.5,6.7
	c-6.2,1.5-12.4,3.2-18.6,4.2c-8.4,1.4-16.9,2.3-25.4,3.4c-4.1,0.5-8.2,0.9-12.3,1.2c-4.2,0.3-8.6,1.1-12.7,0.6
	c-8-0.9-15.9-1-23.9-1.3c-2.2-0.1-4.5-0.3-6.7-0.3c-5.2,0-10.3,0.5-15.4,0.1c-11.8-0.9-23.3-3.2-34.5-7.1c-2.8-1-5.7-2-8.6-2.8
	c-5.2-1.5-10.4-2.7-15.6-4.2c-3.4-1-6.7-2.1-9.9-3.4c-5-1.9-10-3.9-15-5.9c-4.2-1.7-8.4-3.2-12.4-5c-5.8-2.6-11.4-5.5-17.1-8.4
	c-2.8-1.4-5.5-2.8-8.2-4.4c-5.1-2.9-10.1-6-15.3-8.7c-6-3.2-11.8-6.5-17.1-10.7c-3.7-2.9-7.1-6.2-11-8.9c-7.5-5.4-15-10.9-21.9-17
	c-5.8-5.1-12.5-9.2-17.3-15.6c-2.6-3.4-6.3-6-9.4-9c-1.3-1.3-2.6-2.6-3.9-4c-3.7-4.2-7.5-8.4-11.1-12.7c-3.4-4-6.8-8-9.9-12.2
	c-2.6-3.6-4.6-7.6-7.1-11.3c-2.6-3.8-4.6-8-7.7-11.5c-2.6-2.9-4.4-6.6-6.4-10c-2.6-4.4-5.3-8.8-7.6-13.4c-2.2-4.3-3.9-8.9-6-13.3
	c-2.5-5.3-5.1-10.5-7.5-15.8c-1-2.1-1.5-4.4-2.2-6.7c-1.4-4.5-2.7-9.1-4.1-13.6c-1.1-3.6-2.5-7.1-3.5-10.7c-0.8-3-1.2-6.1-1.9-9.1
	c-0.7-3-1.9-5.9-2.5-9c-0.9-4.4-1.6-8.9-2.3-13.3c-0.8-4.3-1.8-8.6-2.3-13c-1.3-12-3-24-2.7-36.2c0.1-6.9-0.3-13.8-0.7-20.6
	c-0.5-7.5-0.1-15,0.9-22.4c1-8,2.6-16,3.6-24.1c1.3-10.6,4.3-20.8,6.8-31.1c1.1-4.6,2.4-9.2,3.9-13.8c1.8-5.8,3.7-11.7,5.9-17.4
	c3-7.7,6.4-15.2,9.7-22.8c1.4-3.2,2.9-6.4,4.5-9.5c3.6-6.6,7.3-13.1,11-19.6c0.7-1.2,1.1-2.6,1.9-3.8c4.1-6,8.2-11.9,12.4-17.8
	c2.1-3,4.4-6,6.8-8.8c3.7-4.5,7.6-9,11.4-13.4c2-2.3,4-4.5,6.1-6.6c6-5.9,11.9-11.8,18-17.7c6.6-6.4,12.7-13.5,20.4-18.8
	c0.5-0.3,0.9-0.9,1.3-1.3c3.7-3.4,7.1-7,11-10c3.8-3,8.1-5.4,12.1-8.2c6.6-4.6,13-9.3,19.6-13.9c8-5.5,16.6-9.8,25.4-13.7
	c5.3-2.4,10.6-4.7,15.9-7c4.9-2.1,9.7-4.7,14.8-6.3c9.8-3.1,19.7-5.8,29.6-8.6c6.8-1.9,13.5-4,20.4-5.2c11.2-2,22.5-3.7,33.8-5
	c8.3-1,16.7-1.2,25.1-1.5c6.2-0.2,12.5,0.5,18.7,0.2c6.7-0.2,13.3,0.1,19.9,1.1c13.5,1.9,27.1,3.4,40.6,5.4
	c4.7,0.7,9.4,1.7,13.9,3.2c7.3,2.4,14.4,5.2,21.6,7.8c5.3,2,10.5,3.9,15.8,6c6.4,2.6,12.8,5.1,19.1,7.9c4.3,1.9,8.5,4.2,12.7,6.6
	c6.6,3.8,13.2,7.7,19.7,11.7c4.7,2.8,9.2,5.8,13.8,8.8c2.2,1.4,4.4,3,6.6,4.4c4,2.6,8,5.1,12,7.7c1.5,1,2.8,2.1,4.2,3.1
	c5.6,4.2,11.3,8.2,16.1,13.3c3.7,4,7.3,8.2,11.5,11.7c0.7,0.6,1.2,1.3,1.8,2c2.9,3.5,5.7,7,8.7,10.4c3.1,3.6,6.4,7,9.4,10.7
	c4.1,5.1,8.1,10.3,12.1,15.5c3.2,4.2,6.4,8.3,9.4,12.6c4.4,6.5,8.5,13.2,12.8,19.8c2.5,3.8,4.7,7.7,7.6,11.2
	c3.5,4.3,5.8,9.3,8.4,14.1c3,5.7,5.5,11.7,8.2,17.6c1.1,2.5,2.8,5,2.9,7.6c0.2,3,1.2,5.7,1.9,9.1c2.1-2.5,3.8-4.5,5.4-6.5
	c2.8-3.4,5.5-6.8,8.4-10.1c2-2.3,2.4-3.5,1.2-6.4c-1.1-2.6-2.2-5.3-3.3-7.9c-2.3-5.3-4.4-10.6-6.8-15.8c-1.8-3.9-4.1-7.6-6.3-11.3
	c-3.5-6.2-7.2-12.3-10.7-18.4c-1.2-2-2-4.2-3.3-6.1c-3.4-5.1-7-10.2-10.6-15.2c-1.2-1.8-2.5-3.6-3.8-5.2c-1.1-1.4-2.6-2.7-3.7-4.2
	c-3.7-4.9-7.2-9.9-10.9-14.8c-4.6-5.9-9.5-11.6-13.9-17.6c-3.7-5-7.8-9.5-12.7-13.1c-3.5-2.6-6.5-5.6-10.3-7.9
	c-4.3-2.5-7.7-6.6-11.5-10.1c-2-1.8-4-3.8-6.1-5.6c-3-2.6-6.5-4.7-8.7-8.1c-0.7-1.1-2-2-3.1-2.7c-5.8-3.8-11.5-7.6-17.4-11.1
	c-6.3-3.8-12.8-7.3-19.3-10.8c-2.7-1.5-5.9-1.8-8.5-3.6c-3.2-2.2-6.8-3.7-10.2-5.5c-4.4-2.2-8.6-4.7-13.1-6.5
	c-5.2-2.1-10.6-3.7-15.9-5.4c-3.4-1.1-7.1-1.8-10.4-3.2c-9-3.8-18.2-6.9-27.8-8.9c-6.3-1.4-12.9-2-19-4c-6.9-2.2-14.3-2-21.1-4.7
	c-0.3-0.1-0.7-0.1-1.1-0.1c-6.3-0.1-12.7-0.1-19-0.2c-7.4-0.2-14.7-0.4-22.1-0.7c-1.9-0.1-3.8-0.2-5.6-0.1
	c-4.1,0.2-8.2,0.5-12.4,0.9c-3.2,0.3-6.5,1.5-9.6,1.1c-4.1-0.6-8,0.5-11.9,0.8c-12,1-23.9,3.1-35.6,5.6c-9.5,2.1-19,4.4-28.5,6.6
	c-5.9,1.4-11.8,3.1-17.3,5.6c-6,2.8-12.3,4.5-18.3,7.5c-5.5,2.7-11.4,4.7-17.1,6.9c-7.4,2.9-13.8,7.6-20.7,11.5
	c-5.2,2.9-10.1,6.3-15.2,9.5c-2.9,1.8-5.7,3.6-8.5,5.6c-3.8,2.7-7.5,5.5-11.1,8.3c-5.5,4.2-11,8.4-16.2,12.8
	c-4.7,3.9-9.1,8.2-13.6,12.3c-4.2,3.9-8.4,7.8-12.6,11.7c-1.2,1.2-2.3,2.5-3.4,3.8c-3.6,4.2-7,8.4-10.7,12.5
	c-1.9,2.1-4.3,3.7-6.1,5.8c-5.8,6.8-11.6,13.5-17,20.5c-4.7,6.1-9.1,12.5-13.5,19c-5.8,8.5-10.2,17.8-15.1,26.8
	c-2.8,5.3-5.4,10.7-8.2,16c-0.7,1.4-2.1,2.5-2.8,3.9c-1.8,3.8-3.5,7.7-4.9,11.6c-1.1,3.1-1.7,6.4-2.7,9.6
	c-2.6,8.3-5.4,16.4-7.9,24.7c-2.3,7.5-4.7,15-6.3,22.7c-1.8,8.5-3,17.2-4.3,25.9c-0.6,4.3-1.8,8.5-2.5,12.8
	c-1.1,7.2-1.2,14.4-1.8,21.7c-0.1,2-0.4,4-0.3,6c0.5,7.2,1.3,14.4,1.6,21.6c0.4,8.7,1.1,17.5,1.7,26.2c0.6,8.9,2.4,17.6,3.7,26.4
	c1.2,8.4,4.1,16.4,4.3,25c0,1.8,0.7,3.7,1.3,5.4c1.1,3,2.6,5.9,3.7,9c3,8.6,6.1,17.2,8.9,25.9c4,12.3,9.2,24.1,15,35.7
	c4.6,9.2,9.8,18,15.2,26.7c3.4,5.4,7.1,10.7,10.5,16c2.6,4,5.2,7.9,8.5,11.4c4.5,4.9,8.8,9.9,12.8,15.1c3.9,5.2,8.8,9.4,13,14.4
	c2.8,3.3,6.5,5.7,9.9,8.4c1.7,1.4,3.8,2.3,4.7,4.6c0.3,0.7,1.2,1.2,2,1.7c2,1.3,3.9,2.7,5.3,4.7c1.4,2,3.3,3.8,5.2,5.3
	c2.7,2.1,5.7,4,8.5,6c1.8,1.3,3.6,2.6,5.4,3.9c4,3,7.8,6.3,11.9,9.1c5.6,3.9,11.5,7.5,17.2,11.2c2.1,1.3,4.3,2.5,6.4,3.8
	c4.1,2.4,8.1,5,12.3,7.2c4.8,2.6,9.9,4.9,14.8,7.4c5.3,2.7,10.3,5.8,16,7.6c4.6,1.5,9.2,3.2,13.8,4.9c3.6,1.3,7.2,2.7,10.8,4.2
	c5.7,2.3,11.8,3.5,17.7,4.8c3.1,0.7,6.1,1.5,9.1,2.4c5.7,1.8,11.3,3.9,17.3,4.7c3.2,0.4,6.4,1.3,9.6,1.7c7.8,1.1,15.6,2.5,23.5,3.2
	c8,0.7,15.8,1.9,23.7,3.1c5.2,0.8,10.5,1.1,15.7,1.3c4.6,0.1,9.1-0.4,13.7-0.7c2.4-0.1,4.8,0.1,6.7-1.9c0.5-0.5,1.6-0.5,2.5-0.7
	c6.5-1.3,13.2-0.9,19.8-1.8c5.5-0.8,11-1.9,16.6-2.6c3.9-0.4,7.8-1,11.7-1.4c4.2-0.4,8.5-0.7,12.7-1.6c4.7-1.1,9.3-2.8,13.9-4.3
	c3.4-1.1,6.8-2.2,10.2-3.2c3.1-1,6.2-2,9.4-2.9c2.7-0.8,5.6-1.3,8.3-2.3c2.3-0.8,5.2-1.5,6.6-3.2c1.3-1.6,2.8-2.4,4.4-3.1
	c5.4-2.3,10.9-4.3,16.2-6.8c5.4-2.6,10.6-5.7,15.8-8.6c5.4-3,10.8-5.8,16-9c4.6-2.8,8.7-6.4,13.5-8.9c5.7-3,10.3-7.4,15.6-11
	c3.6-2.4,6.7-5.4,10.2-8.1c3.4-2.7,7-5.2,10.3-7.9c1.8-1.4,3.2-3.2,4.9-4.7c3.9-3.5,8-6.7,11.7-10.4c4-3.9,7.5-8.3,11.3-12.5
	c2.9-3.2,6-6.4,8.8-9.7c3.7-4.5,7.1-9.2,10.7-13.8c2.3-2.9,4.9-5.5,7.1-8.5c2.6-3.7,4.8-7.8,7.3-11.7c2.3-3.7,4.7-7.3,7.1-11
	c2.1-3.2,4.4-6.4,6.4-9.7c2.3-3.8,4.3-7.8,6.5-11.7c1.6-2.8,3.4-5.6,4.7-8.5c2.8-6.3,5.3-12.7,7.9-19c0.3-0.7,0.4-1.4,0.6-2.2
	c0.7-2.9,1.3-5.8,2.2-8.6c1-2.9,2.6-5.7,3.6-8.6c2.7-8.4,5.5-16.9,7.8-25.5c1.9-7.1,3.3-14.4,4.8-21.6c0.7-3.1,1.5-6.1,1.7-9.3
	c0.3-7.2,2.8-14.2,2.5-21.5c0-0.4,0.2-0.7,0.2-1.1c0.6-6,1.5-11.9,1.8-17.9c0.5-10.4,0.6-20.8,0.8-31.3c0-3-0.5-6.1-0.9-9.8
	C1105.2,585.5,1098.2,592.1,1090.5,599.2L1090.5,599.2z"/>
<path class="st0" d="M954,555c2.9-1.7,3.1-1.3,3.1-4.5c0-0.6,0.1-1.2,0.2-1.8c0.2-2.6,0.4-5.2,0.6-7.9c0.2-2.9,0.3-5.7,0.4-8.6
	c0.2-5.5,0.5-11-1.3-16.8c-4.8,2-9.4,3.7-13.9,5.7c-4.2,1.8-8.2,4.4-12.6,5.4c-5.9,1.4-11.9,3.2-18.1,2.8c-3.8-0.3-7.7,0-11.5-0.1
	c-4.6-0.1-8.5-2.7-12.8-3.9c-3.1-0.9-5.9-2.7-9-3.7c-4.6-1.6-8.8-4.1-12.9-6.6c-4.1-2.6-8.2-5.2-12.3-7.9c-4.1-2.8-8-5.7-12-8.6
	c-2.4-1.8-4.8-3.6-7.2-5.4c-3.3-2.4-6.6-4.8-9.8-7.3c-3.8-3-7.4-6.1-11.1-9.2c-9.6-8-19.1-16.2-27.4-25.6c-1.8-2.1-4.9-3.1-5.3-6.4
	c-3.1-0.4-4.2-3.3-6.1-5.1c-4.2-4-8.3-8.3-12.4-12.4c-0.6-0.6-1.2-1-2.4-2c-0.1,2.7-0.2,4.6-0.2,6.6c-0.1,4-0.1,8-0.1,11.9
	c-0.1,8.1-0.4,16.3-0.4,24.4c0,1.1,0.5,2.4,1.2,3.4c2.6,3.6,5.2,7.2,8,10.6c4,4.8,8.1,9.4,12.2,14.1c1.5,1.8,3.2,3.4,4.9,5
	c1.7,1.7,3.4,3.2,5.1,4.9c1.3,1.2,2.4,2.5,3.8,3.7c2.7,2.3,5.4,4.5,8.2,6.6c1.5,1.1,3.1,2.1,4.8,2.8c1.2,0.6,1.7,1.2,1.6,2.5
	c-0.1,2.2,0.1,4.5,0.2,6.7c0.3,5.1,1.2,10.3,0.7,15.3c-0.5,5.1,0.8,10,0.3,15.1c-0.4,3.7-0.5,7.8,0.2,11.7c0.5,3,1.3,5.6,3.5,7.6
	c2.2,2.1,4.5,4,6.9,5.8c7.9,6.3,15.7,12.8,24.5,17.9c6.5,3.7,12.8,7.4,19.7,10.2c1.4,0.6,3,0.8,4.8,1.3c2-8.9,0.8-17.4,1.1-25.9
	c0.3-8.6-0.5-17.2-0.8-26c1.8-0.1,3.3-0.6,4.7-0.2c3.3,0.7,6.4,1.8,9.7,2.7c1.2,0.3,2.5,0.5,3.7,0.6c4.1,0.3,8.2,0.6,12.3,0.7
	c4.5,0.1,9,0.5,13.5,0.1c6.1-0.5,12.2-1.4,18.2-2.6c4.6-0.9,9.3-1.9,13.6-4.1C948.6,557.3,951.4,556.5,954,555L954,555z"/>
<path class="st0" d="M624.9,407.8c0.7,6.1,0.2,12.4,0.3,18.6c0,1.3,0.2,2.6,0.3,3.8c3.9,0.4,7.4,0.7,10.9,1.3
	c4.7,0.8,9.3,2.1,14,2.8c4,0.5,7.5,1.9,10.6,4.3c2.6,1.9,5.3,3.7,8.3,5.9c0.4-0.9,1.1-1.6,0.9-1.9c-1.3-2.7-0.1-5.4-0.5-8.1
	c-0.3-2.2-0.2-4.4-0.1-6.6c0-0.5,0.8-1.2,1.4-1.5c0.3-0.1,1.2,0.4,1.4,0.8c0.7,1.1,1.3,2.4,1.8,3.6c1.1,2.8,2,5.7,3.3,8.3
	c1.5,3.1,3.4,6.1,5.1,9.2c1.1,2.1,3.1,4.4,2.9,6.4c-0.4,4,2.3,4.7,4.6,5.7c4.9,2.1,8.4,5.8,12.2,9.2c3.8,3.4,7.2,7.3,11,10.7
	c4.8,4.2,9.9,8,14.8,12.1c4.1,3.3,8,6.7,12.1,10.1c3.7,3,7.4,5.9,11.1,8.9c2,1.7,3.9,3.5,5.8,5.2c0.2-0.2,0.5-0.3,0.7-0.5
	c-1.6-3.2-3.3-6.4-4.8-9.7c-3.3-7.2-7-14.2-9.6-21.6c-2.3-6.8-6.5-12.6-9.2-19.2c-1.8-4.3-4.8-8.2-6.9-12.3
	c-0.8-1.5-1.6-2.5-3.2-2.8c-2-0.4-2.1-1.7-1.6-3.9c1.1,0.4,2,0.7,2.8,1.1c3.2,1.7,6.2,3.8,9.6,5.2c2.6,1,5.6,1.4,8.4,1.6
	c1,0.1,2.5-0.9,3-1.8c1.1-2.2,2.4-4.6,2.6-7c0.7-9,1.1-17.9,1.5-26.9c0-0.9-0.4-1.9-0.9-2.7c-1.9-3.7-4.6-6.7-7.7-9.5
	c-3.5-3.2-6.9-6.6-10.5-9.7c-6.6-5.8-13.2-11.4-20-17c-4.3-3.6-8.6-7.2-13.2-10.4c-4.6-3.1-9.6-5.7-14.5-8.5
	c-4.5-2.6-9-5.3-13.7-7.7c-7.1-3.6-15-4.9-22.8-6.2c-6.3-1.1-12.7-1.2-19.1-0.7c-3.3,0.3-3.7,0.4-3.6,3.8c0,4.4,0.3,8.7,0.5,13.1
	c0.1,2.5,0.4,5,0.3,7.5c-0.2,6-0.6,12-0.7,18C624.5,395,624.1,401.3,624.9,407.8L624.9,407.8z M671.2,384.8
	c5.8,4.6,11.6,9.1,17.4,13.7c3.4,2.6,6.7,5.2,10,7.9c1,0.8,1.9,1.7,2.7,2.6c0.4,0.4,0.9,0.9,1.3,1.3c0.2,0.2,0.4,0.7,0.3,1
	c-0.8,4.1-0.7,8.6-4.5,11.5l0,0c-0.4,0.3-0.8,0.6-1.3,0.9c-0.3,0.2-0.7,0.4-1,0.6c-0.1,0.1-0.3,0.2-0.4,0.2
	c-0.7-0.6-1.3-1.2-1.9-1.8c-0.5-0.5-0.9-0.9-1.4-1.4c-1-1-2-1.8-3.1-2.6c-1.6-1.2-3.2-2.4-4.8-3.6c-3.2-2.4-6.6-4.6-10.5-5.8
	c-0.9-0.3-1.6-0.6-2.3-0.2c-0.2,0.1-0.5,0.3-0.7,0.6c0,0-0.1,0.1-0.2,0.1c-0.4,0.3-1.4,0.4-1.8,0.1c-0.5-0.3-0.7-1.2-0.7-1.9
	c0.1-5,0.3-10,0.3-14.9c0-0.4,0-0.7,0-1.1c0-0.1,0-0.3,0-0.4c-0.1-2.2-0.8-4.4-1.2-6.9c0.5-0.4,0.9-0.6,1.3-0.7
	C669.8,384,670.5,384.2,671.2,384.8L671.2,384.8z"/>
<path class="st0" d="M615.7,346.3c-5.6,0-10.5,1.2-14.9,3.4c-5.2,2.5-10,5.6-15,8.5c-4.1,2.4-8,4.9-12.2,7c-3,1.5-5.6,3.6-8.3,5.6
	c-3.2,2.4-6.4,4.7-9.5,7.2c-2.6,2.1-5,4.5-7.6,6.6c-5.2,4.2-10.6,8.3-15.8,12.6c-5.1,4.2-10,8.6-15,12.9c-8,6.8-16.3,13.2-22.9,21.6
	c-2.9,3.7-5.7,6.8-5.7,12c0.1,5.2-0.8,10.5-1.3,15.7c-0.4,4.6-0.5,9.3-1,13.9c-1.3,10.9-2.9,21.8-3.5,32.8c-0.1,3-0.9,5.9-1.2,8.9
	c-0.1,1.1-0.6,2.6,1.1,3.4c7.7-7.9,15.2-16.1,23.3-23.7c8.2-7.7,17.2-14.5,27.2-19.9c0-1.7-0.1-3.2,0-4.7c0.3-4.9,0.4-9.8,1-14.6
	c0.3-2.4,0.8-4.7,3.2-6.6c5.6-4.4,11.4-8.4,17.9-11.5c1.8-0.8,3.3-2.1,5.2-3.2c1.9,4.3-0.7,8.6,0.8,13.1c8.9-3.5,17.2-7.5,26.3-9.6
	c9.1-2.2,18.1-4.5,27.7-6.9C616.4,402.9,616.2,374.7,615.7,346.3L615.7,346.3z M562,399.2c-0.2,1.9-0.4,3.9-0.7,5.8
	c-0.4,3-0.8,6.1-1.1,9.1c0,0.1,0,0.3,0,0.4c0,0.8,0.2,1.7,0.4,2.4c0.3,1,0.4,1.8,0.2,2.5c-0.2,0.6-0.5,1.1-1.2,1.4
	c-0.2,0.1-0.4,0.1-0.6,0.2h-0.1l0,0l0,0c-1.1,0.2-2,0.6-3,1c-2.2,1-4.1,2.5-5.9,4.1c-0.2,0.2-0.4,0.4-0.7,0.5
	c-0.6,0.5-1.2,0.9-1.8,1.3c-1.8,1.2-3.8,2.3-5.6,3.4c-0.3,0-0.7-0.1-1-0.1c-0.7-0.1-1.5-0.2-2.4-0.3c-0.1,0-0.2,0-0.4,0
	c0.6,1.3,1,1.9,1.2,2.4l0,0l0,0c-0.3,0.3-0.6,0.7-0.8,1c-0.6,0.8-1.2,1.5-1.9,2.3c-0.6,0.7-1.1,1.4-1.7,2.1l0,0l0,0
	c-0.1-0.1-0.3-0.3-0.4-0.4c-1-1.2-1.9-2.1-3.2-3.6c0.2-1.5,0.3-3,0.5-4.5c0.3-2.6,0.5-5.2,0.8-8c0.2-1.8,0.4-3.5,0.6-5.3
	c0.3-1.9,0.8-3.7,2.4-5c0.4-0.3,0.7-0.6,1.2-0.8c0.6-0.3,1-1,1.4-1.7c1.5-2.4,3.2-4.5,5.3-6.2c1.1-0.9,2.4-1.7,3.8-2.4
	c1.1-0.5,2.2-1.2,3.3-1.9c0.8-0.6,1.7-1.1,2.5-1.6c0.3-0.1,0.5-0.3,0.8-0.4c2.2-1.1,4.6-2.2,7.5-3.5c0.1,0.9,0.2,1.8,0.3,2.5
	C562,397.3,562.1,398.3,562,399.2L562,399.2z"/>
<path class="st0" d="M881.1,689.7c1.9-0.2,2.4,1,3,2.2c0.3,0.7,0.8,1.3,1.2,1.8c2.4,3,4.7,6.1,6.5,9.5c1.9,3.7,4.5,7.2,6.7,10.6
	c0.6-0.2,0.9-0.2,1-0.4c4.7-6.6,9.4-13.3,10.6-21.7c0.1-0.8,1-1.9,1.7-2.1c0.7-0.2,1.8,0.5,2.4,1.2c0.6,0.7,0.8,1.8,0.9,2.7
	c0.4,4.6,0.6,9.3,1,13.9c0.5,4.7,1.2,9.4,1.9,14.3c5.4-0.7,10.2-2.8,14.9-5c1.7-0.8,2.4-2.6,2.4-4.4c0-2.9-0.3-5.8-0.5-8.6
	c-0.6-12.2-2.2-24.3-2.1-36.6c0.1-8.6-0.4-17.3-0.9-25.9c-0.4-7.4-1.1-14.8-1.8-22.1c-0.2-2.7-1.7-3.6-4.3-3.2
	c-0.5,0.1-1,0.3-1.4,0.5c-5.1,1.6-10,3.9-15.5,4.2c-1.3,0.1-3,1.2-3.6,2.3c-1.9,3.6-3.7,7.4-5,11.3c-1.5,4.5-2.4,9.2-3.6,13.7
	c-0.9,0.3-1.8,0.5-3,0.8c-0.5-1.9-0.5-3.9-1.5-5.2c-2.3-3.2-3-6.8-4.4-10.3c-1.6-4.2-3.5-8.2-5.4-12.2c-0.3-0.6-1-1.3-1.6-1.4
	c-3.1-0.8-6.3-1.6-9.4-2.2c-1.8-0.4-3.7-0.5-5.6-0.6c-2.3-0.2-4.7-0.6-7,1c0,0.7-0.1,1.5-0.1,2.2c-0.6,8.6,0.3,17.3-0.9,25.9
	c-0.3,1.8,0.1,3.7,0,5.6c0,4,0,8.1-0.3,12.1c-0.6,8.4-1.7,16.7-1.9,25.1c-0.2,8.2,0.3,16.4,0.5,24.6c7.1,3,12.9,8.3,21.1,7.4
	c0.3-4.1,0.8-8,0.8-11.8c0.1-6.2,0-12.3,0-18.5c0-0.7,0.2-1.3,0.3-2.2C879.6,688.7,880.4,689.7,881.1,689.7L881.1,689.7z"/>
<path class="st0" d="M1067.2,544.4c0.1-11-0.5-22.1-0.8-33.1c0-0.8-0.2-1.6-0.4-2.6c-0.7,0.6-1.1,0.8-1.5,1.2c-2.7,3-5.2,6.1-7.9,9
	c-2.7,2.8-5.6,5.4-8.3,8.2c-1.4,1.4-2.5,3.1-3.9,4.5c-1.8,1.8-3.8,3.3-5.5,5.2c-1.8,1.9-2.6,4.2-1.9,6.9c0.5,2.1,0.9,4.2,1.2,6.3
	c1,7.7,1.9,15.4,2.8,23.1c0.3,2.6,0.2,5.2,0.2,7.8c0,0.4-0.5,0.8-1.1,1.7c-5.4-10-12.4-18.1-20.7-24.9c-5.5,2.6-9.4,6.7-13.4,10.5
	c-1.9,1.8-3.2,4-3,7c0.2,3.2-0.5,6.5-0.5,9.7c0,4.9,0.2,9.8,0.3,14.7c0.1,5.6,0.8,11.4,0.1,16.9c-0.9,6.8-0.3,13.5-0.3,20.3
	c0,8.6-0.1,17.3-0.1,25.9c0,1.8-0.7,3.9,0.9,5.6c2-1.5,4.1-2.6,5.5-4.3c3-3.8,7.3-6,10.8-9.3c2.7-2.5,6-4.4,9.1-6.5
	c1.9-1.3,2.9-3.1,2.3-5.4c-1-4.5-1-9.1-2-13.6c-1.2-5-1.3-10.3-1.8-15.5c0-0.5,0.7-1.1,1.4-2.2c6,7.1,10,15.1,15.1,22.9
	c2.7-2.4,5.3-4.4,7.6-6.8c3.8-4.1,7.3-8.4,10.8-12.8c1.4-1.7,2.6-3.8,3-5.9c0.6-2.9,0.7-6,0.5-9c-0.4-8.6,2-17.2,0.3-25.9
	c0-0.2,0-0.5,0-0.8C1066.4,563.4,1067.1,553.9,1067.2,544.4L1067.2,544.4z"/>
<path class="st0" d="M499.1,658.9c-0.6,0.6-1.4,1-2.1,1.6c-1.4,1.1-3,2-4,3.3c-2.6,3.2-6.4,4.9-9.5,7.6c-4.4,3.7-9.3,6.9-13.4,11
	c-1.7,1.7-2.4,3.7-2.7,6.1c-0.8,5.7-1.8,11.4-2.7,17.1c-0.6,3.6-1.3,7.1-2,10.6c0.2,0.1,0.4,0.2,0.6,0.2c1.9-1.9,3.9-3.8,5.7-5.8
	c2.2-2.4,4-5,6.3-7.3c4.4-4.2,9-8.2,13.5-12.4c4.6-4.2,9.6-7.8,14.4-11.7c7-5.8,15.1-10.3,21.7-16.6c0.2-0.2,0.5-0.2,0.7-0.3
	c6.1-3.7,12.2-7.4,18.2-11.1c1.5-0.9,2.2-2.1,2.3-4c0.1-3.8,0.5-7.5,0.8-11.3c0.3-4.1,0.6-8.2,0.7-12.4c0.1-2.4-1-4.3-3.2-5.6
	c-0.7-0.4-1.5-1-1.7-1.8c-0.7-1.9-2.2-2-3.6-1.9c-1.6,0.1-3.3,0.4-4.7,1.1c-5.5,2.7-10.9,5.5-16.3,8.6c-5.9,3.4-11.6,7-17.4,10.5
	c-1,0.6-2,1.1-3.1,1.3c-1.2,0.3-2.3-1-1.8-1.7c1.5-2.3,1.1-5.2,3.1-7.4c4.9-5.5,11.3-8.8,17.5-12.3c7.2-4.1,14.9-7.2,22.3-10.8
	c0.6-0.3,1.2-0.5,1.6-0.9c0.5-0.4,0.9-0.9,1.1-1.5c0.6-1.9,1.3-3.8,1.6-5.7c1.5-7.7,2.9-15.5,4.2-23.3c0.3-1.5,0.2-3.1,0.3-4.6
	c-2.3,1-4.3,1.9-6.2,2.8c-1.2,0.6-2.4,1.3-3.5,2c-2.6,1.7-5.1,3.5-7.7,5.3c-1.4,1-2.9,2-4.2,3.1c-1.6,1.3-3.1,2.9-4.7,4.2
	c-2.5,2-5.2,3.9-7.7,5.9c-1.3,1.1-2.5,2.4-3.9,3.4c-2.4,1.8-5,3.2-7.3,5.2c-4,3.4-7.6,7.2-11.5,10.7c-6.8,5.9-13.7,11.7-20.4,17.4
	c-0.3,3.5-0.5,7-1,10.6c-0.7,5.7-1.6,11.4-2.4,17.1c-0.1,0.6-0.2,1.4,0.1,1.8c1.5,2,0.3,4.1,0.3,6.2c0,1.2-0.3,2.5-0.2,3.7
	c0.5,3.5,2,4.2,4.8,2.1c5.9-4.5,11.7-9,17.5-13.5c4.7-3.6,9.5-7.3,14.2-10.9c1.2-0.9,3-0.4,3.7,1.2c0.7,1.6,0.7,3-0.7,4.5
	C504.1,653.3,501.6,656.2,499.1,658.9L499.1,658.9z"/>
<path class="st0" d="M833.3,726.6c4.4,3.3,9,5.9,14.3,7.3c1.6,0.4,2.6,0.1,3.1-1.6c1.2-4.3,1.9-8.6,1.9-12.5c-3.2-2.2-6-4.3-9-6
	c-7.8-4.2-14.4-10-20.7-16c-9.4-8.9-18.5-17.9-27.8-26.8c-3.6-3.5-7.3-6.9-11-10.2c-1.2-1-2.3-2.4-4.7-1.8c-0.2,1.4-0.7,3-0.7,4.5
	c0,7.7,0.1,15.4,0.2,23.1c0.1,6,0.4,12.1,0.3,18.1c-0.1,8.5-0.4,16.9-0.6,25.4c-0.1,5.5-0.3,11,4.3,15.1c0.2,0.2,0.2,0.5,0.3,0.7
	c2.8,3.6,5.5,7.4,8.5,10.9c6.1,7.1,13,13.4,19.9,19.7c6.6,6,13.3,11.7,20.1,17.4c2.1,1.8,5.3,2.1,7,4.6c0.1,0.1,0.2,0.1,0.4,0.1
	c1.7,0.9,3.5,1.9,5.2,2.8c1.1,0.5,2.2,0.9,3.6,1.5c0-4.2,0.2-7.9,0-11.6c-0.4-5.8-1-6.5-6.5-8.4c-4.2-1.4-7.8-3.8-11.2-6.7
	s-7.1-5.4-10.7-8.1c-0.7-0.6-1.2-1.5-1.7-2.3c-0.9-1.5-0.5-3-0.2-4.7c0.3-1.5-0.2-3.1-0.4-4.7c3.4-1.1,4.7,1.7,6.5,3.1
	c1.6,1.3,3,3.1,4.8,4.1c4.5,2.4,9.1,4.8,13.1,8c1.3,1,2.8,1.7,4.6,0.8c1.2-6.4,2.4-12.9,3.5-19c-0.5-0.6-0.6-0.7-0.7-0.8
	c-0.5-0.2-0.9-0.4-1.4-0.4c-7.9-1.2-14-5.8-19.9-10.7c-2.1-1.8-4-3.7-6-5.7c-1.4-1.4-1.8-3-1.1-5.1c0.6-1.9,0.5-4.2,0.6-6.3
	c0.1-1.3,0-2.7,0-4.6c1.5,0.3,2.6,0.3,3.4,0.9C827.7,722.6,830.6,724.6,833.3,726.6L833.3,726.6z"/>
<path class="st0" d="M1132.5,430.8c-1.9,1.8-3.8,3.5-5.6,5.3c-0.9,0.9-1.9,1.8-2.8,2.8c-3.1,3.2-6.1,6.6-9.2,9.9
	c-5.6,5.9-11.4,11.6-17,17.5c-2.9,3.1-5.4,6.6-8.1,9.8c-5.6,6.6-11.2,13.1-16.8,19.7c-1.6,1.9-3.5,3.8-1.7,6.6
	c0.1,0.2,0.1,0.5,0.1,0.7c0,5.2,0,10.5,0,15.7c0,2.5,0.1,5,0.1,7.5c0.1,5.7,0.1,11.5,0.2,17.2c0,0.6,0.5,1.2,0.8,2
	c0.6-0.4,1-0.5,1.2-0.8c4.8-6.8,9.6-13.7,14.4-20.5c0.4-0.6,0.8-1.3,1.3-1.9c1.3-1.4,2.3-1.3,3.3,0.2c1,1.6,1.7,3.2,1.4,5.3
	c-0.6,5-1,10-1.3,15c-0.4,7.4-0.7,14.7-1,22.1c-0.3,7.6-1.1,15.2,1.5,22.8c0.4-0.3,1-0.5,1.4-0.9c3.8-3.9,8-7.5,11.4-11.9
	c3.2-4.1,6.7-8,10.5-11.6c2.3-2.2,2.7-4.5,2.9-7.4c0.4-8,0.7-16,1.3-24c1.2-14.4,2.5-28.7,2.2-43.1c6.1-3.7,9.6-9.7,10-16.9
	c0-0.4,0-0.8,0.1-1.1c0.3-5.6,0.6-11.1,0.9-16.7c0.2-3.2,0.3-6.4,0.5-9.6c0.2-5,0.3-10,0.5-15.7
	C1133.8,429.7,1133.1,430.2,1132.5,430.8L1132.5,430.8z"/>
<path class="st0" d="M785.4,657.5c2.7,2.9,5.3,5.9,8,8.8c1,1.1,2.3,0.8,2.4-0.7c0.1-2.2,0.9-4.5-1.2-6.3c-0.8-0.7-1.3-1.9-1.7-2.9
	c-2.7-6.9-5.7-13.6-8-20.7c-4-12-7.5-24.2-11.1-36.3c-1.1-3.6-2.1-7.2-4.4-10.3c-0.3-0.4-0.4-1.1-0.7-2.1c3.6,0.1,5.6,3.3,9.2,3.5
	c0.3-0.8,0.8-1.8,1-2.8c0.2-0.8,0.1-1.7,0.1-2.6c0.7-9.5,1.4-19,2-28.5c0.2-3-1-5.6-2.9-7.9c-5-5.9-10-11.9-15.8-17.1
	c-4.7-4.3-8.8-9.1-13.4-13.5c-4.6-4.4-9.4-8.6-14.2-12.9c-1.3-1.2-2.6-2.3-3.8-3.2c-2.3,0.4-2.8,1.7-2.8,3.6c0,4.8-0.2,9.5-0.3,14.3
	c-0.1,2.6-0.3,5.2-0.3,7.9c-0.1,7.6,0,15.3-0.1,22.9c-0.1,4.4-0.5,8.7-0.6,13.1c-0.1,6.9-0.1,13.7-0.1,20.6c0,3,0.3,6.1-0.3,9
	c-0.4,1.9,0,3.2,1,4.4c1.5,2,3.1,3.9,4.9,5.7c2.7,2.8,5.6,5.4,8.4,8.1c1,1,1.9,2.1,2.9,3.1c0.3-0.1,0.6-0.2,0.8-0.3
	c0-5.2,0.1-10.3,0.1-15.9c2.7,0.9,4.8,0.7,5.5,3.4c1.7,6.5,3.6,13,5.5,19.5c1.1,3.9,3,7.2,6.2,9.9c3.7,3.2,6.8,7.2,10.1,10.9
	c2,2.3,3.6,4.8,5.6,7C779.9,651.9,782.7,654.6,785.4,657.5L785.4,657.5z M757.8,557.6c-0.6,5.4-1.3,10.7-2,16.1
	c-0.2,1.7-0.4,3.4-0.7,5c0,0.1-0.1,0.3-0.1,0.5c-0.2,0.7-0.5,1.4-1,1.6c-0.1,0-0.2,0-0.3,0c-0.5,0-1.3-0.5-1.8-0.8
	c-3.6-2.1-4.9-5.2-4.3-9.4c0.3-1.9,0.5-3.9,0.8-5.8c0-0.4,0.1-0.8,0.1-1.1c0.2-1.9,0.5-3.8,0.8-5.7c0.3-1.7,0.5-3.3,0.5-5
	c0.1-1.9-0.1-3.9-0.5-5.9c-0.1-0.4-0.1-0.9-0.1-1.3c0-1,0.1-2.2,0.1-3.6l0,0l0,0c0.8,0.5,1.3,0.7,1.5,0.9l0,0l0,0c0,0,0,0.1,0.1,0.1
	c0.6,1,1.1,2.1,1.7,3.1c1.6,2.9,3.1,5.8,4.7,8.7C757.6,555.8,757.8,556.8,757.8,557.6L757.8,557.6z"/>
<path class="st0" d="M695.9,567.5c6.4,5.6,12.4,11.6,17.9,18c0.8,1,1.8,1.8,2.9,2.8c0.4-0.7,0.7-1,0.7-1.3
	c-0.4-7.8,0.1-15.7,0.4-23.5c0.2-4.4,0.3-8.8,0.5-13.1c0.2-4.1,0.4-8.3,0.6-12.4c0.1-1.1,0.2-2.3,0.2-3.4c0.1-4.9,0.1-9.7,0.1-14.6
	c0-3.2,0.1-6.5,0.1-9.7c0-4.5,0.1-9,0.1-13.5c0-1-0.2-2.3-0.8-3.1c-1.3-1.6-3-2.9-4.5-4.3c-4.1-3.5-8.2-7-12.3-10.4
	c-6-4.9-12-9.7-18.2-14.4c-4.8-3.7-9.9-7.1-15.1-10.8c-0.3,1.2-0.6,1.9-0.6,2.6c0.1,6.2-0.6,12.3-1.7,18.3c-1,5.2-1.6,10.4-2.3,15.6
	c-0.8,5.4-1.8,10.9-2.1,16.3c-0.3,4.6-0.1,9.1-3.1,13.1c-0.3,0.5-0.4,1.2-0.4,1.8c-0.4,3.7-0.8,7.5-1.2,11.2c-0.3,2.6-0.5,5.1-0.8,8
	c8.1,5.1,17,9.2,24.2,16.3c-0.4-7.4-0.7-14.7-1.1-22.7c5.3,2.2,9.1,6,14.1,7.7c0,5.1-0.1,10,0,14.9c0,2,0.6,4,0.6,6
	C693.8,564.9,694.4,566.2,695.9,567.5z M692.3,521c-2.4-1.1-4.8-2.1-7.1-3.1c-1.5-0.6-3-1.3-4.5-2c0.1-0.5,0.1-1,0.2-1.5
	c0.2-1.7,0.5-3.4,0.7-5.1c0.1-0.7,0.2-1.4,0.2-2c0.1-0.8,0.1-1.7,0.2-2.6c0.1-2.3,0.3-4.5,0.6-6.8c0-0.1,0-0.3,0-0.4
	c0.2-2.8-0.9-5.6,0.3-8.8l0,0l0,0c5.4,2.1,8,6.9,11.9,10.3c-1.5,6.1-1.3,12.2-0.7,18.3C694.3,519.2,693.7,520.4,692.3,521L692.3,521
	z"/>
<path class="st0" d="M538.1,522.3c-0.8,8.9-1.6,17.9-2.4,26.8c-0.2,1.7-0.5,3.4-0.6,5.1c-0.2,4.2-0.2,8.4-0.3,12.6
	c0,0.4,0.2,0.9,0.4,1.7c2.7-1.8,5.1-3.4,7.5-5.2c2.1-1.6,3.9-3.4,6.1-4.9c1.5-1.1,3.3-1.7,4.9-2.7c3.7-2.3,7.2-5,11.2-6.9
	c8.2-3.8,16.4-7.5,25.3-9.5c4.2-1,4.3-1.4,4.4-5.6c0.2-4.8,0.7-9.5,1-14.3c0.1-2.1,0-4.2,0-6.3c-0.6-0.1-1-0.2-1.3-0.2
	c-4.2,0.5-8.2,1.7-12.2,3.1c-6.5,2.3-12.2,5.7-17,10.8c-0.6,0.6-1.6,0.8-2.3,1.2c-1-3.7-2.2-6.9-2.7-10.2c-0.3-1.9-0.1-4.1,1.9-5.4
	c2.8-1.8,5.5-3.9,8.5-5.3c5.5-2.5,10.8-5.2,16.7-6.6c1.3-0.3,2.6-0.9,3.9-1.4c0.3-6.7,0.6-13.3,1-20.1c-1.9,0-3.5-0.3-4.9,0.1
	c-8.7,2.4-17.4,4.8-24.4,11.3c-0.6-0.8-1.3-1.4-1.3-1.9c-0.1-3-0.1-6-0.1-8.6c2.8-1.8,5.3-3.5,7.9-4.9c3.2-1.7,6.4-3.4,10.1-4
	c3.8-0.6,7.5-1.8,11-2.7c1.1-8.2,2.2-15.9,3.4-24.1c-3,0.7-6,1.1-8.7,2.1c-4.9,1.9-9.7,4.1-14.5,6.2c-2.4,1.1-4.8,2.1-7.1,3.4
	c-3.2,1.9-6.4,3.9-9.5,5.9c-2.5,1.6-5.2,3.1-7.5,4.9c-1.3,1-2.7,2.5-3.2,4.1c-2,7-2.6,14.2-2.7,21.5c0,0.9,0,1.8,0.3,2.6
	c1.4,3.9,0.3,7.9-0.3,11.7C539.5,512,538.5,517.1,538.1,522.3L538.1,522.3z"/>
<path class="st0" d="M470.1,621.3c1.5-0.5,3-0.6,4-1.4c5.8-4.4,11.6-8.7,17.1-13.4c5.7-4.9,11.1-10.2,16.5-15.3
	c0.6-0.6,1.1-1.3,1.4-2.1c2.4-5.9,4.8-11.8,7.2-17.7c3.8-9.5,7.6-19,11.4-28.5c4.6-11.6,9.3-23.2,9.9-36c0.2-4.2,0.7-8.5,0.7-12.7
	c0.1-4.1-2.8-6.6-6.9-5.9c-1.4,0.2-2.8,0.9-4.1,1.7c-9.9,6-19.4,12.5-28,20.3c-1,0.9-2,1.8-3,2.7c-1.5,1.5-3,3-4.5,4.5
	c-0.7,0.7-1.5,1.3-2.1,2.1c-4,4.4-8,8.8-12.1,13.3C475,561.9,472.6,591.3,470.1,621.3L470.1,621.3z M492.8,562.1
	c0.3-1.6,0.6-3.2,0.8-4.9c0.5-4.2,0.7-8.4,1-12.6c0-0.5,0-1,0.1-1.5c0.1-2,0.2-4,0.4-6c0.3-2.6,0.9-5.2,2-7.7
	c1.1-0.3,2.3-0.7,3.6-1.1c0.6-0.2,1.2-0.3,1.8-0.5c0.5-0.1,0.9-0.2,1.4-0.3c1.8-0.4,3-0.1,3.7,0.7c0.5,0.6,0.8,1.6,0.7,2.9
	c0,0.6,0,1.3-0.1,1.9c0,1.1-0.1,2.2-0.3,3.3c-0.1,1.1-0.3,2.3-0.5,3.4c-1.1,5.2-2.4,10.5-3.6,15.7c-0.3,1.4-0.7,2.8-1,4.2
	c-0.4,1.7-0.8,3.3-1.3,5c-1,4.1-2.6,8-3.8,12.1c-0.1,0.4-0.2,0.7-0.3,1.1c-0.1,0.2-0.1,0.4-0.2,0.6c-0.4,1.5-0.5,3.1-0.7,4.9
	c-0.1,0.6-0.1,1.3-0.3,2c-0.8-0.4-1.5-0.7-2.2-1c-0.4-0.2-0.9-0.4-1.3-0.6c-0.1,0.1-0.7,0.5-1.3,0.8c-0.2-0.3-0.3-0.4-0.4-0.6
	c0-0.1-0.1-0.1-0.1-0.2c-0.2-1.2-0.3-2.4-0.3-3.6C490.4,573.9,491.7,568,492.8,562.1L492.8,562.1z"/>
<path class="st0" d="M605.5,624.2v-47.1c7.5,0.7,14.6,1.9,22,3.8c0.2-1.1,0.5-2,0.6-2.9c0.7-5.3,1.3-10.7,2-16.1
	c0.4-3.6,0.8-7.2,1.2-10.8c0.3-3.2,0.6-6.3,1-10c-2.3-2-5.6-2-8.8-1.5c-12.1,1.8-24.3,3.6-36,7.4c-9.8,3.1-18.7,7.9-27.5,13
	c-0.7,0.4-1.4,1.2-1.6,2c-0.5,1.9-0.8,3.8-1.1,5.8c-1.3,10.7-2.6,21.4-3.8,32.1c-0.1,0.5,0.1,1,0.3,2c1.3-1.6,2.2-2.7,3.2-3.8
	c3.7-3.8,7.8-7,12.4-9.7c3.8-2.2,3.7-2.4,7,0.3c-1.2,14.8-2.4,29.5-3.6,44.2c3.7-1.1,7.1-2.4,10.7-3.2c4.5-1,9.2-1.5,13.7-2.5
	C600.1,626.4,603.2,626.1,605.5,624.2L605.5,624.2z"/>
<path class="st0" d="M855,616.4c-5.4-3.7-10.3-7-15.1-10.4c-3-2.1-5.9-4.3-8.9-6.3c-5.7-3.7-11.2-7.5-15.9-12.4
	c-4-4.1-8.2-8.1-12.3-12.1c-1.5-1.4-3-2.8-3.4-5c-3.6-0.9-5-4.1-7.2-6.5c-0.8-0.9-1.7-1.7-2.7-2.8c-0.4,0.8-0.7,1.3-0.8,1.7
	c-0.6,5.2-1.2,10.4-1.7,15.6c-0.1,0.9,0.1,1.8,0.1,2.6c0,1.6-0.1,3.2-0.3,4.8c-0.3,2.8-0.6,5.4,1.7,7.6c2.2,2.2,4.3,4.5,6.1,7.1
	c2.9,4.3,6.9,7.5,10.9,10.6c-0.2,3.9-0.6,7.6-0.5,11.2c0.2,7.1-0.3,14.3-0.4,21.4c-0.1,7.9,0.5,15.7,0.7,23.6
	c0.1,4.3,1.3,8.6,5.8,11c0.9,0.5,1.7,1.5,2.3,2.4c3.4,4.5,8.3,7.4,12.3,11.3c1.2,1.2,2.6,2.3,3.8,3.5c1.8,1.6,3.5,3.5,6.2,4.1
	c0-8.4,0-16.5,0-24.6c0-1.6-0.3-3.2-0.4-4.9c-0.1-6.5,0-13-0.2-19.5c-0.2-4.9-0.7-9.7-1-14.6c0-0.6,0.2-1.5,0.7-1.9
	c0.3-0.3,1.2-0.2,1.7,0.1c2.6,1.7,5.2,3.5,7.8,5.1c2.8,1.8,5.8,3.3,9.7,3.7C854.4,633.8,854.7,624.9,855,616.4L855,616.4z"/>
<path class="st0" d="M944.9,660.7c0.3,7.1,0.6,14.3,1.1,21.4c0.4,5.5,1,11,1.7,16.4c0.4,3.4,1.2,6.7,2,10.5c1.8-1.3,3.1-2.4,4.6-3.3
	c4.3-2.5,8.6-5,12.9-7.5c0.2-0.1,0.4-0.2,0.7-0.4c3.8-2.7,7.6-5.2,11.2-8c5.2-4,10.3-8.1,15.3-12.2c0.9-0.8,1.9-1.8,2.2-3
	c0.2-0.8-0.8-1.9-1.2-2.9c-0.1-0.3-0.3-0.7-0.3-1.1c-0.1-2.9-0.3-5.8-0.1-8.6s-0.3-5.5-0.8-9c-3,2.4-5.3,4.4-7.7,6.3
	c-3,2.3-6.1,4.7-9.3,6.8c-2.5,1.6-5.5,0.1-6.1-2.8c-0.4-1.8-0.7-3.6-0.9-5.5c-0.1-0.7-0.1-1.5,0.2-2.2c1.3-2.8,3.1-5.5,5.6-7.3
	c5.4-3.8,11.1-7.1,17.2-11c0-0.8,0-2.2,0-3.6c-0.1-3.2-0.4-6.5-0.5-9.7c-0.1-2.4,0-4.9,0-8c-4.5,2.2-8.7,3.4-11.9,6
	c-2.8,2.3-6,1.9-9.1,3.4c-0.3-3.8-0.6-7.1-0.9-10.2c2.1-1.5,4.2-2.9,6.1-4.4c3.9-2.9,7.7-5.9,11.7-8.7c0.9-0.7,2.1-1,3.6-1.7
	c0.6-6.7,1.2-13.7,1.8-21.3c-3.7,1.2-6.3,3-8.7,4.8c-3.6,2.8-7.1,5.9-10.8,8.6c-2.4,1.8-5,3.2-7.6,4.7c-2.8,1.6-5.9,2.9-8.4,4.9
	c-3.6,2.9-7,6.1-11.5,7.2c-0.3,5.5-0.7,10.7-0.9,16c-0.2,8.5-1.6,17-0.4,25.5c0.1,1,0,2-0.1,3C945.2,656.2,944.8,658.4,944.9,660.7
	L944.9,660.7z"/>
<path class="st0" d="M654.1,501.7c1.1-5.7,2.2-10.3,2.9-14.9c0.6-3.8,1.1-7.7,1.2-11.6c0.3-7.2,0.2-14.5,0.5-21.7
	c0.2-4.6-1-7.1-5.1-9c-1.9-0.9-4-1.4-5.9-2.3c-7.8-3.9-16.5-4.2-24.9-4.9c-6.8-0.6-13.7,1.2-19.5,5.5c-0.3,2.8-0.8,5.5-0.9,8.3
	c-0.2,6.4-0.3,12.8-0.2,19.1c0,6.5,0.4,13,0.5,19.4c0,13.5-0.1,27-0.2,40.5c0,0.8,0.2,1.6,0.4,2.6c8.9-3.1,17.3-1.4,26,1.3
	c2.2-12.9,0.6-25.7,1-38.4C638.5,495.4,646.5,495.8,654.1,501.7L654.1,501.7z M629.2,483.2c0.1-8.6-0.6-17.3,1-26.4l0,0l0,0
	c2.2,0.6,4.3,1.1,6.4,1.7c0.8,0.2,1.5,0.4,2.2,0.7c0.3,0.1,0.6,0.6,0.7,1.1c0.1,0.3,0.1,0.6,0.2,0.8c0,0.1,0,0.2,0,0.3
	c0,0.5-0.1,1-0.3,1.5c0,0.1-0.1,0.2-0.1,0.4c-0.2,0.6-0.3,1.1-0.5,1.7c-0.4,1.7-0.6,3.4-0.7,5.1c-0.1,2.5,0.1,5,0.6,7.6l0,0l0,0l0,0
	c0.2,1.2,0.2,2.4,0.1,3.7c-0.1,1-0.2,1.9-0.3,2.9c-0.1,0.5-0.3,0.8-0.6,1.1c-0.1,0.1-0.2,0.1-0.3,0.2l0,0h-0.1
	c-0.5,0.1-1,0.1-1.6-0.1l0,0l0,0C633.6,484.6,631.4,483.9,629.2,483.2L629.2,483.2z"/>
<path class="st0" d="M645,627.8c2.4,0.5,4.9,1,7.2,2c7.7,3.3,15,7.5,22.1,11.9c2.3,1.4,5.1,2.3,7.1,4.2c3.7,3.4,8,5.7,12.1,9.3
	c-0.1-1.1-0.1-1.5-0.1-2c-0.5-4.9-1.5-9.7-1.4-14.6c0.2-5.2-0.2-10.3-0.2-15.4c0-5.3-0.9-10.7,0.6-16c0.8-2.8-0.1-6.2-0.1-9.2
	c0-6.4,0.1-12.7,0.3-19.1c0.1-1.4-0.2-2.4-1.2-3.3c-1.6-1.5-3.3-3-4.8-4.7c-4.4-4.8-9-9.3-14-13.5c-7.4-6.1-16-9.1-25-11.6
	c-2.2-0.6-4.6-0.6-7.2-1c0.2,1.2,0.4,2.1,0.4,2.9c0.3,7.1-0.7,14.2,0.8,21.2c0.1,0.2,0.1,0.5,0,0.7c-1.5,5.7-0.3,11.4-0.3,17.1
	c-0.1,6.2,0.8,12.4-0.1,18.6c-0.9,6.1,1.3,12.2,0.2,18.3C640.9,627,641.4,627.1,645,627.8L645,627.8z M660.6,578.2
	c3.9,2.8,7.5,5.7,11.4,8.2c1.6,1.1,1.6,2.2,1.5,3.8c-0.3,3.8-0.6,7.7-0.7,11.6c-0.1,3,0,6.1,0.2,9.1c0.1,3,0.4,6,0.6,8.9
	c0.1,1.4,0.1,1.4-2.3,2.6c-0.9-4.4-4.3-5.7-7.6-6.8c-3.3-1.1-3.8-1.6-3.5-6.2c0.3-4.1,0.2-8.2,0.1-12.3c-0.1-5.9-0.4-11.8-0.6-17.7
	C659.8,579.1,660.2,578.8,660.6,578.2z"/>
<path class="st0" d="M692.7,578.8c-0.2,6.4-0.3,12.7-0.3,19.1L692.7,578.8z"/>
<path class="st0" d="M525,696.5c5.5-5,11.2-9.7,17.6-13.5c12.3-7.2,24.4-14.8,36.8-21.9c1.8-1.1,2.5-2.2,2.9-3.9
	c0.8-3.7,1.4-7.3,2.1-11c0.3-1.4,0.6-2.8,0.9-4.1c-4.7-2.3-6.9-2.7-10-0.9c-7.7,4.6-16.2,7.9-23.4,13.4c-0.8,0.7-2.1,0.8-3.1,1.3
	c-0.8,0.4-1.7,0.8-2.4,1.3c-0.6,0.4-1,1-1.7,1.4c-4.2,2.6-8.7,4.8-12.7,7.7c-7,5-13.8,10.3-20.7,15.6c0.3,1.2,0.9,2.2,0.7,3
	c-1.7,7.5-3.6,15-5.3,22.6c-0.3,1.3-0.2,2.8-0.2,4.4c0.9-0.3,1.4-0.3,1.6-0.5C513.7,706.4,519.4,701.5,525,696.5L525,696.5z"/>
<path class="st0" d="M1003.5,475.3c0.4-4.4,0.7-8.9,1.2-14.1c-1.8,0.9-3,1.3-3.9,2c-3.9,2.8-7.7,5.6-11.5,8.5
	c-4.1,3.1-8,6.4-13.2,7.7c-0.9,0.2-2.1,1.3-2.3,2.2c-1.1,4.6-1.9,9.3-2.7,13.7c2.2,1.5,3.8,1.4,5.6,0.1c3-2.2,6.2-4.2,9.2-6.2
	c5.2-3.5,10.2-7.1,15.5-10.5C1002.8,477.7,1003.4,476.7,1003.5,475.3L1003.5,475.3z"/>
<path class="st0" d="M934.7,467.6c-0.5,0-1.3,0.8-1.5,1.4c-0.9,3.4,1.4,6.6,4.9,7.1c3.1,0.4,5.6-0.9,7.3-3c2.8-3.4,4.4-7.6,5.3-11.8
	c2-9.7,2.8-19.6,1.4-29.5c-0.7-5-2-9.7-4.7-14.6c-1.7,2-1.1,3.8-1,5.5c0.3,3.5,0.6,6.9,0.8,10.4c0.1,1.7-0.3,3.5,0,5.2
	c1.1,5.9,0.4,11.8-0.9,17.6C945.1,462,942.1,467.2,934.7,467.6L934.7,467.6z"/>
<path class="st0" d="M820.7,423.2c-1.1,5.8-4.1,7.7-10,7.8c-1,0-2.4,0.9-3,1.8c-0.9,1.3,0,2.8,1.1,3.6c2.6,1.9,5.7,2.2,8.9,2.1
	c2.7,0,3.6-1.8,4.9-3.4c2.5-3,3.6-6.7,4.1-10.4c1.2-8.8,1.8-17.7-0.7-26.5c-0.9-3.1-1.5-6.5-5.7-8.6c0.3,1.8,0.4,3,0.8,4
	c1.3,3,1.4,6.1,1.1,9.2c-0.1,1.4,0.1,2.8,0,4.1C821.8,412.6,821.7,418,820.7,423.2L820.7,423.2z"/>
<path class="st0" d="M751.7,367c-1.8,0.9-1.9,2.2-1.1,3.7c1,2.1,4.5,2.5,6.2,0.9c3.6-3.5,4.2-8.4,5.8-12.8c0.4-1.1-0.1-2.5-0.2-3.7
	c-0.1-1-0.4-2-0.4-3c0.3-5.2-1.5-10.1-2.7-15c-0.1-0.4-0.4-0.8-0.6-1.1c-0.2,0-0.4,0.1-0.6,0.1c0,1.6,0.2,3.2,0,4.7
	c-0.3,2.4-1.3,4.9-1.2,7.3c0.2,5.1,0.4,10-2.2,14.8C753.7,364.6,753.3,366.2,751.7,367L751.7,367z"/>
<path class="st0" d="M887,398c1.5,0.3,3.7,0,5-0.9c2.6-1.8,4.5-4.5,4.5-7.8c0.1-3.1,0-6.3-0.2-9.4c-0.3-3.9-1.3-7.7-3-11.4
	c-0.5,2.7-0.7,5.3-0.7,8c0.1,7.5-1.5,14.2-9.7,18.2C884.6,396.1,885.6,397.7,887,398z"/>
<path class="st0" d="M820.4,859c3,0.9,5.4,0,8-0.7v-11.4c-2.5,0.6-4.6,1.2-6.8,1.7C821.2,852.3,820.8,855.6,820.4,859z"/>
<path class="st0" d="M981.5,408.1c-0.4,0.2-0.6,0.7-0.9,1.1c4.7,2.4,7,1.5,8.4-3c0.2-0.6,0.3-1.2,0.4-1.8c0.4-5.8-0.4-11.4-3.3-16.7
	c-0.9,2.8-0.5,5.5,0,8.3C986.9,400.8,986,405.1,981.5,408.1L981.5,408.1z"/>
<path class="st0" d="M692,875.7c-2.3,0.3-4.2,0.6-6.1,0.9c-0.3,3.5-0.7,6.8-1,10.2h7.1V875.7L692,875.7z"/>
<path class="st0" d="M692,813.6c-1.6-0.2-2.7-0.3-4.1-0.5c0.1,4.6-1.8,8.8-0.4,13h6.3C693.2,821.8,692.6,817.7,692,813.6z"/>
<path class="st0" d="M594.3,733.9c2.2,0.1,4,0.3,5.8,0.4v-12h-5.2C594.7,726.1,594.5,729.7,594.3,733.9z"/>
<path class="st0" d="M891.3,880.8c0,2.9-0.1,5.3,0,7.8c0.2,2.3,1.9,2.9,3.9,1.7c1-0.6,2.1-1.2,3.5-2c-0.3-2.3-0.5-4.7-0.8-7
	C895.7,881.1,893.7,880.9,891.3,880.8L891.3,880.8z"/>
<path class="st0" d="M757.7,848.2c-0.2,1.1-0.4,1.9-0.4,2.7c0,3.7-0.1,7.5,0,11.2c0.1,3.8,0.7,4.1,4.5,3.2
	c-0.2-3.4-0.2-6.7-0.5-10.1c-0.1-1.5-0.6-2.9-0.9-4.4C760.1,849.4,759.4,848.6,757.7,848.2L757.7,848.2z"/>
<path class="st0" d="M602.8,862.4c-0.3,2.4-0.6,4.8-0.9,7.6h8.5v-6.8C607.9,863.1,605.7,861,602.8,862.4L602.8,862.4z"/>
<path class="st0" d="M675,765.6c-1.8-0.3-3-0.2-3.5,1.5c-0.4,1.5-0.9,3.1-1.2,4.7c-1,4.5-0.1,5.6,5.5,5.8
	C675.6,773.4,675.3,769.5,675,765.6L675,765.6z"/>
<path class="st0" d="M521.1,790.1c1.4-0.2,2.2-0.8,1.9-2.5c-0.4-2.5-0.4-5.1-0.5-7.7c0,0,0,0,0.1,0c0-1.1,0-2.2,0-3.4
	s-0.4-2.4-1.9-2.3c-1.4,0.1-1.8,1.1-1.8,2.4c0.1,3.7,0.8,7.5,0.2,11.2C518.8,789.3,519.3,790.4,521.1,790.1z"/>
<path class="st0" d="M842.4,845.2v10.9c2.1-0.5,3.9-0.9,5.7-1.3c-0.4-3.6-0.7-6.9-1.1-10.6C845.3,844.5,843.8,844.9,842.4,845.2
	L842.4,845.2z"/>
<path class="st0" d="M847.3,332.1c-3.1,4.9-2.8,10-3,14.9c-0.1,1.6,0.5,3.2,2.3,3.9C848.2,347.9,848.7,336.3,847.3,332.1
	L847.3,332.1z"/>
<path class="st0" d="M675.2,737.5c0.1-2.5,0.6-5.1,0.7-7.6c0.1-1.9,0-3.7-0.2-5.6c-0.1-1.6-1.1-1.7-2.7-1.1c0.3,6-1.2,12.1-0.1,18.7
	c1.2-0.1,2.1-0.2,3.1-0.4C675.7,739.8,675.2,738.6,675.2,737.5L675.2,737.5z"/>
<path class="st0" d="M829.9,849.6c-0.1,2.4,0,4.8,0.1,7.2c0,0.3,0.2,0.7,0.4,1.1h3.2c1.2-4.4,1.1-8.2-0.3-12.4
	C830.5,846.4,830,847,829.9,849.6L829.9,849.6z"/>
<path class="st0" d="M571.1,842.7c1.1-0.2,2.3-0.5,4.2-0.9c-1.4-4.2,0.1-8.5-2-12.6C570.3,832.4,569.3,839.1,571.1,842.7
	L571.1,842.7z"/>
<path class="st0" d="M766.2,789v2.5c-0.7,0.1-1.3,0.1-2,0.2c-0.2,2.1-0.5,4.1-0.5,6.1c0,2.3,0.9,3.2,2.8,3.1
	c1.7-0.1,3.2-1.8,2.8-3.6c-0.4-2.2-1-4.4-1.6-6.6C767.6,790.2,766.9,789.8,766.2,789z"/>
<path class="st0" d="M746.3,799.2c1.4,0.2,2.6,0.4,4.3,0.6c-0.4-4.3-0.7-8-1-11.8c-1.2-0.3-2.2-0.5-3.3-0.8V799.2z"/>
<path class="st0" d="M674.3,875.3c-1.2,0.1-2.3,0.2-3.5,0.2c-0.3,4.1-0.6,8-0.9,12.1c1.7-0.1,3-0.2,4.6-0.3
	C672.2,883.4,676.2,879.5,674.3,875.3z"/>
<path class="st0" d="M626.6,719c-1.2-1.9-3.2-2-5.7-1.6c0.2,3.2,0.4,6.3,0.7,10.3c1.6-1.3,2.7-2,3.7-2.9
	C626.8,723.3,627.6,720.5,626.6,719z"/>
<path class="st0" d="M688.8,776c0-2.4-0.1-4.7-0.3-7.1c-0.1-1.4-0.7-2.4-3-2c-0.2,3.7-0.4,7.5-0.6,11.6
	C688.7,778.6,688.8,778.6,688.8,776z"/>
<path class="st0" d="M651.2,695.5c-0.4,2.8-0.5,5.6-0.5,8.5c0,1.9,1.2,2.6,3.2,2v-12.1C652.6,694.6,651.3,694.9,651.2,695.5
	L651.2,695.5z"/>
<path class="st0" d="M707.6,306.1c-0.3-0.1-0.7-0.2-1-0.3c-0.7,2.5-1.2,5.1-2.3,7.3c-1.1,2.3-2.9,4.2-4.5,6.6c1.9,0.4,3,0.1,4.3-1.1
	C707.9,315,707.6,310.5,707.6,306.1L707.6,306.1z"/>
<path class="st0" d="M540.5,767.3c1.6-0.3,3-0.5,4.4-0.8c-0.6-2.4-1.1-4.6-1.7-6.9c-1.1-0.2-2.2-0.5-3.6-0.7
	C538.5,762.1,539.3,764.6,540.5,767.3z"/>
<path class="st0" d="M630.7,870c0.1-2.2,0.2-4.1,0.3-6.3c-1.7-0.2-3.1-0.4-4.6-0.6v8C628,870.7,629.2,870.4,630.7,870z"/>
<path class="st0" d="M930.1,856.5v-7.6c-1.5,0.2-2.7,0.4-3.7,0.6c-0.3,2.6-0.6,4.7-1,7H930.1L930.1,856.5z"/>
<path class="st0" d="M579.4,733.4c1.9,0.5,2.3-0.7,2.3-1.8c-0.3-3.5,0.1-7.2-1.4-10.6C578.1,723,578,724.9,579.4,733.4z"/>
<path class="st0" d="M914.3,858c0.3-3,0.6-5.4,0.9-8.5c-1.9,0.4-3.4,0.7-4.9,1c0.3,2.5,0.5,4.8,0.8,7.2
	C912.2,857.8,913.2,857.9,914.3,858z"/>
<path class="st0" d="M900.9,855.4c2.4-4.4,2.3-4.6-2.5-4.6c-0.2,0-0.4,0.2-0.7,0.3c-1,2.6-0.9,4.9,0.2,6.9
	C900.1,858.1,900.3,856.5,900.9,855.4L900.9,855.4z"/>
<path class="st0" d="M616.8,870.8c1.4-0.1,2.6-0.2,3.8-0.3v-7c-1.3-0.3-2.4-0.6-3.8-0.9V870.8L616.8,870.8z"/>
<path class="st0" d="M789.3,839.1c0.6-2.6-0.4-11.3-1.7-14.3C786.8,827.8,787.8,836.3,789.3,839.1z"/>
<path class="st0" d="M806.8,835.7c-1.7,3.7-1.4,4.6,2.9,6c0.2-1.8,0.3-3.4,0.5-5c-0.7-0.2-1.3-0.4-1.9-0.6
	C807.8,836,807.3,835.8,806.8,835.7z"/>
<path class="st0" d="M958.1,405.8c-0.3-1.4-1.9-1.7-4.8-0.9c0.2,1.2,0.5,2.3,0.7,3.8C957.3,408.3,958.5,407.4,958.1,405.8z"/>
<path class="st0" d="M609.1,782.8c-0.3,0.1-0.6,0.1-0.8,0.2c0.4,1.8,1,3.6,1.2,5.4c0.2,1.9,0.1,3.9,0.1,5.9c0.3,0,0.6-0.1,0.9-0.1
	C611.8,790.2,609.9,786.6,609.1,782.8L609.1,782.8z"/>
<path class="st0" d="M682.2,767.2v4.2C682.9,770.1,683.7,768.7,682.2,767.2z"/>
<path class="st0" d="M683.3,774.6c-0.2,0-0.3,0-0.5,0v4.2c0.2,0,0.5,0,0.7,0C683.4,777.4,683.3,776,683.3,774.6z"/>
<path class="st0" d="M670.1,312.7c1.3-0.1,1.8-0.9,1.4-2.3C671,311.2,670.6,311.9,670.1,312.7z"/>
<path class="st0" d="M1047,728.7c-0.3-1.5-0.5-2.5-0.8-3.8C1044.7,726,1045,727.3,1047,728.7z"/>
<path class="st0" d="M1051,705.4c-1.1,0.7-1.4,1.8-0.8,3.2C1050.5,707.6,1050.7,706.7,1051,705.4z"/>
<path class="st0" d="M1047.3,661.7c-0.1,0.6-0.3,1.2-0.5,1.9c2.1-1.1,4-1.5,3.4-4.3c-0.8,0.3-1.4,0.5-2,0.7
	c-0.2,0.1-0.3,0.1-0.5,0.2C1047.5,660.7,1047.4,661.1,1047.3,661.7L1047.3,661.7z"/>
<path class="st0" d="M1047.6,660.2v-0.1l0,0C1047.7,660.1,1047.6,660.2,1047.6,660.2L1047.6,660.2L1047.6,660.2z"/>
<path class="st0" d="M1047.6,660.2v-0.1C1047.7,660.1,1047.6,660.2,1047.6,660.2L1047.6,660.2L1047.6,660.2L1047.6,660.2z"/>
<path class="st0" d="M1047.6,660.2L1047.6,660.2L1047.6,660.2C1047.5,660.3,1047.6,660.2,1047.6,660.2L1047.6,660.2z"/>
<polygon class="st0" points="1047.5,660.3 1047.5,660.3 1047.5,660.3 "/>
<path class="st0" d="M1047.5,660.3L1047.5,660.3L1047.5,660.3z"/>
<path class="st0" d="M1077.5,629.3c0.5-2.1-0.2-3.8-2.1-5.1C1075,626.4,1075.7,628.1,1077.5,629.3z"/>
<path class="st0" d="M719.7,349.3c0.9-1.7-0.5-4.7-2.8-5.9c-0.5-0.3-1.1-0.5-1.7-0.7c-0.9-0.2-1.8-0.4-3.1-0.7
	c-0.4,1.6-1.2,3.2-1.2,4.9c0,1.6,0,3.7,2,4.5C714.8,352.3,718.7,351,719.7,349.3z"/>
<path class="st0" d="M850.2,407.3c3-0.2,5.3-2,5.3-4.4c0-2.1-1.9-4.8-3.5-4.7c-4,0.2-5.3,1.5-5.3,4.7
	C846.8,406,847.9,407.4,850.2,407.3L850.2,407.3z"/>
<path class="st0" d="M569.8,330.4c-1.2,0.4-1.7,0.5-2.1,0.7c-2.3,1.1-3.3,3.5-2.5,5.6c0.7,1.6,3,2.5,5.2,2.1c1.7-0.3,2.6-1.3,2-2.9
	C571.7,334,570.7,332.3,569.8,330.4L569.8,330.4z"/>
<path class="st0" d="M1064.9,688.1c-2.5,0.7-4.3,5-2.7,7.1c0.5,0.6,1.7,1.1,2.5,1c1.8-0.2,3.6-2.4,3.6-4.2
	C1068.4,688.7,1067.2,687.4,1064.9,688.1L1064.9,688.1z"/>
<path class="st0" d="M802.9,788.6c1.2-0.5,2.3-2.5,1.7-3.7c-0.9-1.9-2-3.8-5.5-3.5c0,1.8-0.3,3.5,0,5.2
	C799.4,788.2,801.4,789.1,802.9,788.6L802.9,788.6z"/>
<path class="st0" d="M626.9,693.1c0-1.8-1.6-3.2-3.4-3.2c-1.5,0-2.8,1.7-2.7,3.4c0.1,1.5,1.3,2.4,3.2,2.4
	C625.9,695.6,626.9,694.7,626.9,693.1L626.9,693.1z"/>
<path class="st0" d="M721.6,363.5c-1.1-0.5-2.1-0.9-3.2-1.4c-1.4,1-2.2,2-1.1,3.2c0.6,0.6,1.6,1.3,2.4,1.2
	C721.4,366.4,721.7,365,721.6,363.5L721.6,363.5z"/>
<path class="st0" d="M558.3,716.5c0.5-0.1,1.2-1,1.2-1.6c0.1-1.7-0.8-2.8-3.2-3.6c0.2,1.8,0.1,3,0.5,4.1
	C556.9,716,557.9,716.7,558.3,716.5L558.3,716.5z"/>
<path class="st0" d="M886.3,460.9c1.7,0,3.1-1.2,3.1-2.7c0-1.3-1.3-2.5-2.7-2.6c-1.9-0.1-3.2,1.1-3.2,2.9
	C883.5,460,884.6,460.9,886.3,460.9L886.3,460.9z"/>
<path class="st0" d="M427.8,619.2c0.4,0.2,1.6-0.4,1.7-0.9c0.7-2.1-0.8-2.7-2.7-3.5C426.2,616.8,425.8,618.4,427.8,619.2
	L427.8,619.2z"/>
<path class="st0" d="M936.8,504.2c0-1.2-0.5-2.5-1.9-2.2c-0.8,0.2-1.3,1.4-2.3,2.4c0.9,1,1.5,2.4,2.2,2.4
	C936.3,506.9,936.7,505.4,936.8,504.2z"/>
<path class="st0" d="M850.7,480.5c-0.1,1.3-0.6,2.7,0,3.5c0.5,0.7,2,0.8,3.3,1.2C853.7,482.8,852.6,481.3,850.7,480.5L850.7,480.5z"
	/>
<path class="st0" d="M460.8,543.3c-1-0.9-2-1.7-3-2.6c-1.5,1.2-1.8,2.4-0.7,3.4C458.3,545.2,459.6,544.9,460.8,543.3z"/>
<path class="st0" d="M447.1,486.9c1.1,0.5,2.6-0.4,2.9-1.6c0.4-1.5-0.4-2.1-4.1-3.1C445.4,484.2,445,485.9,447.1,486.9L447.1,486.9z
	"/>
<path class="st0" d="M542.2,367.9c-0.1,0.6-0.5,1.4-0.3,1.9c0.4,0.6,1.2,1,1.9,1.5l0.7-0.7c-0.2-0.7-0.1-1.5-0.5-2
	C543.7,368.1,542.9,368,542.2,367.9L542.2,367.9z"/>
<path class="st0" d="M444.7,697.5c-0.3-0.1-0.7,0-1.2,0c-0.2,0.6-0.3,0.8-0.3,1c0,1.7,1.2,2.3,2.7,2.4c0.3,0,1-0.5,1-0.9
	C447,698.5,446,697.8,444.7,697.5z"/>
<path class="st0" d="M477.8,420.2c0.8,0.7,1.8,0.6,2.6-0.8c-0.9-0.5-1.7-1-3.4-2C477.4,418.9,477.3,419.8,477.8,420.2L477.8,420.2z"
	/>
<path class="st0" d="M1061.9,479.7c-0.5-0.7-1-1.4-1.5-2.2c-0.3,0-0.5,0.1-0.8,0.1c-0.1,0.6-0.6,1.6-0.3,1.8
	c0.6,0.5,1.5,0.7,2.3,0.9C1061.6,480.2,1061.7,479.9,1061.9,479.7z"/>
<path class="st0" d="M874.1,478.8c0,0.1,0.6,0.1,1,0.1c0.1-0.7,0.2-1.5,0.3-2.2c-0.4,0-0.8,0-1.3,0C874,477.4,874,478.1,874.1,478.8
	z"/>
<path class="st0" d="M583.8,343.8c0.1,0.6,1.2,1.6,1.6,1.5c0.9-0.2,1.6-1,3-1.9c-1.2-1-1.8-1.8-2.6-2.1
	C584.8,340.9,583.5,342.5,583.8,343.8L583.8,343.8z"/>
<path class="st0" d="M864.9,338.8c-1.4,2.8-1.4,2.8,1.8,3.7C868,340,868,340,864.9,338.8z"/>
<path class="st0" d="M866.7,342.6L866.7,342.6L866.7,342.6L866.7,342.6L866.7,342.6L866.7,342.6z"/>
<path class="st0" d="M866.7,342.6L866.7,342.6L866.7,342.6L866.7,342.6L866.7,342.6L866.7,342.6L866.7,342.6L866.7,342.6z"/>
<path class="st0" d="M866.7,342.5C866.7,342.5,866.7,342.6,866.7,342.5C866.7,342.6,866.7,342.5,866.7,342.5
	C866.8,342.5,866.7,342.5,866.7,342.5z"/>
<path class="st0" d="M866.7,342.6L866.7,342.6L866.7,342.6L866.7,342.6L866.7,342.6z"/>
<path class="st0" d="M866.7,342.6L866.7,342.6L866.7,342.6L866.7,342.6z"/>
<path class="st0" d="M866.7,342.6L866.7,342.6L866.7,342.6L866.7,342.6L866.7,342.6L866.7,342.6L866.7,342.6z"/>
<path class="st0" d="M962.1,374.4c0.1,1.3,0.1,2.3,0.2,3.4C964.8,376.4,964.8,376.3,962.1,374.4z"/>
<path class="st0" d="M980.9,433.6c0.3,0.4,1.5,0.7,1.8,0.4c1.1-0.9,0.7-1.9-0.5-3C981,431.7,980.1,432.4,980.9,433.6L980.9,433.6z"
	/>
<path class="st0" d="M187.6,496.1l-20,20l64.9,65.1H3.3v28.3h229.2l-65.1,65.1l20.1,20l99.2-99.2L187.6,496.1z"/>
</svg>
