<?xml version="1.0" encoding="utf-8"?>
<!-- Generator: Adobe Illustrator 26.5.3, SVG Export Plug-In . SVG Version: 6.00 Build 0)  -->
<svg version="1.1" id="Ebene_3" xmlns="http://www.w3.org/2000/svg" xmlns:xlink="http://www.w3.org/1999/xlink" x="0px" y="0px"
	 viewBox="0 0 1190.6 1190.6" width="1190.6" height="1190.6" style="enable-background:new 0 0 1190.6 1190.6;" xml:space="preserve">
<style type="text/css">
	.st0{fill:none;}
	.st1{fill:#FFFCF2;}
</style>
<g>
	<path class="st0" d="M814.4,516c-1.6,4.5-2.6,9.1-2.9,13.9c-0.5-0.2-1-0.3-1.6-0.5c-0.7-1-1.4-1.9-2.2-2.9c-0.4-0.5-0.8-1-1.1-1.5
		c-0.4-0.5-0.8-1-1.1-1.5l-3.2-4.1C806.4,518.5,810.5,517.3,814.4,516z"/>
	<path class="st0" d="M441.9,956.5c-0.4-3.2-0.7-6.4-1.1-9.6c-0.6-4.8-1.1-9.7-1-14.5c0-2.3-0.1-5.3-2.2-6.2
		c-0.7-0.3-1.4-0.3-2.1-0.3c-1.3,0.1-2.7,0.6-3.4,1.7c-0.5,0.8-0.5,1.8-0.4,2.7c0.2,2.9,1.2,5.6,1.4,8.4c0.2,2.4,0,5,0,7.4
		c0,3.3,0.1,6.6-0.6,9.9c-0.5,2.3-1.3,4.6-1.9,6.9c-1.3,4.9-1.6,10-2.9,14.8c-2,7.3-6,14.4-4.7,21.8c0.5,2.8,1.8,5.5,3.2,7.9
		c1,1.8,2.2,3.6,4,4.6c2.1,1.1,4.7,0.8,6.8-0.2s3.8-2.8,5.3-4.5c1.3-1.5,2.6-3.2,3.4-5c2.9-6.1,1.2-13.3-0.1-20
		C443.9,973.8,442.9,965.2,441.9,956.5L441.9,956.5z"/>
	<path class="st0" d="M430.4,517.4c-0.4,0.3-0.8,0.5-1.2,0.8l0,0C429.6,518,430,517.7,430.4,517.4z"/>
	<path class="st0" d="M493.6,1000.5c-0.7-5.9-2.3-11.6-4.5-17c-0.4-1.1-1.2-2.3-2.4-2.3c-0.5,0-0.9,0.3-1.3,0.6c-2,1.7-2,4.6-2.3,7
		c-0.3,2.8-0.5,5.7-0.6,8.5c-0.1,1.9-0.1,3.8-0.2,5.7c-0.2,3.8-0.6,7.6-1.1,11.4c-0.7,5.6-1.4,11.3-2.1,16.9c-0.2,1.7-0.4,3.5,0,5.2
		c0.4,1.7,1.6,3.3,3.3,3.7c1.6,0.4,3.3-0.4,4.8-1.3c1.1-0.7,2.2-1.4,3.2-2.4c3.1-3,4.4-7.4,4.7-11.7c0.3-4.3-0.4-8.6-0.8-12.8
		C494.1,1008.2,494.1,1004.3,493.6,1000.5L493.6,1000.5z"/>
	<path class="st0" d="M618.8,484.8h-15.1V479c0.1,0,0.2,0.1,0.3,0.1c4.7,2,9.6,3.9,14.4,5.5C618.6,484.7,618.7,484.7,618.8,484.8z"
		/>
	<path class="st0" d="M451.5,1074c-2.3-1.3-5.1,0.1-7.7,0.4c-4.6,0.5-9-2.5-13.6-2.3c-1.2,0.1-2.3,0.3-3.5,0.6
		c-2.7,0.6-5.7,1-8.4,1.9c-1.7,0.6-3.8,3.2-5.5,3.2c-0.8,0.3-1.7,0.5-2.4,1.1c-0.7,0.5-1.1,1.6-0.6,2.3c0.4,0.5,1.1,0.6,1.7,0.7
		c8.7,1.2,17.4,1.5,26.1,1.8c1.9,0.1,3.8,0.1,5.6-0.3c1.6-0.4,3.1-1.3,4.7-1.8c1.5-0.5,3.2-0.8,4.4-2
		C453.8,1078,453.4,1075.1,451.5,1074L451.5,1074z"/>
	<path class="st0" d="M499.6,1084c-1.5-0.4-3.1-0.3-4.6-0.9c-1.6-0.7-2.8-2-4.1-3.1c-1.2-1-2.6-1.7-4-2.2c-1.6-0.6-3.3-0.4-4.9-0.8
		c-1.4-0.4-2.6-1-4.2-1c-1.8,0.1-3.6,0.7-5.3,1.3c-0.8,0.3-1.6,0.6-2.3,1.1c-1.3,1.1-1.6,2.9-1.6,4.6c0,1,0.1,2,0.5,2.9
		c1,2.5,3.9,3.9,6.6,4.3c2.7,0.3,5.5-0.2,8.2-0.2c4.9-0.1,9.8,1.2,14.7,0.4c1-0.2,1.9-0.4,2.7-1c0.8-0.5,1.4-1.5,1.4-2.4
		C502.7,1085.4,501.2,1084.3,499.6,1084L499.6,1084z"/>
	<path class="st0" d="M372.7,469.9c-1.2-4.9-2.4-9.6-3.5-14.1l-1.7,1.1c1.1,5.6,2,11.1,2.9,16.4c1-0.4,1.9-0.7,2.9-1.1
		C373.1,471.4,372.9,470.7,372.7,469.9L372.7,469.9z"/>
	<path class="st0" d="M354,1082.7c-0.6-0.6-1.3-1.1-2.1-1.3c-0.8-0.2-1.7-0.2-2.5-0.1c-3.6,0.4-7.3,1.1-10,3.4
		c-0.9,0.8-1.7,1.8-2.7,2.5c-1,0.7-2.1,1.2-3.1,1.8c-1,0.7-2,1.6-2.2,2.8c-0.2,1.2,0.5,2.6,1.8,2.7c0.7,0,1.4-0.3,2-0.6
		c3.8-1.6,7.6,0.7,11.5,0.5c3.6-0.2,7.2-1.8,9.5-4.6c0.2-0.3,0.4-0.5,0.5-0.9s0.1-0.9,0-1.3C356.3,1085.8,355.4,1084,354,1082.7
		L354,1082.7z"/>
	<path class="st0" d="M704.3,605.9c-1-0.4-2.2,0.3-3.1,1c-2.3,1.7-5.1,3.2-7.9,2.8c-0.3,0-0.7-0.1-0.8-0.4c-0.1-0.2,0-0.5,0.1-0.8
		c1-1.8,2.6-3.3,4.5-4.1c1-0.4,2.2-0.7,3-1.5c0.1-0.1,0.2-0.2,0.3-0.4c0.1-0.3-0.2-0.7-0.4-0.9c-1.7-1.6-3.7-0.8-5.5,0.1
		c-2.1,1.1-4,2.8-5.2,4.8c-0.4,0.6-0.7,1.1-0.9,1.8c-0.5,1.5-0.4,3-0.3,4.6c0.1,1.3,0.2,2.8,1.2,3.7c0.5,0.4,1.2,0.6,1.9,0.8
		c1.9,0.5,3.9,1.1,5.9,1.1s4.1-0.5,5.6-1.8c2-1.8,2.5-4.6,2.8-7.2c0.1-0.7,0.2-1.4,0-2.1C705.4,606.8,704.9,606.1,704.3,605.9
		L704.3,605.9z"/>
	<path class="st0" d="M713.6,605.2c-0.3-1.1-1-2-1.7-2.9c-1.3-1.7-2.6-3.5-4.4-4.8c-3.4-2.7-8.2-3.3-12.4-2.3
		c-5.7,1.3-11.5,5.8-13,11.6c-0.4,1.7-0.6,3.5-0.6,5.3c0,1.2,0,2.3,0.2,3.4c0.2,1.1,0.7,2.1,1.3,3.1c0.8,1.5,1.9,2.8,3.1,3.9
		c2.6,2.2,6.2,3.1,9.6,2.8c0.1,0,0.2,0,0.2,0c0.3-0.5,0.6-0.9,0.9-1.4c0.3-0.5,0.6-0.9,0.9-1.3c0.4,0.3,0.8,0.6,1.1,1
		c0.4,0.3,0.8,0.6,1.2,0.9l0,0c1.9-0.6,3.7-1.4,5.4-2.3c3-1.6,5.9-3.8,7-6.9c0.3-1,0.5-2,0.7-3c0.2-1.3,0.4-2.7,0.5-4
		C713.8,607.4,713.9,606.3,713.6,605.2z M710.1,611.8c-0.8,2.6-2.2,5-4.1,6.8c-2,1.8-4.5,3.1-7.1,3.4c-1.9,0.2-3.8,0-5.7-0.2
		c-1.5-0.2-2.9-0.4-4.3-0.9c-1.4-0.5-2.7-1.4-3.5-2.6c-1-1.5-1.1-3.5-1.1-5.3c0-1.3-0.1-2.6,0.3-3.8c0.3-0.8,0.7-1.5,1.1-2.3
		c0.7-1.1,1.3-2.2,2.1-3.3c1-1.4,2.2-3.1,3.8-3.9c0.9-0.4,1.8-0.7,2.7-1.1c0.6-0.3,1-0.2,1.8-0.3c0.3,0,0.6-0.2,0.9-0.2
		c0.6-0.2,1.2-0.2,1.9-0.1c1.2,0,2.5,0.1,3.7,0.1c0.1,0,0.2,0,0.3,0c0.2,0,0.4,0,0.7,0.1c0.1,0,0.2,0.1,0.3,0.1
		c0.7,0.2,1.2,1.1,1.8,1.6c1.3,1.2,2.7,2.2,3.7,3.6C710.9,605.9,710.9,609,710.1,611.8z"/>
	<path class="st0" d="M513.4,858.1c-1.7-1.1-4.1-1.1-6.1-1.1c-1.2,0-2.1,0-2.6,1.1c-0.5,1-0.4,2.8,0.2,3.7c0.4,0.7,1.2,1.1,2,1.3
		s1.6,0.2,2.4,0.3c1.9,0,3.8,0.1,5.6-0.5c0.3-0.1,0.6-0.2,0.8-0.4c0.3-0.3,0.4-0.7,0.4-1C516.1,860.1,514.7,859,513.4,858.1
		L513.4,858.1z"/>
	<path class="st0" d="M1132.3,928.9c-0.3-0.3-0.7-0.6-1-0.4c-0.2,0-0.4,0.2-0.5,0.3c-2.7,2.8-5.4,5.6-8.1,8.4
		c-2.2,2.3-4.4,4.6-6.5,7c-4.7,5.6-8.5,11.9-12.6,18c-5.6,8.5-11.8,16.7-17.9,24.9c-0.4,0.6-0.9,1.2-1.5,1.6c-2.2,1.4-6,0.7-8.4,0.5
		c-3.2-0.3-6.3-0.8-9.5-0.7c-1.9,0-3.9,0.3-5.8,0.4c-3.5,0.2-7.1-0.3-10.6,0.5s-6.9,3.1-7.6,6.6c-0.4,2.1,0.3,4.2,0.7,6.3
		c1,4.8,1,9.8,0.9,14.7c0,1.5,0,3-0.3,4.5c-0.2,1.4-0.7,2.7-0.9,4.1c-0.4,2.1-0.4,4.2-0.5,6.3c0,0.4,0,0.8-0.2,1.1
		c-0.2,0.4-0.6,0.6-1,0.8c-6.6,3.1-14.3,1.5-21.4-0.3c-0.4-0.1-0.8-0.2-1-0.5c-0.2-0.3-0.3-0.6-0.3-0.9c-0.5-3.8-1-7.4-1.1-11.1
		c-0.1-4.1-0.2-8.2-0.1-12.2c0-5.4,0.2-10.8-0.9-16s-3.5-10.4-7.6-13.8c-2.6-2.1-5.9-3.4-9-4.6c-2.9-1.1-5.8-2.3-8.8-2.9
		c-2-0.4-4.1-0.6-6.1-0.9c-3.3-0.3-6.6-0.7-10-0.8c-5.5-0.3-11,0.1-16.5,0c-15.2-0.1-30.8-0.1-45.2,4.8c-5,1.7-9.7,3.9-14.4,6.3
		c-2.2,1.1-4.5,2.3-5.7,4.4c-2.3,3.7-0.6,8.4,0.1,12.7c1.2,7.5-0.9,15-1,22.6c0-1.7-2.1-2.8-3.4-3.4c-1.8-0.8-3.9-0.9-5.8-0.5
		c-3.3,0.7-6.2,2.5-9.2,3.8c-9.5,4.1-20.4,3.3-30.4,5.9c-4.8,1.3-10,4.2-10.5,9.1c-0.5,4.6,3.6,8.5,8,9.8c4.4,1.3,9.1,0.6,13.7,0.5
		c6.5-0.2,13.1,0.8,19.3,2.8c6.5,2.1,13.4,5.4,19.8,3c0,4.7,5,7.6,9.4,9.2c11.9,4.4,24.5,6.9,37.1,7.5c6.4,0.3,13.3,0.2,18.4,4.1
		c4.4,3.4,6.8,9.3,11.8,11.5c7.6,3.3,16.3-3.5,24.4-2c3.8,0.7,7.8,3.2,11.3,1.5c2.5-1.3,3.5-4.4,5.4-6.5c4.3-5,12.1-4.3,18.5-3.2
		s12.7,2.2,19,3.2c5.1,0.9,10.3,1.7,15.4,0.7c2.7-0.5,5.2-1.6,7.9-2.2c7.1-1.7,14.3-0.2,21.3,1.1c6.5,1.3,14.2,3.3,20.5,0.4
		c1.9-0.9,3.6-2.1,5.1-3.6c1.2-1.3,2.2-2.8,2.3-4.6c0.2-2.5-1.3-4.9-3.1-6.6c-0.4-0.4-0.8-0.7-1.1-1.2c-0.5-1-0.1-2.1,0.2-3.2
		c2-6.8,1.6-14.1,1.3-21.2c-0.3-7.3-0.3-14.6-0.1-22c0.1-5.1,0.3-10.5-2-15.1c-2.5-4.7-9.9-10-15.3-7.4c7.1-13,17.5-24,25.3-36.5
		c2.1-3.4,4-6.9,6.5-10c2.8-3.6,6.4-6.7,8.1-10.9C1137.8,933,1134.9,931.2,1132.3,928.9z M899.7,984.2
		C899.7,984.1,899.7,984.1,899.7,984.2c0.7-0.6,1.4-0.9,2.2-1.3c3.7-1.7,7.4-3.6,11.2-5.2c0.6-0.2,1.2-0.5,1.8-0.7s1.2-0.4,1.8-0.6
		c0.4-0.1,0.8-0.3,1.2-0.4c0.6-0.2,1.3-0.4,1.9-0.5c0.4-0.1,0.9-0.2,1.3-0.3c1.2-0.3,2.5-0.5,3.8-0.5c2.3-0.2,4.6-0.3,6.9-0.5
		c11.5-0.8,23-1.7,34.4-1.5c6.1,0.1,12.2,0.5,18.2,1.2c3.8,0.4,7.5,1.3,11.2,2.3c4.1,1.1,8.3,2.6,11.8,5c0.2,0.1,0.3,0.3,0.5,0.4
		c0.1,0.1,0.2,0.1,0.2,0.2c0.1,0.1,0.1,0.2,0.2,0.3c0.2,0.5,0.2,1-0.1,1.4c0,0,0,0.1-0.1,0.2c-0.3,0.4-0.7,0.8-1.2,1.1
		c-0.2,0.1-0.4,0.2-0.6,0.3c-0.1,0-0.2,0.1-0.3,0.1h-0.1c-0.1,0-0.2,0.1-0.2,0.1c-1.7-1.3-3.9-1.8-6.1-2.3c-1.9-0.4-3.8-0.8-5.7-1.1
		s-3.8-0.7-5.7-1s-3.8-0.6-5.7-0.8c-0.8-0.1-1.7-0.2-2.6-0.3c-0.9-0.1-1.8-0.2-2.6-0.3c-0.5-0.1-1-0.1-1.5-0.1
		c-0.7-0.1-1.5-0.2-2.2-0.2c-0.8-0.1-1.7-0.1-2.5-0.2c-1.9-0.2-3.8-0.3-5.7-0.4c-1.4-0.1-2.9-0.1-4.3-0.2c-0.5,0-1.1,0-1.7,0
		c-1.8,0-3.7-0.1-5.6-0.1c-1,0-2,0-3,0c-0.4,0-0.9,0-1.3,0c-0.5,0-1,0-1.5,0s-1,0-1.5,0c-0.4,0-0.9,0-1.3,0.1c-0.7,0-1.4,0-2.1,0.1
		c-1.2,0-2.3,0.1-3.5,0.2c-1.2,0.1-2.4,0.2-3.7,0.3c-1.2,0.1-2.4,0.2-3.5,0.3c-1,0.1-2,0.2-3.1,0.3c-0.4,0-0.8,0.1-1.1,0.1
		c-1,0.1-1.9,0.2-2.9,0.3c-0.3,0-0.7,0.1-1,0.1c0,0,0,0-0.1,0c-0.5,0.1-1,0.1-1.5,0.2c-0.5,0.1-1,0.2-1.5,0.3
		c-0.3,0-0.5,0.1-0.8,0.2c-0.5,0.1-0.9,0.2-1.4,0.3c-0.1,0-0.2,0.1-0.3,0.1c-0.3,0.1-0.6,0.2-0.9,0.3c-0.3,0.1-0.6,0.2-0.8,0.3
		c-2.8,1.1-5.2,3-8.1,3.9c-3.2,1-6.8,0.6-9.8-1.1C899.4,984.6,899.5,984.3,899.7,984.2z M895,987.5c0-0.2,0.2-0.3,0.3-0.4
		c0.7-0.5,1.7-0.3,2.5-0.1c21.7,6.1,43.8,12.2,66.3,11.8c4.5-0.1,8.9-0.4,13.3-0.8c10.8-0.8,22.6-2,30.4-9.5c1.1-1.1,2.6-2.3,4-1.5
		c0,0,0.1,0,0.1,0.1c0,0,0.1,0,0.1,0.1c0.1,0.1,0.2,0.2,0.3,0.4c0.3,0.5,0.4,1.1,0.3,1.7c0,0.2-0.1,0.3-0.1,0.5
		c-0.3,0.9-1.1,1.6-1.9,2.3c-10.6,8.6-25.2,10.1-38.8,10.2c-4.7,0-9.4-0.1-14.1-0.3c-10.4-0.5-20.8-1.7-31.1-3.4
		c-5.1-0.9-10.3-1.9-15.3-3.2c-4.5-1.1-9.4-2-13.7-3.8c-0.1,0-0.2-0.1-0.3-0.1c-0.4-0.2-0.7-0.4-1-0.6c-0.1-0.1-0.3-0.2-0.4-0.3
		c-0.2-0.2-0.3-0.3-0.4-0.5c-0.2-0.4-0.4-0.8-0.4-1.3v-0.4c0-0.1,0.1-0.2,0.1-0.4l0,0c-0.1,0-0.1,0-0.2-0.1v-0.1
		C894.9,987.7,894.9,987.6,895,987.5z M1014.7,1048.6c0,0.8,0,1.6-0.1,2.5c0,0.5-0.1,1-0.2,1.5c0,0.1,0,0.3-0.1,0.4
		c-0.2,0.7-0.4,1.3-0.7,1.9c-0.1,0.1-0.2,0.3-0.3,0.4l-0.1,0.1c-0.1,0.2-0.3,0.4-0.5,0.6l0,0c-0.1,0.1-0.3,0.3-0.5,0.4
		c-0.3,0.3-0.6,0.5-1,0.7c-0.2,0.1-0.4,0.2-0.6,0.3c-0.4,0.2-0.8,0.4-1.1,0.5l0,0c-0.4,0.2-0.8,0.3-1.2,0.4
		c-18.5,6.3-38.4,7.2-57.9,6.7c-1.6,0-3.2-0.1-4.9-0.2c-0.8,0-1.6-0.1-2.4-0.1c-1,0-1.9-0.1-2.9-0.2c-0.9,0-1.9-0.1-2.8-0.2
		c-1.2-0.1-2.5-0.2-3.7-0.3c-0.9-0.1-1.8-0.2-2.6-0.3s-1.6-0.2-2.4-0.3c-0.6-0.1-1.2-0.2-1.8-0.2c-0.5-0.1-1-0.1-1.5-0.2
		c-1-0.1-2-0.3-3-0.5c-2-0.3-3.9-0.7-5.9-1.2c-1.4-0.3-2.9-0.7-4.3-1.1c-0.4-0.1-0.8-0.2-1.2-0.3c-0.8-0.2-1.5-0.5-2.3-0.7
		c-1-0.3-2-0.7-3.1-1c-2-0.7-4-1.5-6-2.4c-0.6-0.3-1.3-0.6-1.7-1.2c-0.3-0.5-0.4-1.1-0.5-1.7c-0.3-1.7-0.5-3.4-0.8-5.1
		c0-0.2-0.1-0.5-0.1-0.8c-0.3-1.8-0.5-3.6-0.7-5.5c0-0.3-0.1-0.5-0.1-0.8c-0.1-1-0.2-2-0.3-3.1c-0.1-0.5-0.1-1-0.2-1.5
		c0-0.5-0.1-1-0.1-1.5c0-0.4-0.1-0.8-0.1-1.1c0-0.4-0.1-0.8-0.1-1.1c0-0.6-0.1-1.1-0.1-1.7c-0.1-1.7-0.1-3.4-0.1-5.2
		c0-1.6,0-3.2,0.1-4.8c0-0.7,0.1-1.5,0.2-2.2c0.1-0.8,0.2-1.7,0.2-2.5c0.1-0.8,0.2-1.7,0.3-2.5c0-0.2,0-0.4,0.1-0.6
		c0.2-1.5,0.3-2.9,0.5-4.4c0-0.4,0.1-0.8,0.1-1.2c0.1-1.7,0.2-3.4,0.3-5.1v-0.3c0-0.4,0-0.8-0.1-1.3c0-0.6-0.1-1.3-0.2-1.9
		c0-0.4-0.1-0.8-0.1-1.3c0-0.3,0-0.6,0-0.8s0-0.5,0.1-0.7c0-0.1,0-0.2,0.1-0.4c0-0.1,0-0.1,0.1-0.2c0-0.1,0.1-0.2,0.2-0.4
		c0,0,0-0.1,0.1-0.1l0.1-0.1l0,0c0.5-0.5,1.4-0.6,2.1-0.5c0.1,0,0.3,0.1,0.4,0.1c0.1,0,0.1,0,0.2,0.1c0.1,0,0.3,0.1,0.4,0.1h0.1
		c0.3,0.1,0.5,0.2,0.8,0.3c1.3,0.5,2.5,1.1,3.8,1.6c0.3,0.1,0.5,0.2,0.8,0.3c0.4,0.1,0.7,0.3,1.1,0.4c0.4,0.1,0.8,0.2,1.1,0.3
		c3,0.7,6,1.4,8.9,2.2c0.2,0,0.4,0.1,0.6,0.1c0.3,0.1,0.6,0.2,0.8,0.4c0.1,0,0.1,0.1,0.2,0.1c0.1,0.1,0.1,0.1,0.1,0.2
		c0.2,0.2,0.3,0.5,0.4,0.8c0.1,0.1,0.1,0.3,0.2,0.4c0,0.1,0,0.2,0.1,0.3c0.2,0.8,0.4,1.6,0.7,2.3c0.1,0.2,0.2,0.4,0.3,0.6
		c0,0,0,0,0,0.1c0.2,0.2,0.3,0.4,0.6,0.6c0.1,0.1,0.3,0.2,0.5,0.3s0.3,0.2,0.5,0.2c0.1,0,0.1,0,0.2,0.1c0.1,0,0.2,0.1,0.3,0.2
		c0.1,0,0.2,0.1,0.3,0.2c0.2,0.1,0.3,0.3,0.4,0.5c0.1,0.2,0.2,0.4,0.2,0.6c0.1,0.3,0.2,0.6,0.3,0.9c0.1,0.3,0.2,0.6,0.2,1
		c0.1,0.3,0.1,0.6,0.2,1c0.2,1,0.4,2,0.7,2.9c0,0.1,0.1,0.3,0.1,0.4c0,0.2,0.1,0.3,0.2,0.4c0,0.1,0.1,0.2,0.1,0.4
		c0,0.1,0,0.1,0.1,0.2c0,0.1,0.1,0.2,0.2,0.3c0.3,0.6,0.6,1.2,1,1.6c0.2,0.2,0.4,0.5,0.6,0.7c0.1,0.1,0.2,0.2,0.3,0.3l0.1,0.1
		c1.4,1.1,3.2,1.4,5.3,0.8c0.2-0.1,0.5-0.1,0.7-0.2c0.1,0,0.3-0.1,0.4-0.2c0.5-0.2,1.1-0.5,1.6-0.9c0.2-0.2,0.5-0.3,0.7-0.5l0,0
		c0.2-0.2,0.5-0.4,0.7-0.6c0.2-0.2,0.5-0.4,0.7-0.7c0.2-0.2,0.4-0.5,0.6-0.7l0,0c0.2-0.3,0.5-0.6,0.7-0.9l0,0
		c0.2-0.3,0.4-0.6,0.6-0.9c0.1-0.1,0.1-0.2,0.2-0.4c0.1-0.1,0.2-0.2,0.3-0.4c0.1-0.1,0.2-0.2,0.3-0.3s0.2-0.2,0.3-0.3
		s0.2-0.2,0.3-0.2c0.1-0.1,0.2-0.1,0.2-0.1c0.1,0,0.2-0.1,0.3-0.1s0.2,0,0.4,0l0,0c0.1,0,0.1,0,0.2,0c0.1,0,0.1,0,0.2,0.1
		c0.1,0,0.2,0.1,0.3,0.2c0.4,0.3,0.8,0.8,1.1,1.3c0.1,0.2,0.2,0.4,0.3,0.6c2.6,6.2,2.9,13.2,2.6,20c-0.2,4-0.5,8.3,1.3,11.9
		c0.1,0.3,0.3,0.5,0.4,0.8c0.1,0.1,0.2,0.2,0.2,0.4c0.2,0.3,0.3,0.5,0.5,0.7c0.1,0.1,0.2,0.2,0.3,0.4c0.1,0.1,0.2,0.2,0.3,0.3
		s0.2,0.2,0.4,0.3c0.4,0.3,0.8,0.6,1.2,0.9c0.1,0.1,0.3,0.2,0.4,0.2c0.1,0.1,0.3,0.2,0.4,0.2c0.2,0.1,0.5,0.2,0.8,0.3
		c0.1,0,0.3,0.1,0.4,0.1c0.4,0.1,0.8,0.2,1.2,0.3c0.1,0,0.2,0,0.3,0h0.1c1,0.1,2-0.1,3-0.7c0.4-0.2,0.7-0.5,1-0.7l0.1-0.1
		c0.1-0.1,0.2-0.2,0.3-0.3c0.5-0.5,0.8-1,1.1-1.7c0.1-0.2,0.2-0.3,0.2-0.5c0.1-0.2,0.2-0.4,0.2-0.6c0.3-0.8,0.5-1.7,0.6-2.6
		c0-0.4,0.1-0.9,0.1-1.3c0.1-1.1,0-2.2,0-3.2c-0.1-2.4-0.2-4.8-0.2-7.2c0-0.5,0-0.9,0-1.3c0-0.5,0.1-0.9,0.1-1.4c0-0.2,0-0.4,0-0.7
		c0-0.2,0-0.4,0.1-0.7c0.1-0.5,0.1-1,0.2-1.5c0.1-0.5,0.2-1,0.2-1.5c0-0.2,0-0.3,0.1-0.5c0.4-2,1-3.9,1.8-5.7
		c0.1-0.2,0.2-0.3,0.2-0.5c0.2-0.5,0.5-1,0.8-1.4l0,0c0.1-0.1,0.2-0.3,0.2-0.4c0.1-0.1,0.1-0.1,0.1-0.2c0.1-0.1,0.2-0.2,0.2-0.3
		l0.1-0.1c0.1-0.1,0.1-0.1,0.2-0.2c0.1-0.1,0.3-0.3,0.5-0.4c0.1,0,0.2-0.1,0.3-0.1c0.7-0.3,1.5-0.2,2.2-0.1c2.6,0.4,5.2,1,7.8,1.9
		c0.8,0.3,1.7,0.6,2.5,0.4c1-0.2,1.7-1,2.6-1.3c2.3-0.7,4.2,1.7,6.2,3.1c3.5,2.5,9,1.6,11.5-1.9c0.2-0.3,0.4-0.6,0.5-0.9
		c0.2-0.3,0.3-0.6,0.5-0.8c0.3-0.6,0.6-1.3,1-1.9c0.5-0.8,1.1-1.5,1.7-2.2c0.5-0.5,1-1,1.4-1.5c0.2-0.2,0.3-0.3,0.5-0.5
		c3.2-3.2,6.4-6.5,9.6-9.7l0,0C1014.6,1015.8,1014.9,1032.2,1014.7,1048.6z M1045.8,995.7c0-0.1,0.1-0.2,0.2-0.4
		c0.2-0.4,0.5-0.7,0.8-1c0.1-0.1,0.3-0.3,0.4-0.4c0.5-0.4,1-0.8,1.5-1.1c0.1-0.1,0.2-0.1,0.3-0.2c0.3-0.2,0.6-0.3,0.9-0.4
		c0.5-0.2,1-0.3,1.5-0.5c0.2,0,0.4-0.1,0.6-0.1c0.1,0,0.3-0.1,0.4-0.1c0.4-0.1,0.7-0.1,1.1-0.1s0.7-0.1,1.1-0.1c0.6,0,1.1,0,1.6-0.1
		c2.6-0.1,5.1-0.2,7.7-0.2c5.7-0.2,11.4-0.4,17,0.8c0.2,0.1,0.4,0.1,0.5,0.3c0,0,0.1,0.1,0.1,0.2c0,0.1-0.1,0.3-0.1,0.4
		c-0.6,1-1.2,2-1.7,3c-0.1,0.1-0.1,0.2-0.2,0.3c-0.2,0.3-0.3,0.5-0.6,0.7c-0.3,0.2-0.6,0.3-0.9,0.4c-0.4,0.1-0.9,0-1.3,0
		c-3-0.2-6-0.3-9-0.2c-0.5,0-1,0-1.5,0s-0.9,0-1.4,0c-1,0-2,0.1-3,0.2c-0.5,0-0.9,0.1-1.4,0.1c-2.4,0.2-4.8,0.4-7.1,0.8
		c-1.1,0.2-2.3,0.4-3.1,1.2c-0.1,0.1-0.2,0.3-0.4,0.4c-0.2,0.2-0.3,0.5-0.6,0.7c-0.1,0.1-0.1,0.1-0.2,0.2c-0.1,0.1-0.3,0.2-0.5,0.2
		l0,0c-0.2,0-0.3,0-0.5,0h-0.1c-0.1,0-0.1,0-0.2-0.1c-0.1,0-0.2-0.1-0.2-0.1c-0.2-0.1-0.4-0.2-0.5-0.4c-1-1-1.7-2.9-1.5-3.8
		c0-0.1,0-0.2,0.1-0.2C1045.7,995.8,1045.8,995.7,1045.8,995.7z M1115.1,1047.1c-0.2,1.4-0.4,2.8-0.5,4.2c-0.2,1.4-0.4,2.8-0.5,4.2
		c0,0.1,0,0.2,0,0.3s0,0.2-0.1,0.3c0,0.2-0.1,0.4-0.1,0.7c-0.1,0.4-0.2,0.8-0.4,1.1c0,0.1-0.1,0.1-0.1,0.2c-0.1,0.2-0.3,0.4-0.5,0.5
		c-0.7,0.6-1.7,0.7-2.6,0.7c-0.1,0-0.3,0-0.4,0c-1,0-2.1,0-3.1,0c-0.9,0-1.8,0-2.7,0c-0.9,0-1.8,0-2.7,0c-0.6,0-1.2,0-1.8,0
		c-1.4,0-2.9-0.1-4.3-0.1c-1.5,0-3.1-0.1-4.6-0.2c-0.1,0-0.2,0-0.3,0c-1.7-0.1-3.3-0.2-5-0.3c-1.3-0.1-2.5-0.2-3.8-0.2
		c-1.3-0.1-2.5-0.2-3.8-0.3s-2.5-0.2-3.8-0.3s-2.5-0.2-3.8-0.4c-2-0.2-4-0.4-6-0.7c-2-0.2-4-0.5-6-0.8c-1.3-0.2-2.7-0.4-4-0.6
		c-0.4-0.1-0.7-0.1-1.1-0.2c-0.7-0.1-1.3-0.3-2-0.5c-0.2-0.1-0.4-0.1-0.6-0.2c-0.2-0.1-0.4-0.1-0.6-0.2c-0.5-0.2-1-0.3-1.5-0.5
		c-0.2-0.1-0.4-0.2-0.6-0.2c-0.1,0-0.2-0.1-0.3-0.2c-0.1,0-0.1-0.1-0.2-0.1c-0.1-0.1-0.2-0.1-0.3-0.2c-0.1-0.1-0.1-0.1-0.2-0.2
		s-0.1-0.1-0.2-0.2c-0.1-0.1-0.1-0.3-0.1-0.4c0-0.1,0-0.2,0-0.2c0-0.1,0-0.1,0-0.2c0-0.4-0.1-1-0.1-1.7c0-0.2,0-0.4,0-0.6
		c0-0.3,0-0.7,0-1.1c0-0.5,0-1.1,0-1.6c0-0.2,0-0.4,0-0.7c0-0.5,0.1-0.9,0.2-1.4c0-0.1,0-0.2,0.1-0.3c0,0,0,0,0-0.1s0-0.2,0.1-0.3
		c0-0.1,0.1-0.3,0.1-0.4c0-0.1,0.1-0.2,0.1-0.3c0.1-0.2,0.2-0.4,0.2-0.5c0.1-0.1,0.1-0.2,0.2-0.3s0.2-0.2,0.2-0.3
		c0.4-0.4,0.8-0.5,1.4-0.5c0.1,0,0.2,0,0.3,0s0.2,0,0.3,0c0.1,0,0.2,0,0.3,0c0.1,0,0.2,0,0.3,0.1c0.2,0,0.4,0.1,0.6,0.1
		c0.1,0,0.2,0.1,0.3,0.1c0.2,0,0.3,0.1,0.5,0.2c1,0.3,2.1,0.8,3,1.1c0.1,0,0.2,0.1,0.3,0.1c0.1,0,0.3,0.1,0.4,0.1
		c0.5,0.1,1.1,0.2,1.6,0.3c1.1,0.2,2.2,0.3,3.3,0.5c0.6,0.1,1.1,0.1,1.7,0.2c2.1,0.2,4.3,0,6.3,0.4c2.6,0.5,5.1,1,7.7,1.4
		c2,0.3,4,0.6,5.9,0.8c1.3,0.1,2.7,0.3,4,0.4c1,0.1,2,0.2,3,0.2c1,0.1,2,0.1,3,0.2c4.2,0.2,8.4,0.2,12.6,0.1c1.1,0,7.9,0,10.1-0.6
		c0.1-0.1,0.2-0.1,0.3-0.1c0.1,0,0.1,0,0.1-0.1c0,0,0.1,0,0.1-0.1C1115,1047.2,1115,1047.2,1115.1,1047.1
		C1115,1047.1,1115.1,1047.1,1115.1,1047.1L1115.1,1047.1L1115.1,1047.1z M1115.2,1043.5c0,0.6,0,1.3-0.5,1.7
		c-0.1,0.1-0.1,0.1-0.2,0.1l0,0c-0.1,0-0.1,0-0.2,0.1h-0.1c-0.1,0-0.2,0-0.2,0c-0.2,0-0.4,0-0.5,0c-20.5-0.6-40.9-3.4-61.2-6.1
		c-0.2,0-0.5-0.1-0.8-0.1s-0.5-0.1-0.8-0.1c-1.2-0.2-2.4-0.6-3.3-1.2c-0.2-0.1-0.4-0.3-0.6-0.5l0,0c-0.1-0.1-0.2-0.1-0.2-0.2
		c-0.2-0.1-0.3-0.3-0.4-0.5c-0.1-0.1-0.1-0.1-0.1-0.2c0-0.1-0.1-0.1-0.1-0.2s-0.1-0.2-0.1-0.2c0-0.1-0.1-0.2-0.1-0.3
		c-0.3-0.8-0.3-1.7-0.2-2.6c0-1.1,0.1-2.2,0.1-3.3c0-0.5,0-1,0.1-1.6c0-0.5,0.1-1.1,0.1-1.6c0.1-1,0.2-2.1,0.3-3.1
		c0-0.3,0.1-0.6,0.1-1c0-0.1,0-0.2,0.1-0.3c0.1-0.4,0.1-0.8,0.2-1.2s0.1-0.8,0.2-1.2c0.1-0.6,0.2-1.1,0.4-1.5c0-0.1,0.1-0.2,0.1-0.3
		c0.1-0.2,0.2-0.4,0.3-0.5c0.1-0.2,0.2-0.3,0.4-0.4c0.1-0.1,0.2-0.2,0.3-0.2c0.1-0.1,0.2-0.1,0.3-0.2c0.1-0.1,0.2-0.1,0.3-0.1
		c0.1,0,0.2-0.1,0.4-0.1c0.1,0,0.2,0,0.3,0c0.6,0,1.4,0.1,2.2,0.4c3.6,1.2,7.3,2.1,11,2.9c1.9,0.4,3.7,0.7,5.6,0.9
		c1.9,0.3,3.8,0.5,5.6,0.7c3.8,0.4,7.5,0.7,11.3,1.1c2.7,0.2,5.4,0.5,8,0.7c2.4,0.2,4.8,0.4,7.2,0.6c4.6,0.3,9.3,0.4,13.8-0.3
		c0.2,0,0.5-0.1,0.7,0c0.1,0,0.2,0.1,0.3,0.1c0.2,0.2,0.3,0.6,0.2,0.9C1115.2,1030.6,1115.2,1037.1,1115.2,1043.5z M1112,1003.2
		c0.1,0,0.2-0.1,0.3-0.1c0.1,0,0.2-0.1,0.3-0.1c0.1-0.1,0.2-0.1,0.4-0.1c0.1,0,0.3-0.1,0.4-0.1c0.3,0,0.7,0,1,0.1c0,0,0,0,0.1,0h0.1
		h0.1c0.1,0,0.2,0.1,0.2,0.1l0,0c0.1,0,0.2,0.1,0.2,0.1s0.1,0,0.1,0.1l0.1,0.1l0.1,0.1c0.1,0.1,0.1,0.2,0.2,0.3
		c0.1,0.2,0.1,0.4,0.1,0.7c-0.3,2.3-0.3,4.7,0,7c0.2,1.4,0.5,2.8,0.4,4.2c0,0.7-0.2,1.4-0.4,2c-0.1,0.2-0.2,0.3-0.2,0.5
		c-0.2,0.3-0.4,0.6-0.6,0.8c-0.1,0.1-0.2,0.2-0.4,0.3c-1.1,0.8-2.5,1-3.9,1.1c-16.9,1.3-34,0.2-50.3-4c-1.1-0.3-2.2-0.6-3.3-0.9
		c-1.1-0.3-2.2-0.6-3.2-0.9c-0.7-0.2-1.5-0.4-2.2-0.6c-1.1-0.3-2.1-0.6-3.2-1c-0.3-0.1-0.7-0.3-0.9-0.6c-0.2-0.3-0.2-0.8-0.1-1.2
		c0.2-1.8-0.2-5.3,0.7-6.8c0.1-0.2,0.2-0.3,0.4-0.4l0.1-0.1c0,0,0.1-0.1,0.2-0.1c0.1-0.1,0.3-0.1,0.4-0.1c0.5-0.1,1.1,0,1.6,0.1
		s1,0.2,1.4,0.3c0.1,0,0.2,0,0.3,0.1c0.6,0.1,1.2,0.2,1.7,0.3c2.3,0.3,4.6,0.5,7,0.7c1.2,0.1,2.3,0.1,3.5,0.2c0.6,0,1.2,0,1.8,0.1
		c10,0.4,20.1,0.8,30.1,1.2c4.8,0.2,10,0.3,14-2.3c0.4-0.3,0.9-0.6,1.3-0.9C1111.8,1003.3,1111.9,1003.3,1112,1003.2z M1104.3,995.3
		c0.4,0.1,0.8,0.2,1.2,0.2c0.2,0.1,0.4,0.1,0.6,0.2c0.2,0,0.4,0.1,0.6,0.2c0.9,0.3,1.7,0.6,2.5,1.1c0.1,0.1,0.3,0.2,0.4,0.2
		c0.1,0.1,0.3,0.2,0.4,0.3c0.2,0.1,0.3,0.2,0.5,0.4c0.1,0.1,0.2,0.2,0.2,0.2s0.1,0.1,0.1,0.2c0,0,0.1,0.1,0.1,0.2
		c0.2,0.2,0.3,0.4,0.3,0.7v0.1c0,0.2,0,0.3,0,0.5c-0.1,0.2-0.1,0.4-0.3,0.6c0,0.1-0.1,0.1-0.1,0.2c-0.1,0.1-0.2,0.2-0.4,0.3
		c-0.1,0-0.1,0.1-0.2,0.1s-0.2,0.1-0.3,0.2c0,0,0,0-0.1,0s-0.2,0.1-0.4,0.1c-0.1,0-0.2,0.1-0.3,0.1c-0.1,0-0.2,0-0.2,0.1
		c-1.2,0.3-2.4,0.6-3.6,0.2c-1.1-0.4-1.9-1.3-2.9-1.9c-1.9-1.1-4.4-0.8-6.6-0.4c0,0,0-0.2,0.1-0.6c0-0.1,0.1-0.2,0.1-0.3
		s0.1-0.2,0.1-0.3l0,0c0.1-0.1,0.1-0.3,0.2-0.5c0.3-0.9,0.7-1.8,0.9-2.1c0.9-1,2.1-0.7,3.4-0.6
		C1101.8,995,1103.1,995.1,1104.3,995.3z M1136.8,936.4c0,0.1-0.1,0.1-0.1,0.2c-0.1,0.1-0.2,0.2-0.2,0.2c-0.5,0.5-1,1-1.5,1.6
		c-1.8,1.8-3.5,3.7-5.2,5.6c-0.4,0.4-0.7,0.8-1,1.2c-0.4,0.4-0.7,0.8-1,1.3c-0.4,0.6-0.9,1.1-1.3,1.7c-0.4,0.6-0.8,1.2-1.2,1.8
		c-1.7,2.7-3,5.5-4.8,8.1c-1.6,2.3-3.4,4.3-5.1,6.4c-0.6,0.6-1.1,1.2-1.7,1.9c-0.1,0.1-0.2,0.2-0.3,0.4c-1.3,1.6-2.5,3.4-3.6,5.2
		c-0.4,0.6-0.8,1.2-1.1,1.7c-2.2,3.2-4.2,6.5-6.3,9.8c-0.8,1.2-1.5,2.4-2.3,3.7c-0.6,1-1.2,1.9-1.8,2.8c-0.3,0.4-0.6,0.8-0.8,1.3
		c-0.7,1.1-1.5,2.1-2.2,3.2c-0.4,0.5-0.8,1-1.2,1.6c-0.4,0.5-0.8,1-1.2,1.5c-0.2,0.2-0.4,0.5-0.6,0.7s-0.4,0.5-0.6,0.7
		c-0.1,0.1-0.2,0.2-0.3,0.3c-0.3,0.4-0.7,0.8-1,1.1c-0.1,0.1-0.2,0.3-0.4,0.4c-0.3,0.3-0.6,0.6-0.9,0.9c-0.4,0.4-0.9,0.9-1.5,1
		c-0.4,0.1-0.8,0-1.2-0.1c-2.2-0.4-4.3-0.7-6.5-1.1l0,0c0.8-1.6,2-2.6,2.9-4c3.4-5.2,7.1-10.3,10.6-15.4c2-2.8,3.9-5.7,5.8-8.5
		s3.9-5.6,5.9-8.3c2.6-3.3,5.3-6.5,7.8-9.8c2.4-3.2,4.4-6.6,6.8-9.8c3.4-4.6,7.3-8.8,11.6-12.5c0.2-0.2,0.5-0.4,0.8-0.4
		c0.1,0,0.3,0,0.4,0.1c0.1,0,0.2,0.1,0.3,0.2c1.3,0.7,2.5,1.3,3.8,2c0.2,0.1,0.5,0.3,0.6,0.5l0,0c0.1,0.2,0.1,0.4,0,0.6
		C1137,936.1,1136.9,936.2,1136.8,936.4z"/>
	<path class="st0" d="M1185.7,1049.4c-1.9-1.9-3.9-3.8-6.1-5.4c-6.1-4.4-13.9-6.2-21.5-6.2c-7.6,0.1-15,1.9-22.3,4.1
		c-2.3,0.7-4.6,1-6.8,1.6c-2,0.5-2.5,2.6-2.9,4.4c-0.3,1.4-0.7,2.9-0.1,4.2c0.5,1.2,1.7,2,2.8,2.7c7.2,4.2,15.4,6.2,23.6,7
		c8.2,0.8,16.5,0.3,24.8-0.4c1.6-0.1,3.2-0.3,4.7-0.9c1.2-0.6,2.3-1.5,3.3-2.5c1.4-1.3,2.9-2.9,2.8-4.8
		C1188,1051.7,1186.8,1050.5,1185.7,1049.4z M1135.7,1045.8c0.1-0.1,0.2-0.1,0.2-0.2c0.5-0.3,1.3-0.6,2.1-0.8c0.1,0,0.1,0,0.2,0
		c0.5-0.2,1-0.3,1.3-0.4h0.1c1.7-0.5,3.3-1,5-1.3c0.3-0.1,0.7-0.1,1-0.2c0.2,0,0.4-0.1,0.7-0.1c0.2,0,0.4,0,0.6,0
		c0.3,0,0.6,0,0.8-0.1c0.6,0,1.2-0.1,1.8-0.1l6.5-0.3c0.5,0,1.1-0.1,1.7-0.1c1,0,2.1,0,3.1,0c0.9,0,1.7,0.1,2.6,0.2
		c1,0.1,1.9,0.3,2.9,0.5c1.6,0.4,3.1,0.8,4.7,1.2c3.1,0.8,6.3,1.7,8.6,4c0,0,0.1,0,0.1,0.1l0.1,0.1c0,0,0,0,0,0.1v0.1l0,0v0.1
		c0,0.1-0.2,0.2-0.4,0.3c-0.1,0-0.1,0.1-0.2,0.1c-6.8,2.3-14.1,2.7-21.2,2.2c-0.5,0-1.1-0.1-1.6-0.1c-0.1,0-0.2,0-0.3,0
		c-1.3-0.1-2.6-0.3-3.9-0.5c-1.9-0.3-3.8-0.6-5.8-1c-1.3-0.2-2.6-0.5-3.8-0.8c-0.1,0-0.2,0-0.2,0c-0.2,0-0.4-0.1-0.6-0.1
		c-0.4-0.1-0.8-0.1-1.3-0.2c-0.3,0-0.7-0.1-1.1-0.2c-0.5-0.1-1.1-0.2-1.6-0.3c-0.2,0-0.3-0.1-0.5-0.1c-0.4-0.1-0.8-0.2-1.1-0.4
		c-0.3-0.1-0.6-0.3-0.7-0.5c-0.2-0.3-0.3-0.5-0.2-0.7C1135.4,1046.2,1135.5,1046,1135.7,1045.8z M1184.2,1053.7
		c-0.1,0.3-0.2,0.5-0.3,0.8c-0.1,0.2-0.2,0.4-0.3,0.5c-0.1,0.2-0.2,0.3-0.3,0.4c-0.3,0.4-0.6,0.7-0.9,1c-0.3,0.3-0.6,0.5-1,0.8
		c-0.1,0.1-0.2,0.1-0.3,0.2c-0.2,0.2-0.5,0.3-0.8,0.4c-1.2,0.5-2.6,0.7-4,0.9c-10.6,1.1-21.3,0-31.7-2c-0.6-0.1-1.2-0.2-1.8-0.4
		c-0.5-0.1-0.9-0.2-1.4-0.3c-0.4-0.1-0.9-0.2-1.3-0.3c-0.6-0.2-1.2-0.3-1.8-0.5c-0.6-0.2-1.2-0.4-1.7-0.6c-0.8-0.3-1.7-0.7-2.5-1.1
		c-1.1-0.5-2.1-1.2-3-2c-0.1-0.1-0.1-0.1-0.2-0.2l0,0c-0.2-0.2-0.4-0.4-0.6-0.6c-0.3-0.3-0.5-0.6-0.6-1c0-0.1,0-0.2-0.1-0.2l0,0
		c0-0.1-0.1-0.2-0.1-0.4c0-0.1,0-0.2,0-0.3s0-0.1,0.1-0.2c0-0.1,0-0.1,0.1-0.1c0,0,0.1-0.1,0.2-0.1c0.2-0.1,0.4,0,0.8,0.1
		c0.3,0.1,0.7,0.3,1.1,0.5c0.1,0.1,0.2,0.1,0.4,0.2c0.1,0,0.2,0.1,0.2,0.1c0.1,0,0.1,0.1,0.2,0.1h0.1c0.1,0.1,0.2,0.1,0.2,0.1
		c1.6,0.8,3.3,1.4,5.1,2c0.4,0.1,0.9,0.2,1.3,0.4l0,0c0.6,0.2,1.2,0.3,1.8,0.4c0.1,0,0.3,0.1,0.4,0.1c0.6,0.1,1.2,0.2,1.8,0.3
		c1.8,0.3,3.6,0.6,5.4,0.8c0.9,0.1,1.8,0.2,2.6,0.3c0.9,0.1,1.8,0.2,2.7,0.3c0.9,0.1,1.8,0.2,2.7,0.2c0.7,0.1,1.4,0.1,2.1,0.2
		c0.4,0,0.9,0,1.3,0.1c0.4,0,0.8,0,1.1,0c1.5,0,2.9,0,4.4,0c2.1-0.1,4.2-0.3,6.3-0.6c4.2-0.5,8.4-0.9,12.6-1.4
		C1184.3,1053.2,1184.2,1053.5,1184.2,1053.7L1184.2,1053.7z"/>
	<path class="st1" d="M854,825.4c-1.3-5.4-4.1-10.3-6.6-14.6l-13.2-23.3c-0.4-0.6-0.7-1.2-0.9-1.8c-0.2-0.7-0.1-1.7-0.1-2.7
		c0.2-4.3,0.4-8.7,0.5-13.1c0.3-13.8,0.7-31-1.9-46.8c-2.6-15.8-6.1-31.7-9.5-47.1v-0.2c-1.1-5-2.2-10-3.4-15.1
		c3-4.7,5.5-9.8,7.5-15.3c4.9-14,7.3-28.9,7.3-44.6c0-11.4-1.4-22-4-32.1c0.4-0.2,0.8-0.4,1.2-0.7c3.1-2,5-5.1,6.6-7.7
		c1.6-2.7,5-8.2,2.7-13.4c-1-2.1-2.6-3.5-3.9-4.6l-7.6-6.6c-1.4-1.2-2.8-2.5-3.4-3.9c-0.4-0.9-0.5-1.9-0.5-2.8c-0.1-1.9,0-5.4,2-7.3
		c0.7-0.6,1.6-1.1,2.6-1.6c0.3-0.2,0.7-0.4,1-0.6c3.7-2.1,6.9-5.1,9.2-8.8c0.9-1.4,2.1-3.7,2.2-6.3c0-4.2-3.2-8.1-7.8-9.5
		c-1.4-0.4-2.9-0.6-4.5-0.6c-2.4,0-4.8,0.5-6.6,0.9c-1.5,0.3-3.1,0.7-4.6,1.1c-4.4,1.1-8.5,2.2-12.8,2.2c-0.8,0-1.7,0-2.5-0.3
		c-0.5-0.2-1-0.4-1.6-0.7c-0.6-0.3-1.1-0.6-1.7-0.8c-1.3-0.5-2.7-0.7-4.2-0.7c-2.2,0-4.5,0.6-6.7,1.6c-1,0.3-1.8,0.8-2.6,1.3
		l-26.1-33.5c-6-8.5-10.3-15.8-13-22c-2.7-6.1-4-12.8-4-20.1c0-8.2,3.3-14.2,9.9-18.2c6.6-3.9,15.8-5.9,27.4-5.9
		c9.1,0,17.6,1.1,25.5,3.3c7.9,2.2,13.1,4.2,15.6,6.1c4.4-5,7.6-10.2,9.5-15.4c1.9-5.2,2.8-10,2.8-14.4c0-8.2-4.7-14.7-14.2-19.4
		c-9.5-4.5-26.2-6.9-50.1-6.9c-27.7,0-48.7,6.7-62.8,20.1c-14.2,13.4-21.3,30.8-21.3,52.2c0,10.4,1.7,21,5.2,31.6
		c3.3,10.2,9.9,22.1,19.8,35.8c-10.7-6.6-22.8-12.7-36.3-18.4c-22.4-9.4-46-16.6-70.4-21.6c0,0-0.1,0-0.1,0v0.1
		c-17.4-3.5-35-5.9-52.8-7.1v2.4c17.8,1.2,35.5,3.6,52.9,7.2c23.8,4.9,47.1,12,69.5,21.4c14.3,6,28.4,13,41.3,21.6
		c6.5,4.3,12.6,8.9,18.4,14c5.8,5.1,11.2,10.6,16.1,16.6c8.7,10.6,15.6,22.5,22.4,34.3c12.1,21,26.3,39.7,34.7,62.7
		c4.6,12.4,7.9,25.3,10.8,38.2c0-0.1,0.1-0.1,0.1-0.2c1,4.3,2,8.6,2.9,12.9c3.5,15.6,6.9,31.3,9.5,47.1c2.5,15,2.2,31.1,1.9,46.4
		c-0.1,4.3-0.3,8.7-0.5,13c-0.1,1.2-0.1,2.4,0.2,3.5c0.2,0.8,0.7,1.6,1.1,2.3c4.4,7.8,8.9,15.5,13.3,23.3c2.6,4.5,5.1,9,6.4,14
		c2.5,10.3-1.1,21.1-5.2,30.8c-1,2.4-2.1,4.8-3.9,6.6c-2.5,2.3-3.1,4.1-3.6,7.5c-0.6,3.6-0.6,7.3-0.7,10.9
		c-0.7,31.4-1.3,62.8-1.9,94.2c-0.2,7.9-0.4,16.1-3.9,23.3c-2.9,5.9-7.7,10.6-12.5,15.1c-2.2,2-4.3,4-6.7,5.7
		c-1.2,0.9-2.5,1.7-3.9,2.5c-0.9,0.5-3.2,1-3.7,1.9c-0.9,1.6,2.3,4.8,2.8,6.5c0.8,2.5,0.8,5.4-0.3,7.9c1.8-0.5,3.2,1.3,4.1,2.9
		c2.4,4.7,2.8,9.3,4.1,14.3c0.5,1.8,1.8,3.2,2.6,4.9c0.9,2.2,1.3,4.6,1,6.9c0,0.3-0.1,0.7-0.3,0.9c-0.2,0.2-0.5,0.2-0.8,0.2
		c-12.1-0.3-24.1-1.9-35.8-4.9c-2.9-0.7-5.8-1.6-8.5-2.8c-2.7-1.2-5.1-2.8-7.6-4.4c-2.3-1.5-4.6-3-6.8-4.7c-2.2-1.8-4.3-3.9-6.5-5.8
		c-2.2-1.8-4.5-3.5-7-4.9c-3.1-1.8-3.5,1.4-6.5,0.5c-1.1-0.4-2-1.2-2.9-1.9c0.1,2.6-0.3,4.8-0.8,7.4c4.8-0.3,9.2,4.4,8.7,9.2
		s-5.2,8.3-9.9,9.2c-4.7,0.9-9.6-0.1-14.4-0.8c-8-1.2-16.1-1.6-24.2-1.2c-3.5,0.2-7.2,0.5-10.6-0.3c-1.3-0.3-2.6-0.8-4-0.8
		c-1.6,0-3.2,0.7-4.7,1.3c-12.2,4.7-25.8,2.8-38.9,3.4c-22.7,1-44.7,9.7-63.1,22.9c1.2-4.9,2.3-9.8,3.5-14.8
		c0.6-2.4,1.1-4.8,2.3-6.9c2.7-4.9,8.2-7.6,13.3-9.9c-4.8,1.7-9.3,4.4-13.1,7.9c-2.7,2.5-5,5.4-8.1,7.3c-0.4,0.3-0.9,0.5-1.4,0.5
		c-1.6-0.1-1.5-2.5-0.8-4c2.1-4.6,4.5-9,7.3-13.2c1.1-1.7,2.1-3.4,3.5-4.8c1.7-1.7,3.6-3.2,5.2-5.2c-1.6-0.5-3.4-0.3-5.1,0
		c-2.8,0.4-5.7,0.8-8.5,1.2c-2.1,0.3-4.3,0.6-6.3,1.6c-1.8,0.9-3.3,2.4-5,3.7c-3.1,2.5-6.9,4.2-10.9,4.5c-4,0.3-8.1-0.9-11-3.6
		c-0.9-0.8-1.8-1.8-2.9-2.3c-1-0.4-2-0.4-3.1-0.4c-5.5,0.1-10.9,1-16.1,2.6c0.6,1.7-0.2,3.7-1.5,5c-1.3,1.3-3,2-4.8,2.7
		c-3.1,1.3-6.2,2.5-9.5,3.3c-1.7,0.4-3.5,0.7-5.2,0.5c-5-0.5-9.1-4.9-14.2-5.1c-1.8,0-3.5,0.4-5.2,0.2s-3.5-1.6-3.3-3.4
		c-2.9-0.3-5.6,0.1-8.5,0.1c-2.4,0-4.4-0.5-6.7,0.8c1.4,0.9,1.5,3,0.5,4.4c-0.9,1.4-2.5,2.2-4,2.9c-1.9,0.9-4,1.8-6.1,1.6
		c-1.2-0.1-2.3-0.5-3.4-0.9c-6.4-2.1-13.5-2.1-19.9,0c-2,0.6-3.8,1.7-5.9,1.9c-2.2,0.2-4.5-0.2-6.8,0c-4.6,0.5-9.2,1.9-13.2,4.1
		c-2.6,1.4-5,3.2-7.8,4.2c-2.2,0.8-4.5,1-6.7,1.3c-5.9,0.7-11.8,1.3-17.8,2c-1.7,0.2-3.6,0.4-5-0.6c-3-2-1.8-6.5-2.4-10
		c-3-0.9-6.4-0.6-9.2,0.9c-1.5,0.8-2.9,2-4.3,2.9c-5.5,3.5-12.5,3.9-18.9,2.8c-6.4-1.1-12.5-3.7-18.8-5.5
		c-10.4-3.2-21.3-4.6-32.2-4.3c-3.8,0.1-7.5,0.8-11.4,0.5c-4.2-0.3-8.4-1.2-12.7-1.2c-2.9,0-5.9,0.4-8.8,0.7
		c-3.9,0.4-7.8,0.4-11.7,0.5c-16.4,0.1-32.8-0.7-49.1-2.4c-8-0.8,5.5-17.5,7.4-20.2c5.7-8.2,11.7-16.2,17.8-24l4.8-6.1
		c1.8-2.3,3.6-4.7,5.5-7c2.5-3.2,5-6.5,7.7-9.6c1.4-1.6,2.8-3.2,4.2-4.8c1-1.1,3.1-2.4,3.8-3.8c0.7-1.5,0.3-4.1,0.3-5.8
		c0-2.4,0.1-4.8,0.1-7.2V962c-0.2-16.4-0.9-32.9,0.9-49.2c0.2-2.3,0.5-4.6,0.8-7c0.2-1.7,0.4-3.4,0.7-5.2c0.4-3.1,0.8-6.1,1.4-9.2
		c0.5-2.6,1.3-5.1,2-7.7c2.7-9.2,5.2-18.3,6-28c0.2-2.2,0.3-4.5,1-6.6c1.8-6.1,3.5-12.1,4.8-18.4c1.6-7.9,6.1-14.8,8.1-22.5
		c0.7-2.6,0.7-5.4,1.5-7.9c0.6-2,1.7-4,2.4-6c1.8-5.4,3.5-10.9,4.7-16.5c0.9-4.3,1.6-8.6,3.1-12.7c2.1-5.5,5.6-10.4,7.2-16
		c0.8-2.9,1.1-5.8,2-8.7c1-3.3,2.8-6.3,4.4-9.4c4.2-7.7,7.3-16,11.4-23.6c4-7.3,0.9-15.4-3-22.2c-23.7-41.1-58.1-76-98.9-100.2
		c-13.6-8.1-27.8-15-42.1-21.8c-24.9-12-49.8-24-74.7-36.1c-6-2.9-12.1-5.8-18.3-8.4c-6-2.5-12.7-3.8-19-5.5
		c-6.3-1.7-12.7-3.4-19.2-3.6c-4-0.1-8.1,0.4-12.1,0.5c-1.9,0.1-3.8-0.1-5.7-0.1c-1.5,0-3.2-2-2-3.2c1.5-1.5,3.4-2.9,5.1-4.2
		c3.6-2.6,7.4-4.9,11.3-6.9c8-4,16.7-6.6,25.4-8.5c3.7-0.8,7.4-1.4,11.1-1.9c61.4-8.6,122.8,10.6,183.5,23.3
		c14,2.9,28.3,5.5,42.5,3.8c17.2-2,32.8-10.2,48.3-18.1c2.3-1.2,4.6-2.4,6.9-3.5c11-5.5,22.2-10.5,33.7-15c1-0.4,2.1-0.8,3.1-1.2
		c12.9-4.9,26.1-9.2,39.4-12.9c11.2-3,22.5-5.6,34-7.8c9.3-1.7,18.6-3.1,28-4.3c9.4-1.1,18.8-1.9,28.2-2.4
		c7.9-0.4,15.8-0.6,23.7-0.5c7.9,0,15.8,0.3,23.6,0.9v-2.5c-7.9-0.5-15.7-0.8-23.6-0.9v-87h-44.4c-2.8,0-4.8,0.7-5.9,2.1
		c-1.1,1.4-2.3,3.9-3.5,7.3L448,451.2c-12,2.2-23.8,4.9-35.5,8.1l-32.7-102.1h-40.2c-2.5,0-4.7,0.4-6.6,1.2
		c-1.9,0.8-2.8,3.5-2.8,8.3v124.8c-0.6,0.3-1.1,0.6-1.7,0.9c-14.9,7.7-30.4,15.6-46.9,17.5c-2.9,0.3-5.9,0.5-9,0.5
		c-11,0-22.2-2.1-32.6-4.3c-11.2-2.4-22.7-5-33.8-7.5c-38.7-8.8-78.6-18-118.3-18c-11.1,0-22,0.7-32.3,2.2c-3.9,0.5-7.7,1.2-11.3,2
		c-9.9,2.1-18.4,4.9-26,8.7c-4.2,2.1-8.2,4.5-11.7,7.1L6,501c-1.7,1.2-3.4,2.5-4.9,4c-1.1,1.2-1.4,2.7-0.8,4.2
		c0.7,1.8,2.6,3.1,4.5,3.1c0.7,0,1.4,0,2.1,0.1c0.9,0,1.8,0.1,2.7,0.1h1c1.6,0,3.3-0.2,4.9-0.3c2.1-0.1,4.1-0.3,6.1-0.3h1
		c6.2,0.1,12.5,1.8,18.6,3.5c1.7,0.5,3.5,0.9,5.2,1.3c4.5,1.1,9.2,2.3,13.4,4.1c5.9,2.5,11.8,5.3,18.2,8.4l74.7,36.1
		c14,6.7,28.4,13.7,41.9,21.7c40.6,24.1,74.5,58.4,98,99.3c4.8,8.4,5.8,14.7,3,19.8c-2,3.7-3.8,7.7-5.5,11.5
		c-1.8,4-3.7,8.2-5.9,12.1l-0.4,0.7c-1.6,2.9-3.3,5.9-4.3,9.2c-0.5,1.6-0.8,3.2-1.1,4.8c-0.3,1.4-0.5,2.7-0.9,3.9
		c-0.8,2.9-2.3,5.7-3.8,8.6c-1.2,2.3-2.4,4.7-3.4,7.2c-1.2,3.4-2,6.8-2.6,10.2c-0.2,0.9-0.4,1.9-0.6,2.8c-1,4.8-2.5,10-4.6,16.3
		c-0.3,0.9-0.7,1.7-1.1,2.6c-0.5,1.1-1,2.2-1.4,3.4c-0.5,1.5-0.7,3.1-0.9,4.6c-0.2,1.2-0.3,2.4-0.6,3.4c-0.9,3.4-2.3,6.6-3.7,10
		c-1.7,4-3.5,8.2-4.4,12.7c-1.1,5.5-2.6,11.1-4.7,18.2c-0.6,2.1-0.8,4.3-1,6.4l-0.1,0.8c-0.8,9.5-3.3,18.5-5.9,27.5
		c-0.7,2.4-1.5,5.1-2.1,7.9c-0.7,3.1-1.1,6.3-1.5,9.4l-0.7,5.2c-0.3,2.3-0.6,4.6-0.8,7c-1.4,13.6-1.2,27.5-1,40.9
		c0,2.9,0.1,5.7,0.1,8.6c0,4.5,0.1,9.2,0,13.8c0,2.4,0,4.8-0.1,7.2c0,0.5,0,1.1,0.1,1.7c0,0.9,0.1,2.5-0.1,3
		c-0.2,0.4-1.2,1.3-1.8,1.8c-0.5,0.5-1.1,1-1.6,1.4c-1.3,1.4-2.8,3-4.3,4.9c-2.6,3.1-5.2,6.4-7.6,9.5l-10.4,13.3
		c-5.8,7.5-12,15.6-17.9,24.2c-0.2,0.3-0.5,0.7-1,1.3c-6.7,9-10.8,15.8-8.9,19.9c0.4,0.9,1.5,2.6,4.3,2.8
		c15.6,1.6,31.4,2.4,47.2,2.4h2.2c3.8,0,7.9-0.1,11.9-0.5c0.8-0.1,1.6-0.2,2.4-0.2c2.1-0.2,4.1-0.5,6.1-0.5c2.4,0,4.7,0.3,7.2,0.6
		c1.7,0.2,3.5,0.5,5.3,0.6c0.7,0.1,1.4,0.1,2.1,0.1c1.9,0,3.7-0.2,5.4-0.3c1.4-0.1,2.8-0.2,4.1-0.3h2.9c9.7,0,19.3,1.4,28.5,4.2
		c1.9,0.6,3.8,1.2,5.7,1.9c4.3,1.5,8.7,3,13.3,3.8c2.3,0.4,4.5,0.6,6.7,0.6c5.4,0,10.1-1.3,14-3.8c0.6-0.4,1.2-0.8,1.8-1.3
		c0.8-0.6,1.6-1.2,2.3-1.6c1.4-0.7,2.9-1.1,4.5-1.1c0.4,0,0.8,0,1.2,0.1v1.3c0,2.9,0.1,6.6,3.3,8.7c1.2,0.8,2.6,1.2,4.3,1.2
		c0.8,0,1.6-0.1,2.3-0.2l17.8-2c2.2-0.3,4.8-0.6,7.3-1.4c2.2-0.8,4.1-1.9,5.9-3c0.7-0.4,1.5-0.9,2.2-1.3c3.7-2,8-3.4,12.3-3.8
		c0.5,0,1-0.1,1.5-0.1c0.6,0,1.2,0,1.8,0.1h3.4c1.8-0.1,3.4-0.8,4.8-1.3c0.6-0.2,1.1-0.5,1.7-0.7c3-1,6.1-1.5,9.2-1.5
		c3.1,0,6.2,0.5,9.2,1.5l0.5,0.2c1,0.3,2.1,0.7,3.4,0.8h0.8c2.4,0,4.4-0.9,6.5-1.8c1.5-0.7,3.7-1.7,5-3.7c0.8-1.2,1.2-2.8,1-4.2h3.4
		c1,0,2,0,3-0.1c0.9,0,1.8-0.1,2.7-0.1h0.3c0.9,1.9,2.9,3.2,5,3.5c0.5,0.1,0.9,0.1,1.4,0.1c0.7,0,1.5-0.1,2.2-0.1
		c0.6-0.1,1.1-0.1,1.9-0.1c1.1,0,2.1,0.3,3.2,0.7c1.1,0.4,2.1,1,3.2,1.6c2.4,1.2,4.8,2.5,7.7,2.8c0.4,0,0.9,0.1,1.3,0.1
		c1.8,0,3.6-0.4,4.8-0.7c3.4-0.9,6.7-2.2,9.8-3.5c1.8-0.7,3.9-1.6,5.5-3.2c1.4-1.4,2.3-3.2,2.4-5c4.4-1.2,8.9-1.9,13.5-1.9h0.4
		c0.6,0,1.2,0,1.7,0.2s1,0.7,1.5,1.2l0.7,0.7c3,2.7,7.2,4.3,11.5,4.3h1.3c4.3-0.3,8.5-2,12.2-5c0.5-0.4,1-0.8,1.5-1.2
		c1.1-0.9,2.1-1.7,3.1-2.3c1.6-0.8,3.6-1.1,5.5-1.4l7-1c-0.3,0.2-0.5,0.5-0.8,0.8c-1.2,1.2-2.1,2.6-3,4c-0.2,0.4-0.5,0.8-0.8,1.2
		c-2.9,4.3-5.4,8.8-7.5,13.5c-0.7,1.6-1,4,0,5.7c0.6,1.1,1.7,1.7,3,1.8h0.2c1.2,0,2.2-0.6,2.6-0.9c0.7-0.4,1.4-0.9,2-1.4
		c0,0.1-5.1,21.6-5.1,21.6l5.4-3.9c19.1-13.7,40.5-21.5,61.8-22.4c2.7-0.1,5.3-0.1,7.3-0.1h6.5c8.4,0,17.3-0.3,25.8-3.5l0.6-0.2
		c1.2-0.5,2.3-0.9,3.2-0.9c0.7,0,1.4,0.2,2.3,0.4c0.4,0.1,0.8,0.2,1.1,0.3c1.7,0.4,3.5,0.6,5.6,0.6c1.5,0,3-0.1,4.4-0.2l1.2-0.1
		c2.1-0.1,4.2-0.2,6.3-0.2c5.8,0,11.6,0.4,17.4,1.3l1.8,0.3c2.9,0.5,5.9,0.9,8.9,0.9c1.6,0,3.1-0.1,4.5-0.4c5.3-1,11.2-5,11.9-11.4
		c0.3-2.9-0.7-5.9-2.8-8.2c-1.5-1.7-3.4-2.8-5.5-3.4c0-0.3,0.1-0.6,0.1-0.9c0.6,0.2,1.2,0.3,1.8,0.3c1.4,0,2.4-0.6,3.1-0.9
		c0.2-0.1,0.5-0.3,0.6-0.3c0,0,0.2,0,0.5,0.2c2.3,1.3,4.5,2.9,6.6,4.6c1,0.8,1.9,1.7,2.8,2.6c1.2,1.1,2.4,2.2,3.7,3.3
		c2.2,1.8,4.6,3.4,7,4.9c2.5,1.6,5.1,3.2,7.9,4.5c2.9,1.3,6,2.2,8.9,2.9c11.9,3,24.1,4.7,36.4,5h0.2c0.3,0,1.3,0,2.2-0.7
		c1.1-0.9,1.2-2.1,1.3-2.5c0.3-2.7-0.1-5.6-1.2-8.2c-0.4-0.9-0.9-1.7-1.4-2.5c-0.5-0.8-0.9-1.5-1.1-2.1c-0.4-1.4-0.7-2.8-1-4.2
		c-0.7-3.4-1.5-7-3.3-10.6c-0.9-1.7-1.9-2.9-3.1-3.6c0.4-2.2,0.3-4.6-0.4-6.8c-0.3-0.9-0.9-1.8-1.6-2.8c-0.3-0.4-0.8-1.1-1.1-1.7
		c0.3-0.1,0.6-0.2,0.8-0.3c0.6-0.2,1.2-0.4,1.5-0.6c1.3-0.7,2.7-1.6,4.1-2.6c2.5-1.8,4.7-3.8,6.9-5.9c5.2-4.8,10.1-9.6,13.1-15.8
		c3.8-7.7,3.9-16.5,4.1-24.3l1.9-94.2c0.1-3.5,0.1-7.2,0.7-10.6c0.5-3.1,0.9-4.2,2.9-6.1c2.2-2,3.4-4.7,4.5-7.4
		C853.1,847.5,856.7,836.4,854,825.4z M797.4,569.4c-1.5-0.5-3.1-1-4.4-1.8c-1.8-1.2-3.1-3-4.2-4.9c-3.1-5.4-4.5-12-3-18.1
		c1.5-6.1,6.2-11.5,12.3-13c3.2-0.8,6.5-0.6,9.8-0.1c1.7,0.2,3.5,0.8,4.7,1.8c0.5,0.5,0.9,1,1.1,1.7c0,0.1,0.1,0.2,0.1,0.3v-0.2
		c-0.4-8,1.3-16.1,4.9-23.2c-6,2-12.1,4.1-18.3,5.3c-3.7,0.7-7.3,1.2-11,1.2c-1.6,0-3.2-0.1-4.7-0.3c-0.8-0.1-1.7-0.2-2.5-0.7
		c-1.5-0.9-2-2.8-2-4.6c0-5.1,3.2-9.4,7.4-12.1c0.6-0.4,1.3-0.8,2-1.1c2.7-1.4,6-1.9,8.9-0.8c1.2,0.4,2.3,1.1,3.5,1.5
		c1,0.3,2.1,0.4,3.2,0.4c6.1,0,12-2,18-3.4c3.2-0.7,6.7-1.2,9.9-0.3c3.2,1,6.1,3.8,6,7.1c0,1.8-0.8,3.5-1.8,5c-2.1,3.3-5,6-8.3,7.9
		c-1.4,0.8-2.9,1.5-4.1,2.5c-2.4,2.3-3,5.9-2.7,9.2c0.1,1.2,0.2,2.4,0.7,3.5c0.8,2,2.5,3.5,4.1,4.8c2.5,2.2,5,4.4,7.6,6.6
		c1.3,1.1,2.6,2.3,3.3,3.8c1.8,3.9-0.3,8-2.4,11.4c-1.6,2.6-3.2,5.3-5.8,6.9c-0.2,0.1-0.4,0.2-0.6,0.3c-1.4,0.8-3,1.3-4.5,1.9
		c-2.2,0.9-4.3,2.2-6.7,3C811.3,573.2,804.1,571.4,797.4,569.4z M802.2,519.4c4.2-0.9,8.2-2.1,12.2-3.4c-1.6,4.5-2.6,9.1-2.9,13.9
		c-0.5-0.2-1-0.3-1.6-0.5c-0.7-1-1.4-1.9-2.1-2.9c-0.4-0.5-0.8-1-1.1-1.5c-0.4-0.5-0.8-1-1.2-1.5L802.2,519.4z M369.2,455.8
		c1.1,4.5,2.3,9.2,3.5,14.1c0.2,0.8,0.4,1.5,0.6,2.3c-1,0.4-1.9,0.7-2.9,1.1l-0.8-4.6c0-0.2-0.1-0.4-0.1-0.6c-0.1-0.3-0.1-0.7-0.2-1
		c-0.1-0.8-0.3-1.6-0.4-2.5c-0.2-1.2-0.4-2.3-0.6-3.5c-0.3-1.4-0.5-2.8-0.8-4.2L369.2,455.8z"/>
	<path class="st1" d="M550.8,445.1v0.1c17.8,1.2,35.4,3.6,52.8,7.1v-0.1C586.3,448.7,568.6,446.3,550.8,445.1z"/>
	<path class="st1" d="M359,1087.2c-0.4-2.3-1.6-4.6-3.3-6.2c-1-1-2.1-1.7-3.2-2c-0.6-0.1-1.2-0.2-1.9-0.2c-0.5,0-1.1,0-1.6,0.1
		c-3.8,0.4-8.1,1.2-11.4,4c-0.5,0.4-0.9,0.8-1.3,1.2c-0.5,0.5-0.9,0.9-1.3,1.2c-0.4,0.3-0.9,0.6-1.5,0.9c-0.5,0.3-1,0.6-1.5,0.9
		c-1.8,1.2-2.9,2.7-3.3,4.4c-0.3,1.3,0.1,2.8,0.9,3.9c0.8,1,1.9,1.6,3.1,1.7h0.3c1,0,1.9-0.4,2.5-0.6l0.3-0.1c0.6-0.3,1.2-0.4,2-0.4
		c1.1,0,2.2,0.2,3.5,0.5c1.4,0.3,2.9,0.6,4.5,0.6c0.2,0,0.4,0,0.7,0c4.4-0.2,8.5-2.3,11.3-5.5c0.3-0.4,0.8-0.9,1-1.7
		C359.2,1088.8,359.1,1087.9,359,1087.2z M356.6,1088.9c-0.1,0.3-0.3,0.6-0.5,0.9c-2.3,2.8-5.9,4.4-9.5,4.6
		c-3.9,0.2-7.6-2.1-11.5-0.5c-0.6,0.3-1.3,0.6-2,0.6c-0.2,0-0.3,0-0.5-0.1c-0.1,0-0.1-0.1-0.2-0.1c0,0-0.1,0-0.1-0.1
		c0,0-0.1,0-0.1-0.1l-0.1-0.1c-0.1-0.1-0.1-0.1-0.2-0.2s-0.2-0.3-0.3-0.5c0-0.1-0.1-0.2-0.1-0.3c-0.1-0.4-0.2-0.8-0.1-1.2
		c0-0.1,0.1-0.3,0.1-0.4c0.1-0.1,0.1-0.3,0.2-0.4c0.1-0.3,0.3-0.5,0.5-0.7c0.4-0.5,0.9-0.9,1.4-1.2c1-0.7,2.2-1.1,3.1-1.8
		c0.6-0.5,1.2-1,1.7-1.5c0.1-0.1,0.2-0.2,0.3-0.3c0.2-0.2,0.4-0.4,0.7-0.6c2.7-2.3,6.5-3,10-3.4c0.8-0.1,1.7-0.2,2.5,0.1
		c0.1,0,0.2,0.1,0.3,0.1c0.1,0,0.2,0.1,0.3,0.1c0.1,0,0.2,0.1,0.3,0.2c0.2,0.1,0.4,0.2,0.5,0.4c0.2,0.1,0.3,0.2,0.5,0.4l0,0
		c0.1,0.1,0.1,0.1,0.2,0.2l0,0c1.3,1.3,2.2,3,2.5,4.9C356.7,1088,356.7,1088.5,356.6,1088.9z"/>
	<path class="st1" d="M455.6,1076.3c-0.3-1.9-1.3-3.5-2.9-4.4c-1-0.6-2.2-0.9-3.5-0.9s-2.5,0.3-3.7,0.6c-0.7,0.2-1.4,0.3-2,0.4
		c-0.3,0-0.6,0-0.9,0c-1.7,0-3.4-0.5-5.3-1.1c-2.1-0.6-4.3-1.3-6.7-1.3c-0.2,0-0.4,0-0.6,0c-1.4,0.1-2.7,0.4-3.9,0.7
		c-0.9,0.2-1.8,0.4-2.7,0.6c-2,0.4-4,0.8-5.9,1.4c-1.1,0.4-2.1,1.1-3,1.9c-0.5,0.4-1.4,1.1-1.7,1.2h-0.5l-0.5,0.2
		c-0.2,0.1-0.4,0.1-0.6,0.2c-0.7,0.2-1.5,0.5-2.4,1.2c-1.8,1.4-2.3,4-1.1,5.7c1,1.4,2.6,1.6,3.4,1.7c8.8,1.2,17.7,1.5,26.4,1.8
		c0.7,0,1.4,0,2.1,0c1.1,0,2.7,0,4.3-0.5c1.1-0.3,2.1-0.7,3-1.1c0.6-0.3,1.2-0.5,1.8-0.7c0.3-0.1,0.6-0.2,0.9-0.3
		c1.4-0.4,3.1-0.9,4.4-2.3C455.3,1080,455.9,1078.2,455.6,1076.3z M452.7,1079.1L452.7,1079.1c-0.1,0.2-0.2,0.4-0.4,0.5
		c-0.1,0.2-0.3,0.3-0.5,0.4c-0.1,0.1-0.2,0.1-0.2,0.2c-0.2,0.1-0.3,0.2-0.5,0.3s-0.4,0.2-0.6,0.2c-0.1,0.1-0.2,0.1-0.3,0.1
		c-0.2,0.1-0.4,0.1-0.6,0.2c-0.6,0.2-1.2,0.4-1.8,0.6c-1.6,0.5-3,1.4-4.7,1.8c-1.8,0.5-3.7,0.4-5.6,0.3c-8.7-0.3-17.5-0.6-26.1-1.8
		c-0.3,0-0.7-0.1-1-0.2c-0.3-0.1-0.6-0.3-0.8-0.5c0-0.1-0.1-0.1-0.1-0.2c0,0,0-0.1-0.1-0.2c0-0.1,0-0.1,0-0.2s0-0.1,0-0.2
		c0-0.2,0-0.3,0.1-0.5c0-0.1,0.1-0.3,0.2-0.4l0,0c0.2-0.3,0.4-0.5,0.6-0.7c0.7-0.5,1.6-0.7,2.4-1.1c1.7,0,3.8-2.6,5.5-3.2
		c2.7-0.9,5.6-1.3,8.4-1.9c0.3-0.1,0.6-0.1,0.9-0.2c0.6-0.1,1.1-0.2,1.7-0.3h0.1c0,0,0,0,0.1,0c0.2,0,0.5,0,0.7-0.1h0.1
		c4.6-0.2,9,2.8,13.6,2.3c0.2,0,0.5-0.1,0.8-0.1c0.2,0,0.5-0.1,0.8-0.2c0.1,0,0.1,0,0.2,0c0.3-0.1,0.5-0.1,0.8-0.2
		c0.1,0,0.1,0,0.2,0c0.2-0.1,0.5-0.1,0.7-0.2c0.3-0.1,0.5-0.1,0.8-0.1c0.1,0,0.3,0,0.4,0s0.2,0,0.3,0c0.3,0,0.5,0,0.8,0
		c0.1,0,0.2,0,0.3,0c0.1,0,0.2,0,0.3,0c0.2,0,0.4,0.1,0.6,0.1l0,0c0.1,0,0.2,0.1,0.3,0.1c0.1,0,0.2,0.1,0.3,0.1
		c0.1,0,0.2,0.1,0.3,0.1l0,0c0.1,0.1,0.3,0.2,0.4,0.3s0.2,0.2,0.3,0.3c0.1,0.1,0.2,0.2,0.3,0.4c0.1,0.1,0.2,0.3,0.2,0.4
		c0.1,0.1,0.1,0.3,0.2,0.4c0,0.1,0.1,0.3,0.1,0.4v0.1c0,0.1,0.1,0.3,0.1,0.4c0,0.3,0,0.6,0,0.8
		C453.1,1078.1,453,1078.6,452.7,1079.1z"/>
	<path class="st1" d="M500.2,1081.5c-0.7-0.2-1.5-0.3-2.1-0.4c-0.8-0.1-1.5-0.2-2.1-0.4c-0.7-0.3-1.5-1-2.3-1.7
		c-0.4-0.3-0.8-0.7-1.2-1c-1.4-1.1-3-2-4.8-2.6c-1.2-0.4-2.3-0.5-3.3-0.6c-0.7-0.1-1.3-0.1-1.8-0.2c-0.4-0.1-0.7-0.2-1-0.3
		c-1-0.3-2.1-0.7-3.6-0.7h-0.3c-2.2,0.1-4.2,0.8-6.1,1.5c-0.9,0.3-2,0.7-3,1.6c-1.6,1.4-2.5,3.6-2.4,6.5c0,1.5,0.2,2.7,0.7,3.8
		c1.5,3.7,5.4,5.4,8.6,5.8c0.7,0.1,1.5,0.1,2.3,0.1c1.2,0,2.4-0.1,3.6-0.2c0.9-0.1,1.8-0.1,2.7-0.2h0.5c1.7,0,3.3,0.2,5.1,0.3
		c1.8,0.2,3.7,0.3,5.5,0.3c1.4,0,2.6-0.1,3.8-0.3c1.1-0.2,2.5-0.5,3.8-1.3c1.6-1.1,2.5-2.8,2.5-4.5
		C505.2,1084.1,502.7,1082.2,500.2,1081.5z M501.4,1089.4c-0.8,0.6-1.8,0.8-2.7,0.9c-4.8,0.8-9.8-0.5-14.7-0.4
		c-2.7,0.1-5.5,0.6-8.2,0.2c-0.7-0.1-1.4-0.2-2-0.5c-0.2,0-0.3-0.1-0.5-0.2c-0.2,0-0.3-0.1-0.5-0.2c-0.1-0.1-0.3-0.1-0.4-0.2l0,0
		c-0.2-0.1-0.4-0.2-0.6-0.3c-0.1,0-0.1-0.1-0.2-0.1c-0.2-0.1-0.4-0.2-0.5-0.4c-0.2-0.2-0.4-0.4-0.6-0.6c-0.2-0.2-0.3-0.3-0.4-0.5
		c-0.1-0.1-0.2-0.2-0.2-0.3s-0.1-0.2-0.2-0.2l0,0l0,0c-0.1-0.1-0.1-0.2-0.2-0.3s-0.1-0.2-0.2-0.4c0-0.1-0.1-0.2-0.1-0.3
		c0,0,0-0.1-0.1-0.2c0-0.1,0-0.1,0-0.2s-0.1-0.2-0.1-0.3v-0.1c-0.1-0.4-0.1-0.9-0.2-1.3c0-0.2,0-0.3,0-0.5c0-1.7,0.3-3.5,1.6-4.6
		c0.6-0.5,1.5-0.8,2.3-1.1c1.7-0.6,3.5-1.2,5.3-1.3c1.6-0.1,2.8,0.6,4.2,1c1.6,0.4,3.3,0.2,4.9,0.8c0.4,0.1,0.7,0.3,1.1,0.4l0,0
		c0.4,0.1,0.7,0.3,1,0.5c0.3,0.2,0.7,0.4,1,0.6l0,0c0.3,0.2,0.6,0.5,0.9,0.7c0.2,0.1,0.3,0.3,0.5,0.4c0.5,0.4,1,0.9,1.5,1.3
		c0.3,0.3,0.7,0.5,1,0.8c0.3,0.2,0.7,0.4,1.1,0.6c1.5,0.6,3.1,0.5,4.6,0.9l0,0c1,0.3,2.1,0.9,2.7,1.7c0,0.1,0.1,0.2,0.1,0.2
		s0,0.1,0.1,0.1c0,0,0,0.1,0.1,0.1c0.1,0.2,0.1,0.3,0.1,0.5c0,0.1,0,0.2,0,0.3C502.8,1088,502.2,1088.9,501.4,1089.4z"/>
	<path class="st1" d="M1141.9,932L1141.9,932c-2.9-1.2-5.6-2.9-8-5c-0.3-0.3-1.2-1.1-2.5-1.1c-0.3,0-0.6,0-0.8,0.1
		c-0.8,0.2-1.3,0.8-1.6,1l-8.2,8.4c-2.2,2.3-4.5,4.6-6.6,7.1c-3.9,4.6-7.1,9.6-10.2,14.4c-0.8,1.3-1.7,2.6-2.5,3.8
		c-5.6,8.4-11.8,16.7-17.8,24.8c-0.3,0.4-0.6,0.8-0.9,1s-1,0.5-2.5,0.5c-1.1,0-2.2-0.1-3.3-0.2c-0.4,0-0.8-0.1-1.1-0.1
		c-0.8-0.1-1.6-0.2-2.3-0.2c-2.2-0.2-4.5-0.5-6.8-0.5h-0.7c-1.1,0-2.3,0.1-3.4,0.2c-0.8,0.1-1.7,0.1-2.5,0.2c-0.6,0-1.3,0-1.9,0
		h-2.9c-2,0-4.1,0.1-6.2,0.5c-5,1.1-8.7,4.5-9.5,8.5c-0.4,2.3,0.1,4.4,0.5,6.3l0.2,1c1,4.5,0.9,9.4,0.8,14.1c0,1.4,0,2.8-0.2,4.1
		c-0.1,0.7-0.3,1.3-0.5,2s-0.3,1.3-0.4,2c-0.4,2.2-0.4,4.3-0.5,6.3v0.2c-2.1,1-4.6,1.5-7.4,1.5c-3.9,0-8.1-0.9-11.7-1.8
		c-0.5-3.6-0.9-6.9-1-10.3c-0.1-4.1-0.2-8.2-0.1-12.2v-1.4c0-5,0.1-10.1-0.9-15.1c-0.9-4.6-3.1-10.9-8.5-15.2c-3-2.4-6.5-3.8-9.7-5
		c-2.8-1.1-5.9-2.3-9.2-3c-2.1-0.5-4.3-0.7-6.4-0.9c-3.1-0.3-6.6-0.7-10.1-0.9c-1.5-0.1-3.1-0.1-4.9-0.1c-1.9,0-3.8,0-5.7,0.1
		c-1.8,0-3.7,0.1-5.6,0.1c0,0-3.7,0-5.3,0c-13.4,0-27.7,0.4-41.2,5c-5.2,1.8-10.1,4.1-14.7,6.4c-2.7,1.3-5.2,2.7-6.8,5.3
		c-2.3,3.8-1.5,8.1-0.7,11.9c0.2,0.8,0.3,1.6,0.5,2.5c0.7,4.3,0.2,8.6-0.3,13.3c-0.1,1.1-0.2,2.2-0.4,3.4c-0.1,0-0.2-0.1-0.2-0.1
		c-1.4-0.6-3.1-1-4.7-1c-0.8,0-1.7,0.1-2.6,0.2c-2.6,0.5-4.9,1.6-7.1,2.7c-0.9,0.4-1.7,0.9-2.6,1.2c-5.2,2.3-11,2.9-17,3.6
		c-4.3,0.5-8.7,1-13,2.2c-7.2,1.9-11.8,6.1-12.3,11.2c-0.6,6,4.6,10.9,9.8,12.4c2.1,0.6,4.4,0.9,7.2,0.9c1.4,0,2.9-0.1,4.3-0.1
		c1,0,2-0.1,2.9-0.1c0.4,0,0.9,0,1.3,0c5.8,0,11.6,0.9,17.2,2.7c1,0.3,2,0.7,3,1c4.1,1.4,8.3,2.9,12.7,2.9c1,0,2-0.1,3-0.2
		c1.1,2.9,3.9,6,10.5,8.5c12.2,4.5,24.9,7.1,37.9,7.6l1.6,0.1c5.6,0.2,11.3,0.4,15.4,3.5c1.6,1.2,3,2.9,4.4,4.7
		c2.2,2.7,4.5,5.6,8,7.1c1.7,0.8,3.6,1.1,5.6,1.1c3.1,0,6.2-0.8,9.1-1.6c2.9-0.8,5.6-1.5,8.1-1.5c0.7,0,1.4,0.1,2.1,0.2
		c1,0.2,2.1,0.5,3.2,0.9c1.9,0.6,3.8,1.2,5.9,1.2c1.4,0,2.7-0.3,3.8-0.9c2.2-1.1,3.5-3.1,4.6-4.9c0.5-0.8,1-1.6,1.5-2.2
		c1.8-2.1,4.7-3.1,8.9-3.1c2.6,0,5.3,0.4,7.4,0.8l19,3.2c3.3,0.6,7.1,1.2,10.8,1.2c2,0,3.8-0.2,5.5-0.5c1.6-0.3,3.1-0.8,4.5-1.3
		c1.2-0.4,2.3-0.7,3.4-1c1.9-0.5,4-0.7,6.2-0.7c4.5,0,9.1,0.9,13.6,1.8c0,0,1.7,0.3,2.4,0.5c3.5,0.7,7.5,1.5,11.4,1.5
		c3.3,0,6.1-0.5,8.6-1.7c2.2-1,4.2-2.5,5.8-4.2c1.8-1.9,2.8-4,3-6c0.3-3-1.1-6.1-3.9-8.6l-0.1-0.1c-0.2-0.1-0.4-0.3-0.4-0.3
		s0,0,0-0.1c0-0.3,0.2-0.9,0.3-1.4c2-6.7,1.7-13.7,1.5-20.4l-0.1-1.5c-0.2-7.2-0.3-14.5-0.1-21.8v-0.3c0.1-5.1,0.3-10.9-2.3-16
		c-2.1-4.1-7.5-8.6-12.9-9.3c3.4-5.5,7.4-10.8,11.3-15.9c3.9-5.2,8-10.6,11.5-16.3c0.5-0.8,1-1.7,1.6-2.5c1.5-2.6,3-5,4.8-7.2
		c0.8-1,1.6-1.9,2.5-2.9c2.3-2.6,4.6-5.2,6-8.6l0.9-2.3L1141.9,932z M1132.9,945.2c-2.5,3.1-4.4,6.6-6.5,10
		c-7.8,12.6-18.2,23.5-25.3,36.5c5.4-2.6,12.9,2.6,15.3,7.4c2.4,4.6,2.2,10,2,15.1c-0.2,7.3-0.2,14.6,0.1,22
		c0.2,7.1,0.7,14.4-1.3,21.2c-0.3,1-0.7,2.2-0.2,3.2c0.3,0.5,0.7,0.9,1.1,1.2c1.9,1.7,3.4,4.1,3.1,6.6c-0.2,1.7-1.2,3.3-2.3,4.6
		c-1.4,1.5-3.2,2.8-5.1,3.6c-6.3,2.9-14,0.8-20.5-0.4c-7-1.4-14.2-2.8-21.3-1.1c-2.7,0.6-5.2,1.7-7.9,2.2c-5.1,1-10.3,0.2-15.4-0.7
		c-6.4-1.1-12.7-2.2-19-3.2c-6.5-1.1-14.2-1.8-18.5,3.2c-1.9,2.2-2.9,5.2-5.4,6.5c-3.5,1.8-7.5-0.8-11.3-1.5
		c-8.2-1.5-16.8,5.3-24.4,2c-5.1-2.2-7.4-8.1-11.8-11.5c-5.1-3.9-12-3.8-18.4-4.1c-12.7-0.5-25.2-3.1-37.1-7.5
		c-4.4-1.6-9.4-4.5-9.4-9.2c-6.4,2.5-13.3-0.8-19.8-3c-6.2-2-12.8-3-19.3-2.8c-4.6,0.1-9.3,0.8-13.7-0.5c-4.4-1.3-8.5-5.2-8-9.8
		c0.5-4.9,5.7-7.8,10.5-9.1c10-2.6,20.9-1.8,30.4-5.9c3.1-1.3,6-3.2,9.2-3.8c1.9-0.4,4-0.2,5.8,0.5c1.3,0.6,3.4,1.7,3.4,3.4
		c0.1-7.5,2.2-15.1,1-22.6c-0.7-4.3-2.4-9-0.1-12.7c1.3-2.1,3.6-3.3,5.7-4.4c4.7-2.3,9.4-4.6,14.4-6.3c14.4-4.9,30-4.9,45.2-4.8
		c5.5,0,11-0.3,16.5,0c3.3,0.2,6.7,0.5,10,0.8c2,0.2,4.1,0.4,6.1,0.9c3,0.6,5.9,1.8,8.8,2.9c3.2,1.2,6.4,2.5,9,4.6
		c4.2,3.3,6.6,8.5,7.6,13.8s0.9,10.7,0.9,16c0,4.1,0,8.2,0.1,12.2c0.1,3.8,0.6,7.4,1.1,11.1c0.1,0.3,0.1,0.7,0.3,0.9
		c0.2,0.3,0.6,0.4,1,0.5c7.1,1.8,14.8,3.4,21.4,0.3c0.4-0.2,0.8-0.4,1-0.8c0.2-0.3,0.2-0.7,0.2-1.1c0-2.1,0.1-4.2,0.5-6.3
		c0.2-1.4,0.7-2.7,0.9-4.1c0.2-1.5,0.3-3,0.3-4.5c0.1-4.9,0.1-9.9-0.9-14.7c-0.4-2.1-1.1-4.2-0.7-6.3c0.7-3.5,4.1-5.8,7.6-6.6
		s7.1-0.3,10.6-0.5c2-0.1,3.9-0.3,5.8-0.4c3.2-0.1,6.3,0.4,9.5,0.7c2.5,0.2,6.2,0.9,8.4-0.5c0.6-0.4,1.1-1,1.5-1.6
		c6.1-8.2,12.2-16.4,17.9-24.9c4.1-6.1,7.8-12.4,12.6-18c2.1-2.4,4.3-4.7,6.5-7c2.7-2.8,5.4-5.6,8.1-8.4c0.1-0.1,0.3-0.3,0.5-0.3
		c0.4-0.1,0.7,0.2,1,0.4c2.6,2.2,5.5,4.1,8.7,5.4C1139.3,938.5,1135.7,941.6,1132.9,945.2z"/>
	<path class="st1" d="M1190.5,1053c-0.2-2.5-2-4.3-3.1-5.4c-2.1-2.1-4.1-4-6.4-5.6c-7.5-5.5-16.4-6.6-22.5-6.6h-0.5
		c-8.3,0.1-16.3,2.1-23,4.1c-1.1,0.4-2.3,0.6-3.6,0.9c-1.1,0.2-2.1,0.4-3.2,0.7c-3.4,0.9-4.2,4.2-4.6,6.2c-0.4,1.5-0.9,3.7,0,5.8
		c0.8,1.9,2.4,3,3.9,3.8c6.8,4,15.1,6.4,24.6,7.3c2.9,0.3,5.9,0.4,9.1,0.4c5.4,0,10.9-0.4,16.1-0.8c1.6-0.1,3.7-0.3,5.5-1.2
		c1.6-0.8,2.8-1.9,3.9-2.9C1188.2,1058.6,1190.8,1056.2,1190.5,1053z M1185.3,1057.9c-1,0.9-2,1.9-3.3,2.5c-1.4,0.7-3.1,0.8-4.7,0.9
		c-8.2,0.6-16.5,1.1-24.8,0.4s-16.5-2.8-23.6-7c-1.1-0.7-2.3-1.5-2.8-2.7c-0.6-1.3-0.2-2.8,0.1-4.2c0.4-1.8,0.9-3.8,2.9-4.4
		c2.2-0.6,4.6-0.9,6.8-1.6c7.2-2.2,14.7-4,22.3-4.1c7.6-0.1,15.3,1.7,21.5,6.2c2.2,1.6,4.2,3.5,6.1,5.4c1.1,1.1,2.2,2.3,2.3,3.8
		C1188.2,1055.1,1186.7,1056.7,1185.3,1057.9z"/>
	<path class="st1" d="M329.6,615.9c-2.2,1.7-5.1,1.9-7.8,2.4c0,0-4.7,1.1-6.1,1.7c-2.2,1-4.7,1.6-6.9,0.8c-0.9-0.3-1.7-0.8-2.5-1.3
		c-8.8-5-18.2-8.9-27.4-13c-9.4-4.2-18.8-8.3-28.2-12.4c-13.7-5.9-27.4-11.6-41.5-16.2c-19-6.2-38.8-9.3-56.8-18.3
		c-8.6-4.3-16.5-9.7-24.9-14.4c-16.3-9.1-34-15.2-50.6-23.6c-0.4-0.2-0.1-1,0.4-1c1.5,0.1,3,0.2,4.5,0.4c3.2,0.2,6.5,0.6,9.7,0.5
		c2,0,3.5-0.2,5.5,0.2c2.5,0.5,5,1,7.6,1.5c10.1,2,20.1,4.3,30,7.2c5.7,1.7,11.2,4.2,16.8,6c6.2,1.9,12.8,2.8,18.8,5.5
		c9.3,4.2,18.3,8.6,28.9,10.7c3.3,0.7,5,1.9,8,3.4c1.4,0.7,4.1,1.6,5.6,2.1c1.3,0.4,2.6,0.5,3.9,0.9c5.8,2,10.8,5.6,16.7,7.5
		c6.4,2,12.4,4.9,18.5,7.9c4.4,2.1,8.7,4.7,13.1,6.5c3.5,1.5,7,3.2,10.3,4.9s7.2,2.6,10.6,4.4c7,3.5,13.9,7.6,20.6,11.5
		C314,606.2,322,610.6,329.6,615.9z"/>
	<path class="st1" d="M329.6,615.9L329.6,615.9L329.6,615.9z"/>
	<path class="st1" d="M647.5,484.8L647.5,484.8L647.5,484.8z"/>
	<path class="st1" d="M765,609.3c-2.6-1-5.2-2-7.8-3c-0.7-0.2-1.4-0.6-1.6-1.3c-0.1-0.4,0.1-0.9,0-1.4c-0.1-0.8-0.9-1.3-1.6-1.5
		c-0.8-0.2-1.6-0.1-2.3-0.2c-0.4-0.1-0.9-0.3-1-0.7c-0.1-0.3,0.1-0.5,0.2-0.8c0.5-1,1.3-1.9,1.8-2.9s0.8-2.3,0.2-3.3
		c-1.5-2.7-6.4-0.7-8.2-3.2c1.3-0.7,2-2.3,1.6-3.7c-0.4-1.4-1.9-2.4-3.4-2.3c-1.1,0.1-2.1,0.8-3.1,1c-2.8,0.8-5.6-1-8-2.6
		c-7-4.7-14.5-8.8-22.6-11.3s-16.7-3.5-25-2.1c-1,0.2-2.7,0.6-3.6,0c-0.8-0.5-0.2-1.4,0.4-1.8c2.1-1.3,5.3-1.6,7.6-1.7
		c1.5-0.1,3-0.1,4.6,0c4.6,0.4,9.1,1.6,13.5,2.9c5.7,1.7,11.4,3.6,16.9,5.8c4,1.5,8.2,3.3,10.5,6.8c0.3,0.5,0.6,1,1.2,1
		c0.3,0,0.6-0.1,0.9-0.2c3.2-1.3,6.7-2,10.2-2c0.4,0,0.9,0,1.2,0.3c0.6,0.6,0.2,1.6,0,2.4c-0.4,1.6,0.1,3.4,1.1,4.8
		c1,1.4,2.4,2.4,3.8,3.3c0.6,0.4,1.2,0.7,1.5,1.3c0.6,1.1,0.1,2.5,0.1,3.8c0,2.9,2.6,5,5,6.5C761.8,604.7,764.6,606.5,765,609.3z"/>
	<path class="st1" d="M717,606c-0.6-1.4-1.4-2.7-2.3-3.9c-1.3-2-2.8-3.8-4.2-5.7c-0.8-1-1.8-2.1-2.9-2.8c-1.8-1-4.1-0.9-6.2-1.3
		c-1.5-0.3-2.9-0.8-4.3-0.8c-2.5,0-4.7,1.3-6.7,2.7c-2.9,2-6,4.1-8.2,6.8l-0.2,0.2c-3.3,4.9-4.1,11.5-2,17.1c0.5,1.3,1.1,2.6,2,3.7
		c1,1.2,2.2,2.2,3.5,3c2.7,1.7,5.7,2.9,8.9,3.4c1.2,0.2,2.5,0.3,3.8,0.3c0.3,0,0.6,0,0.9,0c2-0.1,3.9-0.4,5.7-1
		c2.7-0.8,5.2-2.1,7.5-3.8c1.1-0.9,2.2-1.9,3-3c0.8-1.1,1.4-2.3,1.8-3.5c0.7-1.9,1.1-4,1.1-6.1C718,609.5,717.7,607.7,717,606z
		 M713.7,608.4c-0.1,1.3-0.3,2.7-0.5,4c-0.2,1-0.3,2-0.7,3c-1.2,3.1-4.1,5.3-7,6.9c-1.7,0.9-3.5,1.7-5.4,2.3c-0.7,0.2-1.3,0.4-2,0.5
		c-0.7,0.1-1.4,0.2-2,0.3l0,0c-0.1,0-0.2,0-0.2,0c-3.4,0.2-7-0.6-9.6-2.8c-1.3-1.1-2.3-2.5-3.1-3.9c-0.6-1-1.1-2-1.3-3.1
		c-0.2-1.1-0.2-2.3-0.2-3.4c0.1-1.8,0.2-3.6,0.6-5.3c1.5-5.8,7.3-10.3,13-11.6c4.2-1,9-0.3,12.4,2.3c1.7,1.3,3,3.1,4.4,4.8
		c0.7,0.9,1.4,1.8,1.7,2.9C713.9,606.3,713.8,607.4,713.7,608.4z"/>
	<path class="st1" d="M709.2,603.5c-1-1.4-2.4-2.4-3.7-3.6c-0.5-0.5-1.1-1.3-1.8-1.6c-0.1,0-0.2-0.1-0.3-0.1c-0.2,0-0.4-0.1-0.7-0.1
		c-0.1,0-0.2,0-0.3,0c-1.2,0-2.4-0.1-3.7-0.1c-0.6,0-1.3,0-1.9,0.1c-0.3,0.1-0.6,0.2-0.9,0.2c-0.7,0.1-1.1,0-1.8,0.3
		c-0.9,0.4-1.8,0.7-2.7,1.1c-1.6,0.7-2.8,2.5-3.8,3.9c-0.8,1-1.4,2.2-2.1,3.3c-0.4,0.7-0.9,1.5-1.1,2.3c-0.4,1.2-0.3,2.5-0.3,3.8
		c0.1,1.8,0.1,3.8,1.1,5.3c0.8,1.2,2.1,2.1,3.5,2.6s2.9,0.7,4.3,0.9c1.9,0.2,3.8,0.5,5.7,0.2c2.7-0.3,5.2-1.6,7.1-3.4
		c2-1.8,3.4-4.2,4.1-6.8C710.9,609,710.9,605.9,709.2,603.5z M702.7,616.7c-1.5,1.3-3.6,1.9-5.6,1.8c-2,0-4-0.6-5.9-1.1
		c-0.1,0-0.2,0-0.2-0.1c-0.1,0-0.3-0.1-0.4-0.1c-0.1,0-0.2-0.1-0.3-0.1s-0.2-0.1-0.3-0.1c-0.2-0.1-0.4-0.2-0.6-0.4l0,0
		c-0.2-0.2-0.5-0.5-0.6-0.7l0,0c-0.2-0.3-0.3-0.6-0.4-0.9c0-0.2-0.1-0.3-0.1-0.5c-0.1-0.5-0.1-1-0.2-1.5c-0.1-1.5-0.2-3.1,0.3-4.6
		c0-0.1,0.1-0.2,0.1-0.3c0-0.1,0.1-0.2,0.2-0.3c0-0.1,0.1-0.2,0.2-0.3c0.1-0.1,0.1-0.2,0.2-0.3c0.1-0.2,0.2-0.3,0.3-0.4
		c1.3-2,3.1-3.8,5.2-4.8c0.3-0.1,0.5-0.3,0.8-0.4s0.5-0.2,0.8-0.3c1.3-0.5,2.6-0.5,3.8,0.6l0,0c0.1,0.1,0.1,0.1,0.2,0.2
		c0.1,0.1,0.1,0.1,0.1,0.2s0.1,0.1,0.1,0.2c0,0.1,0,0.1,0,0.2c0,0.1,0,0.1,0,0.2c0,0.1-0.1,0.3-0.3,0.4c-0.1,0.1-0.2,0.2-0.3,0.3
		c-0.3,0.2-0.6,0.4-1,0.6c-0.6,0.2-1.2,0.4-1.7,0.6c-0.2,0.1-0.4,0.2-0.6,0.3c0,0-0.1,0-0.1,0.1c-0.2,0.1-0.4,0.2-0.5,0.3l0,0
		c-0.1,0.1-0.2,0.1-0.3,0.2c-0.1,0-0.1,0.1-0.2,0.1c-0.1,0.1-0.2,0.1-0.3,0.2s-0.2,0.2-0.4,0.3c-0.1,0.1-0.2,0.2-0.4,0.3
		c-0.2,0.1-0.2,0.2-0.3,0.3c-0.1,0.1-0.3,0.3-0.4,0.4c-0.1,0.1-0.2,0.3-0.3,0.5c-0.1,0.1-0.2,0.3-0.3,0.4c0,0.1-0.1,0.1-0.1,0.2
		c-0.1,0.1-0.1,0.2-0.2,0.3c-0.1,0.2-0.2,0.5-0.1,0.8v0.1c0,0.1,0.1,0.1,0.1,0.1s0.1,0.1,0.2,0.1c0,0,0,0,0.1,0s0.2,0,0.2,0.1h0.1
		c2.8,0.4,5.6-1.1,7.9-2.8c0.9-0.7,2-1.4,3.1-1c0.2,0.1,0.5,0.2,0.6,0.4c0.1,0.1,0.1,0.1,0.2,0.2c0.1,0.2,0.3,0.4,0.4,0.7
		c0,0.1,0,0.2,0.1,0.2c0.1,0.7,0.1,1.4,0,2.1C705.2,612.1,704.7,615,702.7,616.7z"/>
	<path class="st1" d="M650.7,603c0,0.2,0,0.4-0.2,0.6s-0.5,0.3-0.8,0.4c-2.7,0.6-5.1-1.6-7.4-3.1c-2.1-1.3-4.6-2.1-7-2.8
		c-7.2-2.2-14.4-4.3-21.7-6c-3-0.7-6-1.3-9-1.3c-0.3,0-0.6,0-0.9,0c-3,0-6,0.6-9,1.2c-6.4,1.3-12.8,2.8-19.2,4.5
		c-2.2,0.6-4.5,1.3-6.9,1.2c-1.7,0-0.3-1.3,0.3-1.8c0.7-0.6,1.4-1.1,2.1-1.6c1.6-1.1,3.5-1.7,5.3-2.5c4.7-2,9.5-3.8,14.3-5.2
		c2.7-0.8,5.4-1.4,8.2-1.9c1.6-0.3,3.2-0.5,4.9-0.7c10.1-1,20.5,0.3,30,3.7c3.9,1.4,7.7,3.2,11.5,5c0.6,0.3,1.2,0.6,1.7,1.1
		s0.8,1.3,1.1,2c0.8,2.1,1.6,4.2,2.4,6.3C650.6,602.4,650.7,602.8,650.7,603z"/>
	<path class="st1" d="M623.3,597.2c-6.5-0.7-13.1-0.3-19.6,0.3c-6.4,0.6-12.9,1.5-19.3,1.7c-1,0-2,0.1-3-0.1s-2-0.5-3-0.6
		c-1.4-0.1-2.9,0.3-4.1-0.3c1.1-0.5,2.3-1,3.4-1.3c0.8-0.3,1.6-0.3,2.5-0.3c0.8,0,1.3-0.2,2-0.3c1.8-0.3,3.8-0.5,5.6-0.7
		c3.7-0.5,7.4-1,11.1-1.4c1.6-0.2,3.2-0.4,4.9-0.5c0.3,0,0.7,0,1,0c2.2,0,4.3,0.2,6.5,0.5c3.9,0.6,7.7,1.6,11.5,2.5
		C623,596.7,623.4,596.9,623.3,597.2z"/>
	<path class="st1" d="M623.3,597.2L623.3,597.2L623.3,597.2z"/>
	<path class="st1" d="M676.3,572.8c-2.2,0.6-4.4,1.2-6.6,1.8c-6.9,1.9-14.2,3.9-19.4,8.8c-4.7-2.1-10.1-2.2-15.3-2.3
		c-7-0.1-14.1-0.3-21.1-0.4c-3.4-0.1-6.8-0.1-10.2,0.1c-0.3,0-0.6,0-0.9,0c-14.5,1-28.3,7-39.8,15.8c-0.1,0.1-0.2,0.2-0.3,0.3
		c-0.3,0.4-0.1,1,0.2,1.4c1.4,2,5.5,1.9,7.7,2c3,0.2,6.1,0.2,9,1c1.4,0.4,2.7,1,4.2,1.2c2,0.3,4.1-0.3,6.1-0.7
		c1.8-0.4,3.6-0.7,5.4-0.9c2.2-0.2,4.4-0.1,6.7-0.1c0.6,0,1.2,0,1.8-0.1c3.3-0.2,6.5-0.6,9.8-0.7c4,0,8,0.4,11.8,1.4
		c2.2,0.5,4.3,1.3,6.1,2.5c2.6,1.8,4.4,4.5,5.6,7.4c1.2,2.9,1.9,6,2.8,9c1.2,4.3,2.6,8.6,3.5,13c0.5,2.4,0.8,4.8,1,7.2
		c0.3,3.7,0.4,7.4,0.5,11.2c0,2.1,0.1,4.2,0.1,6.3c0,0.5,0,1.1,0,1.7c0,1.3,0,2.7-0.1,4c-0.1,1.1-0.3,2-0.5,3
		c-0.6,4.9-1.1,9.7-2.2,14.5c-0.5,2.2-1.1,4.4-1.7,6.6c-2.1,7.3-4.7,14.4-7.7,21.4c-3.2,7.6-6.7,15-10.1,22.5
		c-1.5,3.4-3.1,6.9-3.7,10.5c-0.1,0.8-0.2,1.6-0.8,2.2c-1,1.1-2.9,1.1-4.2,1.3c-1.8,0.3-3.5,0.5-5.3,0.7c-3.5,0.3-7,0.5-10.6,0.7
		c-7.4,0.4-14.8,0.7-22.1-0.4c-4.3-0.7-8.5-1.8-12.8-2.8c-9-1.9-18.2-2.8-27.3-2.6c-0.8,0-1.7,0-2.2-0.6c-0.4-0.5-0.5-1.2-0.5-1.8
		c-0.4-4.7-0.6-9.7,1.7-13.9c1.8-3.2,5-5.5,8.1-7.5c7.5-4.8,15.2-9.1,23.2-13c1-0.5,2.2-1,2.9-1.9c0.8-0.9,1.3-2.1,1.7-3.3
		c1.2-3.7,2.2-7.5,3-11.3c0-0.1,0-0.2,0-0.2c0.3-1.8,0.6-3.7-0.5-5.1c-1-1.4-2.9-1.7-4.5-2c-3.7-0.6-7.4-1.3-11.1-1.9
		c0.1-1.8,0.8-3.5,1.1-5.2c0.3-1.8,0.2-3.7-1-5.1c-1.1-1.3-3-1.6-4.6-1.9c-0.7-0.1-1.4-0.2-2.1-0.3c-3.4-0.5-7.5-1.1-11.7-1.7
		c-4.2-0.6-8.4-1.2-11.9-1.8c-5.8-0.9-10-1.6-9.6-1.9c0,0,0.2-0.4,0.3-0.5c3.8-3.8,6.8-8,9.3-12.3c5.1-8.8,8.1-18.4,11.2-28.1
		c1.6-5,3.2-10.2,5.2-15.1c2-5,4.3-9.7,7.2-14.1c2.6-3.9,5.6-7.5,9.2-10.5c3.6-3,7.8-5.4,11.9-7.6c2.3-1.2,4.6-2.4,7-3.4
		c2.3-1,4.4-1.8,6.8-2.4c4.9-1.4,9.9-2.4,15-3.1c1-0.1,2-0.2,2.9-0.4c6.8-0.7,13.6-0.9,20.4-0.5c13.8,0.6,27.5,3.1,41,6.1
		C668.9,569.8,672.9,570.7,676.3,572.8z"/>
	<path class="st1" d="M562,690.6c0,0.3,0,0.6-0.1,0.9c-0.3,2.1-0.8,4.3-1.9,6.1c-2.5,3.8-7.4,4.9-11.8,6.1c-7.3,2-14.6,5.6-19,11.9
		c-4.9,7.1-5.2,16.2-5.8,24.5c0,0.2,0,0.4-0.1,0.5c-0.2,0.4-0.8,0.3-1.2,0.2c-3.1-0.6-6.3-0.9-9.5-0.8c-1.8,0-3.5,0.2-5.2-0.2
		c-1-0.2-1.9-0.6-2.8-0.8c-1.1-0.2-2.2-0.2-3.3-0.2c-3.9-0.1-7.5-1.3-11.4-1.8c-15.8-2.1-31.7-3.3-47.6-3.9
		c-16-0.6-31.9-0.7-47.9-0.4c-15.9,0.3-31.8,0.8-47.7,1.4c-9.5,0.3-19,0.8-28,3.8c-3.6,1.2-7.2,2.3-10.3,4.5
		c-2.8,1.9-5.2,4.4-6.5,7.5c-0.9,2.1-1.2,4.5-1.9,6.7c-0.5,1.5-1.1,2.9-1.4,4.4s-0.1,3.1,0.1,4.7c0.4,3.6,0.8,7.3,1.2,10.9
		c0.2,2.2,0.5,4.3,1,6.5c0.5,2,1.3,4,2.1,5.9c4.8,11.7,10.7,22.8,16.3,34.1c1.4,2.9,2.9,5.8,3.8,8.9c3,10.1,0.4,20.9-2.2,31.2
		c-1.6,6.3-3.2,12.6-6.1,18.4c-0.8,1.6-1.7,3.2-2.6,4.8c-3.6,6.2-6.2,12.6-9.4,19c-3.3,6.9-6.6,13.8-9.8,20.8
		c-6.3,13.9-11.9,28.2-16.1,42.9c-3.7,13.1-6.1,26.5-8.5,39.8c-1.2,6.9-2.4,13.9-2.6,20.9c-0.3,10.4,1.6,20.8,4.5,30.8
		c-6.3-1.5-12.5-3.5-18.5-6.2c-1.4-0.6-2.8-1.3-3.8-2.5c-1.5-1.8-1.7-4.3-1.8-6.7c-0.2-4-0.5-7.9-0.8-11.9
		c-0.7-7.9-1.8-15.8-3.1-23.6c-0.7-3.9-1.3-7.8-2.2-11.6c-0.8-3.5-0.6-7.5-1.1-11.1c-0.2-1.7-0.6-3.3-0.8-4.9
		c-0.2-1.7,0.1-3.4,0-5.1c-0.1-7.3-0.3-14.6-0.4-22c-0.1-6.5-0.2-12.9,0.4-19.4c0.3-3.3,0.9-6.6,1.1-9.9c0.2-3.1,0.2-6.2,0.1-9.4
		c0-1.4-0.4-3-0.1-4.3c0.2-1.1,0.5-2.2,0.7-3.3c0.8-6.1,1.9-12.1,3-18.2c0.1-0.4,0.2-0.8,0.2-1.2c1.5-7.9,3.1-15.7,4.9-23.6
		c0.9-3.9,1.7-7.8,2.6-11.7c0.8-3.3,1.8-6.5,2.5-9.8c2.9-14.9,9-28.8,13.4-43.2c1.1-3.7,2.1-7.4,3.2-11.2l1.3-4.7
		c2.1-7.6,3.7-15.4,6.5-22.7c2.9-7.5,5.8-15.1,8.7-22.6c-0.5,2.8-1.1,5.6-1.7,8.5c-0.5,2.8-1,5.9,0.7,8.2c0.6,0.8,1.6,1.4,2.5,1.1
		c1.5-0.4,1.6-2.5,1.7-4c0-5.2,2.4-10.3,5.8-14.4c3.4-4,7.7-7.2,12.1-9.9c15.3-9.5,33-15.2,51-16.5c3.9-0.3,7.8-0.3,11.6-0.7
		c3.7-0.3,7.3-1.1,11-1.6c3.8-0.5,7.6-1.1,11.4-1.8c7.6-1.4,15.1-3.1,22.6-4.9c14.9-3.7,29.7-8,44.8-11c2.4-0.5,4.8-0.9,7.2-1.7
		c2.1-0.7,4.2-1.7,6.3-2.4c1-0.3,2-0.6,3-0.9c2.2-0.6,4.3-1.4,5.8-3c1-1,2.1-2.4,3.3-2.4c0.2,0,0.4,0,0.7,0.1
		c-0.5,1.5-1.4,3.4-1.4,5.1v0.1c0,0.9,0.3,1.7,0.9,2.5c0.8,0.9,2,1.2,3.1,1.6c16.3,4.5,33.6,2.7,50.3,5.7c4.1,0.7,8.6,1.7,12.3-0.3
		c1.1-0.6,2.1-1.4,2.6-2.6c0.9-2,0.2-4.4,1-6.4c1.6-0.1,3.3,0.1,4.9,0.4c0.6,0.1,1.1,0.3,1.5,0.7C561.9,689.9,562,690.2,562,690.6z"
		/>
	<path class="st1" d="M570.5,687.8c0,0.1,0,0.1,0,0.2c-0.3,1.9-0.8,3.8-1.2,5.7c-0.6,2.2-1.3,4.5-2.7,6.3c-1.9,2.5-5,4-7.9,5.4
		c-6.4,3.1-12.7,6.5-18.9,10.2c-2.5,1.5-5,3.1-6.6,5.4c-1.7,2.5-2.3,5.6-2.7,8.6c-1.1,8.5-0.6,17.4-3.3,25.6
		c-0.9,2.8-2.2,5.4-3.2,8.1c-2.7,7.1-3.5,14.9-2.5,22.4c-1.1,0.6-2.5-0.1-3.1-1.2c-0.6-1.1-0.6-2.4-0.5-3.6
		c0.5-7.1,1.6-14.2,3.6-21.1c0.5-1.7,1-3.4,1.6-5.1c0.5-1.3,1.3-2.4,1.8-3.7c1.1-3.3,1.9-6.8,2.2-10.2c0.2-1.9,0.2-3.8,0.4-5.7
		c0.3-4,1.2-7.8,2.1-11.7c0.4-1.7,0.8-3.5,1.7-5c1.3-2.1,3.4-3.5,5.6-4.6c7.1-3.8,15-6.1,21.8-10.4c1.5-1,3-2.1,4-3.6
		c0.9-1.4,1.3-3,1.8-4.7c0.4-1.6,0.8-3.3,1.1-4.9c0.1-0.5,0.2-1.1,0.2-1.6c0-0.1,0-0.2,0-0.4c0-0.4-0.2-0.8-0.4-1.2
		c-0.8-1.1-2.3-1.2-3.7-1.1c-1.9,0.1-3.7,0.1-5.6,0.2c-0.1,0,0.7-3,1-3.3c0.7-0.9,1.7-0.6,2.8-0.5c2.9,0.3,5.7,0.8,8.5,1.7
		c0.8,0.2,1.6,0.5,2.1,1.2C570.8,685.7,570.7,686.8,570.5,687.8z"/>
	<path class="st1" d="M682.2,706.7c0,1.8-0.3,3.7-0.8,5.4c-1.4,5-3.9,9.6-7.4,13.4c-2,2.2-4.3,4.2-6.2,6.5c-1.7,2-3,4.2-4.4,6.5
		c-3.9,6.4-7.8,12.9-9.9,20.1c-1,3.3-1.5,6.7-2.4,10.1c-0.2,0.9-0.5,1.8-1.2,2.4c-0.5,0.5-1.1,0.7-1.8,1
		c-12.4,4.7-25.4,7.6-38.5,8.9c0.9-6.1,2.4-12,4.5-17.8c1.2-3.3,2.6-6.5,3.9-9.7c3.2-7.6,5.1-16.2,8.8-23.5
		c3.4-6.7,6.5-13.3,9.5-20.2c1-2.4,2.1-4.9,2.5-7.6c0.1-0.8,0.2-1.7,0.8-2.3c0.4-0.4,1-0.6,1.6-0.8c9-2.4,18.4-3.4,27.7-3
		c4,0.2,8.3,0.8,11,3.8C681.5,701.6,682.2,704.1,682.2,706.7z"/>
	<path class="st1" d="M706.3,776.6c-0.8,5.7,0.4,11.5-0.5,17.2c-1.3,8.2-6.8,15.3-13.7,20c-6.8,4.7-14.9,7.3-22.9,9.3
		c-18.5,4.7-37.8,6.6-56.8,5.7c-10.1-0.5-20.2-1.8-30.4-1.3c-10.1,0.4-20.5,2.7-28.7,8.6c-3.9,2.8-7.3,6.4-11.2,9.2
		c-8.3,5.8-19.3,7.6-29,4.9c-3.1-0.9-6.2-2.3-8.5-4.5c-1.7-1.7-3-3.7-4.2-5.7c-3.2-5.3-6.5-10.7-7.5-16.8c-0.9-5.3-0.1-10.7,1-16
		c0.5-2.8,1.3-5.8,3.5-7.6c2.2-1.8,6.2-1.7,7.2,1c0.7,1.8-0.2,3.8-0.5,5.7c-0.6,5,3.9,9.7,8.9,10.6c5,0.9,10.1-1.2,14.3-4
		c4.2-2.9,7.8-6.5,11.9-9.5c9-6.5,20-9.4,30.9-11.4c16.4-3.1,33.1-4.7,49.5-8.2c16.3-3.6,32.6-9.3,45.6-19.8
		c-2.2,5.1-7.2,8.3-12.2,10.8c-8.6,4.3-18,7.5-27.4,9.4c-2.1,0.4-4.3,0.8-6.4,1.3c-2.3,0.5-4.6,0.9-6.9,1.2c-2,0.3-4,0.4-6.1,0.7
		c-5,0.7-9.8,2-14.7,3.2c-7.8,1.8-15.6,3.1-23.5,4.4c-7,1.1-14.3,2.7-20.5,6.3c-9.1,5.4-15.5,15.5-25.7,17.9
		c-6.6,1.6-13.9-0.7-18.5-5.6c-1.3-1.4-2.6-3-4.5-2.9c-3,0.2-3.4,4.4-2.8,7.3c1.3,6.6,3.1,13.1,5.4,19.4c0.8,2.3,1.7,4.6,3.3,6.4
		c2.9,3.3,7.7,4.3,12,4.5c10.5,0.5,21.2-2.7,29.7-8.9c4.5-3.3,8.4-7.4,13.2-10.1c7.1-4,15.5-4.9,23.6-5.3c28.4-1.3,57.4,2.1,85-4.9
		c6.7-1.7,13.4-4,19.1-8c5.7-4,10.4-9.7,12.2-16.4c2.5-9.7-1.4-20.7,2.9-29.7c2.3,0.1,4,2.5,4.4,4.8
		C707.2,772,706.6,774.3,706.3,776.6z"/>
	<path class="st1" d="M532.1,790.2c0,0.3,0,0.5-0.1,0.8c-0.1,0.2-0.3,0.2-0.5,0.3c-5,2.5-10.9,1.5-16.3,0.2
		c-1.4-0.3-2.9-0.7-4.3-1.1c-2.3-0.6-1-2.4-0.3-3.8c0.2-0.3,0.3-0.7,0.7-0.8c0.4-0.1,0.7,0.2,1,0.4c3.8,3.1,10.3,5.2,14.9,2.9
		c1.3-0.6,2.6-1.5,4.1-1.5C531.8,788.3,532,789.2,532.1,790.2z"/>
	<path class="st1" d="M529.8,804.5c0.2,0.6,0.6,1.3,0.4,2c-0.1,0.3-0.3,0.6-0.5,0.9c-2.3,2.7-5.3,5-8.8,5.7s-7-0.3-10.4-1.2
		c-1.3-0.4-2.8-1-3.1-2.3c-0.1-0.4,0-0.8,0-1.2c0.3-2.9,0.6-5.7,0.9-8.6c0.1-1.2,0-5.7,0.9-6c0.6-0.2,3,1,3.8,1.2
		c1.3,0.3,2.6,0.6,3.9,0.9c2.6,0.5,5.3,0.7,7.9,0.7c1.1,0,2.2,0,3.2-0.5c1-0.4,2-1.2,3.1-0.9c0.2,2.7-1.6,5.3-1.6,7.9
		C529.5,803.5,529.6,804,529.8,804.5z"/>
	<path class="st1" d="M519.2,854.7c-0.5,0-1.1,0.1-1.6,0.1c-3.8,0-7.6-1.1-10.8-3.1c-1.9-1.2-4.5-3.3-5.1,0.2
		c-0.5,3-0.2,6.1-0.7,9.1c-0.3,1.4-0.6,2.8-0.8,4.3c0,0.3,0,0.6,0.1,0.8c0.2,0.4,0.6,0.6,1,0.8c5.4,2.3,11.5,2.1,17.3,1.9
		c1,0,2.1-0.1,2.8-0.9c0.6-0.6,0.7-1.5,0.8-2.3c0.5-3.7,0.9-7.3,1.4-11C522.2,854.3,520.7,854.6,519.2,854.7z M515.7,862.6
		c-0.2,0.2-0.5,0.3-0.8,0.4c-1.8,0.5-3.7,0.5-5.6,0.5c-0.4,0-0.8,0-1.2,0c-0.4,0-0.8-0.1-1.2-0.2c-0.8-0.2-1.5-0.7-2-1.3
		c-0.1-0.1-0.1-0.2-0.2-0.3s-0.1-0.2-0.1-0.4c0-0.1-0.1-0.3-0.1-0.4c0-0.1,0-0.3-0.1-0.4c-0.1-0.8,0-1.6,0.3-2.1
		c0.1-0.1,0.1-0.2,0.2-0.3s0.2-0.2,0.3-0.3l0.1-0.1c0.1,0,0.1-0.1,0.2-0.1c0,0,0.1,0,0.1-0.1c0-0.1,0.1,0,0.1,0c0.1,0,0.1,0,0.1,0
		c0.1,0,0.1,0,0.2,0s0.3,0,0.4,0c0.2,0,0.4,0,0.6,0c0.1,0,0.1,0,0.2,0c0.9,0,1.8,0,2.7,0.1l0,0c0.2,0,0.4,0,0.6,0.1
		c0.1,0,0.3,0,0.4,0.1c0.2,0,0.3,0.1,0.5,0.1c0.1,0,0.2,0.1,0.4,0.1c0.5,0.2,1,0.4,1.4,0.6l0,0c0.3,0.2,0.6,0.4,0.9,0.7
		c0.2,0.1,0.3,0.2,0.4,0.4c0.3,0.2,0.5,0.5,0.8,0.8l0,0c0.1,0.1,0.2,0.3,0.3,0.5l0,0c0.1,0.2,0.1,0.3,0.2,0.5c0,0.2,0.1,0.3,0.1,0.5
		C516.1,861.9,516,862.3,515.7,862.6z"/>
	<path class="st1" d="M655.6,1013.4c-0.9,0.2-1.8,0.4-2.8,0.4c-1.2,0-2.3-0.3-3-1.2c-1.1-1.5-0.5-3.7,0.6-5.2s2.5-2.9,2.8-4.8
		c0.6-3.2-2.2-6-4.7-8.2c-4.2-3.9-7.7-8.6-10.3-13.6c-2.2-4.2-3.8-8.6-5.5-12.9c-4.1-10-9.4-19.5-14.7-28.9
		c-0.8-1.3-1.7-2.8-3.2-3.2c-1.7-0.4-3.3,0.8-4.7,1.9c-3.6,2.9-7.6,5.3-11.8,7.2c-1.8,0.8-3.7,1.6-4.9,3.1s-1.5,3.5-1.7,5.4
		c-0.6,5.9-0.3,11.9-1.9,17.6c-1,3.4-2.7,6.6-4.5,9.7c-3.2,5.4-7.7,10-14.6,9.2c-2.1-0.2-4.3-1.1-5.4-2.9c-0.9-1.4-1-3-1-4.6
		c-0.6-13.1,0.5-26.2,0.5-39.2c0-13.1-1.2-26.4-5.9-38.6c-1.5-4-4.1-8.3-8.3-8.9c-4.7-0.7-8.6,3.7-10.6,8s-3.4,9.3-7.2,12.2
		c-4.9,3.7-12.9,1.8-15.7-3.7c-1.6-3.2-1.5-6.9-2.6-10.3c-1.1-3.4-4.5-6.6-7.8-5.4c-2.3,0.8-3.6,3.5-5.9,4.2
		c-2.5,0.8-5.2-0.9-6.9-2.9c-1.5-1.7-3.2-4-5.4-3.5c-1.1,0.2-2,1.2-2.6,2.2c-3.3,4.9-3.4,11.4-2.5,17.2c0.9,5.9,2.6,11.7,2.7,17.6
		c0.1,7.5-2.6,15-7.5,20.8c-1.2,1.4-2.6,2.7-4.4,3c-1.3,0.2-2.6-0.2-3.8-0.6c-2.6-0.8-5.2-1.7-7.2-3.4c-2.8-2.5-3.2-5.8-4.1-9.2
		c-1-3.7-1.4-7.6-1.9-11.4c-1-8.7-1.5-17.4-0.3-26.1c0.6-4.3,1.5-8.6,2-13c1.1-10.4-1.4-20.8-0.7-31.1c0.8-10.8,1.4-21.5,2.1-32.3
		c0.1-1.2,0.2-2.4,0.2-3.5c0.6-9.7,1.1-20.2-4.2-28.3c-2.2-3.4-6.1-6.4-10.1-5.5c-2.4,0.6-4.3,2.6-5.3,4.9s-1.4,4.8-1.7,7.3
		c-0.7,5.2-1.3,10.4-2,15.6c-0.3,2.6-0.7,5.2-0.7,7.8c0,4.2,0.9,8.4,0.3,12.6c-0.4,3-1.6,5.9-2.2,8.9c-2.6,11.6,2.3,23.8-0.1,35.4
		c-0.8,4-2.4,7.7-4.1,11.3c-1.5,3.1-3.2,6.4-6.3,8c-4.6,2.4-10.6,0-13.5-4.3s-3.1-9.9-2.2-15s2.8-9.9,4-15c0.8-3.3,1.2-6.8,1.5-10.2
		c0.3-3.4,1-6.7,1.1-10c0.3-7.1-1.3-14.1-0.6-21.1c0.3-2.9,0.9-5.7,1.1-8.6c0.3-4.4-0.4-8.8,0.5-13.1c0.4-1.8,1-3.6,1.4-5.4
		c0.8-3.8,0.7-7.6,0.5-11.5c-0.2-4.8-0.5-9.5-0.9-14.3c-0.2-2-0.3-4.1-1.3-5.9c-1.2-2.1-3.4-3.5-5.5-4.7c-0.7-0.4-1.5-0.9-2.3-0.8
		c-1.9,0.1-2.6,2.6-2.8,4.5c-0.4,6-0.4,12.1,0.1,18.2c0.2,3.7,0.6,7.4,0,11.1s-2.4,7.3-5.5,9.3c-2.8,1.7-7.7,3.6-10.1,0.5
		c-1.1-1.4-1.5-3.2-1.8-5c-0.9-7.1,0.8-14.3,2.2-21.3c1.4-7,2.5-14.4,0.5-21.3c-2-6.9-8-13.1-15.2-13.2c-4.3,0-8.3,2.1-12.4,3.3
		c-2.5,0.7-5,1.1-7.4,2.1c-1.9,0.8-3.6,2-5.2,3.2c-7,5.6-11.6,13.8-14.3,22.3c-2.7,8.6-3.5,17.6-3.7,26.5c-0.1,3-0.1,5.9,0.3,8.9
		c0.4,2.9,1.4,5.7,2.2,8.5c0.8,2.9,1.2,6,1.8,9c1.5,7.7,3.1,15.5,2.8,23.4c-0.3,8.4-2.6,16.6-5.6,24.4c-2.3,6.1-5.1,12-7.9,17.9
		c-2.6,5.5-4.6,11.4-7.9,16.6c-1.1,1.8-2.4,3.6-3.5,5.5c-4.5,7.4-6.8,16-8.1,24.4c-3.2,20.1-8.6,40.7-5.6,61.3
		c0.7,4.8,1.8,9.5,2.5,14.4c0.6,4.5,0.7,9.1,1.4,13.5c1.7,9.8,6.6,18.8,11.4,27.5c0.5,0.9,1,1.8,1.8,2.5c2.8,2.6,7.2,1.4,10.8,0.5
		c7.1-1.8,18.2-2.4,22.2,5.2c0.2,0.4,0.5,0.9,0.9,1.2c0.4,0.2,0.8,0.2,1.2,0.2c1.6,0,3.1,0.1,4.7,0.1c1.4,0,2.9,0,4.3-0.2
		c2.4-0.4,4.7-1.4,6.9-2.4c2.9-1.3,5.8-2.7,8.7-4c2.3-1.1,4.7-2.1,7.1-2.7c2.2-0.5,4.6-0.7,6.9-0.8c6.5-0.4,13-0.8,19.5-1.1
		c1.6-0.1,3.2-0.2,4.6-0.9c1.3-0.6,2.3-1.7,3.3-2.8c3.8-4,10.2-4.8,14.2-0.4c0.7,0.7,1.2,1.6,2.1,2c1.8,1,3.9,0,5.9-0.1
		c0.6,0,1.2,0,1.7,0.4c0.5,0.3,0.8,1,0.5,1.5c0.8,0.3,1.6-0.3,2.4-0.8c2.6-1.5,6.3-0.8,8.2,1.6c-0.2-0.2-0.4-0.3-0.6-0.5
		c0.8,1.5,2.8,0.9,4.5,0.7c4-0.5,8-1.1,12.1-1.6c1.2-0.2,2.4-0.3,3.4-0.8c3.1-1.4,4.5-4.9,7-7.2c4.1-3.8,10.3-3.9,15.8-3.7
		c1.2,0,2.4,0.1,3.5,0.4c1.3,0.4,2.4,1.3,3.6,2c4.7,3,10.3,4.3,15.9,4.6c5.5,0.3,11.1-0.2,16.7-0.8c0.7-0.1,1.3-0.2,1.9-0.5
		c1.3-0.8,1.7-2.5,2.7-3.7c1.6-1.9,4.3-2.1,6.7-2.3c4.8-0.5,10.2-1.6,14.5-3.9c1.6-0.9,2.6-1.8,4.4-2.2c2.8-0.5,5.5-1,8.3-1.4
		c3.2-0.5,6.4-1.1,9.5-0.2c3.3,1,6.2,3.5,9.6,3.3c2.2-0.2,4.2-1.5,6.4-1.3c1.4,0.1,2.6,0.8,3.9,1.2c2.8,0.9,5.8,0.4,8.7-0.1
		c11.5-2,22.9-4,34.4-5.9c-0.2-1.4-0.6-2.9-1.3-4.1c0.6,0.5,1.3-0.5,1.5-1.3c0.5-2.1,1-4.3,1.5-6.4c1.1-0.1,2.2-0.2,3.3-0.3
		C651.5,1017.9,653,1014.7,655.6,1013.4z M430,1012C430,1012,429.9,1012,430,1012c-0.1-0.1-0.3-0.2-0.4-0.2l0,0
		c-0.1-0.1-0.2-0.2-0.3-0.3l-0.1-0.1c-0.2-0.1-0.3-0.3-0.5-0.4c-0.2-0.2-0.4-0.4-0.5-0.5c-0.2-0.3-0.5-0.6-0.7-0.9
		c-0.2-0.3-0.4-0.7-0.7-1c-0.2-0.3-0.4-0.7-0.6-1l0,0c-0.6-1-1.2-2.1-1.7-3.2c-0.1-0.3-0.3-0.6-0.4-0.9c-0.2-0.5-0.4-1-0.5-1.5
		c0-0.1-0.1-0.2-0.1-0.4c-0.1-0.3-0.2-0.6-0.2-0.9c-0.1-0.4-0.2-0.7-0.2-1.1l0,0c-1.3-7.4,2.8-14.6,4.7-21.8
		c0.1-0.3,0.2-0.6,0.2-0.9l0,0c0.1-0.6,0.3-1.2,0.4-1.8l0,0c0.1-0.6,0.2-1.2,0.4-1.8c0-0.3,0.1-0.6,0.2-0.9c0.1-0.6,0.2-1.2,0.3-1.9
		c0-0.3,0.1-0.6,0.2-0.9l0,0c0.3-1.9,0.6-3.7,1.1-5.5c0.1-0.3,0.1-0.6,0.2-1c0.6-2.3,1.4-4.6,1.9-6.9c0.1-0.3,0.1-0.6,0.2-0.9
		c0-0.3,0.1-0.6,0.1-1c0-0.2,0.1-0.5,0.1-0.8c0-0.2,0-0.5,0.1-0.8c0-0.2,0-0.4,0-0.6c0-0.4,0.1-0.8,0.1-1.3c0-0.2,0-0.4,0-0.6
		c0-1.3,0-2.6,0-4c0-2.4,0.2-5,0-7.4c0-0.3-0.1-0.7-0.1-1c-0.1-0.4-0.1-0.8-0.2-1.1s-0.1-0.7-0.2-1c0-0.1,0-0.1,0-0.2
		c-0.1-0.5-0.2-1.1-0.3-1.6c0-0.3-0.1-0.5-0.2-0.8c0-0.2-0.1-0.5-0.1-0.7v-0.1c0-0.2-0.1-0.5-0.1-0.7c0-0.4-0.1-0.7-0.1-1.1
		c0-0.4,0-0.8,0-1.2c0-0.1,0-0.1,0-0.2V929c0-0.1,0-0.1,0-0.2c0-0.1,0-0.2,0.1-0.2c0-0.2,0.1-0.3,0.2-0.5c0-0.1,0.1-0.2,0.1-0.2
		c0.1-0.1,0.2-0.3,0.3-0.4c0.1-0.1,0.2-0.2,0.3-0.3c0.1-0.1,0.2-0.2,0.4-0.3c0.1-0.1,0.3-0.2,0.4-0.2l0,0c0.1-0.1,0.3-0.1,0.4-0.2
		c0.1,0,0.3-0.1,0.4-0.1c0,0,0,0,0.1,0l0,0h0.1c0.3-0.1,0.6-0.1,0.9-0.1c0.6-0.1,1.2,0,1.8,0.1c0.1,0,0.2,0.1,0.4,0.1
		c0.2,0.1,0.4,0.2,0.6,0.3c0,0,0,0,0.1,0c0,0,0,0,0.1,0c0.1,0.1,0.2,0.1,0.2,0.2c0.1,0.1,0.2,0.2,0.2,0.3s0.1,0.1,0.1,0.2
		c0,0,0.1,0.1,0.1,0.2l0,0c0,0.1,0.1,0.2,0.2,0.3c0,0.1,0.1,0.2,0.1,0.3s0.1,0.2,0.1,0.3s0.1,0.2,0.1,0.3c0.1,0.3,0.1,0.6,0.2,0.9
		c0.1,0.4,0.1,0.8,0.1,1.3c0,0.1,0,0.3,0,0.4c0,0.4,0,0.7,0,1.1c-0.1,4.9,0.5,9.7,1,14.5c0.4,3.2,0.7,6.4,1.1,9.6l0,0
		c0.2,2.2,0.5,4.3,0.8,6.5c0.1,1.1,0.3,2.2,0.4,3.2c0.3,2.2,0.6,4.3,0.9,6.5c0.3,2.1,0.7,4.3,1,6.4l0,0c0.2,1.1,0.4,2.1,0.6,3.2l0,0
		c0,0.2,0.1,0.5,0.1,0.7l0.1,0.8c0.1,0.3,0.1,0.5,0.2,0.8c0,0.2,0.1,0.5,0.1,0.7s0.1,0.4,0.1,0.6v0.1c0,0.1,0.1,0.3,0.1,0.4
		c0.1,0.4,0.1,0.8,0.2,1.1l0,0c0.1,0.4,0.1,0.8,0.2,1.1c0,0.4,0.1,0.8,0.2,1.1c0,0.3,0.1,0.5,0.1,0.8c0,0.1,0,0.2,0,0.3
		c0.1,0.8,0.1,1.5,0.2,2.3c0.1,3.1-0.2,6.2-1.6,9c-0.9,1.8-2.1,3.5-3.4,5c-1.5,1.8-3.2,3.5-5.3,4.5c-2.1,1.1-4.7,1.3-6.8,0.2
		C430.1,1012.1,430,1012.1,430,1012L430,1012z M495.1,1024.8L495.1,1024.8l-0.3,2.4c-0.1,0.5-0.2,1.1-0.3,1.6l-0.7,2.3l0,0
		c-0.1,0.3-0.2,0.6-0.4,0.9c0,0,0,0.1-0.1,0.1c-0.1,0.3-0.3,0.5-0.4,0.8c-0.2,0.3-0.3,0.6-0.5,0.9c-0.2,0.3-0.4,0.6-0.5,0.8
		c-0.2,0.3-0.5,0.7-0.8,1c-0.2,0.3-0.5,0.6-0.8,0.8c-0.9,0.9-2,1.7-3.2,2.4c-1.4,0.9-3.1,1.7-4.8,1.3c-0.1,0-0.2,0-0.3-0.1
		c-0.3-0.1-0.6-0.2-0.8-0.4l0,0c-0.1-0.1-0.3-0.2-0.4-0.3s-0.2-0.2-0.3-0.3c-0.1-0.1-0.2-0.2-0.3-0.4c-0.1-0.1-0.2-0.3-0.3-0.4
		c-0.2-0.4-0.4-0.8-0.6-1.2c-0.1-0.2-0.2-0.4-0.2-0.6c0-0.1-0.1-0.3-0.1-0.4v-0.1c0-0.2-0.1-0.3-0.1-0.5c-0.1-1.3,0-2.7,0.2-4.1
		c0.7-5.6,1.4-11.3,2.1-16.9c0.5-3.8,0.9-7.6,1.1-11.4c0-0.7,0.1-1.4,0.1-2.1l0,0c0-0.7,0-1.4,0.1-2.2c0-0.5,0-1,0-1.4v-0.1
		c0-1.4,0.1-2.7,0.2-4.1V993c0.1-1.3,0.2-2.7,0.4-4c0-0.1,0-0.2,0-0.3c0.3-2.4,0.2-5.3,2.3-7c0.1-0.1,0.3-0.2,0.4-0.3
		s0.2-0.1,0.3-0.2c0.1,0,0.1,0,0.2-0.1c0.1,0,0.2-0.1,0.3-0.1c0.1,0,0.2,0,0.3,0c0.1,0,0.1,0,0.2,0l0,0c0.1,0,0.1,0,0.2,0.1
		c0.1,0,0.1,0.1,0.2,0.1s0.1,0.1,0.2,0.1s0.1,0.1,0.2,0.1c0,0,0.1,0.1,0.2,0.1s0.1,0.1,0.1,0.2c0.1,0.1,0.2,0.2,0.2,0.3
		c0.1,0.1,0.1,0.2,0.1,0.2c0.1,0.1,0.2,0.2,0.2,0.4c0.1,0.2,0.2,0.4,0.3,0.6c2.2,5.5,3.9,11.2,4.5,17c0.4,3.8,0.4,7.7,0.7,11.5
		C494.7,1016.3,495.4,1020.5,495.1,1024.8z"/>
	<path class="st1" d="M682.8,1046c0,0.1,0,0.2,0,0.4c0,0.2-0.1,0.4-0.2,0.5c-0.5,0.6-1.4,0.2-2.1-0.1c-0.8-0.4-1.8-0.8-2.7-0.8
		s-1.9,0.5-2.3,1.4c-0.3,0.9,0.1,2,0.7,2.7c0.6,0.8,1.4,1.4,1.9,2.2c1.8,2.6,0.7,6.3-1.3,8.8c-0.9,1.1-2,2.1-3.3,2.6
		c-1.4,0.5-2.9,0.2-4.4,0.2c-2.8-0.1-5.5,0.5-8.2,0.2c-1.5-0.2-3-0.7-4.6-1c-7.7-1.8-15.8-0.7-23.7,0.5c-2,0.3-4.2,0.4-6.2,0.8
		c-2.2,0.4-4.3,1.6-6.4,2.4c-4.5,1.7-9.2,3-14.1,3.1c-0.2-1,0.4-2,1.3-2.5c0.8-0.5,1.9-0.6,2.8-0.8c2.7-0.4,5.3-0.9,7.9-1.6
		c2.5-0.7,4.9-1.5,7.4-2.1c2.6-0.6,5.2-0.9,7.8-1.3c3.7-0.5,7.3-0.9,11-1.4c1.5-0.2,3.1-0.4,4.6-0.4c1.6,0,3.3,0.2,4.9,0.3
		c3.2,0.2,6.5,0,9.7-0.2c2.3-0.1,4.7-0.3,7-0.9c2.2-0.6,4.4-1.8,5.8-3.7c0.4-0.5,0.7-1.2,0.5-1.8c-0.3-0.7-1.2-1-1.9-0.8
		c-0.7,0.2-1.4,0.6-2,1.1c-2.8,1.8-6.3,2.4-9.7,2.5c-3.4,0-6.8-0.5-10.2-0.5c-1.6,0-3.2,0-4.9-0.2c-1.8-0.2-3.5-0.7-5.3-0.9
		c-3.5-0.4-7,0.1-10.4,0.6c-3.1,0.5-6.3,0.9-9.4,1.4c-3,0.5-4.5,2-7.1,3.3c-1.5,0.8-3.2,0.9-4.8,1.2c-1.9,0.5-3.6,1.3-5.2,2.4
		c-0.7,0.5-1.4,1.1-2.3,1.2c-0.9,0-1.8-0.9-1.4-1.7c-0.9-0.5-1.8,1.2-2.7,0.9c-0.5-0.2-0.7-0.8-1.2-1.1c-0.6-0.3-1.3,0.2-1.9,0.6
		c-3.8,3.1-8.2,5.5-12.8,7.1c5.5-4.9,11.1-9.9,17.5-13.5c10.2-5.6,22-7.5,33.6-9.2c2-0.3,4-0.6,6-0.9c2.1-0.3,4.3-0.7,6.4-0.5
		c0.9,0.1,1.9,0.3,2.8,0.3c2.5,0.1,4.9-0.8,7.2-1.8c0-0.8-0.6-1.4-1.3-1.7c-0.7-0.3-1.5-0.2-2.2-0.2c-5.2,0.2-10.4,0.8-15.6,1.6
		c-4.4,0.7-8.9,1.6-13.4,2c-8.2,0.7-17-0.3-24.2,3.8c-2,1.2-3.8,2.7-5.7,4c-0.7,0.4-1.5,0.9-2.2,0.7c-0.6-0.2-1-0.7-1.5-1.1
		c-1.1-0.9-2.7-1.3-4.2-0.9c0.2-1.1,1.1-2,2-2.8c0.4-0.4,0.8-0.6,1.3-0.8c0.3-0.1,1.1-0.8,1.1-0.8c1.2-0.9,2.4-1.8,3.7-2.5
		c1.8-1,3.8-1.6,5.9-2.1c9.1-2.4,18.6-3.6,28-4.8c7.1-0.9,14-2.5,21-4.2c1.9-0.5,3.9-0.9,5.8-0.5c0.8,0.2,1.7,0.6,2.5,0.5
		c0.4-0.1,0.8-0.2,1.2-0.3c0.4,0,0.9,0,1.3,0.1c1.8,0.4,3.6,0.8,5.4,1.2c0.4,0.1,0.8,0.2,1.1,0.4c0.4,0.4,0.6,1,0.8,1.5
		c0.9,1.8,3.1,2.4,5.1,2.8c1.6,0.3,3.1,0.6,4.7,0.9c1.3,0.2,2.6,0.5,3.7,1.2C682.1,1043.8,682.8,1044.8,682.8,1046z"/>
	<path class="st1" d="M741.9,1057.3L741.9,1057.3c-0.2,0-0.3-0.1-0.5-0.2c-1.5-0.9-2.7-2.6-4.5-2.7c-1-0.1-2,0.5-3,0.9
		c-3,1.4-6.3,2-9.6,2.5c-3,0.5-6,0.9-9,1.2c-6.6,0.6-13.2,0.2-19.9,0.2c-1,0-1.9,0-2.9,0.3c-1,0.3-1.9,0.9-2.9,1.2
		c-1.5,0.4-3.3,0-4.5-1.1c-1.2-1-2-2.6-2.2-4.2c-0.1-0.9,0.2-2.1,1.1-2.2c0.4,0,0.7,0.2,1.1,0.3c1.4,0.5,2.9,0.1,4.4-0.2
		c3.5-0.7,7.2-0.8,10.8-0.8c3.5,0,7.1,0.2,10.5-0.6c1.8-0.4,3.6-1.1,5.4-1.5c2.2-0.5,4.4-0.7,6.6-0.7c0.4,0,0.9,0,1.1-0.4
		c0.3-0.6-0.6-1.1-1.2-1.2c-8.2-1.2-16.5,1.1-24.8,0.8c-3.3-0.1-6.6-0.7-9.8,0.2c-0.5,0.2-2.6,1.2-3,0.7c-0.7-0.8,0.9-1.3,1.3-1.5
		c2.1-0.9,4.2-2.1,6.5-2.3c1.7-0.2,3.5,0.1,5.2-0.1c1.2-0.2,2.4-0.7,3.6-1c1.4-0.4,2.9-0.4,4.4-0.5c5.6-0.3,11.2-0.6,16.7,0.6
		c2.9,0.6,5.8,1.7,8.8,1.5c1,0,2.1-0.1,2.6,0.7c0.2,0.3,0.2,0.6,0.3,1c0.6,1.5,2.6,1.8,4.1,2.4c2.1,0.8,3.7,2.8,4,5
		C742.7,1056.5,742.5,1057.3,741.9,1057.3z"/>
	<path class="st1" d="M690.4,1034.3c0,0.1,0,0.2-0.1,0.3c-1.1,0-2.2,0.9-2.2,2c0,0.5,0.1,1.2-0.4,1.5c-0.3,0.3-0.8,0.1-1.2-0.1
		c-0.3-0.3-0.5-0.7-0.8-1c-0.5-0.8-1.2-1.4-2.1-1.8c-0.8-0.3-1.6-0.5-2.4-0.7c-0.9-0.3-1.7-0.8-2.5-1.3c-1.5-0.9-3.1-1.8-4.6-2.7
		c-1.6-0.9-3.1-1.8-4.7-2.8c-2.1-1.4-4.2-2.9-6.6-3.9c-2.2-1-4.8-0.8-6.8-2.1c-1.2-0.7-2-2.2-1.5-3.5c0.4-1.1,1.5-1.8,2.7-2
		c1.1-0.2,2.3-0.2,3.5-0.4c0.9-0.1,2-0.3,2.5,0.4c0.4,0.6,0.1,1.5-0.1,2.2c-0.3,0.7-0.5,1.6,0.1,2.1c0.5,0.4,1.2,0.2,1.8-0.1
		s1.1-0.7,1.8-0.7c0.2,0.9-0.4,2,0.2,2.8c0.5,0.7,1.5,0.7,2.3,0.6c1-0.1,2.1-0.3,3.1-0.5c-0.3,0.6-0.4,1.3,0,1.9
		c0.3,0.6,1.1,0.9,1.7,0.7c0.4-0.2,0.7-0.5,1.1-0.7c0.4-0.2,0.9-0.4,1.2-0.1c0.3,0.2,0.3,0.6,0.4,1c0.1,0.4,0.4,0.7,0.8,0.6
		c0.2-0.1,0.3-0.4,0.5-0.5c0.4-0.4,1.2,0.1,1.2,0.7c0,0.6-0.3,1.1-0.5,1.7c-0.3,0.6-0.4,1.2-0.3,1.8c0.1,0.6,0.6,1.2,1.2,1.2
		c0.8,0.1,1.5-0.6,1.9-1.2c0.9,0.4,0.4,1.9,1.1,2.7c0.2,0.2,0.5,0.4,0.8,0.5c1.5,0.5,3.1,0.7,4.6,0.5c0.6-0.1,1.1-0.2,1.7-0.1
		C690.1,1033.5,690.4,1033.9,690.4,1034.3z"/>
	<path class="st1" d="M668.2,1034.6L668.2,1034.6L668.2,1034.6z"/>
	<path class="st1" d="M668.2,1034.6c-0.1,0-0.3,0-0.4,0c-1.5-0.1-3-0.2-4.3-0.8c-0.8-0.3-1.6-0.8-2.4-1c-1.9-0.5-3.9,0.2-5.7-0.4
		c-0.5-0.2-1.1-0.5-1.7-0.5c-0.5-0.1-1,0-1.5,0.1c-1.1,0-2.2-0.4-2.9-1.2c-0.2-0.2-0.3-0.4-0.1-0.5c0.1,0,0.2,0,0.2,0
		c1.3,0.1,3.8,0.8,3.6-1.2c-0.1-0.5-0.4-0.9-0.2-1.4c0.3-0.7,1.2-0.8,1.9-0.7s1.4,0.4,1.9,0.8s0.9,0.9,1.4,1.3
		c0.5,0.4,1,0.8,1.5,1.1c2.4,1.6,5.2,2.7,8,3.4c0.3,0.1,0.7,0.2,0.9,0.4C668.5,1034,668.5,1034.4,668.2,1034.6z"/>
	<path class="st1" d="M848.8,834c0,8.4-3.2,16.9-7.5,24.3c-0.5,1-1.9,2-2.5,1.1c-0.2-0.3-0.2-0.6-0.2-0.9c-0.1-2.5-0.3-5-0.4-7.4
		c0-1-0.1-2,0.3-2.9c0.3-0.7,0.8-1.3,1.2-1.9c1.6-2.8,0.4-6.4-1.2-9.2c-2.5-4.4-5.7-8.4-9.5-11.7c-1.9-1.7-4-3.2-6.2-4.5
		c-2-1.2-4.2-1.9-6.1-3.2c-2.1-1.5-3.4-3.9-5.7-5c-1-0.5-2.1-0.7-3-1.4s-1.3-2.2-0.4-2.8c11.6,5.4,22.1,13,30.9,22.3
		c2.4,2.5,4.8,5.5,4.9,8.9c0.1,2.8-1.4,5.4-1.6,8.2c0,0.7,0,1.4,0.4,1.9s1.3,0.7,1.8,0.2c0.1-0.2,0.2-0.4,0.2-0.6
		c1.7-5.1,3.3-10.6,2-15.8c-0.7-2.7-2.2-5.1-3.4-7.6c-1.3-2.8-2.3-5.7-3.5-8.5c-1.1-2.3-2.3-4.6-3.6-6.8c-4-7.1-8.1-14.2-12.1-21.2
		c-1.4-2.4-2.8-4.8-4.5-6.9c-3.8-4.4-9-7.1-14.2-9.8c-2.2-1.2-4.3-2.4-6.1-4.1c-1.7-1.8-2.9-4.2-2.7-6.6c2.5-0.3,4.6,1.9,6.4,3.6
		c6,5.5,14.9,7.5,20.1,13.8c1.5,1.8,2.7,3.9,3.8,6c5.6,10.3,11.2,20.6,16.9,30.8c1.5,2.8,3,5.6,4.1,8.6
		C848.3,827.7,848.8,830.8,848.8,834z"/>
	<path class="st1" d="M808.4,854.9c0,4.5-0.1,8.9-0.4,13.4c-0.1,2.5-0.1,4.9-0.4,7.4c-0.3,2.6-0.7,5.2-1,7.8
		c-0.1,0.9-0.3,1.9-0.5,2.8c-0.2,1.1-0.5,2.1-0.8,3.2c-0.3,1.3-0.5,2.6-0.7,4c-0.6,4-1,8-1.6,11.9c-0.7,4.1-1.4,8.2-2.1,12.4
		c-0.2,1-0.4,2-0.6,3c-0.2,1-0.6,2-0.8,2.9c-0.5,1.7-0.7,3.3-1.1,5c-1,5-2.4,9.9-3.9,14.7c-1.1,3.8-2.1,7.6-3.5,11.3
		c-0.5,1.3-1,2.5-1.4,3.8c-1,2.5-1.9,5-2.9,7.6c-1.9,5-3.7,10.1-5.7,15c-0.7,1.8-1.4,3.7-2.5,5.2c-0.5,0.7-1.1,1.4-1.2,2.2
		c-0.3,1.7,1.2,3.1,2.4,4.3c3.4,3.5,4.9,8.5,8,12.5c1.3,1.7,2.9,3.2,3.6,5.1c-3.4-2.7-6.5-5.8-9.1-9.3c-1.2-1.6-2.4-3.4-3.9-4.8
		c-1.4-1.3-3.1-2.5-3.5-4.4c-0.2-0.8-0.1-1.7,0.1-2.6c0.4-2.4,0.9-4.7,1.8-7c0.6-1.5,1.4-3,2-4.6c1.6-3.9,2.1-8.2,3.2-12.3
		c0.6-2.3,1.5-4.7,2.3-6.9c1-2.7,2.3-5.5,3-8.3s1.3-5.6,2-8.3c0.6-2.5,1.2-5,2.1-7.4c0.8-2.5,1.9-4.9,2.3-7.5
		c0.2-1.4,0.3-2.7,0.5-4.1c0.2-1.5,0.6-3.1,1.1-4.6c1.6-5.7,3.1-11.5,4.7-17.2c0.5-1.7,0.9-3.4,1.1-5.1c0.2-1.8,0.2-3.6,0.3-5.4
		c0.1-4.9,0.7-9.8,1.5-14.7c0.3-1.6,0.4-3.1,0.7-4.6c0.2-1.1,0.4-2.2,0.6-3.3c0.8-5.5,0.4-11-0.1-16.4c-0.9-10.4-1.1-20.8-3-31
		c-0.4-2.1-0.8-4.2-1-6.3c-0.1-1.5-0.1-2.9-0.3-4.4c-0.2-1.8-0.5-3.7-0.9-5.5c-0.8-4-1.5-7.9-2.2-11.9c-0.8-5.2-1.8-10.3-3-15.4
		c-1.2-5-3-9.8-3.9-14.8c-0.5-2.4-0.7-4.8-1.6-7.1c-0.3-0.8-0.8-1.7-1.1-2.5c-0.4-1.1-0.6-2.3-0.9-3.4c-0.3-1.1-0.7-2.1-1.1-3.1
		c-0.4-1-0.8-1.9-1.2-2.9c-1.5-3.8-3.5-7.5-4.9-11.3s-3-7.6-5.1-11c-0.8-1.3-1.7-2.6-2.4-4c-0.7-1.3-1.1-2.7-1.8-3.9
		c-0.9-1.8-2.2-3.4-3.2-5.2c-1.1-2-1.7-4.3-2.7-6.4c-0.6-1.3-1.3-2.6-2.3-3.7c-0.5-0.5-1.2-0.9-1.6-1.4c-0.4-0.4-0.6-1-0.9-1.5
		c-0.6-0.9-1.4-1.7-2.1-2.6c-0.1-0.1-0.2-0.2-0.2-0.3c-1.4-1.8-2.2-3.9-3.2-6c-1-2-2.2-4.1-4.1-5.3c-0.2-0.1-0.4-0.3-0.4-0.5
		s0.1-0.3,0.2-0.5c0.9-1.2,1-2.8,1.1-4.3c0.3-5.2,1.4-10.3,1.8-15.5c0.2-2.6,0.3-5.2,0.2-7.7c-0.1-1.1-0.4-2.2-0.2-3.3
		c0.1-0.9,0.1-1.8,0-2.8c-0.1-1.3-0.1-2.6-0.4-3.9c-0.2-1-0.4-2.4-1-3.2c-0.2-0.2-0.3-0.6-0.1-0.8c0.2-0.1,0.4-0.1,0.6-0.1
		c0.6,0.1,1.2,0.2,1.9,0.4c0.1,0,0.3,0.1,0.4,0.2c0.2,0.1,0.4,0.3,0.5,0.6c0.6,1,0.6,2.2,0.6,3.4c0,3.8,0,7.6,0,11.5
		c0,2.5,0,5,0,7.5c0,5.9-0.5,11.7-1,17.6c-0.1,0.8-0.1,1.5,0.1,2.3c0.2,0.8,0.8,1.6,1.3,2.2c2.4,2.8,5.2,5.2,7.4,8.2
		c0.1,0.2,0.3,0.3,0.4,0.5c1.9,2.7,3.1,5.7,4.7,8.5c1,1.8,2.2,3.5,3.1,5.4c2.7,5.3,3.5,11.5,6.7,16.7c0.5,0.8,1.2,1.5,1.5,2.5
		c0.3,1.1,0.6,2.2,1,3.3c0.8,2.2,1.7,4.3,2.8,6.4c2.1,4.1,4.4,8.1,6.1,12.5c0.9,2.3,1.6,4.7,2.2,7.1c1,3.4,1.9,6.8,2.9,10.2
		c0.8,2.8,1.6,5.7,2.1,8.6c0.7,3.8,1.6,7.5,2.7,11.1c1,3.3,2.2,6.6,2.9,10c0.3,1.5,0.5,3,0.8,4.5c0.5,3.6,1.1,7.3,1.6,10.9l2.3,16
		c0.2,1.1,0.5,1.9,0.7,3c0.3,1.3,0.5,2.6,0.6,4c0.4,2.6,0.7,5.2,0.8,7.8c0.2,2.2,0.2,4.3,0.3,6.5c0,1.6,0.1,3.2,0.1,4.8
		C808.4,853.1,808.4,854,808.4,854.9z"/>
	<path class="st1" d="M681.9,939.4c-1.3,20.6-12.2,39.2-23.5,56.6c-0.4,0.5-0.9,1.2-1.5,1.1c-0.4,0-0.7-0.3-1-0.6
		c-6.5-6-11.3-13.5-15.7-21.2c-9.5-16.8-17.2-34.5-22.9-52.9c-6-19.4-10.4-39.9-11.5-60.2c-0.5-9.1,0.7-18.2,0.3-27.3
		c-0.1-1.6,0.1-3.7,1.6-4.2c0.6-0.2,1.4-0.1,2,0c3.4,0.6,7.1,1,10.6,0.6c9.8-0.5,19.6-1.1,29.4-1.6c-0.7,0.9-0.8,2.2-0.8,3.3
		c0,3.3,0.6,6.5,1.3,9.7c2.6,12.3,5.4,24.8,11.5,35.7c1.8,3.1,3.8,6.1,5.1,9.4c0.6,1.4,0.7,2.8,1,4.3c0.4,1.6,1.6,3.2,2.4,4.7
		c2.9,5.5,5.9,11.1,8,16.9C681.2,921.9,682.5,930.7,681.9,939.4z"/>
	<path class="st1" d="M787.1,1053.6c0,0.1,0,0.1,0,0.2c-0.1,0.6-0.6,1.1-1.2,1c-0.2,0-0.5-0.2-0.6-0.4c-0.7-0.6-1.4-1.1-2.1-1.8
		c-0.8-0.8-1.6-1.7-2.3-2.6c-0.6-0.7-5.6-5.8-4.1-6.8c0.9-0.6,5.5,5,6.2,5.8c0.7,0.8,1.3,1.6,2.1,2.2c0.4,0.4,0.9,0.7,1.3,1.1
		C786.9,1052.6,787.1,1053.1,787.1,1053.6z"/>
	<path class="st1" d="M790.4,1043.3c-0.7-0.7-1.4-1.4-1.8-2.1C789.2,1041.7,789.8,1042.5,790.4,1043.3z"/>
	<path class="st1" d="M802.9,1056c-1.5-1.4-3.1-2.8-4.6-4.1c-1.9-1.7-3.7-3.3-5.4-5.1c-0.9-1-1.7-2.3-2.6-3.5
		c0.6,0.5,1.2,1.1,1.7,1.5c2,1.8,4.7,2.9,6.9,4.4C801.3,1050.8,803.3,1053.3,802.9,1056z"/>
	<path class="st1" d="M802.7,1045.3c-0.5-0.1-0.9-0.5-1.3-0.9c-3.1-3.3-6-6.8-8.5-10.5c-0.4-0.6-1.5-1.8-1-2.7
		c0.6-0.9,1.8-0.4,2.3,0.3c0.6,0.7,0.8,1.5,1.1,2.3c1.3,3.2,4.1,5.6,6.2,8.3C802.3,1043.1,803,1044.2,802.7,1045.3z"/>
	<path class="st1" d="M813.6,1063.3L813.6,1063.3c-0.1,0.8-1,1-1.6,1c-0.5,0-1.1,0-1.6-0.1c-0.2,0-0.4-0.1-0.5-0.2
		c-0.2-0.1-0.2-0.4-0.3-0.5c-0.5-1.3-1.7-2.3-2.3-3.6c-0.7-1.3-0.8-2.7-1.4-4c-0.3-0.7-0.8-1.3-0.8-2c0.3,0,0.6,0.2,0.8,0.4
		c0.1,0.1,0.2,0.3,0.3,0.4c0.2,0.2,0.3,0.3,0.5,0.4c0.6,0.4,1,0.9,1.5,1.4c0.6-0.1,1.2,1.7,1.5,2.2c0.8,1.5,1.8,2.5,3.1,3.4
		C813.1,1062.5,813.6,1062.8,813.6,1063.3z"/>
	<path class="st1" d="M813.4,1054.4c-1.1-1.6-2.2-3.1-3.3-4.7c-0.7-1-1.5-2.1-1.8-3.3c-0.2-0.8-0.4-4.8,1.3-3
		c0.3,0.3,0.4,0.7,0.6,1.1c0.9,2.7,2,5.4,3.1,8.1C813.5,1053.1,813.8,1053.8,813.4,1054.4z"/>
	<path class="st1" d="M805.3,1018.7c0,0.5-0.5,0.9-1,1s-1.1-0.2-1.5-0.5c-0.9-0.7-1.4-1.8-2.1-2.7c-1.2-1.5-3-2.6-4.6-3.7
		c-0.6-0.4-1.7-1.2-1.7-1.9c0-0.9,1.1-0.8,1.7-0.5c0.6,0.2,1,0.6,1.5,1c2.4,2.1,4.8,4.3,7.1,6.5
		C804.9,1018.1,805.2,1018.4,805.3,1018.7C805.3,1018.6,805.3,1018.7,805.3,1018.7z"/>
	<path class="st1" d="M672.9,1007.1c0,0.3-0.2,0.7-0.4,1c-2.3,3.1-3.3,7-6,9.7c-0.2,0.2-0.5,0.4-0.8,0.5c-0.3,0-0.7-0.2-0.6-0.5
		c0-0.2,0.2-0.3,0.3-0.5c1.9-1.7,2.8-4.2,3.9-6.5c0.5-1.2,1.1-2.3,1.9-3.3c0.3-0.4,0.8-1.1,1.4-0.9
		C672.8,1006.7,672.9,1006.9,672.9,1007.1z"/>
	<path class="st1" d="M685.9,1015.2c0,0.5-0.5,1.4-0.7,1.7c-1,2.1-2.2,4-3.6,5.8c-0.2,0.3-0.5,0.6-0.8,0.7c-0.6,0.1-1.2-0.4-1.8-0.2
		c-0.3,0.1-0.5,0.5-0.7,0.8c-0.2,0.3-0.7,0.4-0.9,0c-0.1-0.3,0.1-0.5,0.3-0.8c1.6-1.6,3.2-3.3,4.8-4.9c0.5-0.5,0.9-0.9,1.3-1.5
		c0.4-0.5,1-2.2,1.8-2.1C685.8,1014.8,685.9,1014.9,685.9,1015.2z"/>
	<path class="st1" d="M690.6,1023c0,0.8-0.3,1.8-0.5,2.1c-0.4,0.6-1.2,0.9-1.6,1.5c-0.6,0.8-0.5,2-0.8,3c-0.3,0.8-0.9,1.4-1.6,1.8
		c-0.4,0.2-0.8,0.3-1.2,0.1c-0.6-0.3-0.7-1.1-0.7-1.8c0-0.8,0.1-1.6,0.4-2.3c0.5-0.9,1.4-1.4,2.1-2.2c1-1,1.7-2.8,3-3.3
		C690.3,1021.7,690.6,1022.3,690.6,1023z"/>
	<path class="st1" d="M728.5,1034.7c0,0.2,0,0.3-0.1,0.4c-0.1,0.1-0.3,0.2-0.4,0.3c-0.4,0.2-0.8,0.4-1.2,0.5c-0.7,0.3-1.5,0.6-2,0
		c-0.3-0.3-0.3-0.7-0.4-1.1c-0.2-0.6-0.7-1-0.9-1.6s-0.1-1.2,0-1.8c0.4-2.3,0.9-4.6,1.3-6.9c0.1-0.8,0.3-2.2,1.2-2.6
		c0.9-0.5,1.4,0.5,1.4,1.3c0.1,1.3,0.2,2.7,0.2,4c0,0.9,0.1,1.8,0.2,2.7C728.1,1031.6,728.7,1033.1,728.5,1034.7z"/>
	<path class="st1" d="M744.2,1034c0,0.8-0.4,1.6-0.9,2.2c-0.6,0.7-1.3,1.2-2.1,1.7c-0.4,0.3-0.8,0.5-1.2,0.6c-0.5,0.1-1,0-1.3-0.3
		c-0.2-0.2-0.2-0.5-0.4-0.7c-0.5-0.7-1.6-0.6-2.2-1.1c-1-0.7-0.2-1.6,0.1-2.5c0.2-0.7,0.4-2,1.2-2.4c0.9-0.5,1.1,0.9,1.3,1.5
		c0.2,1,0.4,2.1,1.3,2.7c0.3,0.2,0.8,0.3,1,0c0.3-0.3,0.1-0.8,0.2-1.3c0.1-0.6,0.6-1,0.7-1.6c0.1-0.4,0-0.8-0.2-1.1
		c-1.4-4.8-1.7-9.9-1-14.9c0.8,1,0.6,2.5,0.8,3.9c0.1,1.3,0.5,2.6,0.7,3.9c0.3,2.2,0,4.7,1,6.7c0.4,0.8,0.9,1.4,1,2.2
		C744.2,1033.7,744.2,1033.9,744.2,1034z"/>
	<path class="st1" d="M702.6,1022.6c-0.2,0.6-0.8,1.1-1.3,1.6c-0.6,0.6-1.1,1.4-1.8,1.9c-0.7,0.6-1.7,0.9-2.5,1.5
		c-0.9,0.5-1.6,1.3-2.1,2.2c-0.1,0.2-0.2,0.4-0.4,0.5s-0.4,0.1-0.5-0.1c-0.1-0.1-0.1-0.2,0-0.3c0.1-0.9,0.8-1.7,1.5-2.3
		s1.6-1,2.4-1.5c1.2-0.9,2.2-2.2,3-3.5c0.3-0.5,0.6-1.5,1.2-1.4C702.6,1021.3,702.8,1022.1,702.6,1022.6z"/>
	<path class="st1" d="M909.1,985.9L909.1,985.9c2.9-0.9,5.3-2.7,8.1-3.9c2.7-1.1,5.5-1.5,8.4-1.9c24.6-3.2,49.8-2.2,74.1,2.9
		c2.2,0.5,4.4,1,6.1,2.3c1.5-0.5,3.3-1.8,2.6-3.2c-0.2-0.4-0.5-0.7-0.9-0.9c-3.5-2.5-7.7-3.9-11.8-5c-3.7-1-7.4-1.9-11.2-2.3
		c-6-0.7-12.1-1.1-18.2-1.2c-11.5-0.2-23,0.6-34.4,1.5c-2.3,0.2-4.6,0.3-6.9,0.5c-8.2,0.6-15.7,4.9-23.1,8.3
		c-0.8,0.4-1.6,0.7-2.2,1.3c-0.1,0.2-0.2,0.4-0.4,0.6C902.2,986.4,905.8,986.8,909.1,985.9z"/>
	<path class="st1" d="M1012.3,987.6c-0.1-0.1-0.2-0.2-0.3-0.4l-0.1-0.1c0,0-0.1,0-0.1-0.1c-1.3-0.8-2.9,0.5-4,1.5
		c-7.9,7.5-19.6,8.7-30.4,9.5c-4.4,0.3-8.9,0.7-13.3,0.8c-22.5,0.4-44.6-5.7-66.3-11.8c-0.8-0.2-1.8-0.4-2.5,0.1
		c-0.1,0.1-0.3,0.2-0.3,0.4c0,0.1,0,0.2,0,0.2v0.1c0,0.1,0.1,0.1,0.2,0.1l0,0c-0.1,0.1-0.1,0.2-0.1,0.4v0.4c0,0.4,0.1,0.9,0.4,1.3
		c0.1,0.2,0.3,0.4,0.4,0.5c0.1,0.1,0.2,0.2,0.4,0.3c0.3,0.2,0.6,0.4,1,0.6c0.1,0,0.2,0.1,0.3,0.1c4.3,1.8,9.2,2.7,13.7,3.8
		c5.1,1.2,10.2,2.2,15.3,3.1c10.3,1.8,20.7,2.9,31.1,3.5c4.7,0.2,9.4,0.3,14.1,0.3c13.7-0.1,28.2-1.6,38.8-10.2
		c0.8-0.6,1.6-1.3,1.9-2.3c0-0.1,0.1-0.3,0.1-0.4C1012.7,988.7,1012.6,988.1,1012.3,987.6z"/>
	<path class="st1" d="M1004.1,1009.2L1004.1,1009.2c-1.3,1.3-2.6,2.6-3.6,4.2c-0.7,1.2-1.2,2.5-2,3.6c-2.5,3.5-8,4.4-11.5,1.9
		c-2-1.4-3.9-3.8-6.2-3.1c-0.9,0.3-1.7,1.1-2.6,1.3c-0.8,0.2-1.7-0.1-2.5-0.4c-2.5-0.8-5.1-1.5-7.8-1.9c-0.7-0.1-1.5-0.2-2.2,0.1
		c-0.8,0.3-1.3,1-1.7,1.7c-3.9,6.6-3.8,14.7-3.5,22.4c0.2,4.1-0.1,9-3.6,11s-8.2-0.7-9.9-4.3s-1.4-7.9-1.3-11.9
		c0.3-6.8,0-13.7-2.6-20c-0.4-1.1-1.2-2.3-2.4-2.2c-0.9,0.1-1.5,1-1.9,1.7c-1.6,2.5-3.9,4.8-6.8,5.6c-3.2,1-5.8-0.3-7.2-3.5
		c-1.1-2.4-1.3-5-2.1-7.5c-0.1-0.4-0.3-0.8-0.6-1.1c-0.4-0.4-0.9-0.5-1.3-0.7c-2.6-1.4-1.3-5.5-3.8-6.2c-0.2,0-0.4-0.1-0.5-0.1
		c-3-0.7-6-1.4-9-2.2c-3.1-0.8-5.7-2.5-8.7-3.3c-0.7-0.2-1.6-0.1-2.1,0.5c-0.5,0.5-0.5,1.2-0.6,1.9c0,1.9,0.4,3.7,0.3,5.6
		c0,2.1-0.2,4.2-0.4,6.2c-0.4,4.1-0.9,8.1-1.2,12.2c-0.6,10.8,1,21.6,2.6,32.3c0.1,0.6,0.2,1.2,0.5,1.7c0.4,0.6,1.1,0.9,1.7,1.2
		c15.8,7,33.4,8.6,50.7,9c19.5,0.5,39.4-0.4,57.9-6.7c1.6-0.5,3.2-1.2,4.4-2.4c1.8-1.9,1.9-4.7,1.9-7.3c0.2-16.4-0.1-32.8-0.9-49.1
		C1010.5,1002.7,1007.3,1005.9,1004.1,1009.2z"/>
	<path class="st1" d="M1048.7,1000.6L1048.7,1000.6c0.7-0.2,1.1-1,1.6-1.5c0.8-0.8,2-1,3.1-1.2c7.8-1.1,15.6-1.4,23.4-0.9
		c0.8,0,1.6,0.1,2.2-0.4c0.3-0.2,0.6-0.6,0.8-1c0.6-1,1.2-2,1.7-3c0.1-0.1,0.2-0.3,0.1-0.5c0-0.3-0.4-0.4-0.6-0.4
		c-5.6-1.2-11.3-1-17-0.8c-2.6,0.1-5.1,0.2-7.7,0.2c-2.2,0.1-4.4,0.2-6.4,0.9c-1.5,0.6-3.9,2.2-4.3,4
		C1045.3,997.5,1047,1001,1048.7,1000.6z"/>
	<path class="st1" d="M1086.2,1002.5L1086.2,1002.5c0.4,0.1,0.8,0.1,1.2,0c0.6-0.1,1.1-0.6,1.5-1c5.4-5.3,9.4-11.8,13.4-18.2
		c2.1-3.3,4.1-6.6,6.3-9.8c2-3,4.1-6.5,6.7-9.1c1.8-2.1,3.6-4.2,5.1-6.4c1.8-2.6,3.1-5.5,4.8-8.1c3.1-4.9,7.2-9,11.2-13.2
		c0.4-0.4,0.8-1,0.6-1.5c-0.1-0.2-0.4-0.4-0.6-0.5c-1.3-0.7-2.5-1.3-3.8-2c-0.2-0.1-0.4-0.2-0.7-0.2c-0.3,0-0.6,0.2-0.8,0.4
		c-4.3,3.7-8.3,7.9-11.6,12.5c-2.3,3.2-4.4,6.6-6.8,9.8c-2.5,3.4-5.3,6.5-7.8,9.8c-2.1,2.7-4,5.5-5.9,8.3s-3.9,5.7-5.8,8.5
		c-3.5,5.1-7.2,10.2-10.6,15.4c-0.9,1.4-2.2,2.5-2.9,4C1081.8,1001.8,1084,1002.1,1086.2,1002.5z"/>
	<path class="st1" d="M1097.3,995.5L1097.3,995.5c-0.4,0.4-1.5,3.7-1.4,3.7c2.2-0.4,4.7-0.7,6.6,0.4c1,0.6,1.8,1.5,2.9,1.9
		s2.4,0.1,3.6-0.2c1-0.2,2.1-0.7,2.3-1.7c0.2-0.9-0.6-1.7-1.3-2.2c-2.7-1.9-6.1-2.3-9.3-2.6C1099.4,994.8,1098.2,994.5,1097.3,995.5
		z"/>
	<path class="st1" d="M1115.6,1004.5L1115.6,1004.5c0.2-1.1-1.2-1.9-2.3-1.8s-2,0.9-2.9,1.5c-4,2.6-9.2,2.5-14,2.3
		c-10-0.4-20.1-0.8-30.1-1.2c-4.7-0.2-9.4-0.4-14-1.2c-1.3-0.2-3.6-1.2-4.5,0.2c-0.9,1.5-0.5,5.1-0.7,6.8c0,0.4-0.1,0.8,0.1,1.2
		c0.2,0.3,0.6,0.5,0.9,0.7c1,0.4,2.1,0.7,3.2,1c2.9,0.8,5.8,1.7,8.7,2.5c16.4,4.2,33.5,5.3,50.3,4c1.4-0.1,2.8-0.2,3.9-1.1
		c1.1-0.9,1.6-2.3,1.7-3.7s-0.2-2.8-0.4-4.2C1115.3,1009.2,1115.3,1006.8,1115.6,1004.5z"/>
	<path class="st1" d="M1114,1023.2L1114,1023.2c-4.5,0.7-9.2,0.6-13.8,0.3c-2.4-0.2-4.8-0.3-7.2-0.5c-2.7-0.2-5.4-0.5-8-0.7
		c-7.5-0.6-15.1-1.3-22.5-2.7c-3.7-0.7-7.4-1.7-11-2.9c-3-1-4.5,0-5.1,3.2c-0.8,4.3-0.9,8.9-1.1,13.3c0,0.9-0.1,1.8,0.2,2.6
		c0.9,2.5,4,3.3,6.7,3.6c20.3,2.7,40.7,5.5,61.2,6.1c0.5,0,0.9,0,1.3-0.3c0.5-0.4,0.5-1.1,0.5-1.7c0-6.5,0-12.9,0.1-19.3
		c0-0.3,0-0.7-0.2-0.9C1114.7,1023.1,1114.3,1023.1,1114,1023.2z"/>
	<path class="st1" d="M1104.3,1048.2L1104.3,1048.2c-4.2,0.2-8.4,0.1-12.6-0.1c-5.3-0.3-10.7-0.8-15.9-1.6c-2.6-0.4-5.2-0.9-7.7-1.4
		c-2.1-0.4-4.2-0.2-6.3-0.4c-2.2-0.2-4.4-0.5-6.6-1c-1.9-0.4-4.2-1.8-6.2-1.8c-3.6-0.1-2.6,7.8-2.5,9.9c0,0.3,0,0.6,0.2,0.9
		c0.2,0.5,0.7,0.7,1.2,0.9c3.3,1.5,6.9,2,10.4,2.5c17.1,2.4,34.3,3.5,51.5,3.3c1.1,0,2.2-0.1,3.1-0.8c0.9-0.7,1.1-2,1.2-3.1
		c0.4-2.8,0.7-5.6,1.1-8.4C1114.9,1048.3,1105.5,1048.1,1104.3,1048.2z"/>
	<path class="st1" d="M1165.5,1054.9L1165.5,1054.9c-5.7,0.3-11.4-0.3-17-1.1c-3.6-0.5-7.2-1-10.7-2.1c-1.7-0.5-3.4-1.2-5.1-2
		c-0.9-0.4-3.9-2.6-3.1,0c0.2,0.7,0.8,1.3,1.4,1.8c3.8,3,8.7,4.3,13.5,5.2c10.4,2,21.1,3,31.7,2c1.4-0.1,2.7-0.3,4-0.9
		c2-0.9,3.6-2.8,4.1-4.9c-4.2,0.5-8.4,0.9-12.6,1.4C1169.7,1054.5,1167.6,1054.8,1165.5,1054.9z"/>
	<path class="st1" d="M1142.6,1049L1142.6,1049c5.1,1.1,10.2,2,15.4,2.4c7.1,0.5,14.4,0.1,21.2-2.2c0.3-0.1,0.6-0.3,0.6-0.6
		c0-0.2-0.1-0.3-0.2-0.4c-2.3-2.2-5.5-3.2-8.6-4c-3.4-0.9-6.7-1.8-10.2-2c-1.6-0.1-3.2,0-4.7,0.1l-6.5,0.3c-1.6,0.1-3.2,0.2-4.8,0.4
		c-1.7,0.3-3.4,0.8-5,1.3c-1.1,0.3-5.5,1.1-4.2,2.7C1136.6,1048.4,1141.1,1048.6,1142.6,1049z"/>
	<path class="st1" d="M484.1,541.8c-0.1-0.9-0.2-1.9-0.3-2.8c-0.5-3-1.6-6-2.7-8.8c-0.4-1-0.9-2-1.3-3c-1.2-2.4-2.5-4.6-4.2-6.6
		c-1.2-1.5-2.5-2.9-3.9-4.1c-2.3-2.1-4.9-3.8-7.8-4.9c-4.5-1.7-9.4-2-14.2-1.3c-2.4,0.4-4.8,1-7,1.8c-1,0.4-1.8,1-2.8,1.4
		c-1.1,0.5-2.3,0.9-3.5,1.3c-1.6,0.6-3.2,1.2-4.8,2c-0.4,0.2-0.8,0.5-1.2,0.7c-0.4,0.3-0.8,0.5-1.2,0.8c-4.9,3.5-8.4,8.8-11.1,14.2
		c-1.5,3-3,6.1-3.5,9.5c-0.5,3.2-0.1,6.4,0.4,9.6c0.6,4,1.4,7.9,3.3,11.5c1.1,2,2.5,3.8,4,5.5c2.5,2.8,5.5,5.4,8.9,7
		c4.5,2,9.3,2.1,14.1,1.8c2.1-0.1,4.2-0.4,6.2-0.7c2.8-0.4,5.6-1,8.3-1.9c2.7-0.8,5.4-1.8,8-3c1.4-0.7,2.8-1.2,3.9-2.3
		c1.8-1.8,3.3-3.7,4.8-5.7c1-1.3,1.9-2.7,2.7-4.1c1.6-2.7,3.6-5.8,4.1-8.9c0.2-1.4,0.7-2.7,0.8-4.2c0-0.3,0-0.7,0-1
		C484.3,544.2,484.2,543,484.1,541.8z M477.4,540.2c-0.1,1.8-0.4,3.4-0.8,5.1c-0.3,1.6-0.6,3.3-1,4.9c-0.6,2.1-1.5,3.9-2.7,5.8
		c-3.1,4.5-6.5,9.1-11.3,11.9c-1.6,1-3.4,1.7-5.2,2.4c-1,0.4-2,0.8-3,1.2c-1,0.4-2,0.7-3.1,0.9c-3.6,0.7-7.3,0.2-11-0.3
		c-2.3-0.3-4.7-0.6-6.9-1.6c-2.3-1.1-4.2-2.8-6-4.7c-2.4-2.5-4.5-5.3-5.7-8.6c-1.7-4.6-1.2-9.7-0.7-14.6c0.1-1.4,0.3-2.8,0.7-4.2
		c0.4-1.2,0.9-2.3,1.5-3.4c1.8-3.2,3.9-6.2,6.6-8.7c2.6-2.4,5.6-4.5,8.7-6.3c2.6-1.5,4.8-1.9,7.5-3.1c1.7-0.8,3.6-1.7,5.5-1.9
		c1.8-0.2,4-0.4,5.8,0c2.5,0.6,3.8,1.6,6.1,2.9c2.6,1.4,5,3.3,7.1,5.5c2.3,2.3,4.3,5,5.8,7.7c0.9,1.6,1.3,3.3,1.6,5.2
		C477.4,537.6,477.5,539,477.4,540.2z"/>
	<path class="st1" d="M430.4,517.4c-0.4,0.3-0.8,0.5-1.2,0.8l0,0C429.6,518,430,517.7,430.4,517.4z"/>
	<path class="st1" d="M473.7,536.5c-0.6-3-2.1-5.7-3.6-8.3c-0.3-0.6-0.7-1.2-1.1-1.8c-0.3-0.5-0.6-0.9-1-1.4c-1-1.2-2.4-2-3.7-2.9
		c-2.5-1.6-5-3.3-8-3.7c-2.1-0.3-4.3,0.1-6.4,0.5c-5.6,1.1-11.4,2.5-15.4,6.6c-1.2,1.2-2.2,2.4-3.5,3.4c-1.2,0.9-2.3,1.8-3.2,2.9
		c-2,2.5-3.2,5.5-4.3,8.5c-0.6,1.6-1.3,3.3-1.4,5.1c-0.1,1.9,0.4,3.8,0.8,5.6c0.4,1.5,0.8,3.1,1.2,4.7c0.3,1.3,0.7,2.7,1.3,3.9
		c0.8,1.6,2.2,3,3.5,4.3c1,1,2.1,2,3.4,2.8c1.2,0.7,2.7,1,4,1.4c2.3,0.6,4.7,1.3,7.1,1.7c2.4,0.4,4.9-0.2,7.3-0.9
		c1.4-0.4,2.8-0.8,4.2-1.2c0.2-0.1,0.4-0.1,0.6-0.2c2-0.5,4-1.1,5.8-2.2c2-1.3,3.6-3.3,5.2-5c0.6-0.7,1.3-1.3,1.8-2
		c0.4-0.6,0.8-1.2,1.1-1.9c2.1-3.9,3.4-8.2,4.1-12.6C474,541.3,474.1,538.9,473.7,536.5z M459.2,551.5c-1.5,1.7-3.5,2.9-5.5,4
		c-2.9,1.7-5.9,3.4-9.2,3.3c-2.2,0-4.4-0.9-6.3-2c-1.5-0.9-2.9-1.9-4-3.1c-0.5-0.6-1-1.2-1.2-1.9c-0.2-0.6-0.2-1.2-0.3-1.8
		c-0.2-2.4-0.4-4.8-0.2-7.1c0.1-1.6,0.4-3.1,1-4.6c0.4-1.2,1-1.8,1.8-2.7c0.9-1.1,1.5-2.1,2.6-3c1-0.8,2.1-1.5,3.3-1.9
		c2.7-1.1,5.7-1.3,8.6-1.1c0.5,0,1.1,0.1,1.3,0.6c0.1,0.2,0.1,0.5,0,0.7c-0.3,1-1.1,1.6-1.8,2.3c-1.1,1.2-2,2.6-2.8,3.9
		c-0.2,0.4-0.5,0.8-0.6,1.2c-0.2,0.6-0.2,1.2-0.2,1.8c0,0.6,0,1.3,0.2,1.9c0.2,0.6,0.7,1.2,1.3,1.3c0.4,0.1,0.8,0,1.1,0
		c0.9-0.1,1.8-0.3,2.5-0.8c1.3-0.8,1.8-2.5,1.9-4s-0.2-3.1-0.1-4.6c0-0.6,0.2-1.2,0.5-1.6c0.8-0.9,2.2-0.8,3.4-0.4
		c0.9,0.3,1.7,0.6,2.6,0.9c0.8,0.4,1.7,0.8,2.1,1.6c0.3,0.5,0.4,1,0.6,1.5c0.3,0.6,0.7,1.1,0.9,1.8c0.2,0.5,0.2,1.1,0.2,1.7
		C462.8,543.6,462.1,548.2,459.2,551.5z"/>
	<path class="st1" d="M523.2,666.2c-4.5,0.1-8.9-0.1-13.3-1.2c-1.1-0.3-4.9-0.2-6.1-0.3c-3.8-0.5-5,0.5-8.8,0.4c-0.9,0-2,0-2.4,0.7
		s0.1,1.6,0.4,2.4c0.5,1.2,0.4,2.6,0.4,4c-0.1,2.8-0.2,5.7-1.1,8.4c-0.4,1.2-1,2.3-1.4,3.6c-0.4,1.2-0.5,2.5-0.8,3.8
		c0,0,0,0.1,0,0.2c-0.2,0.7-0.8,1.6-1.5,1.3c-0.6-0.2-0.7-0.9-0.6-1.5c0-0.2,0-0.4,0.1-0.5c1.9-7.6,1.1-15.6,3-23.2
		c0.1-0.4,0.2-0.8,0.6-1.1c0.2-0.2,0.6-0.2,0.9-0.3c3.1-0.3,6.3-0.5,9.4-0.2c3.4,0.4,6.8,1,10.3,1.2c3.2,0.2,6.5,0,9.6,0.7
		c0.4,0.1,0.8,0.2,1.1,0.5S523.5,665.9,523.2,666.2z"/>
	<path class="st1" d="M673.6,357.3c0,14.2-0.2,24.5-0.5,31.1c-0.3,6.6-1.1,10.9-2.4,13c-1.3,2.1-3.5,3.1-6.6,3.1h-60.5v47.8
		c-17.4-3.5-35-5.9-52.8-7.1c0,0-0.1,0-0.1,0v-78.5c1.9-6.3,5-9.4,9.4-9.4H673.6z"/>
	<path class="st1" d="M707.3,513.8c-3-0.2-5.8-1-8.6-1.9c-12.7-3.8-25.5-7.7-37.8-12.5v0.1c-0.5-0.2-0.9-0.3-1.4-0.5
		c-4.7-1.8-9.3-3.8-14-5.7c-4.7-1.9-9.5-3.6-14.4-5c-2.3-0.6-4.7-1-7-1.7c-1.7-0.5-3.4-1.2-5.2-1.8h-0.1c-0.1,0-0.2-0.1-0.3-0.1
		c-4.9-1.7-9.7-3.5-14.4-5.5c-0.1,0-0.2-0.1-0.3-0.1c-4.6-2-9.1-4.1-13.6-6.5c-0.6-0.3-1.1-0.6-1.7-0.9c5.1,0.6,10.2,1.4,15.2,2.3
		c11.5,2,22.8,4.7,34,7.9c3.3,0.8,6.6,1.8,9.8,2.9h0.1c0.3,0.1,0.6,0.2,1,0.3c3.6,1.3,7,2.9,10.5,4.4c0.5,0.3,1.1,0.6,1.8,0.9v-0.1
		c5.7,2.5,11.4,5.1,17,7.6c6.3,2.8,12.6,5.7,18.6,9C700.2,509.1,703.8,511.4,707.3,513.8z"/>
	<path class="st1" d="M638.4,511.4c-3.2-0.1-6.3-0.2-9.5-0.3c-1.3,0-2.6-0.1-3.8-0.3c-2.4-0.5-4.6-1.8-6.9-2.5
		c-1.8-0.6-3.6-0.9-5.4-1.4c-1.6-0.4-3.1-1-4.7-1.5c-0.6,0-1.4-0.5-1.9-0.7c-0.7-0.2-1.4-0.5-2-0.7c-1.3-0.5-2.5-1-3.8-1.4
		c-2.1-0.7-4-1.9-6.3-2.3c-1.6-0.3-3.5-0.5-4.5-1.8c-0.2-0.3-0.3-0.8,0-1c0.1-0.1,0.3-0.1,0.5-0.1c4.6,0.1,9.2,0.3,13.7,1.1
		c11.3,2.1,21.5,8,32.5,11.3C637.2,510,638.3,510.4,638.4,511.4z"/>
	<path class="st1" d="M603.7,584.1L603.7,584.1L603.7,584.1z"/>
	<path class="st1" d="M697.7,622.7c-0.6,0.9-1.2,1.8-1.7,2.7c1.4-0.1,2.7-0.4,4-0.8C699.2,624,698.4,623.4,697.7,622.7z"/>
	<path class="st1" d="M758.4,635.7L758.4,635.7L758.4,635.7z"/>
	<path class="st1" d="M735.5,613.3c-1.6-0.1-3,0.4-4.5,0.8c1.5,0.3,3,0.3,4.6,0.3c2.7,0.1,5.4,0.4,8.1,0.8c2.3,0.3,4.7,0.6,7,0.9
		c0.8,0.1,1.5,0.2,2.2,0.5c0.8,0.3,1.5,1,2.1,1.6c1.4,1.3,2.8,2.6,4.2,3.9c0.1,0.1,0.2,0.2,0.2,0.3c0,0.2-0.1,0.3-0.3,0.4
		c-2.3,1.6-5,3.3-7.8,2.9c-2.4-0.3-4.7-2.2-7.1-1.7c-0.4,0.5,0.2,1.2,0.8,1.6c1.3,0.8,2.7,1.5,4.1,2c1.8,0.7,3.8,1.1,5.4,2.3
		c1.3,0.9,2.2,2.2,3.1,3.5c0.5,0.7,1,1.6,0.8,2.3c0,0.2-0.1,0.3-0.2,0.5c-0.5,0.7-1.4,0.6-2.3,0.3c-0.3-0.1-0.5-0.2-0.8-0.3
		c-11.7-5.3-23.4-10.7-35.1-16c-0.1,0-0.2-0.1-0.3-0.2c-0.2-0.2-0.1-0.5,0.1-0.8c1.5-3.2,2-6.9,1.5-10.5c-0.2-1.8-0.7-3.5-1.4-5.2
		c-0.3-0.8-0.7-1.3-1.3-2c-0.6-0.7-0.9-1.5-0.7-2.4c0.1-0.3,0.2-0.6,0.4-0.7c0.5-0.3,1.4-0.4,2-0.6c0.9-0.3,1.8-0.5,2.7-0.8
		c1.8-0.6,3.5-1.2,5.2-2c3.4-1.4,6.6-3.1,9.7-5.1c1.3-0.8,2.5-1.7,4-1.9c-0.3,1.3-0.6,2.6-0.9,3.9c-0.1,0.3-0.2,0.7-0.3,1
		c-0.2,0.4-0.5,0.6-0.9,0.9c-1.1,0.9-2.2,1.7-3.2,2.6c-0.1,0.1-0.3,0.3-0.3,0.5c0,0.3,0.5,0.3,0.7,0.2c2-0.6,3.8-1.9,5.9-2.3
		c2.1-0.4,4.3,0.2,6.3,0.8c0.3,0.1,0.5,0.2,0.7,0.4c0.3,0.3,0.2,0.9-0.1,1.3c-0.3,0.4-0.6,0.6-1,1c-0.4,0.5-0.7,1.1-0.8,1.7
		c0,0.4,0,0.7-0.2,1.1c-0.3,0.8-1.4,1-2.3,1.1c-5.2,0.4-10.2,1.7-15,3.7c1.3,0.6,2.9-0.1,4.3-0.5c4.3-1.3,9-0.1,13.4-0.7
		c0.8-0.1,1.7-0.3,2.5-0.4h0.5c0.4,0.2,0.3,0.7,0,1.1c-0.3,0.4-0.6,0.6-0.7,1c-0.2,0.7,0.5,1.3,1.3,1.4c0.7,0.1,1.4-0.2,2.1-0.2
		c0.9,0,1.7,0.4,2.5,0.9c1,0.5,2.1,1.1,3.1,1.6c0.4,0.2,0.5,0.3,0.5,0.5c0,0.2-0.1,0.3-0.2,0.4c-1.2,0.9-2.3,1.8-3.5,2.7
		c-0.3,0.2-0.5,0.4-0.9,0.4c-0.5,0-0.8-0.4-1.2-0.7c-0.7-0.5-1.6-0.6-2.5-0.7c-3.6-0.2-7.2,0.3-10.8,0.5
		C739.1,613.3,737.3,613.5,735.5,613.3z"/>
	<path class="st1" d="M704.7,627.8L704.7,627.8L704.7,627.8z"/>
	<path class="st1" d="M801.1,729.9c0,4,0,8.2-1.6,11.9c-1,2.5-2.7,4.7-4.8,6.4c-0.5,0.4-1,0.7-1.6,0.6c-0.8-0.1-1.2-1-1.5-1.7
		c-2.3-5.8-4.7-11.5-7-17.2c-1.4-3.4-2.8-6.8-4.7-10c-1.8-3-3.8-5.6-4.4-9.1c-0.3-1.7-1.6-3.6-2.3-5.1c-0.9-1.7-1.8-3.4-2.9-4.9
		c-0.8-1.2-1.7-2.3-2.5-3.6c-0.5-0.8-1-1.7-1.5-2.6c-0.5-1-1.1-1.9-1.6-2.9c-0.1-0.1-0.1-0.2-0.2-0.4c-0.5-1-1-2.2-1.7-3.1
		c-1.3-1.7-3.1-3.1-4.5-4.7c-0.4-0.5-0.8-1-1-1.5c-0.3-0.8-0.3-1.6-0.2-2.4c0.2-4,0.8-8.1,0.9-12.1c0.1-2.1,0-4.2,0-6.2
		c0-0.9,0-2,0.2-2.9c0.2-0.7,0.4-1.2,0.4-2c0-2-0.2-3.9-0.3-5.9c-0.2-3.2-0.5-6.4-0.6-9.6c0-0.2,0-0.4,0.1-0.6
		c0.1-0.3,0.5-0.5,0.8-0.7c1-0.6,2-1.3,2.8-2.2c0.3-0.3,0.6-0.7,0.7-1.1c0-0.4-0.1-0.8-0.2-1.2c-0.1-0.2-0.2-0.4-0.2-0.6
		c0,0,0-0.1,0-0.1c-0.9-2.2-2-4.1-3.4-6.1c-0.1-0.2-0.3-0.4-0.3-0.6c0-0.6,0.6-0.9,1.1-1.1c1.8-0.8,3.5-1.8,5-2.9
		c0.2-0.1,0.4-0.3,0.3-0.5c0-0.1-0.1-0.1-0.2-0.2c-1.9-1.1-3.3-2.8-4.7-4.6c-0.5-0.7-1.2-1.1-1-2.1c0.1-0.5,0.5-0.9,0.8-1.3
		c1.7-1.9,4.2-0.3,5.8,0.9c2.7,1.9,5.2,4.1,7.5,6.4c0,0,0,0,0,0c5,5,9.4,10.7,12.8,16.8c0.9,1.6,1.2,3.2,1.7,4.9
		c0.6,1.8,1.4,3.6,2.1,5.3c1,2.6,1.9,5.4,2.7,8.1c2.4,7.9,4.5,15.8,6.5,23.7v0.1c0.4,1.4,0.7,2.8,0.7,4.2c0,1.3,0.4,2.5,0.5,3.8
		c0.4,2.8,0.5,5.6,0.7,8.4C800.6,708.5,801,719.2,801.1,729.9z"/>
	<path class="st1" d="M761.7,634.5C761.7,634.4,761.7,634.4,761.7,634.5L761.7,634.5C761.7,634.4,761.7,634.4,761.7,634.5z"/>
	<path class="st1" d="M788.4,510.9c2.1,0.3,4.4-0.1,6.5-0.8l0,0l0,0c2-0.6,3.9-1.5,5.4-2.6c1.9-1.3,3.1-2.9,0.7-3.8
		c-1.9-0.7-4.4-0.9-6.3-1.2c-1.9-0.3-4-0.6-5.7,0.1l0,0c-0.6,0.2-1.1,0.6-1.6,1C784.9,506.1,784.1,510.4,788.4,510.9z"/>
	<path class="st1" d="M805.3,538.1c-3.9-1.8-7.6-1.3-10.7,1.7c-1.1,1.1-2.2,2.4-2,3.9c0.2,1,1,1.9,2,2.3c1,0.5,2,0.6,3.1,0.7
		c0.8,0.1,1.7,0.2,2.5,0.1c1-0.1,1.9-0.6,2.8-1.1c1.9-1.2,3.6-3.2,3.6-5.6l0,0c0-0.6-0.1-1.1-0.5-1.5
		C805.8,538.4,805.6,538.3,805.3,538.1z"/>
	<path class="st1" d="M874.4,494.2L874.4,494.2l43,57.6c8.2,10.7,13.8,19.7,16.8,26.9s4.5,15,4.5,23.2c0,11-2.5,19.8-7.6,26.5
		c-5,6.6-14,9.9-26.9,9.9c-8.5,0-16.7-1.5-24.6-4.5c-7.9-3-14.3-6.7-19.4-11.1c-4.1,6-7.1,12.5-9,19.6c-1.9,7.1-2.8,13.3-2.8,18.7
		c0,8.2,5,15.5,15.1,22s25.7,9.7,46.8,9.7c23,0,40.6-4.4,52.9-13.2c12.3-8.8,20.9-20.2,25.8-34.2c4.9-14,7.3-28.9,7.3-44.7
		c0-13.5-1.9-26.1-5.7-37.8s-11.3-24.7-22.7-39.2l-45.3-58.1c-6-8.5-10.3-15.8-13-22c-2.7-6.1-4-12.8-4-20.1
		c0-8.2,3.3-14.2,9.9-18.2c6.6-3.9,15.8-5.9,27.4-5.9c9.1,0,17.6,1.1,25.5,3.3c7.9,2.2,13.1,4.2,15.6,6.1c4.4-5,7.6-10.2,9.5-15.4
		c1.9-5.2,2.8-10,2.8-14.4c0-8.2-4.7-14.7-14.2-19.4c-9.4-4.6-26.1-7-50.1-7c-27.7,0-48.7,6.7-62.8,20.1
		c-14.2,13.4-21.3,30.8-21.3,52.2c0,10.4,1.7,21,5.2,31.6C856.6,467.2,863.7,479.8,874.4,494.2z"/>
	<path class="st1" d="M1134.2,685.3L1134.2,685.3c1.3-1.7,2-5.9,2.4-12.5c0.3-6.6,0.5-17.3,0.5-32.1h-66.6V533h48.2
		c4.4,0,7-3.1,7.8-9.2c0.8-6.2,1.2-19.2,1.2-39h-57.2v-80.3h60.5c3.2,0,5.3-1,6.6-3.1c1.2-2,2-6.4,2.4-13c0.3-6.6,0.5-17,0.5-31.2
		H1027c-4.4,0-7.5,3.2-9.4,9.4v321.3h110.1C1130.8,687.9,1133,687.1,1134.2,685.3z"/>
	<g>
		<path class="st1" d="M488.9,534.1c-1-3.2-2.6-6.1-4.3-9c-1.4-2.4-3-4.8-4.7-7.1l0,0c-0.7-0.9-1.4-1.8-3.3-3.8
			c-0.4-0.4-0.8-0.8-1.2-1.2c-1-0.9-2-1.7-3-2.5c-0.2,0.8-0.4,1.6-0.6,2.3c0.7,0.5,1.3,1,2,1.5c0.7,0.6,1.4,1.1,2.1,1.7
			c0.1,0.1,0.2,0.2,0.3,0.3c0,0,0.1,0.1,0.1,0.2c0,0.1,0.1,0.1,0.2,0.2l0,0c0.3,0.4,0.6,0.8,0.9,1.2c0.1,0.2,0.3,0.4,0.4,0.7
			c0.1,0.2,0.3,0.4,0.4,0.7c0.2,0.4,0.5,0.8,0.7,1.2c0.2,0.4,0.5,0.8,0.7,1.2c1.3,2.2,2.5,4.5,3.7,6.8c0.6,1.1,1.2,2.2,1.6,3.4
			c0.4,1.3,0.6,2.7,0.8,4.1c0.5,3.6,1,7.2,0.9,10.9c0,0.3,0,0.6,0.2,0.7c0.2,0.1,0.5-0.1,0.6-0.2c1-0.9,1.6-2.2,1.9-3.4
			C490.2,540.8,489.9,537.3,488.9,534.1z"/>
		<path class="st1" d="M468.8,507.9c-1-0.7-2-1.4-3.2-1.8c-1.9-0.7-4-0.5-6-0.4c-0.6,0-1.4,0.2-0.6,0.7c0.5,0.3,1.4,0.4,2,0.5
			c1.3,0.4,2.6,0.9,3.9,1.5c2.5,1.2,4.7,2.7,6.9,4.4c0.2-0.8,0.4-1.5,0.6-2.3C471.2,509.6,470,508.8,468.8,507.9z"/>
	</g>
</g>
</svg>
